<?xml version="1.0" encoding="UTF-8"?>
<svg version="1.1" xmlns="http://www.w3.org/2000/svg" width="192" height="192">
<path d="M0 0 C63.36 0 126.72 0 192 0 C192 63.36 192 126.72 192 192 C128.64 192 65.28 192 0 192 C0 128.64 0 65.28 0 0 Z " fill="#FEFEFE" transform="translate(0,0)"/>
<path d="M0 0 C-0.33 0.66 -0.66 1.32 -1 2 C-1.66 2 -2.32 2 -3 2 C-4.12516085 3.83284443 -4.12516085 3.83284443 -5 6 C-4.67 6.99 -4.34 7.98 -4 9 C-7.75 12 -7.75 12 -10 12 C-10.3403125 12.8353125 -10.3403125 12.8353125 -10.6875 13.6875 C-12.35302319 16.62199324 -14.62221176 18.62221176 -17 21 C-17.33 21.99 -17.66 22.98 -18 24 C-17.34 24 -16.68 24 -16 24 C-16.33 25.32 -16.66 26.64 -17 28 C-14.36 28.33 -11.72 28.66 -9 29 C-7.8933402 32.31997939 -7.79759728 34.94306627 -7.75 38.4375 C-7.71132813 40.13712891 -7.71132813 40.13712891 -7.671875 41.87109375 C-8.0307794 45.29350352 -8.50073492 46.66360837 -11 49 C-12.97265625 49.50390625 -12.97265625 49.50390625 -15.0625 49.5625 C-16.361875 49.706875 -17.66125 49.85125 -19 50 C-19.66 50.99 -20.32 51.98 -21 53 C-21.66 53 -22.32 53 -23 53 C-23.495 57.95 -23.495 57.95 -24 63 C-22.9275 63.0825 -21.855 63.165 -20.75 63.25 C-17 64 -17 64 -14.5625 65.375 C-12.02517778 69.63770133 -12.69964768 74.16099034 -13 79 C-15.475 79.99 -15.475 79.99 -18 81 C-17.34 82.32 -16.68 83.64 -16 85 C-18.86724686 84.42655063 -19.8614515 84.1385485 -22 82 C-21.27596929 84.9788611 -21.27596929 84.9788611 -19.4375 86.4375 C-18 88 -18 88 -18 92 C-17.34 92 -16.68 92 -16 92 C-15.938125 92.78375 -15.87625 93.5675 -15.8125 94.375 C-15.4103125 95.674375 -15.4103125 95.674375 -15 97 C-12.52363988 98.37466625 -12.52363988 98.37466625 -10 99 C-10.185625 99.61875 -10.37125 100.2375 -10.5625 100.875 C-11.23686176 103.04160178 -11.23686176 103.04160178 -10 105 C-10.61875 104.67 -11.2375 104.34 -11.875 104 C-13.91018344 102.85806765 -13.91018344 102.85806765 -16 103 C-16.99 103.495 -16.99 103.495 -18 104 C-18 103.01 -18 102.02 -18 101 C-18.99 101.495 -18.99 101.495 -20 102 C-20 102.99 -20 103.98 -20 105 C-22.16874252 104.49396008 -23.99967627 104.00016187 -26 103 C-25.690625 103.721875 -25.38125 104.44375 -25.0625 105.1875 C-24.07439461 107.80307309 -23.4712246 110.25118982 -23 113 C-23.61875 112.649375 -24.2375 112.29875 -24.875 111.9375 C-25.926875 111.4734375 -25.926875 111.4734375 -27 111 C-27.99 111.495 -27.99 111.495 -29 112 C-28.67 113.32 -28.34 114.64 -28 116 C-28.99 116 -29.98 116 -31 116 C-32.02028865 114.68212715 -33.01971384 113.34789347 -34 112 C-35.485 111.505 -35.485 111.505 -37 111 C-37.6875 108.9375 -37.6875 108.9375 -38 107 C-39.32 107 -40.64 107 -42 107 C-42 106.34 -42 105.68 -42 105 C-42.66 105 -43.32 105 -44 105 C-44 104.34 -44 103.68 -44 103 C-46.31 102.34 -48.62 101.68 -51 101 C-53.62372009 93.22898173 -53.00778383 85.56877989 -52.625 77.5 C-52.56665073 76.09118924 -52.50935013 74.68233463 -52.453125 73.2734375 C-52.31236947 69.84838625 -52.16102407 66.42414822 -52 63 C-52.66 63 -53.32 63 -54 63 C-54.20625 64.0725 -54.4125 65.145 -54.625 66.25 C-56.09351309 72.25362703 -59.12249752 77.57075003 -62 83 C-62.33 83 -62.66 83 -63 83 C-63.226875 81.72125 -63.45375 80.4425 -63.6875 79.125 C-64.49427404 75.79532118 -64.49427404 75.79532118 -67 73.5625 C-71.31161033 72.75407306 -75.62726662 72.32264829 -80 72 C-81.15941038 68.52176885 -80.70820884 66.54104422 -80 63 C-83.16942884 60.88704744 -83.99629953 60.74749071 -87.625 60.8125 C-88.42164063 60.81894531 -89.21828125 60.82539062 -90.0390625 60.83203125 C-92.00289734 60.78817102 -92.00289734 60.78817102 -93 62 C-93.04063832 63.66617115 -93.042721 65.33388095 -93 67 C-89.34920174 68.61064629 -85.9492568 69.44894091 -82 70 C-81.67 70.99 -81.34 71.98 -81 73 C-81.66 73.515625 -82.32 74.03125 -83 74.5625 C-85.30771734 76.93302698 -85.30771734 76.93302698 -85.4375 80.5 C-84.98152818 84.14777455 -84.38143975 85.33278748 -82 88 C-81.67 88.99 -81.34 89.98 -81 91 C-80.01 90.34 -79.02 89.68 -78 89 C-74.86328125 88.5859375 -74.86328125 88.5859375 -71.3125 88.375 C-70.13300781 88.30023438 -68.95351562 88.22546875 -67.73828125 88.1484375 C-66.38283203 88.07496094 -66.38283203 88.07496094 -65 88 C-65.66304416 89.66811111 -66.33055781 91.33444623 -67 93 C-67.34417969 93.87140625 -67.68835938 94.7428125 -68.04296875 95.640625 C-69.19889731 98.27598431 -70.34892287 100.64008347 -72 103 C-75.5625 104.375 -75.5625 104.375 -79 104 C-84.25486996 100.75434503 -86.54337329 93.20235491 -89.0234375 87.75 C-89.88286031 85.82393634 -89.88286031 85.82393634 -92 85 C-92.89453125 82.84765625 -92.89453125 82.84765625 -93.8125 80.0625 C-95.7609409 74.44510811 -98.22178284 69.24900865 -101 64 C-101.02688151 65.64574566 -101.04634123 67.29161413 -101.0625 68.9375 C-101.07410156 69.85402344 -101.08570313 70.77054687 -101.09765625 71.71484375 C-101.25949049 73.96593327 -101.25949049 73.96593327 -100 75 C-100.37932349 78.28747025 -100.89937995 81.50807976 -101.5625 84.75 C-102.09543483 87.10878434 -102.09543483 87.10878434 -102 90 C-100.35 90.33 -98.7 90.66 -97 91 C-97.83662333 95.517766 -99.53744854 98.90308641 -103.25 101.6875 C-106.42834342 103.20443663 -109.59967783 104.10180169 -113 105 C-113.99 105.495 -113.99 105.495 -115 106 C-115.65555119 108.52733235 -115.65555119 108.52733235 -116 111 C-115.34 111 -114.68 111 -114 111 C-114.495 112.485 -114.495 112.485 -115 114 C-117.97 113.505 -117.97 113.505 -121 113 C-121.33 113.99 -121.66 114.98 -122 116 C-122.66 115.34 -123.32 114.68 -124 114 C-125.32 116.31 -126.64 118.62 -128 121 C-128.66 120.67 -129.32 120.34 -130 120 C-129.79503906 119.35933594 -129.59007812 118.71867187 -129.37890625 118.05859375 C-126.92073303 110.65902528 -126.92073303 110.65902528 -126 103 C-128.35426499 100.22877725 -128.35426499 100.22877725 -131 98 C-131 97.01 -131 96.02 -131 95 C-132.134375 95.020625 -133.26875 95.04125 -134.4375 95.0625 C-138 95 -138 95 -139 94 C-139.04063832 92.33382885 -139.042721 90.66611905 -139 89 C-136.03 88.01 -136.03 88.01 -133 87 C-132.67 84.36 -132.34 81.72 -132 79 C-132.99 79 -133.98 79 -135 79 C-135 79.99 -135 80.98 -135 82 C-135.99 82 -136.98 82 -138 82 C-137.67 81.01 -137.34 80.02 -137 79 C-138.134375 78.525625 -139.26875 78.05125 -140.4375 77.5625 C-144 76 -144 76 -145 75 C-145.12653198 72.50761431 -145.18519825 70.05529559 -145.1875 67.5625 C-145.19974609 66.86833984 -145.21199219 66.17417969 -145.22460938 65.45898438 C-145.22989842 63.63779099 -145.12169207 61.8171308 -145 60 C-144.34 59.34 -143.68 58.68 -143 58 C-142.54625 56.845 -142.0925 55.69 -141.625 54.5 C-140 51 -140 51 -138.0625 49.5625 C-136 49 -136 49 -132 49 C-132 48.34 -132 47.68 -132 47 C-133.0725 46.9175 -134.145 46.835 -135.25 46.75 C-139.31407952 45.9371841 -140.53072559 45.22905115 -143 42 C-144.93506914 36.19479258 -144.9525628 29.46959061 -142.5 23.8125 C-142.005 22.884375 -141.51 21.95625 -141 21 C-144.20760251 17.19364503 -147.40746109 13.45436433 -151 10 C-146.32894208 11.55701931 -142.91294315 14.08447373 -139 17 C-138.67 15.68 -138.34 14.36 -138 13 C-136.41590006 13.11487748 -134.83271037 13.24234508 -133.25 13.375 C-132.36828125 13.44460937 -131.4865625 13.51421875 -130.578125 13.5859375 C-128.00933618 13.99850055 -126.24158985 14.71160957 -124 16 C-124 16.66 -124 17.32 -124 18 C-120.535 17.505 -120.535 17.505 -117 17 C-116.505 19.475 -116.505 19.475 -116 22 C-114.05925139 21.72382467 -114.05925139 21.72382467 -112 21 C-111.34 20.01 -110.68 19.02 -110 18 C-106.37 18.33 -102.74 18.66 -99 19 C-98.505 20.485 -98.505 20.485 -98 22 C-95.99983534 23.20882096 -95.99983534 23.20882096 -94 24 C-94 24.66 -94 25.32 -94 26 C-93.34 26 -92.68 26 -92 26 C-91.49210937 27.01578125 -90.98421875 28.0315625 -90.4609375 29.078125 C-90.13029297 29.73925293 -89.79964844 30.40038086 -89.45898438 31.08154297 C-88.73320362 32.53343141 -88.00794757 33.98558226 -87.28320312 35.43798828 C-85.57838254 38.85290987 -83.86909822 42.26501457 -82.1328125 45.6640625 C-81.59398438 46.72367188 -81.05515625 47.78328125 -80.5 48.875 C-80.0153125 49.82117188 -79.530625 50.76734375 -79.03125 51.7421875 C-78 54 -78 54 -78 56 C-76.35 55.34 -74.7 54.68 -73 54 C-72.01 55.98 -72.01 55.98 -71 58 C-62.68751509 58.46251848 -56.30032023 58.22550835 -49 54 C-49 52.02 -49 50.04 -49 48 C-49.4640625 49.4540625 -49.4640625 49.4540625 -49.9375 50.9375 C-51 54 -51 54 -52 55 C-54.11884707 55.20429655 -56.2472027 55.31393738 -58.375 55.375 C-59.53773437 55.42398438 -60.70046875 55.47296875 -61.8984375 55.5234375 C-65 55 -65 55 -66.9140625 52.6015625 C-68 50 -68 50 -68 48 C-69.32 48.33 -70.64 48.66 -72 49 C-72 46.69 -72 44.38 -72 42 C-71.34 41.67 -70.68 41.34 -70 41 C-69.34 41.33 -68.68 41.66 -68 42 C-68.33 41.01 -68.66 40.02 -69 39 C-69 38.01 -69 37.02 -69 36 C-68.401875 35.7525 -67.80375 35.505 -67.1875 35.25 C-63.64241996 33.22423998 -62.27335281 30.82005844 -61 27 C-62.65 27 -64.3 27 -66 27 C-66 25.02 -66 23.04 -66 21 C-64.824375 21.04125 -63.64875 21.0825 -62.4375 21.125 C-54.76833816 21.11149795 -45.62566876 18.40929689 -40 13 C-39.20376178 10.90584196 -39.20376178 10.90584196 -39 9 C-38.505 10.485 -38.505 10.485 -38 12 C-37.01 12.33 -36.02 12.66 -35 13 C-34.67 12.01 -34.34 11.02 -34 10 C-32.68 10.66 -31.36 11.32 -30 12 C-29.67 11.01 -29.34 10.02 -29 9 C-28.01 9.33 -27.02 9.66 -26 10 C-25.34 9.67 -24.68 9.34 -24 9 C-25.875 15.875 -25.875 15.875 -27 17 C-26.34 17.33 -25.68 17.66 -25 18 C-24.01 15.525 -24.01 15.525 -23 13 C-22.67 13.66 -22.34 14.32 -22 15 C-20.85371665 14.00051588 -19.70801147 13.00036869 -18.5625 12 C-17.83546875 11.36964844 -17.1084375 10.73929688 -16.359375 10.08984375 C-14.76034074 8.67348062 -13.18777276 7.22677042 -11.640625 5.75390625 C-10.48820312 4.66916016 -10.48820312 4.66916016 -9.3125 3.5625 C-8.60738281 2.88316406 -7.90226563 2.20382813 -7.17578125 1.50390625 C-4.57236872 -0.29557997 -3.09969926 -0.30942707 0 0 Z " fill="#61B451" transform="translate(173,38)"/>
<path d="M0 0 C4.67105792 1.55701931 8.08705685 4.08447373 12 7 C12.33 5.68 12.66 4.36 13 3 C14.58409994 3.11487748 16.16728963 3.24234508 17.75 3.375 C18.63171875 3.44460937 19.5134375 3.51421875 20.421875 3.5859375 C22.99066382 3.99850055 24.75841015 4.71160957 27 6 C27 6.66 27 7.32 27 8 C30.465 7.505 30.465 7.505 34 7 C34.495 9.475 34.495 9.475 35 12 C36.94074861 11.72382467 36.94074861 11.72382467 39 11 C39.66 10.01 40.32 9.02 41 8 C42.79258558 8.08693141 44.58415144 8.19510504 46.375 8.3125 C47.87160156 8.39951172 47.87160156 8.39951172 49.3984375 8.48828125 C50.25695312 8.65714844 51.11546875 8.82601562 52 9 C54.45811625 12.68717438 54.31118164 14.64345704 54 19 C53.34 19.99 52.68 20.98 52 22 C51.67 21.67 51.34 21.34 51 21 C48.67182036 20.63239269 46.3381615 20.29758419 44 20 C44.495 20.99 44.495 20.99 45 22 C47.02463255 22.65213292 47.02463255 22.65213292 49 23 C48.375 30.625 48.375 30.625 45 34 C44.52061968 37.76655968 44.45394689 40.05681735 46.375 43.375 C51.32769103 46.44095159 57.12120875 45.91722539 62.8125 46.16796875 C63.80382935 46.21981323 63.80382935 46.21981323 64.81518555 46.27270508 C66.73676489 46.37112113 68.65942337 46.44772859 70.58203125 46.5234375 C74.17386707 47.02424204 76.16048968 47.77085171 79 50 C79.625 52.875 79.625 52.875 79 56 C76.75 58.875 76.75 58.875 74 61 C72.68 61 71.36 61 70 61 C70.33 58.36 70.66 55.72 71 53 C67.83057116 50.88704744 67.00370047 50.74749071 63.375 50.8125 C62.57835937 50.81894531 61.78171875 50.82539062 60.9609375 50.83203125 C58.99710266 50.78817102 58.99710266 50.78817102 58 52 C57.95936168 53.66617115 57.957279 55.33388095 58 57 C61.65079826 58.61064629 65.0507432 59.44894091 69 60 C69.33 60.99 69.66 61.98 70 63 C69.34 63.515625 68.68 64.03125 68 64.5625 C65.69228266 66.93302698 65.69228266 66.93302698 65.5625 70.5 C66.01847182 74.14777455 66.61856025 75.33278748 69 78 C69.33 78.99 69.66 79.98 70 81 C70.99 80.34 71.98 79.68 73 79 C76.13671875 78.5859375 76.13671875 78.5859375 79.6875 78.375 C80.86699219 78.30023438 82.04648438 78.22546875 83.26171875 78.1484375 C84.61716797 78.07496094 84.61716797 78.07496094 86 78 C85.33695584 79.66811111 84.66944219 81.33444623 84 83 C83.65582031 83.87140625 83.31164062 84.7428125 82.95703125 85.640625 C81.80110269 88.27598431 80.65107713 90.64008347 79 93 C75.4375 94.375 75.4375 94.375 72 94 C66.74513004 90.75434503 64.45662671 83.20235491 61.9765625 77.75 C61.11713969 75.82393634 61.11713969 75.82393634 59 75 C58.10546875 72.84765625 58.10546875 72.84765625 57.1875 70.0625 C55.2390591 64.44510811 52.77821716 59.24900865 50 54 C49.97311849 55.64574566 49.95365877 57.29161413 49.9375 58.9375 C49.92589844 59.85402344 49.91429687 60.77054688 49.90234375 61.71484375 C49.74050951 63.96593327 49.74050951 63.96593327 51 65 C50.62067651 68.28747025 50.10062005 71.50807976 49.4375 74.75 C48.90456517 77.10878434 48.90456517 77.10878434 49 80 C50.65 80.33 52.3 80.66 54 81 C53.16337667 85.517766 51.46255146 88.90308641 47.75 91.6875 C44.57165658 93.20443663 41.40032217 94.10180169 38 95 C37.01 95.495 37.01 95.495 36 96 C35.34444881 98.52733235 35.34444881 98.52733235 35 101 C35.66 101 36.32 101 37 101 C36.505 102.485 36.505 102.485 36 104 C33.03 103.505 33.03 103.505 30 103 C29.67 103.99 29.34 104.98 29 106 C28.34 105.34 27.68 104.68 27 104 C25.68 106.31 24.36 108.62 23 111 C22.34 110.67 21.68 110.34 21 110 C21.20496094 109.35933594 21.40992187 108.71867187 21.62109375 108.05859375 C24.07926697 100.65902528 24.07926697 100.65902528 25 93 C22.64573501 90.22877725 22.64573501 90.22877725 20 88 C20 87.01 20 86.02 20 85 C18.865625 85.020625 17.73125 85.04125 16.5625 85.0625 C13 85 13 85 12 84 C11.95936168 82.33382885 11.957279 80.66611905 12 79 C14.97 78.01 14.97 78.01 18 77 C18.33 74.36 18.66 71.72 19 69 C18.01 69 17.02 69 16 69 C16 69.99 16 70.98 16 72 C15.01 72 14.02 72 13 72 C13.33 71.01 13.66 70.02 14 69 C12.865625 68.525625 11.73125 68.05125 10.5625 67.5625 C7 66 7 66 6 65 C5.87346802 62.50761431 5.81480175 60.05529559 5.8125 57.5625 C5.80025391 56.86833984 5.78800781 56.17417969 5.77539062 55.45898438 C5.77010158 53.63779099 5.87830793 51.8171308 6 50 C6.66 49.34 7.32 48.68 8 48 C8.45375 46.845 8.9075 45.69 9.375 44.5 C11 41 11 41 12.9375 39.5625 C15 39 15 39 19 39 C19 38.34 19 37.68 19 37 C17.9275 36.9175 16.855 36.835 15.75 36.75 C11.68592048 35.9371841 10.46927441 35.22905115 8 32 C6.06493086 26.19479258 6.0474372 19.46959061 8.5 13.8125 C8.995 12.884375 9.49 11.95625 10 11 C6.79239749 7.19364503 3.59253891 3.45436433 0 0 Z " fill="#442258" transform="translate(22,48)"/>
<path d="M0 0 C3.59769478 0.68689447 6.33856984 1.33856984 9 4 C9.1953125 6.1640625 9.1953125 6.1640625 9.125 8.625 C9.10695312 9.44226563 9.08890625 10.25953125 9.0703125 11.1015625 C9.04710937 11.72804688 9.02390625 12.35453125 9 13 C10.0725 13.0825 11.145 13.165 12.25 13.25 C16 14 16 14 18.4375 15.375 C20.97482222 19.63770133 20.30035232 24.16099034 20 29 C18.35 29.66 16.7 30.32 15 31 C15.66 32.32 16.32 33.64 17 35 C14.13275314 34.42655063 13.1385485 34.1385485 11 32 C11.72403071 34.9788611 11.72403071 34.9788611 13.5625 36.4375 C15 38 15 38 15 42 C15.66 42 16.32 42 17 42 C17.061875 42.78375 17.12375 43.5675 17.1875 44.375 C17.455625 45.24125 17.72375 46.1075 18 47 C20.47636012 48.37466625 20.47636012 48.37466625 23 49 C22.7215625 49.928125 22.7215625 49.928125 22.4375 50.875 C21.76313824 53.04160178 21.76313824 53.04160178 23 55 C22.38125 54.67 21.7625 54.34 21.125 54 C19.08981656 52.85806765 19.08981656 52.85806765 17 53 C16.01 53.495 16.01 53.495 15 54 C15 53.01 15 52.02 15 51 C14.01 51.495 14.01 51.495 13 52 C13 52.99 13 53.98 13 55 C10.83125748 54.49396008 9.00032373 54.00016187 7 53 C7.309375 53.721875 7.61875 54.44375 7.9375 55.1875 C8.92560539 57.80307309 9.5287754 60.25118982 10 63 C9.38125 62.649375 8.7625 62.29875 8.125 61.9375 C7.42375 61.628125 6.7225 61.31875 6 61 C5.01 61.495 5.01 61.495 4 62 C4.33 63.32 4.66 64.64 5 66 C4.01 66 3.02 66 2 66 C0.97971135 64.68212715 -0.01971384 63.34789347 -1 62 C-2.485 61.505 -2.485 61.505 -4 61 C-4.6875 58.9375 -4.6875 58.9375 -5 57 C-6.32 57 -7.64 57 -9 57 C-9 56.34 -9 55.68 -9 55 C-9.66 55 -10.32 55 -11 55 C-11 54.34 -11 53.68 -11 53 C-13.31 52.34 -15.62 51.68 -18 51 C-20.62372009 43.22898173 -20.00778383 35.56877989 -19.625 27.5 C-19.56665073 26.09118924 -19.50935013 24.68233463 -19.453125 23.2734375 C-19.31236947 19.84838625 -19.16102407 16.42414822 -19 13 C-17.28071449 14.61233151 -15.61518279 16.28339285 -14 18 C-14.1875 20.3125 -14.1875 20.3125 -15 22 C-13.02 22 -11.04 22 -9 22 C-8.7525 22.639375 -8.505 23.27875 -8.25 23.9375 C-7.18437567 26.18741541 -7.18437567 26.18741541 -4.875 26.75 C-4.25625 26.8325 -3.6375 26.915 -3 27 C-3 27.66 -3 28.32 -3 29 C-2.34 28.67 -1.68 28.34 -1 28 C-1.66 27.34 -2.32 26.68 -3 26 C-2.96712417 23.27130593 -2.43602229 20.7033382 -2 18 C-5.02419525 18.58803797 -8.01758453 19.22678118 -11 20 C-10.938125 19.2575 -10.87625 18.515 -10.8125 17.75 C-10.74654888 14.95582122 -10.74654888 14.95582122 -12.5 13.0625 C-14 11 -14 11 -14.5 8.0625 C-14 5 -14 5 -12.0625 2.125 C-7.90411586 -0.7604094 -4.90919479 -0.64616752 0 0 Z " fill="#CF423A" transform="translate(140,88)"/>
<path d="M0 0 C-0.33 0.66 -0.66 1.32 -1 2 C-1.66 2 -2.32 2 -3 2 C-4.12516085 3.83284443 -4.12516085 3.83284443 -5 6 C-4.505 7.485 -4.505 7.485 -4 9 C-7.75 12 -7.75 12 -10 12 C-10.226875 12.556875 -10.45375 13.11375 -10.6875 13.6875 C-12.35302319 16.62199324 -14.62221176 18.62221176 -17 21 C-17.495 22.485 -17.495 22.485 -18 24 C-17.34 24 -16.68 24 -16 24 C-16.33 25.32 -16.66 26.64 -17 28 C-16.01 28.33 -15.02 28.66 -14 29 C-15.98 29 -17.96 29 -20 29 C-20.495 27.515 -20.495 27.515 -21 26 C-21.66 25.67 -22.32 25.34 -23 25 C-22.95875 26.2375 -22.9175 27.475 -22.875 28.75 C-22.90497967 34.40616531 -22.90497967 34.40616531 -25 37 C-30.08926607 39.55392002 -35.13344483 39.37367854 -40.72265625 39.55859375 C-44.2018743 40.02718927 -45.3775386 40.80974828 -48 43 C-48.99 43 -49.98 43 -51 43 C-50.67 43.66 -50.34 44.32 -50 45 C-49.83203125 46.875 -49.83203125 46.875 -49.8125 49 C-49.79832031 49.70125 -49.78414062 50.4025 -49.76953125 51.125 C-50 53 -50 53 -52 55 C-54.93359375 55.37109375 -54.93359375 55.37109375 -58.4375 55.4375 C-60.16806641 55.49744141 -60.16806641 55.49744141 -61.93359375 55.55859375 C-65 55 -65 55 -66.91015625 52.59765625 C-68 50 -68 50 -68 48 C-69.98 48.495 -69.98 48.495 -72 49 C-72 46.69 -72 44.38 -72 42 C-71.01 41.505 -71.01 41.505 -70 41 C-69.34 41.33 -68.68 41.66 -68 42 C-68.495 40.515 -68.495 40.515 -69 39 C-69 38.01 -69 37.02 -69 36 C-68.401875 35.7525 -67.80375 35.505 -67.1875 35.25 C-63.64241996 33.22423998 -62.27335281 30.82005844 -61 27 C-62.65 27 -64.3 27 -66 27 C-66 25.02 -66 23.04 -66 21 C-64.824375 21.04125 -63.64875 21.0825 -62.4375 21.125 C-54.76833816 21.11149795 -45.62566876 18.40929689 -40 13 C-39.20376178 10.90584196 -39.20376178 10.90584196 -39 9 C-38.505 10.485 -38.505 10.485 -38 12 C-37.01 12.33 -36.02 12.66 -35 13 C-34.67 12.01 -34.34 11.02 -34 10 C-32.68 10.66 -31.36 11.32 -30 12 C-29.67 11.01 -29.34 10.02 -29 9 C-28.01 9.33 -27.02 9.66 -26 10 C-25.34 9.67 -24.68 9.34 -24 9 C-25.875 15.875 -25.875 15.875 -27 17 C-26.34 17.33 -25.68 17.66 -25 18 C-24.34 16.35 -23.68 14.7 -23 13 C-22.505 13.99 -22.505 13.99 -22 15 C-20.85371665 14.00051588 -19.70801147 13.00036869 -18.5625 12 C-17.83546875 11.36964844 -17.1084375 10.73929688 -16.359375 10.08984375 C-14.76034074 8.67348062 -13.18777276 7.22677042 -11.640625 5.75390625 C-10.48820312 4.66916016 -10.48820312 4.66916016 -9.3125 3.5625 C-8.25482422 2.54349609 -8.25482422 2.54349609 -7.17578125 1.50390625 C-4.57236872 -0.29557997 -3.09969926 -0.30942707 0 0 Z " fill="#57B9D9" transform="translate(173,38)"/>
<path d="M0 0 C4.67105792 1.55701931 8.08705685 4.08447373 12 7 C12.33 5.68 12.66 4.36 13 3 C14.58409994 3.11487748 16.16728963 3.24234508 17.75 3.375 C18.63171875 3.44460937 19.5134375 3.51421875 20.421875 3.5859375 C22.99066382 3.99850055 24.75841015 4.71160957 27 6 C27 6.66 27 7.32 27 8 C30.465 7.505 30.465 7.505 34 7 C34.495 9.475 34.495 9.475 35 12 C36.94074861 11.72382467 36.94074861 11.72382467 39 11 C39.66 10.01 40.32 9.02 41 8 C42.79258558 8.08693141 44.58415144 8.19510504 46.375 8.3125 C47.87160156 8.39951172 47.87160156 8.39951172 49.3984375 8.48828125 C50.25695312 8.65714844 51.11546875 8.82601562 52 9 C54.45811625 12.68717438 54.31118164 14.64345704 54 19 C53.34 19.99 52.68 20.98 52 22 C51.67 21.67 51.34 21.34 51 21 C48.67182036 20.63239269 46.3381615 20.29758419 44 20 C44.495 20.99 44.495 20.99 45 22 C47.02463255 22.65213292 47.02463255 22.65213292 49 23 C48.67 24.98 48.34 26.96 48 29 C46.02 29 44.04 29 42 29 C40.23899242 32.40461465 39 35.09349661 39 39 C34.125 38.125 34.125 38.125 33 37 C29.5360098 36.76123481 26.07898169 36.60505453 22.609375 36.48242188 C17.83351571 36.2619336 13.46740538 35.85857705 9 34 C6.03065065 29.2065049 6.4634128 23.45141485 7 18 C7.76767979 15.42183839 8.72643946 13.38792601 10 11 C6.79239749 7.19364503 3.59253891 3.45436433 0 0 Z " fill="#D74942" transform="translate(22,48)"/>
<path d="M0 0 C0 3 0 6 0 9 C-2.64 9 -5.28 9 -8 9 C-6.329375 9.433125 -6.329375 9.433125 -4.625 9.875 C-2.6796875 10.67578125 -2.6796875 10.67578125 -1 12 C-0.11234536 14.59832886 0.24312754 16.99367432 0.515625 19.72265625 C0.80214097 22.37252717 0.80214097 22.37252717 4 24 C4 25.32 4 26.64 4 28 C3.01 28 2.02 28 1 28 C1 28.66 1 29.32 1 30 C2.32 30.33 3.64 30.66 5 31 C5.04125 30.38125 5.0825 29.7625 5.125 29.125 C6 27 6 27 8.4375 25.6875 C13.05061856 24.79724905 17.42955729 24.82788991 22 26 C23.78125 27.34375 23.78125 27.34375 25 29 C25.45731489 33.84753779 24.68396335 37.47434851 23 42 C23 42.66 23 43.32 23 44 C22.38125 43.690625 21.7625 43.38125 21.125 43.0625 C16.81197706 41.5960722 12.5240004 41.33380974 8 41 C10.08380129 44.12570193 10.63732937 44.72763814 14 46 C16.32817964 46.36760731 18.6618385 46.70241581 21 47 C21.99 47.33 22.98 47.66 24 48 C24.33 48.99 24.66 49.98 25 51 C24.505 51.99 24.505 51.99 24 53 C24.66 53.66 25.32 54.32 26 55 C24.88625 55.309375 23.7725 55.61875 22.625 55.9375 C19.2054845 56.82326483 19.2054845 56.82326483 17 58 C16.34444881 60.52733235 16.34444881 60.52733235 16 63 C16.66 63 17.32 63 18 63 C17.67 63.99 17.34 64.98 17 66 C15.02 65.67 13.04 65.34 11 65 C10.67 65.99 10.34 66.98 10 68 C9.34 67.34 8.68 66.68 8 66 C6.68 68.31 5.36 70.62 4 73 C3.34 72.67 2.68 72.34 2 72 C2.20496094 71.35933594 2.40992188 70.71867187 2.62109375 70.05859375 C5.07926697 62.65902528 5.07926697 62.65902528 6 55 C3.64573501 52.22877725 3.64573501 52.22877725 1 50 C1 49.01 1 48.02 1 47 C-0.7015625 47.0309375 -0.7015625 47.0309375 -2.4375 47.0625 C-6 47 -6 47 -7 46 C-7.04063832 44.33382885 -7.042721 42.66611905 -7 41 C-5.02 40.34 -3.04 39.68 -1 39 C-0.67 36.36 -0.34 33.72 0 31 C-0.99 31 -1.98 31 -3 31 C-3 31.99 -3 32.98 -3 34 C-3.99 34 -4.98 34 -6 34 C-5.67 33.01 -5.34 32.02 -5 31 C-6.134375 30.525625 -7.26875 30.05125 -8.4375 29.5625 C-12 28 -12 28 -13 27 C-13.12653198 24.50761431 -13.18519825 22.05529559 -13.1875 19.5625 C-13.19974609 18.86833984 -13.21199219 18.17417969 -13.22460938 17.45898438 C-13.22989842 15.63779099 -13.12169207 13.8171308 -13 12 C-12.34 11.34 -11.68 10.68 -11 10 C-10.62875 8.865625 -10.2575 7.73125 -9.875 6.5625 C-8.89902291 4.1097827 -8.34946228 3.1992973 -6.02734375 1.875 C-4.05198243 1.15035246 -2.02684516 0.56485849 0 0 Z " fill="#339AC4" transform="translate(41,86)"/>
<path d="M0 0 C0.99 0.33 1.98 0.66 3 1 C3 1.99 3 2.98 3 4 C6.63 4 10.26 4 14 4 C15.1066598 7.31997939 15.20240272 9.94306627 15.25 13.4375 C15.27578125 14.57058594 15.3015625 15.70367187 15.328125 16.87109375 C14.9692206 20.29350352 14.49926508 21.66360837 12 24 C10.02734375 24.50390625 10.02734375 24.50390625 7.9375 24.5625 C6.638125 24.706875 5.33875 24.85125 4 25 C3.34 25.99 2.68 26.98 2 28 C0 28.8125 0 28.8125 -2 29 C-2.66 28.34 -3.32 27.68 -4 27 C-8.84798187 25.8175654 -14.03711089 25.33137547 -19 26 C-21.69138543 27.44014926 -21.69138543 27.44014926 -23 30 C-23.50311231 33.44991297 -23.53359582 35.21120618 -21.5625 38.125 C-21.046875 38.74375 -20.53125 39.3625 -20 40 C-19.3125 42.25 -19.3125 42.25 -19 44 C-18.01 43.34 -17.02 42.68 -16 42 C-13.3125 41.875 -13.3125 41.875 -11 42 C-11.14308594 42.92232422 -11.14308594 42.92232422 -11.2890625 43.86328125 C-11.45535156 45.07564453 -11.45535156 45.07564453 -11.625 46.3125 C-11.74101562 47.11300781 -11.85703125 47.91351563 -11.9765625 48.73828125 C-12.21533407 51.28723215 -12.21533407 51.28723215 -10 54 C-10.99 54 -11.98 54 -13 54 C-13.33 53.34 -13.66 52.68 -14 52 C-15.32 52 -16.64 52 -18 52 C-18.33 50.68 -18.66 49.36 -19 48 C-20.98 47.67 -22.96 47.34 -25 47 C-25 45.02 -25 43.04 -25 41 C-25.99 40.67 -26.98 40.34 -28 40 C-28.66 39.01 -29.32 38.02 -30 37 C-32.55183404 35.79549696 -32.55183404 35.79549696 -35 35 C-34 32 -34 32 -32.15234375 31.05078125 C-31.42144531 30.80714844 -30.69054687 30.56351563 -29.9375 30.3125 C-29.20402344 30.06113281 -28.47054687 29.80976562 -27.71484375 29.55078125 C-27.14894531 29.36902344 -26.58304688 29.18726562 -26 29 C-25.80377759 24.78121808 -26.19769832 21.82989106 -28 18 C-27.030625 17.525625 -26.06125 17.05125 -25.0625 16.5625 C-22.19522563 15.29806053 -22.19522563 15.29806053 -21 14 C-18.75378824 13.78831512 -16.50236718 13.63084291 -14.25 13.5 C-10.00390756 13.25127492 -6.19015154 12.83803031 -2 12 C-1.34 8.04 -0.68 4.08 0 0 Z " fill="#1A3359" transform="translate(150,63)"/>
<path d="M0 0 C1.71928551 1.61233151 3.38481721 3.28339285 5 5 C4.8125 7.3125 4.8125 7.3125 4 9 C5.98 9 7.96 9 10 9 C10.2475 9.639375 10.495 10.27875 10.75 10.9375 C11.81562433 13.18741541 11.81562433 13.18741541 14.125 13.75 C14.74375 13.8325 15.3625 13.915 16 14 C16 14.66 16 15.32 16 16 C11.05 16.495 11.05 16.495 6 17 C4.90910511 21.36357958 4.78355007 24.5267014 5 29 C5.66 29.66 6.32 30.32 7 31 C7 32.32 7 33.64 7 35 C7.556875 34.67902344 8.11375 34.35804688 8.6875 34.02734375 C11.95267833 32.57676622 15.02940101 32.60836672 18.5625 32.44140625 C21.5498333 31.90043083 22.86714662 31.16067321 25 29 C26.1213706 26.29344828 26.1213706 26.29344828 26.75 23.3125 C26.99234375 22.31863281 27.2346875 21.32476562 27.484375 20.30078125 C27.65453125 19.54152344 27.8246875 18.78226563 28 18 C32.875 22.625 32.875 22.625 34 26 C34 26.99 34 27.98 34 29 C34.66 29 35.32 29 36 29 C36.061875 29.78375 36.12375 30.5675 36.1875 31.375 C36.455625 32.24125 36.72375 33.1075 37 34 C39.47636012 35.37466625 39.47636012 35.37466625 42 36 C41.7215625 36.928125 41.7215625 36.928125 41.4375 37.875 C40.76313824 40.04160178 40.76313824 40.04160178 42 42 C41.38125 41.67 40.7625 41.34 40.125 41 C38.08981656 39.85806765 38.08981656 39.85806765 36 40 C35.01 40.495 35.01 40.495 34 41 C34 40.01 34 39.02 34 38 C33.01 38.495 33.01 38.495 32 39 C32 39.99 32 40.98 32 42 C29.83125748 41.49396008 28.00032373 41.00016187 26 40 C26.309375 40.721875 26.61875 41.44375 26.9375 42.1875 C27.92560539 44.80307309 28.5287754 47.25118982 29 50 C28.38125 49.649375 27.7625 49.29875 27.125 48.9375 C26.42375 48.628125 25.7225 48.31875 25 48 C24.01 48.495 24.01 48.495 23 49 C23.33 50.32 23.66 51.64 24 53 C23.01 53 22.02 53 21 53 C19.97971135 51.68212715 18.98028616 50.34789347 18 49 C16.515 48.505 16.515 48.505 15 48 C14.3125 45.9375 14.3125 45.9375 14 44 C12.68 44 11.36 44 10 44 C10 43.34 10 42.68 10 42 C9.34 42 8.68 42 8 42 C8 41.34 8 40.68 8 40 C5.69 39.34 3.38 38.68 1 38 C-1.62372009 30.22898173 -1.00778383 22.56877989 -0.625 14.5 C-0.56665073 13.09118924 -0.50935013 11.68233463 -0.453125 10.2734375 C-0.31236947 6.84838625 -0.16102407 3.42414822 0 0 Z " fill="#4D1F5D" transform="translate(121,101)"/>
<path d="M0 0 C0.9075 0.103125 1.815 0.20625 2.75 0.3125 C2.75 0.9725 2.75 1.6325 2.75 2.3125 C2.255 2.7353125 1.76 3.158125 1.25 3.59375 C-0.87390625 6.02739258 -0.45418867 7.64757565 -0.25 10.8125 C-0.0625 13.71875 -0.0625 13.71875 -0.25 16.3125 C-1.23699773 17.32533537 -2.23696387 18.32570833 -3.25 19.3125 C-3.5752065 21.72535118 -3.5752065 21.72535118 -3.375 24.3125 C-3.23418246 27.46681281 -3.23670367 29.27261101 -4.25 32.3125 C-4.91 32.3125 -5.57 32.3125 -6.25 32.3125 C-6.58 33.6325 -6.91 34.9525 -7.25 36.3125 C-8.28125 36.10625 -9.3125 35.9 -10.375 35.6875 C-14.40908188 35.29710498 -16.61649432 35.5822592 -20.25 37.3125 C-20.58 38.3025 -20.91 39.2925 -21.25 40.3125 C-22.57 39.9825 -23.89 39.6525 -25.25 39.3125 C-25.25 38.6525 -25.25 37.9925 -25.25 37.3125 C-24.26 37.3125 -23.27 37.3125 -22.25 37.3125 C-22.66003225 34.44227427 -23.05058961 33.4816967 -25.3125 31.5625 C-28.21403234 28.19297857 -27.54015714 25.66485717 -27.25 21.3125 C-28.9515625 20.879375 -28.9515625 20.879375 -30.6875 20.4375 C-31.863125 20.06625 -33.03875 19.695 -34.25 19.3125 C-34.58 18.6525 -34.91 17.9925 -35.25 17.3125 C-32.28 17.6425 -29.31 17.9725 -26.25 18.3125 C-26.25 16.3325 -26.25 14.3525 -26.25 12.3125 C-27.24 11.9825 -28.23 11.6525 -29.25 11.3125 C-27.93 11.3125 -26.61 11.3125 -25.25 11.3125 C-26.555239 8.70202199 -27.60826574 8.63183577 -30.3125 7.6875 C-31.04597656 7.42710938 -31.77945313 7.16671875 -32.53515625 6.8984375 C-33.10105469 6.70507812 -33.66695312 6.51171875 -34.25 6.3125 C-33.59 5.9825 -32.93 5.6525 -32.25 5.3125 C-31.26 5.6425 -30.27 5.9725 -29.25 6.3125 C-25.7239248 6.50819174 -22.20407718 6.65690107 -18.67382812 6.7421875 C-13.83567169 6.9460782 -10.50854733 7.78039077 -6.25 10.3125 C-6.4975 9.590625 -6.745 8.86875 -7 8.125 C-7.25 5.3125 -7.25 5.3125 -5.6875 2.5 C-3.25 0.3125 -3.25 0.3125 0 0 Z " fill="#4F3D82" transform="translate(67.25,76.6875)"/>
<path d="M0 0 C3.14041545 0.05562733 4.42145416 0.19335122 7.1875 1.8125 C7.661875 2.3075 8.13625 2.8025 8.625 3.3125 C8.295 5.9525 7.965 8.5925 7.625 11.3125 C8.51703125 11.41046875 9.4090625 11.5084375 10.328125 11.609375 C11.49859375 11.75890625 12.6690625 11.9084375 13.875 12.0625 C15.03515625 12.20171875 16.1953125 12.3409375 17.390625 12.484375 C21.02898769 13.41593646 22.36882908 14.35464913 24.625 17.3125 C25.49885941 20.80793762 25.96810183 23.22601088 24.875 26.6875 C23.625 28.3125 23.625 28.3125 20.625 29.3125 C17.89029583 29.57919716 15.15589492 29.7560922 12.4140625 29.93359375 C9.53993055 30.32405705 7.26168543 31.12838854 4.625 32.3125 C4.439375 31.1678125 4.439375 31.1678125 4.25 30 C3.74397208 27.10982864 3.74397208 27.10982864 1.625 24.3125 C1.1506826 20.04364338 1.10218318 18.04771116 3.625 14.5 C4.285 13.778125 4.945 13.05625 5.625 12.3125 C5.625 11.6525 5.625 10.9925 5.625 10.3125 C5.01011719 10.26351562 4.39523438 10.21453125 3.76171875 10.1640625 C2.95347656 10.08929688 2.14523438 10.01453125 1.3125 9.9375 C0.11173828 9.83308594 0.11173828 9.83308594 -1.11328125 9.7265625 C-3.375 9.3125 -3.375 9.3125 -6.375 7.3125 C-6.6875 4.8125 -6.6875 4.8125 -6.375 2.3125 C-3.97049822 -0.09200178 -3.29266058 0.01640861 0 0 Z " fill="#E5D242" transform="translate(85.375,97.6875)"/>
<path d="M0 0 C0.66 0.33 1.32 0.66 2 1 C-1.625 6.875 -1.625 6.875 -5 8 C-5.33 8.99 -5.66 9.98 -6 11 C-4.68 11 -3.36 11 -2 11 C-1.7525 12.11375 -1.505 13.2275 -1.25 14.375 C-0.38994661 18.04615198 -0.38994661 18.04615198 2.125 19.4375 C2.74375 19.623125 3.3625 19.80875 4 20 C3.835 20.825 3.67 21.65 3.5 22.5 C3.10868685 25.23919205 2.98774841 27.51907515 3.0625 30.25 C3 34 3 34 1 36 C-1.93359375 36.37109375 -1.93359375 36.37109375 -5.4375 36.4375 C-7.16806641 36.49744141 -7.16806641 36.49744141 -8.93359375 36.55859375 C-12 36 -12 36 -13.91015625 33.59765625 C-15 31 -15 31 -15 29 C-16.32 29.33 -17.64 29.66 -19 30 C-19 27.69 -19 25.38 -19 23 C-18.34 22.67 -17.68 22.34 -17 22 C-16.34 22.33 -15.68 22.66 -15 23 C-15.33 22.01 -15.66 21.02 -16 20 C-16 19.01 -16 18.02 -16 17 C-15.401875 16.7525 -14.80375 16.505 -14.1875 16.25 C-10.64241996 14.22423998 -9.27335281 11.82005844 -8 8 C-9.65 8 -11.3 8 -13 8 C-13 6.02 -13 4.04 -13 2 C-11.783125 2.04125 -10.56625 2.0825 -9.3125 2.125 C-5.74794856 2.14392682 -3.2778701 1.44611916 0 0 Z " fill="#C74B8E" transform="translate(120,57)"/>
<path d="M0 0 C0 3 0 6 0 9 C-2.64 9 -5.28 9 -8 9 C-6.329375 9.433125 -6.329375 9.433125 -4.625 9.875 C-2.6796875 10.67578125 -2.6796875 10.67578125 -1 12 C-0.11234536 14.59832886 0.24312754 16.99367432 0.515625 19.72265625 C0.80214097 22.37252717 0.80214097 22.37252717 4 24 C4 25.32 4 26.64 4 28 C3.01 28 2.02 28 1 28 C1 28.66 1 29.32 1 30 C1.99 30.33 2.98 30.66 4 31 C4.73046875 33.06640625 4.73046875 33.06640625 5.1875 35.5625 C5.42533203 36.80193359 5.42533203 36.80193359 5.66796875 38.06640625 C5.77753906 38.70449219 5.88710938 39.34257813 6 40 C5.01 40.495 5.01 40.495 4 41 C3.31527335 42.88764903 3.31527335 42.88764903 2.875 45.0625 C2.70742188 45.79597656 2.53984375 46.52945313 2.3671875 47.28515625 C2.24601562 47.85105469 2.12484375 48.41695312 2 49 C1.67 48.34 1.34 47.68 1 47 C-0.7015625 47.0309375 -0.7015625 47.0309375 -2.4375 47.0625 C-6 47 -6 47 -7 46 C-7.04063832 44.33382885 -7.042721 42.66611905 -7 41 C-5.02 40.34 -3.04 39.68 -1 39 C-0.67 36.36 -0.34 33.72 0 31 C-0.99 31 -1.98 31 -3 31 C-3 31.99 -3 32.98 -3 34 C-3.99 34 -4.98 34 -6 34 C-5.67 33.01 -5.34 32.02 -5 31 C-6.134375 30.525625 -7.26875 30.05125 -8.4375 29.5625 C-12 28 -12 28 -13 27 C-13.12653198 24.50761431 -13.18519825 22.05529559 -13.1875 19.5625 C-13.19974609 18.86833984 -13.21199219 18.17417969 -13.22460938 17.45898438 C-13.22989842 15.63779099 -13.12169207 13.8171308 -13 12 C-12.34 11.34 -11.68 10.68 -11 10 C-10.62875 8.865625 -10.2575 7.73125 -9.875 6.5625 C-8.89902291 4.1097827 -8.34946228 3.1992973 -6.02734375 1.875 C-4.05198243 1.15035246 -2.02684516 0.56485849 0 0 Z " fill="#5C80C4" transform="translate(41,86)"/>
<path d="M0 0 C3.59769478 0.68689447 6.33856984 1.33856984 9 4 C9.55176935 7.3861214 9.52355275 10.61098112 9 14 C5.66617437 17.6672082 1.07904427 17.41355354 -3.6171875 17.75 C-6.33819702 18.03548297 -8.55568114 18.77784057 -11 20 C-10.9071875 18.88625 -10.9071875 18.88625 -10.8125 17.75 C-10.74654888 14.95582122 -10.74654888 14.95582122 -12.5 13.0625 C-14 11 -14 11 -14.5 8.0625 C-14 5 -14 5 -12.0625 2.125 C-7.90411586 -0.7604094 -4.90919479 -0.64616752 0 0 Z " fill="#C34997" transform="translate(140,88)"/>
<path d="M0 0 C3.59565906 0.20352787 6.28271337 0.59537677 9.4375 2.375 C11.97482222 6.63770133 11.30035232 11.16099034 11 16 C9.35 16.66 7.7 17.32 6 18 C6.66 19.32 7.32 20.64 8 22 C4.64404172 21.40072174 2.62198774 20.15377564 0 18 C0 18.66 0 19.32 0 20 C-0.66 20 -1.32 20 -2 20 C-2.33 19.01 -2.66 18.02 -3 17 C-4.83303323 16.01788795 -4.83303323 16.01788795 -7 15.375 C-10.93048128 14.06951872 -10.93048128 14.06951872 -12 13 C-11.82364548 10.30917128 -11.38164079 7.67148554 -11 5 C-9.93458984 4.58427734 -9.93458984 4.58427734 -8.84765625 4.16015625 C-7.46900391 3.61681641 -7.46900391 3.61681641 -6.0625 3.0625 C-5.14597656 2.70285156 -4.22945312 2.34320313 -3.28515625 1.97265625 C-1.07581467 1.2003782 -1.07581467 1.2003782 0 0 Z " fill="#E7D640" transform="translate(149,101)"/>
<path d="M0 0 C-0.33 0.66 -0.66 1.32 -1 2 C-1.66 2 -2.32 2 -3 2 C-4.12516085 3.83284443 -4.12516085 3.83284443 -5 6 C-4.505 7.485 -4.505 7.485 -4 9 C-7.75 12 -7.75 12 -10 12 C-10.226875 12.556875 -10.45375 13.11375 -10.6875 13.6875 C-12.35302319 16.62199324 -14.62221176 18.62221176 -17 21 C-17.33 21.99 -17.66 22.98 -18 24 C-17.34 24 -16.68 24 -16 24 C-16.33 25.32 -16.66 26.64 -17 28 C-16.01 28.33 -15.02 28.66 -14 29 C-15.98 29 -17.96 29 -20 29 C-20.33 28.01 -20.66 27.02 -21 26 C-22.31266518 24.64631404 -23.64567325 23.31200404 -25 22 C-25.33 21.34 -25.66 20.68 -26 20 C-30.17370182 18.81312811 -34.50021708 18.68922178 -38.8125 18.4375 C-39.50537109 18.39431641 -40.19824219 18.35113281 -40.91210938 18.30664062 C-42.60788686 18.20138547 -44.30392052 18.10027137 -46 18 C-45.19175781 17.39671875 -44.38351563 16.7934375 -43.55078125 16.171875 C-40.6970249 13.74203039 -40.30381023 12.64572278 -40 9 C-39.01 10.485 -39.01 10.485 -38 12 C-37.01 12.33 -36.02 12.66 -35 13 C-34.67 12.01 -34.34 11.02 -34 10 C-32.68 10.66 -31.36 11.32 -30 12 C-29.67 11.01 -29.34 10.02 -29 9 C-28.01 9.33 -27.02 9.66 -26 10 C-25.34 9.67 -24.68 9.34 -24 9 C-25.875 15.875 -25.875 15.875 -27 17 C-26.34 17.33 -25.68 17.66 -25 18 C-24.34 16.35 -23.68 14.7 -23 13 C-22.67 13.66 -22.34 14.32 -22 15 C-20.85371665 14.00051588 -19.70801147 13.00036869 -18.5625 12 C-17.83546875 11.36964844 -17.1084375 10.73929688 -16.359375 10.08984375 C-14.76034074 8.67348062 -13.18777276 7.22677042 -11.640625 5.75390625 C-10.48820312 4.66916016 -10.48820312 4.66916016 -9.3125 3.5625 C-8.25482422 2.54349609 -8.25482422 2.54349609 -7.17578125 1.50390625 C-4.57236872 -0.29557997 -3.09969926 -0.30942707 0 0 Z " fill="#AE8DD0" transform="translate(173,38)"/>
<path d="M0 0 C0.99 0.33 1.98 0.66 3 1 C3 1.99 3 2.98 3 4 C6.63 4 10.26 4 14 4 C15.10261088 7.30783265 15.23740779 9.95559269 15.3125 13.4375 C15.34988281 14.57058594 15.38726562 15.70367187 15.42578125 16.87109375 C15 20 15 20 13.37109375 22.42578125 C10.21676671 24.52000497 8.46219287 24.23419907 4.75 23.75 C3.67234375 23.62109375 2.5946875 23.4921875 1.484375 23.359375 C0.66453125 23.24078125 -0.1553125 23.1221875 -1 23 C-0.47731534 20.23723823 0.10869587 17.6739124 1 15 C0.01 14.67 -0.98 14.34 -2 14 C-1.855625 13.175 -1.71125 12.35 -1.5625 11.5 C-0.94746848 7.67313722 -0.46439363 3.84783293 0 0 Z " fill="#4164AC" transform="translate(150,63)"/>
<path d="M0 0 C1.77734375 1.34765625 1.77734375 1.34765625 3 3 C3.45731489 7.84753779 2.68396335 11.47434851 1 16 C1 16.66 1 17.32 1 18 C0.071875 17.5359375 0.071875 17.5359375 -0.875 17.0625 C-3.81488768 16.06293819 -5.99612441 15.81070369 -9.0625 15.625 C-12.22937623 15.33194578 -13.87088666 15.07206326 -16.6875 13.5 C-18.71230773 9.64322338 -17.8182338 6.16231976 -17 2 C-11.2704001 -1.11391299 -6.37605497 -1.76121798 0 0 Z " fill="#ECEEEF" transform="translate(63,112)"/>
<path d="M0 0 C2.475 1.485 2.475 1.485 5 3 C5.3125 5.6875 5.3125 5.6875 5 8 C5.66 8 6.32 8 7 8 C7.061875 8.78375 7.12375 9.5675 7.1875 10.375 C7.455625 11.24125 7.72375 12.1075 8 13 C10.47636012 14.37466625 10.47636012 14.37466625 13 15 C12.7215625 15.928125 12.7215625 15.928125 12.4375 16.875 C11.76313824 19.04160178 11.76313824 19.04160178 13 21 C12.38125 20.67 11.7625 20.34 11.125 20 C9.08981656 18.85806765 9.08981656 18.85806765 7 19 C6.34 19.33 5.68 19.66 5 20 C5 19.01 5 18.02 5 17 C4.34 17.33 3.68 17.66 3 18 C3 18.99 3 19.98 3 21 C0.83125748 20.49396008 -0.99967627 20.00016187 -3 19 C-2.5359375 20.0828125 -2.5359375 20.0828125 -2.0625 21.1875 C-1.07439461 23.80307309 -0.4712246 26.25118982 0 29 C-0.61875 28.649375 -1.2375 28.29875 -1.875 27.9375 C-2.57625 27.628125 -3.2775 27.31875 -4 27 C-4.66 27.33 -5.32 27.66 -6 28 C-5.67 29.32 -5.34 30.64 -5 32 C-5.99 32 -6.98 32 -8 32 C-9.02028865 30.68212715 -10.01971384 29.34789347 -11 28 C-11.99 27.67 -12.98 27.34 -14 27 C-14.6875 24.9375 -14.6875 24.9375 -15 23 C-16.32 23 -17.64 23 -19 23 C-19 22.34 -19 21.68 -19 21 C-19.66 20.67 -20.32 20.34 -21 20 C-20.01 20 -19.02 20 -18 20 C-17.67 20.33 -17.34 20.66 -17 21 C-17 20.67 -17 20.34 -17 20 C-15.53626953 19.58427734 -15.53626953 19.58427734 -14.04296875 19.16015625 C-12.75780249 18.794306 -11.47264679 18.42841864 -10.1875 18.0625 C-8.92292969 17.70285156 -7.65835938 17.34320313 -6.35546875 16.97265625 C-4.22498018 16.35508739 -2.10436108 15.70145369 0 15 C0 10.05 0 5.1 0 0 Z " fill="#E03B57" transform="translate(150,122)"/>
<path d="M0 0 C1.32 0 2.64 0 4 0 C4.45375 1.0725 4.9075 2.145 5.375 3.25 C6.50088537 5.88062317 7.67920206 8.46000396 9 11 C9.99 10.34 10.98 9.68 12 9 C15.13671875 8.5859375 15.13671875 8.5859375 18.6875 8.375 C20.45673828 8.26285156 20.45673828 8.26285156 22.26171875 8.1484375 C23.16535156 8.09945312 24.06898437 8.05046875 25 8 C24.33695584 9.66811111 23.66944219 11.33444623 23 13 C22.65582031 13.87140625 22.31164062 14.7428125 21.95703125 15.640625 C20.80110269 18.27598431 19.65107713 20.64008347 18 23 C14.4375 24.375 14.4375 24.375 11 24 C5.74513004 20.75434503 3.45662671 13.20235491 0.9765625 7.75 C0.11713969 5.82393634 0.11713969 5.82393634 -2 5 C-1.125 1.125 -1.125 1.125 0 0 Z " fill="#381A67" transform="translate(83,118)"/>
<path d="M0 0 C4.6296487 0.06692002 7.79054742 0.74420644 11.75 3.3125 C10.76 3.8075 10.76 3.8075 9.75 4.3125 C9.33829424 6.13086712 8.92788109 7.94953509 8.5234375 9.76953125 C6.96241587 14.90198116 4.25459988 19.58683985 1.75 24.3125 C1.42 24.3125 1.09 24.3125 0.75 24.3125 C0.32682292 22.29427083 -0.09635417 20.27604167 -0.51953125 18.2578125 C-1.17308838 15.94203451 -1.17308838 15.94203451 -4.25 14.3125 C-7.32908998 10.32108706 -7.72025629 7.29721662 -7.25 2.3125 C-4.67767294 -0.25982706 -3.57102308 0.01463534 0 0 Z " fill="#2E6CBC" transform="translate(109.25,96.6875)"/>
<path d="M0 0 C4.75 0.875 4.75 0.875 7 2 C6.67 2.99 6.34 3.98 6 5 C4.02 5 2.04 5 0 5 C-0.12375 5.598125 -0.2475 6.19625 -0.375 6.8125 C-1 9 -1 9 -3 12 C-3.36042454 15.38799067 -3.49777394 17.26416026 -1.5625 20.125 C-1.046875 20.74375 -0.53125 21.3625 0 22 C0.6875 24.25 0.6875 24.25 1 26 C1.99 25.34 2.98 24.68 4 24 C6.6875 23.875 6.6875 23.875 9 24 C8.85691406 24.92232422 8.85691406 24.92232422 8.7109375 25.86328125 C8.54464844 27.07564453 8.54464844 27.07564453 8.375 28.3125 C8.25898438 29.11300781 8.14296875 29.91351563 8.0234375 30.73828125 C7.78466593 33.28723215 7.78466593 33.28723215 10 36 C9.01 36 8.02 36 7 36 C6.67 35.34 6.34 34.68 6 34 C4.68 34 3.36 34 2 34 C1.67 32.68 1.34 31.36 1 30 C-0.98 29.67 -2.96 29.34 -5 29 C-5 27.02 -5 25.04 -5 23 C-5.99 22.67 -6.98 22.34 -8 22 C-8.66 21.01 -9.32 20.02 -10 19 C-12.55183404 17.79549696 -12.55183404 17.79549696 -15 17 C-14.505 15.515 -14.505 15.515 -14 14 C-12.2578125 13.296875 -12.2578125 13.296875 -10.125 12.75 C-6.42411946 11.50317928 -6.14656401 11.27796622 -4.1875 7.5625 C-3.5996875 5.7990625 -3.5996875 5.7990625 -3 4 C-1.3125 1.5625 -1.3125 1.5625 0 0 Z " fill="#3D3A82" transform="translate(130,81)"/>
<path d="M0 0 C1.32 0.33 2.64 0.66 4 1 C4 1.66 4 2.32 4 3 C4.66 3 5.32 3 6 3 C6 3.99 6 4.98 6 6 C8.475 6.495 8.475 6.495 11 7 C10.21327399 11.24832044 8.65224956 14.8274358 5.0625 17.375 C2.6386954 18.10948624 1.35683494 17.84172676 -1 17 C-0.67 15.35 -0.34 13.7 0 12 C-0.65226562 11.97421875 -1.30453125 11.9484375 -1.9765625 11.921875 C-7.83037019 11.54198188 -11.52356837 10.88742747 -16 7 C-16 6.34 -16 5.68 -16 5 C-5.44191344 4.44646925 -5.44191344 4.44646925 -1 8 C-1.20625 7.4225 -1.4125 6.845 -1.625 6.25 C-2.08661261 3.48032433 -1.42944945 2.35438733 0 0 Z " fill="#1F7EA9" transform="translate(65,122)"/>
<path d="M0 0 C3.3985407 1.1328469 4.73413495 2.26533528 7 5 C7 6.32 7 7.64 7 9 C6.01 9 5.02 9 4 9 C4 9.66 4 10.32 4 11 C4.99 11.33 5.98 11.66 7 12 C7.73046875 14.06640625 7.73046875 14.06640625 8.1875 16.5625 C8.34605469 17.38878906 8.50460938 18.21507813 8.66796875 19.06640625 C8.77753906 19.70449219 8.88710938 20.34257813 9 21 C8.34 21.33 7.68 21.66 7 22 C6.31527335 23.88764903 6.31527335 23.88764903 5.875 26.0625 C5.70742188 26.79597656 5.53984375 27.52945313 5.3671875 28.28515625 C5.24601562 28.85105469 5.12484375 29.41695312 5 30 C4.67 29.34 4.34 28.68 4 28 C2.2984375 28.0309375 2.2984375 28.0309375 0.5625 28.0625 C-3 28 -3 28 -4 27 C-4.04063832 25.33382885 -4.042721 23.66611905 -4 22 C-2.02 21.34 -0.04 20.68 2 20 C2.33 17.36 2.66 14.72 3 12 C2.01 12 1.02 12 0 12 C0 12.99 0 13.98 0 15 C-0.99 15 -1.98 15 -3 15 C-3 13.68 -3 12.36 -3 11 C-3.33 10.01 -3.66 9.02 -4 8 C-4.99 8 -5.98 8 -7 8 C-7 7.34 -7 6.68 -7 6 C-4.36 6 -1.72 6 1 6 C0.67 4.02 0.34 2.04 0 0 Z " fill="#5676AC" transform="translate(38,105)"/>
<path d="M0 0 C0.9075 0.103125 1.815 0.20625 2.75 0.3125 C2.75 0.9725 2.75 1.6325 2.75 2.3125 C2.275625 2.725 1.80125 3.1375 1.3125 3.5625 C-0.83739668 5.97038428 -0.90045398 8.16658584 -1.25 11.3125 C-4.24480917 12.1848412 -6.88575911 12.42079766 -10 12.375 C-10.79921875 12.36597656 -11.5984375 12.35695313 -12.421875 12.34765625 C-13.02515625 12.33605469 -13.6284375 12.32445313 -14.25 12.3125 C-14.25 12.9725 -14.25 13.6325 -14.25 14.3125 C-21 15.4375 -21 15.4375 -23.25 14.3125 C-23.25 14.9725 -23.25 15.6325 -23.25 16.3125 C-23.91 16.3125 -24.57 16.3125 -25.25 16.3125 C-25.58 15.3225 -25.91 14.3325 -26.25 13.3125 C-27.24 12.6525 -28.23 11.9925 -29.25 11.3125 C-27.93 11.3125 -26.61 11.3125 -25.25 11.3125 C-26.555239 8.70202199 -27.60826574 8.63183577 -30.3125 7.6875 C-31.04597656 7.42710938 -31.77945313 7.16671875 -32.53515625 6.8984375 C-33.10105469 6.70507812 -33.66695312 6.51171875 -34.25 6.3125 C-33.59 5.9825 -32.93 5.6525 -32.25 5.3125 C-31.26 5.6425 -30.27 5.9725 -29.25 6.3125 C-25.7239248 6.50819174 -22.20407718 6.65690107 -18.67382812 6.7421875 C-13.83567169 6.9460782 -10.50854733 7.78039077 -6.25 10.3125 C-6.4975 9.590625 -6.745 8.86875 -7 8.125 C-7.25 5.3125 -7.25 5.3125 -5.6875 2.5 C-3.25 0.3125 -3.25 0.3125 0 0 Z " fill="#1D152F" transform="translate(67.25,76.6875)"/>
<path d="M0 0 C0.66 0.33 1.32 0.66 2 1 C-1.625 6.875 -1.625 6.875 -5 8 C-5.33 8.99 -5.66 9.98 -6 11 C-4.68 11 -3.36 11 -2 11 C-1.7525 12.11375 -1.505 13.2275 -1.25 14.375 C-0.38994661 18.04615198 -0.38994661 18.04615198 2.125 19.4375 C2.74375 19.623125 3.3625 19.80875 4 20 C3.67 20.66 3.34 21.32 3 22 C2.236875 21.67 1.47375 21.34 0.6875 21 C-3.58716407 19.84076907 -7.21662809 19.97661442 -11.609375 20.22265625 C-12.39828125 20.14917969 -13.1871875 20.07570313 -14 20 C-14.66 19.01 -15.32 18.02 -16 17 C-15.401875 16.7525 -14.80375 16.505 -14.1875 16.25 C-10.64241996 14.22423998 -9.27335281 11.82005844 -8 8 C-9.65 8 -11.3 8 -13 8 C-13 6.02 -13 4.04 -13 2 C-11.783125 2.04125 -10.56625 2.0825 -9.3125 2.125 C-5.74794856 2.14392682 -3.2778701 1.44611916 0 0 Z " fill="#587E74" transform="translate(120,57)"/>
<path d="M0 0 C1.71928551 1.61233151 3.38481721 3.28339285 5 5 C4.8125 7.3125 4.8125 7.3125 4 9 C5.98 9 7.96 9 10 9 C10.2475 9.639375 10.495 10.27875 10.75 10.9375 C11.81562433 13.18741541 11.81562433 13.18741541 14.125 13.75 C14.74375 13.8325 15.3625 13.915 16 14 C16 14.66 16 15.32 16 16 C11.05 16.495 11.05 16.495 6 17 C5.34 18.98 4.68 20.96 4 23 C3.01 22.67 2.02 22.34 1 22 C1.33 22.99 1.66 23.98 2 25 C2.22451458 27.22574335 2.40782878 29.45581519 2.5625 31.6875 C2.64628906 32.86699219 2.73007813 34.04648438 2.81640625 35.26171875 C2.87699219 36.16535156 2.93757813 37.06898438 3 38 C2.34 38 1.68 38 1 38 C-1.62372009 30.22898173 -1.00778383 22.56877989 -0.625 14.5 C-0.56665073 13.09118924 -0.50935013 11.68233463 -0.453125 10.2734375 C-0.31236947 6.84838625 -0.16102407 3.42414822 0 0 Z " fill="#454053" transform="translate(121,101)"/>
<path d="M0 0 C0.66 0 1.32 0 2 0 C3.65625 1.6796875 3.65625 1.6796875 5.5 3.875 C9.77125352 9.04081496 9.77125352 9.04081496 16 11 C16.33 12.65 16.66 14.3 17 16 C18.65 16.33 20.3 16.66 22 17 C22 14.69 22 12.38 22 10 C24.64 10 27.28 10 30 10 C30.99 12.64 31.98 15.28 33 18 C29.7 17.67 26.4 17.34 23 17 C22.67 18.65 22.34 20.3 22 22 C20.35 21.67 18.7 21.34 17 21 C17 20.34 17 19.68 17 19 C16.34 18.67 15.68 18.34 15 18 C15 17.67 15 17.34 15 17 C13.02 17 11.04 17 9 17 C8.60167969 16.25234375 8.20335937 15.5046875 7.79296875 14.734375 C7.26316406 13.74953125 6.73335937 12.7646875 6.1875 11.75 C5.66542969 10.77546875 5.14335938 9.8009375 4.60546875 8.796875 C3.09244481 6.02207169 3.09244481 6.02207169 1.30078125 3.765625 C0 2 0 2 0 0 Z " fill="#E891C2" transform="translate(40,39)"/>
<path d="M0 0 C5.64491803 0.62721311 5.64491803 0.62721311 7.41015625 2.48046875 C9.9035806 4.8636188 12.72528267 4.86023808 16.0390625 5.375 C16.68617187 5.58125 17.33328125 5.7875 18 6 C18.33 6.99 18.66 7.98 19 9 C18.360625 9.598125 17.72125 10.19625 17.0625 10.8125 C14.79689611 12.90810337 14.79689611 12.90810337 14 16 C10.9375 17.1875 10.9375 17.1875 8 18 C6.66180502 15.3773768 5.3292849 12.75213401 4 10.125 C3.6184375 9.37863281 3.236875 8.63226563 2.84375 7.86328125 C2.4828125 7.14785156 2.121875 6.43242188 1.75 5.6953125 C1.41484375 5.03547363 1.0796875 4.37563477 0.734375 3.69580078 C0 2 0 2 0 0 Z " fill="#7A2466" transform="translate(73,102)"/>
<path d="M0 0 C2 3 2 3 2 5 C2.99 5 3.98 5 5 5 C7.35723489 7.53184488 8 8.47190093 8 12 C14.435 11.505 14.435 11.505 21 11 C21.66 8.69 22.32 6.38 23 4 C23.66 4.33 24.32 4.66 25 5 C25.3125 7.8125 25.3125 7.8125 25 11 C22.8125 12.75 22.8125 12.75 20 14 C19.25492188 14.350625 18.50984375 14.70125 17.7421875 15.0625 C14.47408174 16.17980112 11.76068962 16.2657272 8.3125 16.25 C7.17425781 16.25515625 6.03601563 16.2603125 4.86328125 16.265625 C2 16 2 16 0 14 C0 13.01 0 12.02 0 11 C-0.66 11 -1.32 11 -2 11 C-1.85892253 9.54119891 -1.71197585 8.08296449 -1.5625 6.625 C-1.48128906 5.81289062 -1.40007812 5.00078125 -1.31640625 4.1640625 C-1 2 -1 2 0 0 Z " fill="#E9E2E8" transform="translate(100,81)"/>
<path d="M0 0 C0.99 0.66 1.98 1.32 3 2 C3.47114738 4.7427508 3.17805784 7.19558897 3 10 C1.13872594 11.86127406 -1.49929136 11.46118139 -3.9921875 11.71875 C-6.20138785 11.9662595 -6.20138785 11.9662595 -9 13 C-11.32590854 9.36576791 -11.16265833 6.22911669 -11 2 C-7.3586453 -0.33046701 -4.2475253 -0.30891093 0 0 Z " fill="#64BCDC" transform="translate(81,71)"/>
<path d="M0 0 C2.31 0 4.62 0 7 0 C7.433125 0.928125 7.86625 1.85625 8.3125 2.8125 C9.7509985 5.52966383 10.82081239 6.96731239 13 9 C12.32453125 9.18175781 11.6490625 9.36351562 10.953125 9.55078125 C10.06109375 9.80214844 9.1690625 10.05351562 8.25 10.3125 C6.92742188 10.67794922 6.92742188 10.67794922 5.578125 11.05078125 C2.92471618 12.02771813 1.1968546 13.24996328 -1 15 C-2.64797236 15.71162443 -4.31165408 16.39031953 -6 17 C-5.67 14.69 -5.34 12.38 -5 10 C-4.01 9.67 -3.02 9.34 -2 9 C-1.19436362 6.89415562 -1.19436362 6.89415562 -0.8125 4.4375 C-0.65394531 3.61121094 -0.49539062 2.78492188 -0.33203125 1.93359375 C-0.22246094 1.29550781 -0.11289062 0.65742188 0 0 Z " fill="#A9C9D8" transform="translate(35,133)"/>
<path d="M0 0 C3.14041545 0.05562733 4.42145416 0.19335122 7.1875 1.8125 C7.661875 2.3075 8.13625 2.8025 8.625 3.3125 C8.295 5.9525 7.965 8.5925 7.625 11.3125 C8.615 11.9725 9.605 12.6325 10.625 13.3125 C8.975 12.9825 7.325 12.6525 5.625 12.3125 C5.625 11.6525 5.625 10.9925 5.625 10.3125 C5.01011719 10.26351562 4.39523438 10.21453125 3.76171875 10.1640625 C2.95347656 10.08929688 2.14523438 10.01453125 1.3125 9.9375 C0.11173828 9.83308594 0.11173828 9.83308594 -1.11328125 9.7265625 C-3.375 9.3125 -3.375 9.3125 -6.375 7.3125 C-6.6875 4.8125 -6.6875 4.8125 -6.375 2.3125 C-3.97049822 -0.09200178 -3.29266058 0.01640861 0 0 Z " fill="#E7E6E3" transform="translate(85.375,97.6875)"/>
<path d="M0 0 C2.48046875 1.33203125 2.48046875 1.33203125 5 3 C5.3125 5.6875 5.3125 5.6875 5 8 C5.66 8 6.32 8 7 8 C7.0928125 9.175625 7.0928125 9.175625 7.1875 10.375 C7.455625 11.24125 7.72375 12.1075 8 13 C10.47636012 14.37466625 10.47636012 14.37466625 13 15 C12.814375 15.61875 12.62875 16.2375 12.4375 16.875 C11.76313824 19.04160178 11.76313824 19.04160178 13 21 C12.38125 20.67 11.7625 20.34 11.125 20 C9.08981656 18.85806765 9.08981656 18.85806765 7 19 C6.34 19.33 5.68 19.66 5 20 C5 19.01 5 18.02 5 17 C4.34 17.33 3.68 17.66 3 18 C3 18.99 3 19.98 3 21 C2.01 21 1.02 21 0 21 C0 14 0 7 0 0 Z " fill="#DF8CAE" transform="translate(150,122)"/>
<path d="M0 0 C1.875 1.875 1.875 1.875 2.5 4.75 C1.67860931 8.85695344 0.15489602 10.3405349 -3.125 12.875 C-4.445 12.875 -5.765 12.875 -7.125 12.875 C-6.795 10.235 -6.465 7.595 -6.125 4.875 C-9.02592502 2.94104999 -10.02174737 2.57368059 -13.3125 2.25 C-14.570625 2.12625 -15.82875 2.0025 -17.125 1.875 C-14.49024571 -3.39450858 -4.62878167 -1.6663614 0 0 Z " fill="#CC3C37" transform="translate(99.125,96.125)"/>
<path d="M0 0 C1.32 0 2.64 0 4 0 C3.01 2.97 2.02 5.94 1 9 C4.96 9 8.92 9 13 9 C10 11 10 11 7.375 11.5 C6.59125 11.665 5.8075 11.83 5 12 C4.67 12.66 4.34 13.32 4 14 C2.0625 14.75 2.0625 14.75 0 15 C-0.66 14.34 -1.32 13.68 -2 13 C-3.98821313 12.60235737 -5.98944339 12.26224651 -8 12 C-7.67 10.68 -7.34 9.36 -7 8 C-7.99 7.34 -8.98 6.68 -10 6 C-10 5.34 -10 4.68 -10 4 C-9.04287109 3.81824219 -9.04287109 3.81824219 -8.06640625 3.6328125 C-7.24011719 3.46523437 -6.41382813 3.29765625 -5.5625 3.125 C-4.73878906 2.96257812 -3.91507813 2.80015625 -3.06640625 2.6328125 C-2.38449219 2.42398438 -1.70257813 2.21515625 -1 2 C-0.67 1.34 -0.34 0.68 0 0 Z " fill="#384F9E" transform="translate(148,77)"/>
<path d="M0 0 C4.67105792 1.55701931 8.08705685 4.08447373 12 7 C12.33 5.68 12.66 4.36 13 3 C14.58409994 3.11487748 16.16728963 3.24234508 17.75 3.375 C18.63171875 3.44460937 19.5134375 3.51421875 20.421875 3.5859375 C22.99066382 3.99850055 24.75841015 4.71160957 27 6 C27 6.66 27 7.32 27 8 C22.19094114 10.76520885 18.45266601 11.64244813 13 12 C9.76227162 10.92075721 9.13000136 10.24856932 7.0625 7.6875 C4.8271174 4.97828318 2.53535716 2.43784342 0 0 Z " fill="#F5B26A" transform="translate(22,48)"/>
<path d="M0 0 C0.33 0.66 0.66 1.32 1 2 C0.0625 4.125 0.0625 4.125 -1 6 C-0.01 6 0.98 6 2 6 C2 6.66 2 7.32 2 8 C-5.54098361 9.13114754 -5.54098361 9.13114754 -8.1875 8.375 C-10.23306486 7.75231235 -10.23306486 7.75231235 -12.75 9.4375 C-13.4925 9.953125 -14.235 10.46875 -15 11 C-15.98120464 7.94736336 -15.98120464 6.05263664 -15 3 C-14.01 3.33 -13.02 3.66 -12 4 C-12.33 3.01 -12.66 2.02 -13 1 C-6.565 0.505 -6.565 0.505 0 0 Z " fill="#D56EA8" transform="translate(117,76)"/>
<path d="M0 0 C0.99 0.66 1.98 1.32 3 2 C3 2.66 3 3.32 3 4 C3.66 4 4.32 4 5 4 C6.31746333 6.58090767 7.62909617 9.16450458 8.9375 11.75 C9.31068359 12.47960937 9.68386719 13.20921875 10.06835938 13.9609375 C10.60493164 15.02441406 10.60493164 15.02441406 11.15234375 16.109375 C11.48226318 16.75874023 11.81218262 17.40810547 12.15209961 18.07714844 C13.01452116 20.03293079 13.54374179 21.91540694 14 24 C12 23 10 22 8 21 C7.6088062 18.93734178 7.49325481 16.90556733 7.34375 14.8125 C7.2303125 14.214375 7.116875 13.61625 7 13 C4.53155352 11.76577676 2.9371901 11.93404042 0.1875 12 C-3.35822594 12.04105037 -6.54931806 11.92018185 -10 11 C-10 10.01 -10 9.02 -10 8 C-7.66705225 7.95758277 -5.33297433 7.95907063 -3 8 C-2.67 8.33 -2.34 8.66 -2 9 C-1.34 6.03 -0.68 3.06 0 0 Z " fill="#5A5A83" transform="translate(76,60)"/>
<path d="M0 0 C1.875 0.125 1.875 0.125 4 1 C5.25 4.0625 5.25 4.0625 6 7 C7.65 6.34 9.3 5.68 11 5 C11.28875 5.61875 11.5775 6.2375 11.875 6.875 C12.93720042 9.13325765 12.93720042 9.13325765 15 11 C14.67 11.33 14.34 11.66 14 12 C13.74996036 15.45821402 13.74996036 15.45821402 14 19 C14.66 19.66 15.32 20.32 16 21 C16 21.99 16 22.98 16 24 C12.04 23.67 8.08 23.34 4 23 C4.99 22.34 5.98 21.68 7 21 C9.27062171 19.31278117 9.27062171 19.31278117 11 17 C11.33448259 13.832168 11.33448259 13.832168 11 11 C8.03821227 9.32889958 5.62928808 8.67317248 2.25 8.375 C1.45078125 8.30023438 0.6515625 8.22546875 -0.171875 8.1484375 C-0.77515625 8.09945312 -1.3784375 8.05046875 -2 8 C-1.47731534 5.23723823 -0.89130413 2.6739124 0 0 Z " fill="#402D53" transform="translate(89,87)"/>
<path d="M0 0 C0.66 0.99 1.32 1.98 2 3 C2.99 3.33 3.98 3.66 5 4 C5.33 3.01 5.66 2.02 6 1 C7.32 1.66 8.64 2.32 10 3 C10.33 2.01 10.66 1.02 11 0 C11.99 0.33 12.98 0.66 14 1 C14.66 0.67 15.32 0.34 16 0 C15.05066101 3.35433109 14.10251165 6.69246505 13 10 C6.73 9.67 0.46 9.34 -6 9 C-4.35 7.68 -2.7 6.36 -1 5 C-0.12056596 2.36539052 -0.12056596 2.36539052 0 0 Z " fill="#B4E0EB" transform="translate(133,47)"/>
<path d="M0 0 C0.33 0 0.66 0 1 0 C1.08069658 2.95887459 1.14034665 5.9155659 1.1875 8.875 C1.22520508 10.13763672 1.22520508 10.13763672 1.26367188 11.42578125 C1.27817383 12.63427734 1.27817383 12.63427734 1.29296875 13.8671875 C1.31653442 14.98262939 1.31653442 14.98262939 1.34057617 16.12060547 C1.22818604 16.74080566 1.1157959 17.36100586 1 18 C-1.85478326 19.90318884 -3.41941308 20.4619099 -6.6875 21.125 C-7.49574219 21.29257813 -8.30398437 21.46015625 -9.13671875 21.6328125 C-9.75160156 21.75398438 -10.36648437 21.87515625 -11 22 C-11.33 19.69 -11.66 17.38 -12 15 C-10.88625 14.71125 -9.7725 14.4225 -8.625 14.125 C-4.99708908 13.30758671 -4.99708908 13.30758671 -3 11 C-2.39286197 9.14516546 -1.85868948 7.26578615 -1.375 5.375 C-1.11460937 4.37210937 -0.85421875 3.36921875 -0.5859375 2.3359375 C-0.39257812 1.56507812 -0.19921875 0.79421875 0 0 Z " fill="#342344" transform="translate(149,119)"/>
<path d="M0 0 C0.33 0.99 0.66 1.98 1 3 C2.299375 3.86625 2.299375 3.86625 3.625 4.75 C4.40875 5.4925 5.1925 6.235 6 7 C5.92006484 11.39643401 4.8104638 15.01697965 3 19 C2.67 18.34 2.34 17.68 2 17 C1.01 17 0.02 17 -1 17 C-1.0825 15.741875 -1.165 14.48375 -1.25 13.1875 C-1.6225603 9.69859456 -1.6225603 9.69859456 -4.0625 7.1875 C-4.701875 6.795625 -5.34125 6.40375 -6 6 C-6 5.01 -6 4.02 -6 3 C-5.34 3 -4.68 3 -4 3 C-4 2.34 -4 1.68 -4 1 C-2 0 -2 0 0 0 Z " fill="#537A27" transform="translate(67,106)"/>
<path d="M0 0 C4.67535094 0.02435079 7.81043596 0.65406657 11.8125 3.25 C10.8225 3.745 10.8225 3.745 9.8125 4.25 C9.12777335 6.13764903 9.12777335 6.13764903 8.6875 8.3125 C8.43613281 9.41271484 8.43613281 9.41271484 8.1796875 10.53515625 C8.05851562 11.10105469 7.93734375 11.66695312 7.8125 12.25 C7.4825 12.25 7.1525 12.25 6.8125 12.25 C6.8125 10.6 6.8125 8.95 6.8125 7.25 C5.65621094 7.30220703 5.65621094 7.30220703 4.4765625 7.35546875 C3.47367188 7.38253906 2.47078125 7.40960938 1.4375 7.4375 C-0.05910156 7.48970703 -0.05910156 7.48970703 -1.5859375 7.54296875 C-2.44445312 7.44628906 -3.30296875 7.34960938 -4.1875 7.25 C-6.1875 4.25 -6.1875 4.25 -6.1875 1.25 C-4.48191557 -0.45558443 -2.32755782 0.03769324 0 0 Z " fill="#4D7DC2" transform="translate(109.1875,96.75)"/>
<path d="M0 0 C1.64574566 -0.02688151 3.29161413 -0.04634123 4.9375 -0.0625 C5.85402344 -0.07410156 6.77054687 -0.08570313 7.71484375 -0.09765625 C10 0 10 0 11 1 C11.35897436 7.46153846 11.35897436 7.46153846 9 11 C8.67 10.67 8.34 10.34 8 10 C6.865625 9.896875 5.73125 9.79375 4.5625 9.6875 C1 9 1 9 -0.5 7.25 C-1.10341212 4.53464544 -0.73888303 2.65997891 0 0 Z " fill="#F0DD56" transform="translate(65,59)"/>
<path d="M0 0 C-0.99 0.66 -1.98 1.32 -3 2 C-3.72965366 4.56282742 -3.72965366 4.56282742 -4 7 C-3.34 7 -2.68 7 -2 7 C-2.33 7.99 -2.66 8.98 -3 10 C-5.97 9.505 -5.97 9.505 -9 9 C-9.33 9.99 -9.66 10.98 -10 12 C-10.66 11.34 -11.32 10.68 -12 10 C-13.32 12.31 -14.64 14.62 -16 17 C-16.66 16.67 -17.32 16.34 -18 16 C-17.57316761 14.41375765 -17.13303842 12.8310902 -16.6875 11.25 C-16.32205078 9.92742187 -16.32205078 9.92742187 -15.94921875 8.578125 C-14.97874669 5.94227495 -13.78994356 4.14592674 -12 2 C-12 3.65 -12 5.3 -12 7 C-10.70881491 5.78867081 -10.70881491 5.78867081 -9.1875 3 C-7 0 -7 0 -4.9375 -0.9375 C-3 -1 -3 -1 0 0 Z " fill="#7DC1DC" transform="translate(61,142)"/>
<path d="M0 0 C1.98 0.495 1.98 0.495 4 1 C4 1.66 4 2.32 4 3 C4.66 3 5.32 3 6 3 C6 3.99 6 4.98 6 6 C7.65 6.33 9.3 6.66 11 7 C10.21327399 11.24832044 8.65224956 14.8274358 5.0625 17.375 C2.6386954 18.10948624 1.35683494 17.84172676 -1 17 C-0.01 15.515 -0.01 15.515 1 14 C1.66 14 2.32 14 3 14 C2.88648483 12.18674449 2.75887039 10.37436643 2.625 8.5625 C2.55539063 7.55316406 2.48578125 6.54382813 2.4140625 5.50390625 C2.27742188 4.67761719 2.14078125 3.85132812 2 3 C1.34 2.67 0.68 2.34 0 2 C0 1.34 0 0.68 0 0 Z " fill="#41628C" transform="translate(65,122)"/>
<path d="M0 0 C0.86882813 0.06703125 1.73765625 0.1340625 2.6328125 0.203125 C4.875 0.75 4.875 0.75 6.875 3.75 C6.25625 3.9975 5.6375 4.245 5 4.5 C2.52431313 5.95628639 1.92374998 7.12812506 0.875 9.75 C-1.79166667 9.75 -4.45833333 9.75 -7.125 9.75 C-7.455 9.09 -7.785 8.43 -8.125 7.75 C-7.320625 7.62625 -6.51625 7.5025 -5.6875 7.375 C-4.841875 7.16875 -3.99625 6.9625 -3.125 6.75 C-2.795 6.09 -2.465 5.43 -2.125 4.75 C-5.425 4.42 -8.725 4.09 -12.125 3.75 C-8.04732706 -0.32767294 -5.60171984 -0.50164655 0 0 Z " fill="#C0C0C2" transform="translate(58.125,111.25)"/>
<path d="M0 0 C0.66 0 1.32 0 2 0 C2 0.66 2 1.32 2 2 C4.97 2 7.94 2 11 2 C10.34 3.98 9.68 5.96 9 8 C6.69 7.67 4.38 7.34 2 7 C1.67 9.97 1.34 12.94 1 16 C-0.32 15.34 -1.64 14.68 -3 14 C-2.88512252 12.41590006 -2.75765492 10.83271037 -2.625 9.25 C-2.55539063 8.36828125 -2.48578125 7.4865625 -2.4140625 6.578125 C-2.00149945 4.00933618 -1.28839043 2.24158985 0 0 Z " fill="#2C426C" transform="translate(70,95)"/>
<path d="M0 0 C-0.33 0.66 -0.66 1.32 -1 2 C-1.66 2 -2.32 2 -3 2 C-4.12516085 3.83284443 -4.12516085 3.83284443 -5 6 C-4.67 6.99 -4.34 7.98 -4 9 C-7.75 12 -7.75 12 -10 12 C-10.28875 12.61875 -10.5775 13.2375 -10.875 13.875 C-12 16 -12 16 -14 18 C-13.51421457 14.87709365 -13.0013988 12.00419641 -12 9 C-12.66 8.67 -13.32 8.34 -14 8 C-12.61860662 6.6517119 -11.2192352 5.32182622 -9.8125 4 C-9.03519531 3.2575 -8.25789062 2.515 -7.45703125 1.75 C-4.66954796 -0.23536171 -3.34218632 -0.37992882 0 0 Z " fill="#CAB3DF" transform="translate(173,38)"/>
<path d="M0 0 C2.4375 0.3828125 2.4375 0.3828125 5 1 C5.70151152 2.3153341 6.36525925 3.65117592 7 5 C9.53188648 6.75322937 9.53188648 6.75322937 12 8 C11.67 8.66 11.34 9.32 11 10 C5.25 10.125 5.25 10.125 3 9 C2.01 9.495 2.01 9.495 1 10 C0.34786708 12.02463255 0.34786708 12.02463255 0 14 C-1.53508028 11.56661348 -2.03088304 10.32875493 -1.7578125 7.421875 C-1.54898438 6.54015625 -1.34015625 5.6584375 -1.125 4.75 C-0.92132813 3.85796875 -0.71765625 2.9659375 -0.5078125 2.046875 C-0.34023438 1.37140625 -0.17265625 0.6959375 0 0 Z " fill="#3D9CC1" transform="translate(44,125)"/>
<path d="M0 0 C0.99 0 1.98 0 3 0 C3.33 0.99 3.66 1.98 4 3 C3.01 3.495 3.01 3.495 2 4 C1.31527335 5.88764903 1.31527335 5.88764903 0.875 8.0625 C0.62363281 9.16271484 0.62363281 9.16271484 0.3671875 10.28515625 C0.24601562 10.85105469 0.12484375 11.41695312 0 12 C-0.33 11.34 -0.66 10.68 -1 10 C-2.7015625 10.0309375 -2.7015625 10.0309375 -4.4375 10.0625 C-8 10 -8 10 -9 9 C-9.04063832 7.33382885 -9.042721 5.66611905 -9 4 C-3.375 2 -3.375 2 0 2 C0 1.34 0 0.68 0 0 Z " fill="#B03B39" transform="translate(43,123)"/>
<path d="M0 0 C0.99 0 1.98 0 3 0 C3 2.64 3 5.28 3 8 C-0.99000166 9.42500059 -4.80530429 10.40075776 -9 11 C-9 9.68 -9 8.36 -9 7 C-8.38125 6.9175 -7.7625 6.835 -7.125 6.75 C-4.81562433 6.18741541 -4.81562433 6.18741541 -3.75 3.9375 C-3.5025 3.298125 -3.255 2.65875 -3 2 C-2.01 2.33 -1.02 2.66 0 3 C0 2.01 0 1.02 0 0 Z " fill="#C9EAF3" transform="translate(38,117)"/>
<path d="M0 0 C1.32 0.66 2.64 1.32 4 2 C4 2.99 4 3.98 4 5 C4.99 4.34 5.98 3.68 7 3 C9.26171875 2.5859375 9.26171875 2.5859375 11.6875 2.375 C12.49574219 2.30023438 13.30398437 2.22546875 14.13671875 2.1484375 C14.75160156 2.09945312 15.36648437 2.05046875 16 2 C15.67 3.32 15.34 4.64 15 6 C12.36 6 9.72 6 7 6 C6.34 7.32 5.68 8.64 5 10 C4.67 8.68 4.34 7.36 4 6 C1.53199953 7.15173355 -0.04783565 8.04783565 -2 10 C-2.25 3.375 -2.25 3.375 0 0 Z " fill="#509C4A" transform="translate(68,79)"/>
<path d="M0 0 C2.64 0 5.28 0 8 0 C8.99 2.64 9.98 5.28 11 8 C7.7 7.67 4.4 7.34 1 7 C0.67 7.99 0.34 8.98 0 10 C-0.66 10 -1.32 10 -2 10 C-2 9.34 -2 8.68 -2 8 C-1.34 8 -0.68 8 0 8 C0 5.36 0 2.72 0 0 Z " fill="#5CA7CE" transform="translate(62,49)"/>
<path d="M0 0 C1.32 0 2.64 0 4 0 C7.83333333 8.66666667 7.83333333 8.66666667 8 11 C6.5625 12.75 6.5625 12.75 5 14 C2.74754119 11.31158141 1.11786042 9.35358125 0 6 C-0.66 5.67 -1.32 5.34 -2 5 C-1.125 1.125 -1.125 1.125 0 0 Z " fill="#56287B" transform="translate(83,118)"/>
<path d="M0 0 C1.32 0 2.64 0 4 0 C3.43454163 3.95820859 2.19097652 6.6659053 0 10 C-2.97 9.505 -2.97 9.505 -6 9 C-6.33 6.69 -6.66 4.38 -7 2 C-4.03 2 -1.06 2 2 2 C1.34 1.34 0.68 0.68 0 0 Z " fill="#233C5D" transform="translate(101,131)"/>
<path d="M0 0 C0 3 0 6 0 9 C-6.75 9.125 -6.75 9.125 -9 8 C-9.33 8.66 -9.66 9.32 -10 10 C-9.8125 7.1875 -9.8125 7.1875 -9 4 C-6.17608443 1.78666077 -3.51617697 0.65114388 0 0 Z " fill="#CE659F" transform="translate(41,86)"/>
<path d="M0 0 C-0.33 2.97 -0.66 5.94 -1 9 C-3.64 9 -6.28 9 -9 9 C-9.625 6.625 -9.625 6.625 -10 4 C-7.25346796 1.25346796 -3.91404908 0 0 0 Z " fill="#5F84C9" transform="translate(40,102)"/>
<path d="M0 0 C1 2 1 2 0.0625 5.125 C-0.288125 6.07375 -0.63875 7.0225 -1 8 C-2.65 8.33 -4.3 8.66 -6 9 C-6 9.33 -6 9.66 -6 10 C-7.65 10 -9.3 10 -11 10 C-11.33 10.99 -11.66 11.98 -12 13 C-11.67 10.36 -11.34 7.72 -11 5 C-9.93458984 4.58427734 -9.93458984 4.58427734 -8.84765625 4.16015625 C-7.46900391 3.61681641 -7.46900391 3.61681641 -6.0625 3.0625 C-5.14597656 2.70285156 -4.22945312 2.34320313 -3.28515625 1.97265625 C-1.07581467 1.2003782 -1.07581467 1.2003782 0 0 Z " fill="#C7B53C" transform="translate(149,101)"/>
<path d="M0 0 C0.9075 0.103125 1.815 0.20625 2.75 0.3125 C2.75 0.9725 2.75 1.6325 2.75 2.3125 C2.0384375 2.93125 2.0384375 2.93125 1.3125 3.5625 C-0.83739668 5.97038428 -0.90045398 8.16658584 -1.25 11.3125 C-3.89 11.3125 -6.53 11.3125 -9.25 11.3125 C-8.26 10.9825 -7.27 10.6525 -6.25 10.3125 C-6.4975 9.590625 -6.745 8.86875 -7 8.125 C-7.25 5.3125 -7.25 5.3125 -5.6875 2.5 C-3.25 0.3125 -3.25 0.3125 0 0 Z " fill="#3B1A2C" transform="translate(67.25,76.6875)"/>
<path d="M0 0 C0.99 0 1.98 0 3 0 C5 3 5 3 4.625 5.1875 C4.41875 5.785625 4.2125 6.38375 4 7 C2.20906809 7.08086147 0.41710372 7.13912702 -1.375 7.1875 C-2.87160156 7.23970703 -2.87160156 7.23970703 -4.3984375 7.29296875 C-5.25695312 7.19628906 -6.11546875 7.09960938 -7 7 C-7.66 6.01 -8.32 5.02 -9 4 C-7 3 -5 2 -3 1 C-2.01 1.33 -1.02 1.66 0 2 C0 1.34 0 0.68 0 0 Z " fill="#839ABF" transform="translate(113,70)"/>
<path d="M0 0 C-0.14308594 0.92232422 -0.14308594 0.92232422 -0.2890625 1.86328125 C-0.45535156 3.07564453 -0.45535156 3.07564453 -0.625 4.3125 C-0.74101562 5.11300781 -0.85703125 5.91351563 -0.9765625 6.73828125 C-1.21533407 9.28723215 -1.21533407 9.28723215 1 12 C0.01 12 -0.98 12 -2 12 C-2.33 11.34 -2.66 10.68 -3 10 C-4.32 10 -5.64 10 -7 10 C-7.66 7.69 -8.32 5.38 -9 3 C-5.92807025 0.26939578 -4.09590633 -0.34132553 0 0 Z " fill="#3F2936" transform="translate(139,105)"/>
<path d="M0 0 C0.66 0.33 1.32 0.66 2 1 C0.515 3.475 0.515 3.475 -1 6 C-1.61875 5.79375 -2.2375 5.5875 -2.875 5.375 C-3.57625 5.25125 -4.2775 5.1275 -5 5 C-5.66 5.66 -6.32 6.32 -7 7 C-8.98821313 7.39764263 -10.98944339 7.73775349 -13 8 C-13 6.02 -13 4.04 -13 2 C-11.783125 2.04125 -10.56625 2.0825 -9.3125 2.125 C-5.74794856 2.14392682 -3.2778701 1.44611916 0 0 Z " fill="#6BBF71" transform="translate(120,57)"/>
<path d="M0 0 C0.66 0 1.32 0 2 0 C3.02611949 1.65071396 4.02308143 3.31970006 5 5 C6.58245275 6.75149165 6.58245275 6.75149165 8 8 C-0.03571429 10.27678571 -0.03571429 10.27678571 -4 9 C-3.625 6.5625 -3.625 6.5625 -3 4 C-2.34 3.67 -1.68 3.34 -1 3 C-0.67 2.01 -0.34 1.02 0 0 Z " fill="#88CFE4" transform="translate(40,134)"/>
<path d="M0 0 C4.75 0.875 4.75 0.875 7 2 C6.67 2.99 6.34 3.98 6 5 C4.02 5 2.04 5 0 5 C-0.33 6.32 -0.66 7.64 -1 9 C-2.32 9.33 -3.64 9.66 -5 10 C-4.38545304 6.00544473 -2.29353263 3.25533664 0 0 Z " fill="#1B4C72" transform="translate(130,81)"/>
<path d="M0 0 C2.97 0 5.94 0 9 0 C7.41037341 4.03520597 5.71767682 8.01811282 4 12 C3.67 12 3.34 12 3 12 C2.87882812 11.43410156 2.75765625 10.86820313 2.6328125 10.28515625 C2.38144531 9.18494141 2.38144531 9.18494141 2.125 8.0625 C1.96257812 7.33160156 1.80015625 6.60070312 1.6328125 5.84765625 C1.17038477 3.79299706 1.17038477 3.79299706 -1 3 C-0.67 2.01 -0.34 1.02 0 0 Z " fill="#283D32" transform="translate(107,109)"/>
<path d="M0 0 C0.33 1.32 0.66 2.64 1 4 C1.66 4 2.32 4 3 4 C3.33 3.01 3.66 2.02 4 1 C4.66666667 3.66666667 5.33333333 6.33333333 6 9 C5.34 9 4.68 9 4 9 C4 9.99 4 10.98 4 12 C4.66 12.33 5.32 12.66 6 13 C5.67 13.33 5.34 13.66 5 14 C3.35 14 1.7 14 0 14 C0 9.38 0 4.76 0 0 Z " fill="#DCD5DF" transform="translate(149,87)"/>
<path d="M0 0 C0.64324219 0.15339844 1.28648438 0.30679688 1.94921875 0.46484375 C5.89767537 1.15746674 9.8131887 1.35800881 13.8125 1.5625 C14.99489258 1.62727539 14.99489258 1.62727539 16.20117188 1.69335938 C18.13394215 1.79878321 20.06695026 1.89983094 22 2 C22.33 2.66 22.66 3.32 23 4 C19.37 4 15.74 4 12 4 C11.34 5.65 10.68 7.3 10 9 C7.525 8.01 7.525 8.01 5 7 C6.32 6.67 7.64 6.34 9 6 C7.694761 3.38952199 6.64173426 3.31933577 3.9375 2.375 C3.20402344 2.11460938 2.47054687 1.85421875 1.71484375 1.5859375 C1.14894531 1.39257812 0.58304688 1.19921875 0 1 C0 0.67 0 0.34 0 0 Z " fill="#75182C" transform="translate(33,82)"/>
<path d="M0 0 C3.38538336 1.09527109 5.27768419 2.24297367 8 4.625 C11.36117289 7.28592854 11.97930978 7.10309462 16 7 C18.8125 9 18.8125 9 21 11 C19.741875 11.185625 18.48375 11.37125 17.1875 11.5625 C16.12595703 11.71912109 16.12595703 11.71912109 15.04296875 11.87890625 C13 12 13 12 10 11 C8.53515625 9.51171875 8.53515625 9.51171875 7.0625 7.6875 C4.8271174 4.97828318 2.53535716 2.43784342 0 0 Z " fill="#F49446" transform="translate(22,48)"/>
<path d="M0 0 C1.670625 0.061875 1.670625 0.061875 3.375 0.125 C3.375 0.785 3.375 1.445 3.375 2.125 C2.385 2.455 1.395 2.785 0.375 3.125 C-0.285 3.785 -0.945 4.445 -1.625 5.125 C-2.95833333 6.45833333 -4.29166667 7.79166667 -5.625 9.125 C-6.615 8.795 -7.605 8.465 -8.625 8.125 C-8.295 6.805 -7.965 5.485 -7.625 4.125 C-8.285 4.125 -8.945 4.125 -9.625 4.125 C-9.295 3.135 -8.965 2.145 -8.625 1.125 C-7.635 1.455 -6.645 1.785 -5.625 2.125 C-3.625 0.125 -3.625 0.125 0 0 Z " fill="#BBE6F0" transform="translate(164.625,57.875)"/>
<path d="M0 0 C0.33 0.66 0.66 1.32 1 2 C0.34 2 -0.32 2 -1 2 C-1.33 3.32 -1.66 4.64 -2 6 C-3.03125 5.79375 -4.0625 5.5875 -5.125 5.375 C-9.15908188 4.98460498 -11.36649432 5.2697592 -15 7 C-15.33 7.99 -15.66 8.98 -16 10 C-17.32 9.67 -18.64 9.34 -20 9 C-20 8.34 -20 7.68 -20 7 C-19.01 7 -18.02 7 -17 7 C-16.67 5.68 -16.34 4.36 -16 3 C-15.09636719 2.95101562 -14.19273438 2.90203125 -13.26171875 2.8515625 C-12.08222656 2.77679688 -10.90273438 2.70203125 -9.6875 2.625 C-7.92986328 2.52058594 -7.92986328 2.52058594 -6.13671875 2.4140625 C-2.84300113 2.21386253 -2.84300113 2.21386253 0 0 Z " fill="#1E3458" transform="translate(62,107)"/>
<path d="M0 0 C0 3.3 0 6.6 0 10 C-0.556875 9.38125 -1.11375 8.7625 -1.6875 8.125 C-4.06645178 5.93893621 -5.96357096 5.01214301 -9 4 C-8.67 3.01 -8.34 2.02 -8 1 C-5.17884816 -0.07009208 -3.09455459 0 0 0 Z " fill="#310E3B" transform="translate(124,94)"/>
<path d="M0 0 C-1.63412443 1.70840281 -2.86906094 2.93453047 -5 4 C-5 4.66 -5 5.32 -5 6 C-5.66 6 -6.32 6 -7 6 C-7.33 6.66 -7.66 7.32 -8 8 C-8.66 7.67 -9.32 7.34 -10 7 C-10 6.34 -10 5.68 -10 5 C-11.32 5 -12.64 5 -14 5 C-14 4.34 -14 3.68 -14 3 C-14.66 2.67 -15.32 2.34 -16 2 C-15.01 2 -14.02 2 -13 2 C-12.67 2.33 -12.34 2.66 -12 3 C-12 2.67 -12 2.34 -12 2 C-10.56656 1.46809459 -9.12804633 0.94984742 -7.6875 0.4375 C-6.48673828 0.00244141 -6.48673828 0.00244141 -5.26171875 -0.44140625 C-3 -1 -3 -1 0 0 Z " fill="#B62F6F" transform="translate(145,140)"/>
<path d="M0 0 C0.66 0 1.32 0 2 0 C2.66 1.98 3.32 3.96 4 6 C3.01 6 2.02 6 1 6 C1.66 11.94 2.32 17.88 3 24 C2.34 24 1.68 24 1 24 C-1.82635836 16.01969403 -0.7431678 8.27527386 0 0 Z " fill="#A38895" transform="translate(121,115)"/>
<path d="M0 0 C-4 2 -4 2 -6.0625 2.8125 C-8.64688835 4.39647996 -9.60781819 6.35485455 -11 9 C-15 4.25 -15 4.25 -15 2 C-9.75614911 0.2520497 -5.52677733 -0.19392201 0 0 Z " fill="#451625" transform="translate(137,79)"/>
<path d="M0 0 C1.89611434 0.14213297 3.79188394 0.28886907 5.6875 0.4375 C6.74324219 0.51871094 7.79898438 0.59992188 8.88671875 0.68359375 C11.65086297 0.96451681 14.28945741 1.40156852 17 2 C14.71823587 4.07384637 13.55676517 4.98397191 10.421875 5.07421875 C9.54015625 4.94660156 8.6584375 4.81898437 7.75 4.6875 C6.85796875 4.56761719 5.9659375 4.44773437 5.046875 4.32421875 C4.03367187 4.16373047 4.03367187 4.16373047 3 4 C3 3.34 3 2.68 3 2 C2.34 2 1.68 2 1 2 C1 4.64 1 7.28 1 10 C0.67 10 0.34 10 0 10 C0 6.7 0 3.4 0 0 Z " fill="#1C301E" transform="translate(69,93)"/>
<path d="M0 0 C1.32 0 2.64 0 4 0 C3.5625 2.3125 3.5625 2.3125 2 5 C-0.87698746 6.51595109 -3.77028552 7.57973412 -7 8 C-7.99 7.34 -8.98 6.68 -10 6 C-10 5.34 -10 4.68 -10 4 C-9.04287109 3.81824219 -9.04287109 3.81824219 -8.06640625 3.6328125 C-7.24011719 3.46523437 -6.41382813 3.29765625 -5.5625 3.125 C-4.73878906 2.96257812 -3.91507813 2.80015625 -3.06640625 2.6328125 C-2.38449219 2.42398438 -1.70257813 2.21515625 -1 2 C-0.67 1.34 -0.34 0.68 0 0 Z " fill="#284D93" transform="translate(148,77)"/>
<path d="M0 0 C-0.33 1.98 -0.66 3.96 -1 6 C-5.455 5.01 -5.455 5.01 -10 4 C-10.33 2.68 -10.66 1.36 -11 0 C-9.54263913 -0.19491452 -8.08405407 -0.38069358 -6.625 -0.5625 C-5.81289062 -0.66691406 -5.00078125 -0.77132812 -4.1640625 -0.87890625 C-2 -1 -2 -1 0 0 Z " fill="#E5C93B" transform="translate(76,64)"/>
<path d="M0 0 C0.33 0 0.66 0 1 0 C2.05496286 3.65720457 3.07671407 7.30685628 4 11 C0.04 10.67 -3.92 10.34 -8 10 C-7.01 9.34 -6.02 8.68 -5 8 C-2.15291233 5.48786382 -0.54497739 3.81484173 0 0 Z " fill="#2F2A1F" transform="translate(101,100)"/>
<path d="M0 0 C0.99 0.33 1.98 0.66 3 1 C3 4.63 3 8.26 3 12 C1.35 12 -0.3 12 -2 12 C-1.34 8.04 -0.68 4.08 0 0 Z " fill="#2A467F" transform="translate(150,63)"/>
<path d="M0 0 C-0.66 1.65 -1.32 3.3 -2 5 C-4.31 5 -6.62 5 -9 5 C-9.33 4.01 -9.66 3.02 -10 2 C-10.99 1.67 -11.98 1.34 -13 1 C-11.20843648 0.83222817 -9.4167455 0.66581706 -7.625 0.5 C-6.62726563 0.4071875 -5.62953125 0.314375 -4.6015625 0.21875 C-2 0 -2 0 0 0 Z " fill="#4F5A25" transform="translate(108,126)"/>
<path d="M0 0 C3.875 0.875 3.875 0.875 5 2 C4.71269945 4.33944736 4.38063221 6.6739143 4 9 C2.68 9.33 1.36 9.66 0 10 C0 6.66666667 0 3.33333333 0 0 Z " fill="#59983F" transform="translate(68,111)"/>
<path d="M0 0 C1.98 0.66 3.96 1.32 6 2 C6 3.32 6 4.64 6 6 C4.02 6.66 2.04 7.32 0 8 C-0.66 6.02 -1.32 4.04 -2 2 C-1.34 1.34 -0.68 0.68 0 0 Z " fill="#7F2E7E" transform="translate(81,112)"/>
<path d="M0 0 C0.66 0 1.32 0 2 0 C1.69320312 0.56203125 1.38640625 1.1240625 1.0703125 1.703125 C-0.02957585 4.06346934 -0.60095851 6.20465562 -1.125 8.75 C-1.37636719 9.94882813 -1.37636719 9.94882813 -1.6328125 11.171875 C-1.75398438 11.77515625 -1.87515625 12.3784375 -2 13 C-2.66 12.67 -3.32 12.34 -4 12 C-3.67 11.34 -3.34 10.68 -3 10 C-4.32 10 -5.64 10 -7 10 C-6.6875 8.0625 -6.6875 8.0625 -6 6 C-5.01 5.67 -4.02 5.34 -3 5 C-1.98812105 3.34051852 -0.9873454 1.67419438 0 0 Z " fill="#69BED1" transform="translate(121,58)"/>
<path d="M0 0 C0.625 1.875 0.625 1.875 1 4 C-1 6 -1 6 -3.6015625 6.1953125 C-4.59929687 6.17210938 -5.59703125 6.14890625 -6.625 6.125 C-8.12933594 6.09792969 -8.12933594 6.09792969 -9.6640625 6.0703125 C-10.43492188 6.04710938 -11.20578125 6.02390625 -12 6 C-10 3 -10 3 -7.6171875 2.48828125 C-6.71226563 2.43027344 -5.80734375 2.37226562 -4.875 2.3125 C-3.96492188 2.24675781 -3.05484375 2.18101563 -2.1171875 2.11328125 C-1.06917969 2.05720703 -1.06917969 2.05720703 0 2 C0 1.34 0 0.68 0 0 Z " fill="#867983" transform="translate(122,87)"/>
<path d="M0 0 C1.81325551 0.11351517 3.62563357 0.24112961 5.4375 0.375 C6.95150391 0.47941406 6.95150391 0.47941406 8.49609375 0.5859375 C9.73552734 0.79089844 9.73552734 0.79089844 11 1 C11.33 1.66 11.66 2.32 12 3 C11.28972656 3.04898438 10.57945313 3.09796875 9.84765625 3.1484375 C8.46900391 3.26058594 8.46900391 3.26058594 7.0625 3.375 C6.14597656 3.44460937 5.22945313 3.51421875 4.28515625 3.5859375 C3.53105469 3.72257812 2.77695313 3.85921875 2 4 C1.67 4.66 1.34 5.32 1 6 C0.34 6 -0.32 6 -1 6 C-1.33 5.01 -1.66 4.02 -2 3 C-1.34 2.01 -0.68 1.02 0 0 Z " fill="#504964" transform="translate(63,56)"/>
<path d="M0 0 C1.98 0.99 3.96 1.98 6 3 C5.34 3.66 4.68 4.32 4 5 C4.3185177 7.10820797 4.3185177 7.10820797 5 9 C4.01 9 3.02 9 2 9 C0.97971135 7.68212715 -0.01971384 6.34789347 -1 5 C-1.99 4.67 -2.98 4.34 -4 4 C-3 2 -3 2 0 0 Z " fill="#DC699E" transform="translate(140,145)"/>
<path d="M0 0 C1.05960938 0.00676758 1.05960938 0.00676758 2.140625 0.01367188 C3.88545275 0.02546125 5.630237 0.04339676 7.375 0.0625 C4.375 2.0625 4.375 2.0625 1.75 2.5625 C0.96625 2.7275 0.1825 2.8925 -0.625 3.0625 C-0.955 3.7225 -1.285 4.3825 -1.625 5.0625 C-3.6875 5.6875 -3.6875 5.6875 -5.625 6.0625 C-5.625 4.7425 -5.625 3.4225 -5.625 2.0625 C-6.945 1.7325 -8.265 1.4025 -9.625 1.0625 C-6.55966836 -0.47016582 -3.35745728 -0.04026471 0 0 Z " fill="#1C2F55" transform="translate(153.625,85.9375)"/>
<path d="M0 0 C0.99 0.33 1.98 0.66 3 1 C3.91657981 6.38490641 4.11138159 11.54230189 4 17 C3.01 16.34 2.02 15.68 1 15 C0.61588725 12.390379 0.39706803 9.9941926 0.3125 7.375 C0.27833984 6.66859375 0.24417969 5.9621875 0.20898438 5.234375 C0.12648692 3.49014312 0.06156665 1.74509605 0 0 Z " fill="#6E3162" transform="translate(122,123)"/>
<path d="M0 0 C0.99 0.33 1.98 0.66 3 1 C3 4.63 3 8.26 3 12 C2.34 12 1.68 12 1 12 C-0.19287411 8.12315913 -1 5.08378077 -1 1 C-0.67 0.67 -0.34 0.34 0 0 Z " fill="#133740" transform="translate(65,124)"/>
<path d="M0 0 C1.0625 1.875 1.0625 1.875 2 4 C1.67 4.66 1.34 5.32 1 6 C-2.98866127 6.99716532 -6.0323069 7.0502717 -10 6 C-10 5.01 -10 4.02 -10 3 C-7.66705225 2.95758277 -5.33297433 2.95907063 -3 3 C-2.67 3.33 -2.34 3.66 -2 4 C-1.34 2.68 -0.68 1.36 0 0 Z " fill="#3A2631" transform="translate(76,65)"/>
<path d="M0 0 C0.66 0.99 1.32 1.98 2 3 C1.67 3.99 1.34 4.98 1 6 C1.66 6.33 2.32 6.66 3 7 C0.33440687 8.77706209 -2.0280615 9.87548273 -5 11 C-4.67 8.69 -4.34 6.38 -4 4 C-3.01 3.67 -2.02 3.34 -1 3 C-0.67 2.01 -0.34 1.02 0 0 Z " fill="#C6E6ED" transform="translate(34,139)"/>
<path d="M0 0 C0.66 0.33 1.32 0.66 2 1 C1.67 1.33 1.34 1.66 1 2 C3.97 2.495 3.97 2.495 7 3 C7 4.32 7 5.64 7 7 C4.66705225 7.04241723 2.33297433 7.04092937 0 7 C-1 6 -1 6 -1.125 3.5 C-1 1 -1 1 0 0 Z " fill="#D75146" transform="translate(35,126)"/>
<path d="M0 0 C10.8994709 -0.38095238 10.8994709 -0.38095238 15 2 C15.33 2.66 15.66 3.32 16 4 C13.89505699 3.91291962 11.79097858 3.80474307 9.6875 3.6875 C7.92986328 3.60048828 7.92986328 3.60048828 6.13671875 3.51171875 C2.9016314 2.98395232 1.91315119 2.57619276 0 0 Z " fill="#1C597E" transform="translate(49,127)"/>
<path d="M0 0 C-0.64544429 3.48539917 -2.10134397 6.02819057 -4 9 C-4.66 8.67 -5.32 8.34 -6 8 C-5.67 6.35 -5.34 4.7 -5 3 C-5.66 3 -6.32 3 -7 3 C-7 2.34 -7 1.68 -7 1 C-4.53721199 -0.231394 -2.7204945 -0.07159196 0 0 Z " fill="#2C90BC" transform="translate(54,141)"/>
<path d="M0 0 C0.66 0 1.32 0 2 0 C2 0.66 2 1.32 2 2 C4.475 2.99 4.475 2.99 7 4 C6.814375 4.61875 6.62875 5.2375 6.4375 5.875 C5.76313824 8.04160178 5.76313824 8.04160178 7 10 C2.33845958 8.50164772 1.13389249 5.11536409 -1 1 C-0.67 0.67 -0.34 0.34 0 0 Z " fill="#EABED0" transform="translate(156,133)"/>
<path d="M0 0 C1.98 0 3.96 0 6 0 C6.33 1.65 6.66 3.3 7 5 C4.69 5 2.38 5 0 5 C0 3.35 0 1.7 0 0 Z " fill="#1880AF" transform="translate(94,133)"/>
<path d="M0 0 C0.99 0 1.98 0 3 0 C3 2.64 3 5.28 3 8 C1.68 8.33 0.36 8.66 -1 9 C-2.0326802 6.21176345 -2.04509293 5.1322726 -1.0625 2.25 C-0.711875 1.5075 -0.36125 0.765 0 0 Z " fill="#A0CBE2" transform="translate(38,117)"/>
<path d="M0 0 C0.66 0.33 1.32 0.66 2 1 C0.125 6.875 0.125 6.875 -1 8 C-2.99958364 8.04080783 -5.00045254 8.04254356 -7 8 C-7 7.01 -7 6.02 -7 5 C-5.02 4.67 -3.04 4.34 -1 4 C-0.67 2.68 -0.34 1.36 0 0 Z " fill="#8DCE82" transform="translate(85,83)"/>
<path d="M0 0 C-0.33 1.32 -0.66 2.64 -1 4 C-4.63 4 -8.26 4 -12 4 C-7.99899414 0.12023674 -5.51903037 -0.43286513 0 0 Z " fill="#A8E7F3" transform="translate(139,52)"/>
<path d="M0 0 C0.3403125 0.9590625 0.3403125 0.9590625 0.6875 1.9375 C1.85250896 4.27193661 1.85250896 4.27193661 4.625 4.75 C5.40875 4.8325 6.1925 4.915 7 5 C6.01 5.495 6.01 5.495 5 6 C5.66 7.32 6.32 8.64 7 10 C5.35 9.67 3.7 9.34 2 9 C2 8.34 2 7.68 2 7 C1.34 6.67 0.68 6.34 0 6 C-0.33 5.67 -0.66 5.34 -1 5 C-0.71395102 3.32457024 -0.38218767 1.65614657 0 0 Z " fill="#C8A2B6" transform="translate(55,51)"/>
<path d="M0 0 C0.99 0.66 1.98 1.32 3 2 C3.66 1.34 4.32 0.68 5 0 C5.95024979 3.69541586 5.95024979 6.30458414 5 10 C4.54625 9.38125 4.0925 8.7625 3.625 8.125 C2.02891081 5.94080167 2.02891081 5.94080167 0 4 C-1 3 -2 2 -3 1 C-2.01 0.67 -1.02 0.34 0 0 Z " fill="#EFCACD" transform="translate(146,148)"/>
<path d="M0 0 C0.66 0.33 1.32 0.66 2 1 C2 2.98 2 4.96 2 7 C-3.68854922 10.84361434 -8.54425869 9.95342799 -15 9 C-15 8.67 -15 8.34 -15 8 C-8.565 7.505 -8.565 7.505 -2 7 C-1.34 4.69 -0.68 2.38 0 0 Z " fill="#BFBCC0" transform="translate(123,85)"/>
<path d="M0 0 C2.0625 0.4375 2.0625 0.4375 4 1 C3.67 2.98 3.34 4.96 3 7 C1.35 7 -0.3 7 -2 7 C-1.125 1.125 -1.125 1.125 0 0 Z " fill="#902B60" transform="translate(67,70)"/>
<path d="M0 0 C0.33 0.66 0.66 1.32 1 2 C-0.78174788 4.30142435 -2.16304165 5.80034391 -5.046875 6.48828125 C-7.0246611 6.72323102 -9.01271872 6.86751458 -11 7 C-10.67 6.01 -10.34 5.02 -10 4 C-7.96875 3.0859375 -7.96875 3.0859375 -5.5 2.375 C-2.48411921 1.65305469 -2.48411921 1.65305469 0 0 Z " fill="#9C8131" transform="translate(149,101)"/>
<path d="M0 0 C2.31 0 4.62 0 7 0 C6.67 1.65 6.34 3.3 6 5 C4.35 5 2.7 5 1 5 C0.67 3.35 0.34 1.7 0 0 Z " fill="#1F8EAB" transform="translate(73,98)"/>
<path d="M0 0 C0.33 0.99 0.66 1.98 1 3 C-0.66342837 4.66342837 -2.7825709 4.36048097 -5.0625 4.5625 C-5.98160156 4.64628906 -6.90070313 4.73007813 -7.84765625 4.81640625 C-8.55792969 4.87699219 -9.26820312 4.93757813 -10 5 C-9.2578125 3.046875 -9.2578125 3.046875 -8 1 C-5.32209537 0.16113831 -2.8262059 0.18233586 0 0 Z " fill="#26613A" transform="translate(83,81)"/>
<path d="M0 0 C1.32 0 2.64 0 4 0 C4 0.66 4 1.32 4 2 C4.66 2 5.32 2 6 2 C5.67 3.32 5.34 4.64 5 6 C5.99 6.33 6.98 6.66 8 7 C6.02 7 4.04 7 2 7 C0.5393715 4.35261084 0 3.10551666 0 0 Z " fill="#8AA6D1" transform="translate(151,60)"/>
<path d="M0 0 C2.64 0 5.28 0 8 0 C8 0.99 8 1.98 8 3 C7 4 7 4 3.9375 4.0625 C2.968125 4.041875 1.99875 4.02125 1 4 C0.67 2.68 0.34 1.36 0 0 Z " fill="#80D6F0" transform="translate(62,49)"/>
<path d="M0 0 C0.66 0.33 1.32 0.66 2 1 C1.67 2.32 1.34 3.64 1 5 C0.34 5 -0.32 5 -1 5 C-1.28875 5.61875 -1.5775 6.2375 -1.875 6.875 C-3 9 -3 9 -5 11 C-4.68143549 8.99759451 -4.34578768 6.99788438 -4 5 C-3.87625 4.236875 -3.7525 3.47375 -3.625 2.6875 C-3.41875 2.130625 -3.2125 1.57375 -3 1 C-2.01 0.67 -1.02 0.34 0 0 Z " fill="#B8A2D8" transform="translate(164,45)"/>
<path d="M0 0 C0.89203125 0.11085938 1.7840625 0.22171875 2.703125 0.3359375 C3.37859375 0.43132812 4.0540625 0.52671875 4.75 0.625 C4.42 1.615 4.09 2.605 3.75 3.625 C-0.54 2.965 -4.83 2.305 -9.25 1.625 C-5.16240337 -0.41879831 -4.26314435 -0.56094005 0 0 Z " fill="#9B9B9B" transform="translate(58.25,111.375)"/>
<path d="M0 0 C1.65 0 3.3 0 5 0 C5.625 1.875 5.625 1.875 6 4 C5.34 4.66 4.68 5.32 4 6 C2.68 6 1.36 6 0 6 C0 4.02 0 2.04 0 0 Z " fill="#76A539" transform="translate(125,111)"/>
<path d="M0 0 C5.94 1.485 5.94 1.485 12 3 C12 3.66 12 4.32 12 5 C8.7 5 5.4 5 2 5 C1.34 3.35 0.68 1.7 0 0 Z " fill="#9AA145" transform="translate(79,105)"/>
<path d="M0 0 C0.08121924 1.60332791 0.13929134 3.20784026 0.1875 4.8125 C0.22230469 5.70582031 0.25710937 6.59914063 0.29296875 7.51953125 C0 10 0 10 -3 13 C-3 9.7 -3 6.4 -3 3 C-3.66 2.67 -4.32 2.34 -5 2 C-2 0 -2 0 0 0 Z " fill="#3B3173" transform="translate(127,91)"/>
<path d="M0 0 C0.33 0.66 0.66 1.32 1 2 C0.39351421 3.68949614 -0.27840576 5.35636866 -1 7 C-1.33 7.99 -1.66 8.98 -2 10 C-3.32 10 -4.64 10 -6 10 C-4.52307692 3.47692308 -4.52307692 3.47692308 -1.875 1.0625 C-1.25625 0.711875 -0.6375 0.36125 0 0 Z " fill="#96C6E0" transform="translate(148,47)"/>
<path d="M0 0 C0.33 0 0.66 0 1 0 C1.16630233 5.98688376 -0.22110827 9.68385929 -3 15 C-3.66 14.67 -4.32 14.34 -5 14 C-4.54636829 12.41531323 -4.08688548 10.83230076 -3.625 9.25 C-3.36976562 8.36828125 -3.11453125 7.4865625 -2.8515625 6.578125 C-2.0790066 4.23919428 -1.16374324 2.16557438 0 0 Z " fill="#B4D7E1" transform="translate(48,144)"/>
<path d="M0 0 C1.32 0 2.64 0 4 0 C4 1.65 4 3.3 4 5 C2.02 5.66 0.04 6.32 -2 7 C-2 6.34 -2 5.68 -2 5 C-2.99 4.67 -3.98 4.34 -5 4 C-4.0409375 3.8453125 -4.0409375 3.8453125 -3.0625 3.6875 C-2.381875 3.460625 -1.70125 3.23375 -1 3 C-0.67 2.01 -0.34 1.02 0 0 Z " fill="#79227A" transform="translate(134,137)"/>
<path d="M0 0 C2.475 0.495 2.475 0.495 5 1 C5.33 1.99 5.66 2.98 6 4 C8.01508358 4.73323796 8.01508358 4.73323796 10 5 C10 5.66 10 6.32 10 7 C7.36 7 4.72 7 2 7 C2.33 5.02 2.66 3.04 3 1 C2.01 0.67 1.02 0.34 0 0 Z " fill="#597066" transform="translate(127,110)"/>
<path d="M0 0 C1.65 0.33 3.3 0.66 5 1 C4.67 2.65 4.34 4.3 4 6 C3.01 6.33 2.02 6.66 1 7 C1 6.34 1 5.68 1 5 C0.01 4.67 -0.98 4.34 -2 4 C-1.34 3.67 -0.68 3.34 0 3 C0 2.01 0 1.02 0 0 Z " fill="#38598A" transform="translate(62,88)"/>
<path d="M0 0 C2 3 2 3 2.375 5.0625 C2.83323057 7.20668205 2.83323057 7.20668205 5.0625 8.25 C5.701875 8.4975 6.34125 8.745 7 9 C6.67 9.66 6.34 10.32 6 11 C3.625 10.4375 3.625 10.4375 1 9 C0.26924352 6.6859378 -0.40138258 4.35171131 -1 2 C-1.99 1.67 -2.98 1.34 -4 1 C-2.68 0.67 -1.36 0.34 0 0 Z " fill="#51325D" transform="translate(117,68)"/>
<path d="M0 0 C2.31 0.33 4.62 0.66 7 1 C7.33 1.99 7.66 2.98 8 4 C5.69 4.66 3.38 5.32 1 6 C0.67 4.02 0.34 2.04 0 0 Z " fill="#F2BE93" transform="translate(41,52)"/>
<path d="M0 0 C0.763125 0.20625 1.52625 0.4125 2.3125 0.625 C1.6525 2.275 0.9925 3.925 0.3125 5.625 C-0.0175 4.635 -0.3475 3.645 -0.6875 2.625 C-1.6775 3.12 -1.6775 3.12 -2.6875 3.625 C-2.6875 4.615 -2.6875 5.605 -2.6875 6.625 C-3.6775 6.625 -4.6675 6.625 -5.6875 6.625 C-5.875 4.25 -5.875 4.25 -5.6875 1.625 C-2.6875 -0.375 -2.6875 -0.375 0 0 Z " fill="#E2A79E" transform="translate(155.6875,136.375)"/>
<path d="M0 0 C0 0.99 0 1.98 0 3 C-2.97 3.66 -5.94 4.32 -9 5 C-8.34 6.32 -7.68 7.64 -7 9 C-7.99 8.67 -8.98 8.34 -10 8 C-9.9375 5.6875 -9.9375 5.6875 -9 3 C-3.31034483 0 -3.31034483 0 0 0 Z " fill="#91AFE1" transform="translate(40,102)"/>
<path d="M0 0 C0.33 0.99 0.66 1.98 1 3 C-3.455 3.495 -3.455 3.495 -8 4 C-8.33 3.34 -8.66 2.68 -9 2 C-5.86501708 0.14223235 -3.62528568 -0.20140476 0 0 Z " fill="#581451" transform="translate(137,134)"/>
<path d="M0 0 C0.66 0 1.32 0 2 0 C2 0.66 2 1.32 2 2 C4.97 2 7.94 2 11 2 C10.67 2.66 10.34 3.32 10 4 C7.69 3.67 5.38 3.34 3 3 C2.87625 3.639375 2.7525 4.27875 2.625 4.9375 C2.41875 5.618125 2.2125 6.29875 2 7 C1.01 7.495 1.01 7.495 0 8 C0 5.36 0 2.72 0 0 Z " fill="#2C2C4A" transform="translate(70,95)"/>
<path d="M0 0 C3.125 -0.1875 3.125 -0.1875 6 0 C6 0.66 6 1.32 6 2 C3.4385343 4.29648649 2.52032428 5 -1 5 C-1.99 5.66 -2.98 6.32 -4 7 C-2.79618552 4.50638429 -1.54571278 2.31856917 0 0 Z " fill="#380F2B" transform="translate(64,77)"/>
<path d="M0 0 C0.99 0 1.98 0 3 0 C3 1.98 3 3.96 3 6 C1.68 5.67 0.36 5.34 -1 5 C-1 5.66 -1 6.32 -1 7 C-1.66 7 -2.32 7 -3 7 C-1.125 2.25 -1.125 2.25 0 0 Z " fill="#3B1344" transform="translate(45,86)"/>
<path d="M0 0 C2.0625 1.5625 2.0625 1.5625 4 4 C3.75 7.75 3.75 7.75 3 11 C2.34 11 1.68 11 1 11 C0.67 7.37 0.34 3.74 0 0 Z " fill="#573B61" transform="translate(76,60)"/>
<path d="M0 0 C0.66 0 1.32 0 2 0 C2 0.66 2 1.32 2 2 C2.66 2 3.32 2 4 2 C3.67 2.99 3.34 3.98 3 5 C0.03 4.505 0.03 4.505 -3 4 C-3.33 4.99 -3.66 5.98 -4 7 C-4.33 6.01 -4.66 5.02 -5 4 C-4.34 3.01 -3.68 2.02 -3 1 C-2.01 1 -1.02 1 0 1 C0 0.67 0 0.34 0 0 Z " fill="#AED8E8" transform="translate(55,147)"/>
<path d="M0 0 C-0.33 0.66 -0.66 1.32 -1 2 C-3.97 1.67 -6.94 1.34 -10 1 C-10 1.66 -10 2.32 -10 3 C-10.99 2.67 -11.98 2.34 -13 2 C-13 1.34 -13 0.68 -13 0 C-8.37078475 -1.0161692 -4.65537393 -0.83796731 0 0 Z " fill="#5D268E" transform="translate(104,132)"/>
<path d="M0 0 C0.886875 0.61875 1.77375 1.2375 2.6875 1.875 C5.46061184 3.65397741 7.9140354 4.91083602 11 6 C9.02 6.99 9.02 6.99 7 8 C5.82512964 7.24172908 4.66027408 6.46792245 3.5 5.6875 C2.52546875 5.04361328 2.52546875 5.04361328 1.53125 4.38671875 C1.0259375 3.92910156 0.520625 3.47148438 0 3 C0 2.01 0 1.02 0 0 Z " fill="#F4F4E8" transform="translate(150,119)"/>
<path d="M0 0 C0.66 0.66 1.32 1.32 2 2 C1.34 2 0.68 2 0 2 C0 4.31 0 6.62 0 9 C0.66 9 1.32 9 2 9 C1.67 10.32 1.34 11.64 1 13 C1 12.34 1 11.68 1 11 C0.01 11 -0.98 11 -2 11 C-1.85957123 9.35369672 -1.71250671 7.70795821 -1.5625 6.0625 C-1.48128906 5.14597656 -1.40007812 4.22945313 -1.31640625 3.28515625 C-1 1 -1 1 0 0 Z " fill="#346A31" transform="translate(68,112)"/>
<path d="M0 0 C0.28875 0.61875 0.5775 1.2375 0.875 1.875 C1.93720042 4.13325765 1.93720042 4.13325765 4 6 C3.01 6.66 2.02 7.32 1 8 C0.34 7.01 -0.32 6.02 -1 5 C-3.05003955 3.80767387 -3.05003955 3.80767387 -5 3 C-2.25 0 -2.25 0 0 0 Z " fill="#962E7C" transform="translate(100,92)"/>
<path d="M0 0 C2.31 0.33 4.62 0.66 7 1 C7 1.66 7 2.32 7 3 C7.66 3.33 8.32 3.66 9 4 C7.68 4 6.36 4 5 4 C4.67 4.99 4.34 5.98 4 7 C2.02 3.535 2.02 3.535 0 0 Z " fill="#9B7B9C" transform="translate(146,56)"/>
<path d="M0 0 C4.875 1.75 4.875 1.75 6 4 C2.7 4.66 -0.6 5.32 -4 6 C-3.34 5.01 -2.68 4.02 -2 3 C-1.34 3.33 -0.68 3.66 0 4 C0 2.68 0 1.36 0 0 Z " fill="#ADE1EE" transform="translate(42,138)"/>
<path d="M0 0 C0.99 0.66 1.98 1.32 3 2 C2.34 2.66 1.68 3.32 1 4 C0.67 4.99 0.34 5.98 0 7 C-0.99 6.67 -1.98 6.34 -3 6 C-3.33 6.99 -3.66 7.98 -4 9 C-4 7.35 -4 5.7 -4 4 C-2.68 3.34 -1.36 2.68 0 2 C0 1.34 0 0.68 0 0 Z " fill="#D57466" transform="translate(150,135)"/>
<path d="M0 0 C0.99 0 1.98 0 3 0 C3.1875 3.375 3.1875 3.375 3 7 C2.01 7.66 1.02 8.32 0 9 C0.020625 8.21625 0.04125 7.4325 0.0625 6.625 C0.18684063 4.01885039 0.18684063 4.01885039 -1 2 C-0.67 1.34 -0.34 0.68 0 0 Z " fill="#CC312A" transform="translate(144,123)"/>
<path d="M0 0 C0.33 0.66 0.66 1.32 1 2 C0.34 2 -0.32 2 -1 2 C-1.33 3.32 -1.66 4.64 -2 6 C-3.093125 5.835 -4.18625 5.67 -5.3125 5.5 C-8.87525873 4.93281816 -8.87525873 4.93281816 -12 5 C-12 4.34 -12 3.68 -12 3 C-11.38511719 2.95101562 -10.77023438 2.90203125 -10.13671875 2.8515625 C-9.32847656 2.77679688 -8.52023438 2.70203125 -7.6875 2.625 C-6.88699219 2.55539063 -6.08648437 2.48578125 -5.26171875 2.4140625 C-2.72775559 2.10435574 -2.72775559 2.10435574 0 0 Z " fill="#262042" transform="translate(62,107)"/>
<path d="M0 0 C0.99 0 1.98 0 3 0 C3.33 2.64 3.66 5.28 4 8 C2.68 7.34 1.36 6.68 0 6 C0 4.02 0 2.04 0 0 Z " fill="#3676C5" transform="translate(102,100)"/>
<path d="M0 0 C0.66 0 1.32 0 2 0 C2 2.31 2 4.62 2 7 C0.35 7.33 -1.3 7.66 -3 8 C-2.01 5.36 -1.02 2.72 0 0 Z " fill="#231B3C" transform="translate(66,99)"/>
<path d="M0 0 C0.66 0 1.32 0 2 0 C2 0.66 2 1.32 2 2 C4.64 2 7.28 2 10 2 C10 2.66 10 3.32 10 4 C6.7 4 3.4 4 0 4 C0 2.68 0 1.36 0 0 Z " fill="#F1E275" transform="translate(64,60)"/>
<path d="M0 0 C0.33 0 0.66 0 1 0 C1 3.96 1 7.92 1 12 C0.67 11.34 0.34 10.68 0 10 C-0.66 10 -1.32 10 -2 10 C-1.34 6.7 -0.68 3.4 0 0 Z " fill="#502F50" transform="translate(149,119)"/>
<path d="M0 0 C1.32 0 2.64 0 4 0 C4 1.32 4 2.64 4 4 C2.02 4.33 0.04 4.66 -2 5 C-1.125 1.125 -1.125 1.125 0 0 Z " fill="#208FAE" transform="translate(83,118)"/>
<path d="M0 0 C0.66 0 1.32 0 2 0 C0.41037341 4.03520597 -1.28232318 8.01811282 -3 12 C-3.33 12 -3.66 12 -4 12 C-4.50130606 6.73628638 -3.31168629 4.0909066 0 0 Z " fill="#39294E" transform="translate(114,109)"/>
<path d="M0 0 C2 3 2 3 2 6 C-0.3431213 5.74438677 -2.67843403 5.40729228 -5 5 C-5.33 4.34 -5.66 3.68 -6 3 C-4.02 3 -2.04 3 0 3 C0 2.01 0 1.02 0 0 Z " fill="#DFD47D" transform="translate(148,106)"/>
<path d="M0 0 C2.97 0 5.94 0 9 0 C9.33 0.99 9.66 1.98 10 3 C6.7 2.67 3.4 2.34 0 2 C0 1.34 0 0.68 0 0 Z " fill="#1D3D61" transform="translate(53,89)"/>
<path d="M0 0 C-1.485 2.475 -1.485 2.475 -3 5 C-4.65 4.67 -6.3 4.34 -8 4 C-7 1 -7 1 -4.5625 -0.25 C-2 -1 -2 -1 0 0 Z " fill="#C4CA60" transform="translate(122,58)"/>
<path d="M0 0 C0.66 0 1.32 0 2 0 C2.33 1.98 2.66 3.96 3 6 C1.35 5.67 -0.3 5.34 -2 5 C-2 4.01 -2 3.02 -2 2 C-1.34 2 -0.68 2 0 2 C0 1.34 0 0.68 0 0 Z " fill="#334C0D" transform="translate(63,107)"/>
<path d="M0 0 C1.32 0.66 2.64 1.32 4 2 C4 3.32 4 4.64 4 6 C2.35 6.33 0.7 6.66 -1 7 C-0.67 4.69 -0.34 2.38 0 0 Z " fill="#3E5BA1" transform="translate(41,108)"/>
<path d="M0 0 C0.33 0.99 0.66 1.98 1 3 C-1.31 3.33 -3.62 3.66 -6 4 C-6 3.34 -6 2.68 -6 2 C-6.66 1.67 -7.32 1.34 -8 1 C-5.36 0.67 -2.72 0.34 0 0 Z " fill="#57A44B" transform="translate(83,84)"/>
<path d="M0 0 C0.99 0.33 1.98 0.66 3 1 C2.67 2.98 2.34 4.96 2 7 C1.01 7.33 0.02 7.66 -1 8 C-1.04241723 5.66705225 -1.04092937 3.33297433 -1 1 C-0.67 0.67 -0.34 0.34 0 0 Z " fill="#AB78A6" transform="translate(102,79)"/>
<path d="M0 0 C1.32 0 2.64 0 4 0 C4 0.66 4 1.32 4 2 C-0.74354436 4.22656164 -4.72250715 5.46148032 -10 6 C-10 5.34 -10 4.68 -10 4 C-9.04287109 3.81824219 -9.04287109 3.81824219 -8.06640625 3.6328125 C-7.24011719 3.46523437 -6.41382813 3.29765625 -5.5625 3.125 C-4.73878906 2.96257812 -3.91507813 2.80015625 -3.06640625 2.6328125 C-2.38449219 2.42398438 -1.70257813 2.21515625 -1 2 C-0.67 1.34 -0.34 0.68 0 0 Z " fill="#233E7B" transform="translate(148,77)"/>
<path d="M0 0 C1.98 0 3.96 0 6 0 C5.67 1.32 5.34 2.64 5 4 C3.35 3.67 1.7 3.34 0 3 C0 2.01 0 1.02 0 0 Z " fill="#382D74" transform="translate(70,129)"/>
<path d="M0 0 C3.3 0 6.6 0 10 0 C6 3 6 3 2.75 2.6875 C1.8425 2.460625 0.935 2.23375 0 2 C0 1.34 0 0.68 0 0 Z " fill="#D3D3D6" transform="translate(109,94)"/>
<path d="M0 0 C0.66 0 1.32 0 2 0 C3.7143618 1.95927063 5.38405168 3.95880212 7 6 C6.34 7.32 5.68 8.64 5 10 C1.125 3.375 1.125 3.375 0 0 Z " fill="#E3ABCE" transform="translate(40,39)"/>
<path d="M0 0 C0.99 0 1.98 0 3 0 C3.33 0.33 3.66 0.66 4 1 C4 0.67 4 0.34 4 0 C5.65 0 7.3 0 9 0 C9 0.66 9 1.32 9 2 C8.34 2 7.68 2 7 2 C6.67 2.99 6.34 3.98 6 5 C6 4.34 6 3.68 6 3 C4.68 3 3.36 3 2 3 C2 2.34 2 1.68 2 1 C1.34 0.67 0.68 0.34 0 0 Z " fill="#BC53AC" transform="translate(129,142)"/>
<path d="M0 0 C1.98 0 3.96 0 6 0 C6.33 1.65 6.66 3.3 7 5 C4.0625 4.1875 4.0625 4.1875 1 3 C0.67 2.01 0.34 1.02 0 0 Z " fill="#E37C92" transform="translate(150,133)"/>
<path d="M0 0 C3.96 0.33 7.92 0.66 12 1 C12 1.33 12 1.66 12 2 C10.98679688 2.09087891 10.98679688 2.09087891 9.953125 2.18359375 C9.06109375 2.26738281 8.1690625 2.35117188 7.25 2.4375 C6.36828125 2.51871094 5.4865625 2.59992188 4.578125 2.68359375 C2.30649548 2.96238465 0.20148177 3.38790577 -2 4 C-1.34 2.68 -0.68 1.36 0 0 Z " fill="#C3312E" transform="translate(130,132)"/>
<path d="M0 0 C2.97 0.495 2.97 0.495 6 1 C6 1.99 6 2.98 6 4 C4.02 4 2.04 4 0 4 C0 2.68 0 1.36 0 0 Z " fill="#F1DF57" transform="translate(96,118)"/>
<path d="M0 0 C2.1875 -0.3125 2.1875 -0.3125 5 0 C7.8125 2.5 7.8125 2.5 10 5 C6.64404172 4.40072174 4.62198774 3.15377564 2 1 C2 1.66 2 2.32 2 3 C1.34 3 0.68 3 0 3 C0 2.01 0 1.02 0 0 Z " fill="#B5B140" transform="translate(147,118)"/>
<path d="M0 0 C0.99 0.33 1.98 0.66 3 1 C3 2.32 3 3.64 3 5 C0.69 5.33 -1.62 5.66 -4 6 C-3.01 5.67 -2.02 5.34 -1 5 C-0.67 3.35 -0.34 1.7 0 0 Z " fill="#C64840" transform="translate(42,68)"/>
<path d="M0 0 C0.99 0 1.98 0 3 0 C3 0.66 3 1.32 3 2 C4.98 2.66 6.96 3.32 9 4 C9 4.33 9 4.66 9 5 C5.625 4.75 5.625 4.75 2 4 C0.5625 1.9375 0.5625 1.9375 0 0 Z " fill="#3D5977" transform="translate(90,137)"/>
<path d="M0 0 C0.99 0.33 1.98 0.66 3 1 C3 2.98 3 4.96 3 7 C2.01 6.67 1.02 6.34 0 6 C0 4.02 0 2.04 0 0 Z " fill="#1E94AC" transform="translate(42,116)"/>
<path d="M0 0 C0.33 0.66 0.66 1.32 1 2 C1.66 2 2.32 2 3 2 C3 2.66 3 3.32 3 4 C3.99 4 4.98 4 6 4 C6.33 4.99 6.66 5.98 7 7 C5.02 6.34 3.04 5.68 1 5 C0.67 3.35 0.34 1.7 0 0 Z " fill="#6889C7" transform="translate(28,109)"/>
<path d="M0 0 C0.99 0 1.98 0 3 0 C2.67 1.32 2.34 2.64 2 4 C0.68 4.33 -0.64 4.66 -2 5 C-1.125 1.125 -1.125 1.125 0 0 Z " fill="#215775" transform="translate(127,86)"/>
<path d="M0 0 C0.33 0.66 0.66 1.32 1 2 C-0.70625501 4.78388975 -1.47626739 5.85384206 -4.6875 6.75 C-5.8321875 6.87375 -5.8321875 6.87375 -7 7 C-4.66666667 4.66666667 -2.33333333 2.33333333 0 0 Z " fill="#D9C8EA" transform="translate(166,40)"/>
<path d="M0 0 C1.98 0 3.96 0 6 0 C6 0.99 6 1.98 6 3 C4.02 3 2.04 3 0 3 C0 2.01 0 1.02 0 0 Z " fill="#99CEE0" transform="translate(49,132)"/>
<path d="M0 0 C0 0.99 0 1.98 0 3 C-2.64 3 -5.28 3 -8 3 C-4.93882432 0.37613513 -4.26826873 0 0 0 Z " fill="#EED938" transform="translate(103,124)"/>
<path d="M0 0 C2.97 0.495 2.97 0.495 6 1 C5.67 2.65 5.34 4.3 5 6 C4.67 5.34 4.34 4.68 4 4 C3.01 4 2.02 4 1 4 C0.67 2.68 0.34 1.36 0 0 Z " fill="#3D1F45" transform="translate(73,102)"/>
<path d="M0 0 C0.99 0.495 0.99 0.495 2 1 C2.33333333 3 2.66666667 5 3 7 C3.66 7.33 4.32 7.66 5 8 C3.35 8 1.7 8 0 8 C0 5.36 0 2.72 0 0 Z " fill="#DDDEE0" transform="translate(106,89)"/>
<path d="M0 0 C0.66 0.33 1.32 0.66 2 1 C1.34 2.65 0.68 4.3 0 6 C-0.99 6 -1.98 6 -3 6 C-2.42655063 3.13275314 -2.1385485 2.1385485 0 0 Z " fill="#2A2845" transform="translate(64,80)"/>
<path d="M0 0 C4.43458973 1.3937282 6.87378374 3.60582235 10 7 C6.433255 7 5.89456323 6.36308045 3.3125 4.0625 C2.68988281 3.51722656 2.06726563 2.97195312 1.42578125 2.41015625 C0.95527344 1.94480469 0.48476563 1.47945312 0 1 C0 0.67 0 0.34 0 0 Z " fill="#E8A664" transform="translate(22,48)"/>
<path d="M0 0 C2.4375 0.75 2.4375 0.75 5 2 C5.8125 4.125 5.8125 4.125 6 6 C5.34 6 4.68 6 4 6 C4 5.34 4 4.68 4 4 C2.68 3.67 1.36 3.34 0 3 C0 2.01 0 1.02 0 0 Z " fill="#332C69" transform="translate(89,133)"/>
<path d="M0 0 C1.98 0.495 1.98 0.495 4 1 C3.1875 2.9375 3.1875 2.9375 2 5 C1.01 5.33 0.02 5.66 -1 6 C-0.67 4.02 -0.34 2.04 0 0 Z " fill="#69A3CF" transform="translate(70,133)"/>
<path d="M0 0 C1.32 0 2.64 0 4 0 C3.67 1.32 3.34 2.64 3 4 C1.68 3.67 0.36 3.34 -1 3 C-0.67 2.01 -0.34 1.02 0 0 Z " fill="#2A7F9C" transform="translate(90,90)"/>
<path d="M0 0 C0.99 0 1.98 0 3 0 C2.34 1.65 1.68 3.3 1 5 C0.01 5 -0.98 5 -2 5 C-1.34 3.35 -0.68 1.7 0 0 Z " fill="#CD5193" transform="translate(118,77)"/>
<path d="M0 0 C2.31 0.66 4.62 1.32 7 2 C6.67 2.66 6.34 3.32 6 4 C5.34 4 4.68 4 4 4 C3.67 4.99 3.34 5.98 3 7 C0 2.25 0 2.25 0 0 Z " fill="#EFBDDA" transform="translate(49,48)"/>
</svg>
