<?xml version="1.0" encoding="UTF-8"?>
<svg version="1.1" xmlns="http://www.w3.org/2000/svg" width="192" height="192">
<path d="M0 0 C63.36 0 126.72 0 192 0 C192 63.36 192 126.72 192 192 C128.64 192 65.28 192 0 192 C0 128.64 0 65.28 0 0 Z " fill="#FEFEFE" transform="translate(0,0)"/>
<path d="M0 0 C0.79921875 -0.02835938 1.5984375 -0.05671875 2.421875 -0.0859375 C9.61343275 1.08616722 15.59950264 5.81185292 21.375 10 C22.47642334 10.78733521 22.47642334 10.78733521 23.60009766 11.59057617 C25.82098525 13.17956436 28.03633794 14.77596533 30.25 16.375 C32.70675629 18.14803638 35.16474531 19.91932087 37.625 21.6875 C38.19379883 22.09734131 38.76259766 22.50718262 39.34863281 22.92944336 C42.8643252 25.44378576 46.44910072 27.79030951 50.125 30.0625 C50.99511719 30.63097656 51.86523438 31.19945313 52.76171875 31.78515625 C55.1980062 33.39961923 55.1980062 33.39961923 57.70703125 34.62109375 C60.51927555 36.35966159 61.70044054 37.41400336 63.25 40.375 C64.70860641 49.41718189 64.50569738 59.75632165 61.25 68.375 C58.75395075 71.49149578 55.04535764 74.14709018 51.25 75.375 C45.63219162 75.82804906 42.06867206 75.58744804 37.25 72.375 C33.56373769 68.52118031 30.23708753 64.84280498 30.2578125 59.27685547 C30.30421875 58.49197754 30.350625 57.70709961 30.3984375 56.8984375 C31.14893158 47.65164432 31.14893158 47.65164432 27.70556641 39.41845703 C23.87990888 36.06750909 19.57623085 33.62190788 15.0534668 31.33227539 C13.25 30.375 13.25 30.375 10.90625 28.5859375 C9.22866291 27.08619431 9.22866291 27.08619431 6.5625 27.5625 C4.08108618 28.13315152 4.08108618 28.13315152 3.25 30.375 C3.14970584 32.53904605 3.11438761 34.70619866 3.1081543 36.87255859 C3.10467987 37.53942184 3.10120544 38.2062851 3.09762573 38.89335632 C3.09026835 40.34313496 3.08492287 41.79292487 3.08133507 43.24271774 C3.07417454 45.53760691 3.05851148 47.83228165 3.03999329 50.12710571 C2.98750269 56.65241563 2.93953977 63.17760847 2.92407227 69.703125 C2.91399355 73.69327036 2.88467289 77.68287702 2.84275246 81.6728096 C2.8304358 83.1933955 2.82532243 84.71405747 2.82755089 86.23469162 C2.82990271 88.36326371 2.80775073 90.49028924 2.7800293 92.61865234 C2.77416306 93.82951508 2.76829681 95.04037781 2.76225281 96.28793335 C2.15107618 99.97115959 1.20549242 101.15967799 -1.75 103.375 C-5.60753525 104.0458757 -7.39318318 103.56054475 -10.875 101.75 C-14.79955455 98.50797667 -17.14134229 95.20097312 -18.75 90.375 C-18.86031423 88.0107071 -18.90910115 85.64340868 -18.92700195 83.27661133 C-18.93357315 82.5575058 -18.94014435 81.83840027 -18.94691467 81.09750366 C-18.96662561 78.71734508 -18.97830702 76.33724961 -18.98828125 73.95703125 C-18.99235678 73.1423255 -18.9964323 72.32761974 -19.00063133 71.48822594 C-19.02148544 67.17371246 -19.03578844 62.8592307 -19.04516602 58.54467773 C-19.05621249 54.10054884 -19.09059356 49.65692312 -19.13033772 45.21297169 C-19.15655839 41.78558967 -19.1648628 38.35832638 -19.16844749 34.93085289 C-19.17330156 33.29348043 -19.18488178 31.65611285 -19.20348549 30.01883888 C-19.39349337 12.18413138 -19.39349337 12.18413138 -13.30244446 5.87580872 C-9.1630697 2.20740832 -5.53995709 0.08821588 0 0 Z " fill="#EF3D72" transform="translate(48.75,43.625)"/>
<path d="M0 0 C5.21177642 2.85172672 8.69723988 6.49291402 11.3125 11.8125 C11.6165387 14.48454857 11.76337296 16.92619963 11.76416016 19.59692383 C11.77584229 20.36508926 11.78752441 21.1332547 11.79956055 21.92469788 C11.83306988 24.45643702 11.84387558 26.98759005 11.8515625 29.51953125 C11.8637496 31.28684186 11.87623583 33.05415043 11.88900757 34.82145691 C11.9114653 38.5243289 11.92103564 42.22699538 11.92333984 45.92993164 C11.92861912 50.66148164 11.97993299 55.39130893 12.04285622 60.12239552 C12.0838382 63.77286927 12.09298291 67.42293102 12.09345627 71.07361412 C12.09882306 72.81708756 12.11561191 74.56056647 12.14430618 76.30381203 C12.37541103 91.62213756 12.37541103 91.62213756 7.92333984 96.84643555 C5.28112173 99.26515083 2.90230698 101.16817567 -0.6875 101.8125 C-6.11303191 101.38696809 -6.11303191 101.38696809 -8.6875 98.8125 C-10.10003324 89.90589673 -9.88097051 80.63636297 -10.00390625 71.63671875 C-10.02468735 70.34554642 -10.04546844 69.05437408 -10.06687927 67.72407532 C-10.12131202 64.33933069 -10.17105867 60.95453392 -10.21972656 57.56970215 C-10.27052816 54.09655275 -10.32590368 50.62347634 -10.38085938 47.15039062 C-10.48747258 40.37115731 -10.58912028 33.59185767 -10.6875 26.8125 C-14.80417192 25.69806503 -14.80417192 25.69806503 -18.703125 27.5078125 C-19.7913184 28.30412895 -20.86910305 29.11481371 -21.9375 29.9375 C-23.07967563 30.77535612 -24.22422034 31.60999213 -25.37109375 32.44140625 C-25.93038574 32.84891113 -26.48967773 33.25641602 -27.06591797 33.67626953 C-30.42668958 36.0311372 -34.0431759 37.93854523 -37.6875 39.8125 C-38.18378906 39.36519531 -38.68007812 38.91789062 -39.19140625 38.45703125 C-44.44421395 33.78233142 -49.83498904 29.71417397 -55.6875 25.8125 C-54.6975 25.43222656 -53.7075 25.05195312 -52.6875 24.66015625 C-48.25876646 22.75815748 -44.56085832 20.08704139 -40.6875 17.25 C-39.19377503 16.17689904 -37.69896043 15.10531339 -36.203125 14.03515625 C-35.45353516 13.49777832 -34.70394531 12.96040039 -33.93164062 12.40673828 C-30.46910088 9.94694884 -26.96352418 7.55511218 -23.4375 5.1875 C-22.52677734 4.56766235 -22.52677734 4.56766235 -21.59765625 3.93530273 C-14.37869114 -0.88984544 -8.40057987 -2.70527148 0 0 Z " fill="#3FB4F6" transform="translate(149.6875,45.1875)"/>
<path d="M0 0 C0.61875 0.33 1.2375 0.66 1.875 1 C1.875 1.33 1.875 1.66 1.875 2 C-1.095 1.67 -4.065 1.34 -7.125 1 C-6.59089137 8.35251669 -5.99359084 15.67902003 -5.125 23 C-3.145 23.33 -1.165 23.66 0.875 24 C0.25625 24.268125 -0.3625 24.53625 -1 24.8125 C-3.4245233 25.95556848 -3.4245233 25.95556848 -5.125 29 C-5.42777933 32.06676873 -5.42777933 32.06676873 -5.38037109 35.61108398 C-5.38580177 36.6115979 -5.38580177 36.6115979 -5.39134216 37.63232422 C-5.39823074 39.07935151 -5.4007426 40.52640474 -5.39939499 41.9734478 C-5.39842983 44.2643021 -5.41136985 46.55468709 -5.42837524 48.84547424 C-5.47465389 55.35796481 -5.49925752 61.87040731 -5.50585938 68.38305664 C-5.51087281 72.36783926 -5.53511266 76.35213154 -5.57118607 80.33674812 C-5.58098748 81.85455444 -5.5833141 83.37242817 -5.57801437 84.89025688 C-5.57094687 87.01387855 -5.58821592 89.13603802 -5.61083984 91.25952148 C-5.6151149 93.07129128 -5.6151149 93.07129128 -5.61947632 94.91966248 C-6.22373107 98.60160387 -7.1717636 99.78602744 -10.125 102 C-13.98253525 102.6708757 -15.76818318 102.18554475 -19.25 100.375 C-23.17455455 97.13297667 -25.51634229 93.82597312 -27.125 89 C-27.23531423 86.6357071 -27.28410115 84.26840868 -27.30200195 81.90161133 C-27.30857315 81.1825058 -27.31514435 80.46340027 -27.32191467 79.72250366 C-27.34162561 77.34234508 -27.35330702 74.96224961 -27.36328125 72.58203125 C-27.36735678 71.7673255 -27.3714323 70.95261974 -27.37563133 70.11322594 C-27.39648544 65.79871246 -27.41078844 61.4842307 -27.42016602 57.16967773 C-27.43121249 52.72554884 -27.46559356 48.28192312 -27.50533772 43.83797169 C-27.53155839 40.41058967 -27.5398628 36.98332638 -27.54344749 33.55585289 C-27.54830156 31.91848043 -27.55988178 30.28111285 -27.57848549 28.64383888 C-27.76849337 10.80913138 -27.76849337 10.80913138 -21.67744446 4.50080872 C-15.14134975 -1.29161498 -8.35482942 -2.67354542 0 0 Z " fill="#F64C4A" transform="translate(57.125,45)"/>
<path d="M0 0 C-3.22832965 1.07610988 -3.9001347 0.93935312 -7 0 C-8.33232064 -0.33735825 -9.6655274 -0.67125727 -11 -1 C-11.07495216 18.41689365 -10.89569752 37.8263407 -10.62768555 57.2409668 C-10.57157469 61.32500563 -10.5218034 65.40909859 -10.47328281 69.49323368 C-10.43452881 72.66640447 -10.39142038 75.83950495 -10.34705925 79.01260185 C-10.32670358 80.52173202 -10.30797955 82.03088513 -10.29092598 83.54005623 C-10.26700301 85.62062961 -10.23696498 87.70102592 -10.20532227 89.78149414 C-10.18200584 91.55249229 -10.18200584 91.55249229 -10.15821838 93.35926819 C-10.29767459 95.92350902 -10.29767459 95.92350902 -9 97 C-7.65252916 97.23075082 -6.29622435 97.41153063 -4.9375 97.5625 C-3.638125 97.706875 -2.33875 97.85125 -1 98 C-4 100 -4 100 -7.0625 99.75 C-10 99 -10 99 -12 97 C-13.41253324 88.09339673 -13.19347051 78.82386297 -13.31640625 69.82421875 C-13.33718735 68.53304642 -13.35796844 67.24187408 -13.37937927 65.91157532 C-13.43381202 62.52683069 -13.48355867 59.14203392 -13.53222656 55.75720215 C-13.58302816 52.28405275 -13.63840368 48.81097634 -13.69335938 45.33789062 C-13.79997258 38.55865731 -13.90162028 31.77935767 -14 25 C-18.11667192 23.88556503 -18.11667192 23.88556503 -22.015625 25.6953125 C-23.1038184 26.49162895 -24.18160305 27.30231371 -25.25 28.125 C-26.39217563 28.96285612 -27.53672034 29.79749213 -28.68359375 30.62890625 C-29.24288574 31.03641113 -29.80217773 31.44391602 -30.37841797 31.86376953 C-33.73918958 34.2186372 -37.3556759 36.12604523 -41 38 C-41.49628906 37.55269531 -41.99257812 37.10539062 -42.50390625 36.64453125 C-47.75671395 31.96983142 -53.14748904 27.90167397 -59 24 C-58.01 23.61972656 -57.02 23.23945312 -56 22.84765625 C-51.57126646 20.94565748 -47.87335832 18.27454139 -44 15.4375 C-42.50627503 14.36439904 -41.01146043 13.29281339 -39.515625 12.22265625 C-38.76603516 11.68527832 -38.01644531 11.14790039 -37.24414062 10.59423828 C-33.78160088 8.13444884 -30.27602418 5.74261218 -26.75 3.375 C-25.83927734 2.75516235 -25.83927734 2.75516235 -24.91015625 2.12280273 C-16.21341897 -3.69008669 -9.317613 -4.6588065 0 0 Z " fill="#4787EF" transform="translate(153,47)"/>
<path d="M0 0 C6.61640155 4.09525821 12.98514766 8.39770562 19.23828125 13.02734375 C21.99231536 14.99451097 24.80717366 16.78662983 27.6875 18.5625 C28.5846875 19.14902344 29.481875 19.73554687 30.40625 20.33984375 C32.93107302 22.01635596 32.93107302 22.01635596 35.46875 23.25390625 C38.27543176 24.98831698 39.45343497 26.04472532 41 29 C42.45860641 38.04218189 42.25569738 48.38132165 39 57 C36.50395075 60.11649578 32.79535764 62.77209018 29 64 C23.38219162 64.45304906 19.81867206 64.21244804 15 61 C8.45518866 54.15769723 7.80593663 49.05745475 7.8125 40 C7.83248047 39.11054687 7.85246094 38.22109375 7.87304688 37.3046875 C7.88619119 32.33918962 7.88619119 32.33918962 5.38818359 28.26171875 C3.26606678 26.68411913 3.26606678 26.68411913 0 25 C3.04359145 24.03749672 3.69947663 23.86339847 6.75 25.25 C7.86375 26.11625 7.86375 26.11625 9 27 C9 27.99 9 28.98 9 30 C9.66 30 10.32 30 11 30 C11 30.66 11 31.32 11 32 C11.81210938 32.13728516 11.81210938 32.13728516 12.640625 32.27734375 C15.72167606 33.22104316 18.0578627 34.79979105 20.75 36.5625 C22.22726563 37.52349609 22.22726563 37.52349609 23.734375 38.50390625 C24.48203125 38.99761719 25.2296875 39.49132812 26 40 C26.33 39.01 26.66 38.02 27 37 C29.24209298 35.34430057 31.5875437 33.94680889 33.96875 32.5 C36.2908907 31.0861604 36.2908907 31.0861604 37 28 C36.278125 27.9175 35.55625 27.835 34.8125 27.75 C31.41073132 26.84286169 29.54533916 25.39989121 27 23 C27 22.34 27 21.68 27 21 C26.41734375 20.89558594 25.8346875 20.79117188 25.234375 20.68359375 C22.66354577 19.89706383 21.2659942 18.82434109 19.25 17.0625 C18.63640625 16.53785156 18.0228125 16.01320313 17.390625 15.47265625 C16 14 16 14 16 12 C15.2575 11.87625 14.515 11.7525 13.75 11.625 C11.15128245 11.03438237 9.23554414 10.43713552 7 9 C6.67 8.01 6.34 7.02 6 6 C4.00628175 4.65729179 2.0065438 3.32346506 0 2 C0 1.34 0 0.68 0 0 Z " fill="#E93F80" transform="translate(71,55)"/>
<path d="M0 0 C0.61875 0.33 1.2375 0.66 1.875 1 C1.875 1.33 1.875 1.66 1.875 2 C0.85792969 1.94779297 0.85792969 1.94779297 -0.1796875 1.89453125 C-6.88568205 1.69948155 -12.98083238 2.09922198 -19.125 5 C-23.73733551 9.61233551 -24.27628498 13.01306981 -24.28613281 19.29199219 C-24.29109772 20.04342499 -24.29606262 20.79485779 -24.30117798 21.56906128 C-24.31581408 24.0616751 -24.32260494 26.55422522 -24.328125 29.046875 C-24.33387646 30.77842206 -24.33963419 32.5099691 -24.34539795 34.24151611 C-24.35591287 37.87650856 -24.36175192 41.51147886 -24.36523438 45.14648438 C-24.37071191 49.79812639 -24.39472189 54.44947461 -24.42320633 59.10102463 C-24.44185896 62.68016403 -24.44703976 66.25923315 -24.44857025 69.83841705 C-24.45159275 71.55278373 -24.45960771 73.26714928 -24.47275543 74.9814682 C-24.48986665 77.38468017 -24.48792324 79.78718102 -24.48144531 82.19042969 C-24.4906601 82.89507355 -24.49987488 83.59971741 -24.5093689 84.32571411 C-24.46374974 89.74564971 -23.1579177 93.81649581 -19.4375 97.8125 C-16.04525101 99.5544657 -12.91699735 99.68400022 -9.125 100 C-9.125 99.01 -9.125 98.02 -9.125 97 C-8.465 97 -7.805 97 -7.125 97 C-7.12944122 96.1466658 -7.13388245 95.2933316 -7.13845825 94.41413879 C-7.17855897 86.36597776 -7.20899663 78.31785035 -7.22862434 70.26961231 C-7.23905441 66.13209071 -7.25319942 61.99465177 -7.27587891 57.85717773 C-7.29763501 53.8630918 -7.30957447 49.86908531 -7.31475449 45.87494469 C-7.31844527 44.35234006 -7.32565248 42.8297397 -7.33646011 41.30716896 C-7.35101195 39.17188805 -7.35297642 37.03693397 -7.35205078 34.90161133 C-7.356492 33.6869368 -7.36093323 32.47226227 -7.36550903 31.22077942 C-7.12919726 28.05620771 -6.48175219 25.84704596 -5.125 23 C-3.145 23.33 -1.165 23.66 0.875 24 C0.25625 24.268125 -0.3625 24.53625 -1 24.8125 C-3.4245233 25.95556848 -3.4245233 25.95556848 -5.125 29 C-5.42777933 32.06676873 -5.42777933 32.06676873 -5.38037109 35.61108398 C-5.38580177 36.6115979 -5.38580177 36.6115979 -5.39134216 37.63232422 C-5.39823074 39.07935151 -5.4007426 40.52640474 -5.39939499 41.9734478 C-5.39842983 44.2643021 -5.41136985 46.55468709 -5.42837524 48.84547424 C-5.47465389 55.35796481 -5.49925752 61.87040731 -5.50585938 68.38305664 C-5.51087281 72.36783926 -5.53511266 76.35213154 -5.57118607 80.33674812 C-5.58098748 81.85455444 -5.5833141 83.37242817 -5.57801437 84.89025688 C-5.57094687 87.01387855 -5.58821592 89.13603802 -5.61083984 91.25952148 C-5.6151149 93.07129128 -5.6151149 93.07129128 -5.61947632 94.91966248 C-6.22373107 98.60160387 -7.1717636 99.78602744 -10.125 102 C-13.98253525 102.6708757 -15.76818318 102.18554475 -19.25 100.375 C-23.17455455 97.13297667 -25.51634229 93.82597312 -27.125 89 C-27.23531423 86.6357071 -27.28410115 84.26840868 -27.30200195 81.90161133 C-27.30857315 81.1825058 -27.31514435 80.46340027 -27.32191467 79.72250366 C-27.34162561 77.34234508 -27.35330702 74.96224961 -27.36328125 72.58203125 C-27.36735678 71.7673255 -27.3714323 70.95261974 -27.37563133 70.11322594 C-27.39648544 65.79871246 -27.41078844 61.4842307 -27.42016602 57.16967773 C-27.43121249 52.72554884 -27.46559356 48.28192312 -27.50533772 43.83797169 C-27.53155839 40.41058967 -27.5398628 36.98332638 -27.54344749 33.55585289 C-27.54830156 31.91848043 -27.55988178 30.28111285 -27.57848549 28.64383888 C-27.76849337 10.80913138 -27.76849337 10.80913138 -21.67744446 4.50080872 C-15.14134975 -1.29161498 -8.35482942 -2.67354542 0 0 Z " fill="#BE5352" transform="translate(57.125,45)"/>
<path d="M0 0 C6.42857143 1.07142857 6.42857143 1.07142857 9 3 C9.144375 3.99 9.28875 4.98 9.4375 6 C9.623125 6.99 9.80875 7.98 10 9 C12.2806707 10.21297649 12.2806707 10.21297649 15 11 C16.678298 12.31866272 18.34614767 13.65080468 20 15 C20.99 15.33 21.98 15.66 23 16 C21.00374188 21.2628623 16.8124516 22.5937742 12 25 C12.33 27.97 12.66 30.94 13 34 C8.10805766 29.10805766 7.86500425 25.32921095 7.81054688 18.6953125 C7.81184905 16.8983172 7.83268976 15.10123004 7.87304688 13.3046875 C7.89633478 8.34764925 7.89633478 8.34764925 5.38818359 4.296875 C3.2534261 2.75227912 3.2534261 2.75227912 0 1 C0 0.67 0 0.34 0 0 Z " fill="#BD3F7B" transform="translate(71,79)"/>
<path d="M0 0 C5.98993047 -0.3152595 9.63560356 0.31780178 15 3 C11.77167035 4.07610988 11.0998653 3.93935312 8 3 C6.66767936 2.66264175 5.3344726 2.32874273 4 2 C3.92504784 21.41689365 4.10430248 40.8263407 4.37231445 60.2409668 C4.42842531 64.32500563 4.4781966 68.40909859 4.52671719 72.49323368 C4.56547119 75.66640447 4.60857962 78.83950495 4.65294075 82.01260185 C4.67329642 83.52173202 4.69202045 85.03088513 4.70907402 86.54005623 C4.73299699 88.62062961 4.76303502 90.70102592 4.79467773 92.78149414 C4.81022202 93.96215958 4.8257663 95.14282501 4.84178162 96.35926819 C4.70232541 98.92350902 4.70232541 98.92350902 6 100 C7.34747084 100.23075082 8.70377565 100.41153063 10.0625 100.5625 C11.361875 100.706875 12.66125 100.85125 14 101 C11 103 11 103 7.9375 102.75 C5 102 5 102 3 100 C1.10920283 89.25714404 1.87078917 77.78564839 1.90234375 66.91796875 C1.90421294 65.00840797 1.90563447 63.09884671 1.90663147 61.18928528 C1.91041722 56.20651891 1.92021301 51.22378251 1.93133545 46.24102783 C1.94163516 41.13920497 1.94614728 36.03737718 1.95117188 30.93554688 C1.96183951 20.95701821 1.97886751 10.97851161 2 1 C1.34 0.67 0.68 0.34 0 0 Z " fill="#5D9EC8" transform="translate(138,44)"/>
<path d="M0 0 C6.61640155 4.09525821 12.98514766 8.39770562 19.23828125 13.02734375 C21.99231536 14.99451097 24.80717366 16.78662983 27.6875 18.5625 C28.5846875 19.14902344 29.481875 19.73554687 30.40625 20.33984375 C32.93107302 22.01635596 32.93107302 22.01635596 35.46875 23.25390625 C38.27543176 24.98831698 39.45343497 26.04472532 41 29 C42.45528353 38.02158267 42.28164572 48.40785328 39 57 C37.18310705 59.14167433 35.31111668 60.34202499 33 62 C32.01 61.505 32.01 61.505 31 61 C31.33 60.01 31.66 59.02 32 58 C32.639375 57.855625 33.27875 57.71125 33.9375 57.5625 C36.12769133 57.20831459 36.12769133 57.20831459 37.11669922 55.31738281 C38.18267903 52.52073264 38.22712668 50.34990801 38.1953125 47.359375 C38.18564453 45.75449219 38.18564453 45.75449219 38.17578125 44.1171875 C38.15902344 43.00601563 38.14226562 41.89484375 38.125 40.75 C38.11597656 39.62335938 38.10695312 38.49671875 38.09765625 37.3359375 C38.07410658 34.55707635 38.0412168 31.7786461 38 29 C36.89527344 28.53722656 35.79054687 28.07445313 34.65234375 27.59765625 C31.64986635 26.28427309 29.39187405 25.20052412 27 23 C27 22.34 27 21.68 27 21 C26.41734375 20.89558594 25.8346875 20.79117188 25.234375 20.68359375 C22.66354577 19.89706383 21.2659942 18.82434109 19.25 17.0625 C18.63640625 16.53785156 18.0228125 16.01320313 17.390625 15.47265625 C16 14 16 14 16 12 C15.2575 11.87625 14.515 11.7525 13.75 11.625 C11.15128245 11.03438237 9.23554414 10.43713552 7 9 C6.67 8.01 6.34 7.02 6 6 C4.00628175 4.65729179 2.0065438 3.32346506 0 2 C0 1.34 0 0.68 0 0 Z " fill="#C15091" transform="translate(71,55)"/>
<path d="M0 0 C0.66 0.33 1.32 0.66 2 1 C2 9.25 2 17.5 2 26 C1.34 24.68 0.68 23.36 0 22 C-2.80624144 20.11653164 -5.7085167 18.51623304 -8.6640625 16.87890625 C-11 15 -11 15 -11.64453125 12.50390625 C-10.73970267 8.98878432 -9.11167455 8.24812546 -6.0625 6.375 C-1.98733914 4.04979785 -1.98733914 4.04979785 0 0 Z " fill="#C8407F" transform="translate(108,83)"/>
<path d="M0 0 C3.82297406 1.22881309 5.27014937 3.56447112 7.15122414 6.99856758 C8.53796787 10.26854025 8.58181327 13.5209881 8.56518555 17.01147461 C8.5770137 17.7799321 8.58884186 18.54838959 8.60102844 19.34013367 C8.63372214 21.86116674 8.63687279 24.38111322 8.63671875 26.90234375 C8.64704384 28.66679823 8.65810819 30.43124852 8.6698761 32.19569397 C8.68926709 35.88667866 8.69274363 39.57728472 8.6862793 43.26831055 C8.68028064 47.98417068 8.7245446 52.69806419 8.78216839 57.41351986 C8.81924344 61.05544565 8.82406481 64.69690031 8.81989479 68.33899117 C8.82275652 70.07686362 8.83675024 71.81475662 8.86237144 73.55244255 C9.06367583 88.80533345 9.06367583 88.80533345 4.44848633 94.12719727 C2.50227356 95.88404846 2.50227356 95.88404846 1 97 C0.34 96.67 -0.32 96.34 -1 96 C-0.34 94.68 0.32 93.36 1 92 C1.99 92 2.98 92 4 92 C4 90.35 4 88.7 4 87 C4.99 86.505 4.99 86.505 6 86 C6.06954115 76.30760429 6.12283212 66.6152946 6.15543652 56.92270374 C6.17108579 52.42193089 6.19231054 47.92132885 6.22631836 43.4206543 C6.25893821 39.07643138 6.27685857 34.73237267 6.28463173 30.38803673 C6.29017053 28.73144636 6.30098652 27.07486488 6.31719017 25.4183445 C6.3389997 23.09616368 6.34196551 20.7746595 6.34057617 18.45239258 C6.351362 17.76906357 6.36214783 17.08573456 6.3732605 16.38169861 C6.34546206 12.08159573 5.63365906 9.4129252 3 6 C2.01 5.34 1.02 4.68 0 4 C0 2.68 0 1.36 0 0 Z " fill="#52A4D2" transform="translate(153,48)"/>
<path d="M0 0 C2.97 0.495 2.97 0.495 6 1 C5.38125 1.268125 4.7625 1.53625 4.125 1.8125 C1.7004767 2.95556848 1.7004767 2.95556848 0 6 C-0.30277933 9.06676873 -0.30277933 9.06676873 -0.25537109 12.61108398 C-0.26080177 13.6115979 -0.26080177 13.6115979 -0.26634216 14.63232422 C-0.27323074 16.07935151 -0.2757426 17.52640474 -0.27439499 18.9734478 C-0.27342983 21.2643021 -0.28636985 23.55468709 -0.30337524 25.84547424 C-0.34965389 32.35796481 -0.37425752 38.87040731 -0.38085938 45.38305664 C-0.38587281 49.36783926 -0.41011266 53.35213154 -0.44618607 57.33674812 C-0.45598748 58.85455444 -0.4583141 60.37242817 -0.45301437 61.89025688 C-0.44594687 64.01387855 -0.46321592 66.13603802 -0.48583984 68.25952148 C-0.4901149 70.07129128 -0.4901149 70.07129128 -0.49447632 71.91966248 C-1.09873107 75.60160387 -2.0467636 76.78602744 -5 79 C-8.85753525 79.6708757 -10.64318318 79.18554475 -14.125 77.375 C-17.29281075 74.75811286 -18.92789952 72.50663158 -21 69 C-20.01 69 -19.02 69 -18 69 C-16.96210419 70.64333504 -15.96432076 72.31243867 -15 74 C-12.09907498 75.93395001 -11.10325263 76.30131941 -7.8125 76.625 C-5.9253125 76.810625 -5.9253125 76.810625 -4 77 C-4 76.01 -4 75.02 -4 74 C-3.34 74 -2.68 74 -2 74 C-2.00444122 73.1466658 -2.00888245 72.2933316 -2.01345825 71.41413879 C-2.05355897 63.36597776 -2.08399663 55.31785035 -2.10362434 47.26961231 C-2.11405441 43.13209071 -2.12819942 38.99465177 -2.15087891 34.85717773 C-2.17263501 30.8630918 -2.18457447 26.86908531 -2.18975449 22.87494469 C-2.19344527 21.35234006 -2.20065248 19.8297397 -2.21146011 18.30716896 C-2.22601195 16.17188805 -2.22797642 14.03693397 -2.22705078 11.90161133 C-2.231492 10.6869368 -2.23593323 9.47226227 -2.24050903 8.22077942 C-2.00419726 5.05620771 -1.35675219 2.84704596 0 0 Z " fill="#B05A5F" transform="translate(52,68)"/>
<path d="M0 0 C4.50943642 1.41725145 7.11476357 3.23769003 10 7 C10.66621 10.47576418 10.56238368 13.84887268 10.4375 17.375 C10.43169922 18.29539062 10.42589844 19.21578125 10.41992188 20.1640625 C10.20133072 32.40516716 10.20133072 32.40516716 6.4921875 36.77734375 C4.24609375 38.38867188 4.24609375 38.38867188 2 40 C1.34 39.67 0.68 39.34 0 39 C0.33 38.01 0.66 37.02 1 36 C1.639375 35.855625 2.27875 35.71125 2.9375 35.5625 C5.13004185 35.20984707 5.13004185 35.20984707 6.10351562 33.30859375 C7.87183054 28.7548939 7.45446258 23.82696663 7.5 19 C7.54125 17.906875 7.5825 16.81375 7.625 15.6875 C7.65457107 12.67125045 7.61747094 9.95372293 7 7 C4.19855811 4.35221956 4.19855811 4.35221956 1 3 C0.67 2.01 0.34 1.02 0 0 Z " fill="#9D4F7D" transform="translate(102,77)"/>
<path d="M0 0 C0.61875 0.33 1.2375 0.66 1.875 1 C1.875 1.33 1.875 1.66 1.875 2 C0.85792969 1.94779297 0.85792969 1.94779297 -0.1796875 1.89453125 C-7.88879448 1.67030515 -15.70858827 1.83981915 -21.625 7.3125 C-23.20901586 10.15052841 -24.25228414 12.87276816 -25.125 16 C-25.785 16 -26.445 16 -27.125 16 C-25.49966369 9.03427298 -23.15443867 4.95479311 -17.125 1 C-11.87526158 -2.1391293 -5.70536129 -1.82571561 0 0 Z " fill="#C75B5D" transform="translate(57.125,45)"/>
<path d="M0 0 C5.98993047 -0.3152595 9.63560356 0.31780178 15 3 C11.77167035 4.07610988 11.0998653 3.93935312 8 3 C6.68 2.67 5.36 2.34 4 2 C4 13.22 4 24.44 4 36 C3.67 36 3.34 36 3 36 C2.15937224 31.63106263 1.88267044 27.5164802 1.90234375 23.0703125 C1.90556641 21.78125 1.90878906 20.4921875 1.91210938 19.1640625 C1.92046267 17.81770764 1.92892759 16.47135348 1.9375 15.125 C1.9425217 13.75520996 1.94708343 12.38541815 1.95117188 11.015625 C1.96292746 7.6770381 1.97936036 4.33854185 2 1 C1.34 0.67 0.68 0.34 0 0 Z " fill="#56A3E2" transform="translate(138,44)"/>
<path d="M0 0 C0.89203125 0.01804687 1.7840625 0.03609375 2.703125 0.0546875 C3.71632812 0.08949219 3.71632812 0.08949219 4.75 0.125 C4.42 1.115 4.09 2.105 3.75 3.125 C3.0590625 2.87105469 2.368125 2.61710937 1.65625 2.35546875 C-2.45889694 2.02913317 -4.63804359 4.03674477 -7.75 6.4375 C-11.43073669 9.20018752 -14.84309009 11.63684572 -19.25 13.125 C-19.25 12.135 -19.25 11.145 -19.25 10.125 C-18.59 10.125 -17.93 10.125 -17.25 10.125 C-17.25 9.465 -17.25 8.805 -17.25 8.125 C-15.826875 8.0321875 -15.826875 8.0321875 -14.375 7.9375 C-13.34375 7.669375 -12.3125 7.40125 -11.25 7.125 C-10.08046584 4.70116923 -10.08046584 4.70116923 -9.25 2.125 C-6.15935843 0.06224149 -3.65802972 -0.09626394 0 0 Z " fill="#5582CA" transform="translate(135.25,68.875)"/>
<path d="M0 0 C0.66 0.33 1.32 0.66 2 1 C1.31292969 1.45890625 0.62585938 1.9178125 -0.08203125 2.390625 C-0.98308594 3.00421875 -1.88414063 3.6178125 -2.8125 4.25 C-3.70582031 4.85328125 -4.59914063 5.4565625 -5.51953125 6.078125 C-7.86657065 7.89661852 -9.27648692 9.61991051 -11 12 C-13.1875 12.75 -13.1875 12.75 -15 13 C-15.93065133 15.60582371 -16.14917407 16.64198224 -15.0625 19.25 C-14.711875 19.8275 -14.36125 20.405 -14 21 C-17.33333333 19.33333333 -20.66666667 17.66666667 -24 16 C-23.15743652 15.60578857 -23.15743652 15.60578857 -22.29785156 15.20361328 C-19.78659573 13.88821897 -17.55117 12.375825 -15.234375 10.7421875 C-14.34492187 10.11699219 -13.45546875 9.49179688 -12.5390625 8.84765625 C-11.61867188 8.19667969 -10.69828125 7.54570313 -9.75 6.875 C-8.81414062 6.21628906 -7.87828125 5.55757812 -6.9140625 4.87890625 C-4.60766173 3.25501183 -2.30305505 1.62863425 0 0 Z " fill="#5E83C0" transform="translate(118,56)"/>
<path d="M0 0 C0.66 0 1.32 0 2 0 C2 0.66 2 1.32 2 2 C2.81210938 2.14308594 2.81210938 2.14308594 3.640625 2.2890625 C6.68581711 3.2066535 9.05768409 4.68696066 11.75 6.375 C12.73484375 6.98085937 13.7196875 7.58671875 14.734375 8.2109375 C15.48203125 8.80132812 16.2296875 9.39171875 17 10 C17 10.99 17 11.98 17 13 C16.40832031 13.31453125 15.81664063 13.6290625 15.20703125 13.953125 C10.81351764 16.33264624 6.78845205 18.70038047 3 22 C3 21.01 3 20.02 3 19 C6.20230604 16.01603301 9.06451978 13.89486085 13 12 C13.33 11.34 13.66 10.68 14 10 C13.43667969 9.89429687 12.87335938 9.78859375 12.29296875 9.6796875 C9.59966993 8.88133316 7.64990598 7.67811934 5.3125 6.125 C4.52488281 5.61195312 3.73726563 5.09890625 2.92578125 4.5703125 C1 3 1 3 0 0 Z " fill="#DA3F7D" transform="translate(80,85)"/>
<path d="M0 0 C7.14695431 4.47024329 14.13815707 9.10293639 21 14 C20.01 14.495 20.01 14.495 19 15 C18.01 14.67 17.02 14.34 16 14 C16 13.34 16 12.68 16 12 C15.2575 11.87625 14.515 11.7525 13.75 11.625 C11.15128245 11.03438237 9.23554414 10.43713552 7 9 C6.67 8.01 6.34 7.02 6 6 C4.00628175 4.65729179 2.0065438 3.32346506 0 2 C0 1.34 0 0.68 0 0 Z " fill="#B95179" transform="translate(71,55)"/>
<path d="M0 0 C3.02419525 0.58803797 6.01758453 1.22678118 9 2 C9 2.66 9 3.32 9 4 C11.97 4 14.94 4 18 4 C16 6 16 6 12.25 6.3125 C8.21667008 6.20983342 5.43007177 5.20504614 2 3 C1.34 2.01 0.68 1.02 0 0 Z " fill="#BF5C87" transform="translate(84,113)"/>
<path d="M0 0 C3.52069985 0.58678331 5.71299843 1.35649921 9 3 C9 10.59 9 18.18 9 26 C8.67 26 8.34 26 8 26 C8.00636475 25.42032471 8.01272949 24.84064941 8.01928711 24.2434082 C8.028011 21.59848288 7.98325296 18.95702108 7.9375 16.3125 C7.95393555 14.94448242 7.95393555 14.94448242 7.97070312 13.54882812 C7.94067345 8.45426695 7.94067345 8.45426695 5.37939453 4.27490234 C3.24794182 2.73330686 3.24794182 2.73330686 0 1 C0 0.67 0 0.34 0 0 Z " fill="#B76D8B" transform="translate(71,79)"/>
<path d="M0 0 C0.99 0 1.98 0 3 0 C2.67 5.28 2.34 10.56 2 16 C-0.42130331 12.36804504 -0.21022785 10.61650652 -0.125 6.3125 C-0.09792969 4.54326172 -0.09792969 4.54326172 -0.0703125 2.73828125 C-0.04710937 1.83464844 -0.02390625 0.93101563 0 0 Z " fill="#F5415D" transform="translate(50,46)"/>
<path d="M0 0 C3.95963389 1.27273947 5.37729554 3.68299713 7.25 7.1796875 C8.21958411 9.53294894 8.3045585 11.48739234 8 14 C6 11 6 11 4.5625 8.4375 C3.0772081 5.76176498 3.0772081 5.76176498 0 4 C0 2.68 0 1.36 0 0 Z " fill="#519FCE" transform="translate(153,48)"/>
<path d="M0 0 C2.97 0.495 2.97 0.495 6 1 C5.071875 1.4021875 5.071875 1.4021875 4.125 1.8125 C1.7004767 2.95556848 1.7004767 2.95556848 0 6 C-0.3626117 7.92744369 -0.3626117 7.92744369 -0.4140625 10.01171875 C-0.45273437 10.76904297 -0.49140625 11.52636719 -0.53125 12.30664062 C-0.5621875 13.09232422 -0.593125 13.87800781 -0.625 14.6875 C-0.66367187 15.48478516 -0.70234375 16.28207031 -0.7421875 17.10351562 C-0.83632494 19.06863475 -0.91924632 21.0342854 -1 23 C-1.33 23 -1.66 23 -2 23 C-2.05413245 20.10391407 -2.09373641 17.20884805 -2.125 14.3125 C-2.14175781 13.49587891 -2.15851562 12.67925781 -2.17578125 11.83789062 C-2.2114802 7.42907071 -2.07580814 4.01268424 0 0 Z " fill="#B34A5A" transform="translate(52,68)"/>
<path d="M0 0 C0.99 0 1.98 0 3 0 C3.144375 0.94875 3.28875 1.8975 3.4375 2.875 C3.82935399 5.8934494 3.82935399 5.8934494 5 8 C1.66666667 6.33333333 -1.66666667 4.66666667 -5 3 C-4.360625 2.690625 -3.72125 2.38125 -3.0625 2.0625 C-1.06389179 1.1654837 -1.06389179 1.1654837 0 0 Z " fill="#6D87D4" transform="translate(99,69)"/>
<path d="M0 0 C4.04420651 1.77945087 7.46078487 4.39529673 11 7 C10.01 7.33 9.02 7.66 8 8 C4.17275043 5.89110738 1.50139512 4.20390632 0 0 Z " fill="#BD4C70" transform="translate(59,47)"/>
<path d="M0 0 C2.375 0.3125 2.375 0.3125 5 1 C5.66 1.99 6.32 2.98 7 4 C9.56282742 4.72965366 9.56282742 4.72965366 12 5 C11.01 5.99 10.02 6.98 9 8 C7.68388323 7.04663979 6.37221039 6.08714226 5.0625 5.125 C4.33160156 4.59132813 3.60070312 4.05765625 2.84765625 3.5078125 C1 2 1 2 0 0 Z " fill="#687CCD" transform="translate(104,77)"/>
<path d="M0 0 C10.55808656 -0.3690205 10.55808656 -0.3690205 15 2 C15 2.33 15 2.66 15 3 C9.72796354 3.27036084 5.07476794 2.26305335 0 1 C0 0.67 0 0.34 0 0 Z " fill="#C0748A" transform="translate(44,44)"/>
<path d="M0 0 C0.66 1.32 1.32 2.64 2 4 C-0.97 6.475 -0.97 6.475 -4 9 C-4.66 8.67 -5.32 8.34 -6 8 C-5.67 7.01 -5.34 6.02 -5 5 C-2.9375 4.3125 -2.9375 4.3125 -1 4 C-0.67 2.68 -0.34 1.36 0 0 Z " fill="#B65582" transform="translate(108,108)"/>
<path d="M0 0 C3.93673644 1.31224548 6.22719294 2.91910327 9 6 C8.67 6.66 8.34 7.32 8 8 C7.5875 7.54625 7.175 7.0925 6.75 6.625 C5.07330411 4.90313178 5.07330411 4.90313178 2.875 4 C1 3 1 3 0 0 Z " fill="#AB5BA7" transform="translate(102,77)"/>
<path d="M0 0 C0.99 0.33 1.98 0.66 3 1 C1.37660195 2.70884005 -0.29319053 4.37446717 -2 6 C-2.66 6 -3.32 6 -4 6 C-2.84826645 3.53199953 -1.95216435 1.95216435 0 0 Z " fill="#ED5248" transform="translate(38,49)"/>
<path d="M0 0 C0.33 0 0.66 0 1 0 C1.33 2.97 1.66 5.94 2 9 C-1 6 -1 6 -2 3 C-1.34 2.01 -0.68 1.02 0 0 Z " fill="#C54C7F" transform="translate(82,104)"/>
<path d="M0 0 C2.4375 0.375 2.4375 0.375 5 1 C5.33 1.66 5.66 2.32 6 3 C8.01669827 4.13350534 8.01669827 4.13350534 10 5 C9.01 5.33 8.02 5.66 7 6 C5.17578125 5.0390625 5.17578125 5.0390625 3.3125 3.625 C2.68988281 3.16351563 2.06726563 2.70203125 1.42578125 2.2265625 C0.95527344 1.82179688 0.48476562 1.41703125 0 1 C0 0.67 0 0.34 0 0 Z " fill="#DC4588" transform="translate(98,77)"/>
<path d="M0 0 C-0.625 1.9375 -0.625 1.9375 -2 4 C-5.125 4.75 -5.125 4.75 -8 5 C-3.16129032 0 -3.16129032 0 0 0 Z " fill="#5680CF" transform="translate(109,64)"/>
</svg>
