<?xml version="1.0" encoding="UTF-8"?>
<svg version="1.1" xmlns="http://www.w3.org/2000/svg" width="192" height="192">
<path d="M0 0 C4.17038028 1.65241483 6.84582394 2.84582394 10 6 C13.10007201 7.20049407 13.10007201 7.20049407 16 8 C16 8.66 16 9.32 16 10 C16.66 10 17.32 10 18 10 C18.33 9.01 18.66 8.02 19 7 C21.64 7 24.28 7 27 7 C27.495 8.98 27.495 8.98 28 11 C29.66666667 11.33333333 31.33333333 11.66666667 33 12 C34.66666667 12.33333333 36.33333333 12.66666667 38 13 C38 14.65 38 16.3 38 18 C38.99 18.33 39.98 18.66 41 19 C42.03101947 21.31979381 43.02936517 23.65429915 44 26 C44.99 26.99 45.98 27.98 47 29 C48.32 25.7 49.64 22.4 51 19 C51.99 19 52.98 19 54 19 C53.814375 18.195625 53.62875 17.39125 53.4375 16.5625 C53.2209375 15.2940625 53.2209375 15.2940625 53 14 C55.2353248 11.7646752 60.16800714 11.75951026 63.27734375 11.19335938 C67.04513048 10.47903439 70.54995044 9.70253842 74 8 C75.34410262 5.98264795 75.34410262 5.98264795 76 4 C76.99 4 77.98 4 79 4 C79 4.99 79 5.98 79 7 C84.71241466 6.61271765 87.73688282 6.12989477 92 2 C92.495 3.98 92.495 3.98 93 6 C96.12187945 5.13505561 96.12187945 5.13505561 98.75 2.9375 C102.50584402 0.69843914 104.70499306 0.65639944 109 1 C108.42647107 4.87132028 106.51295648 7.08172796 104 10 C106.97 9.505 106.97 9.505 110 9 C110.495 10.485 110.495 10.485 111 12 C109.35 12.33 107.7 12.66 106 13 C106 13.66 106 14.32 106 15 C104.68 15.66 103.36 16.32 102 17 C102.33 18.0725 102.66 19.145 103 20.25 C104 24 104 24 104 28 C101.69 28.99 99.38 29.98 97 31 C98.13293719 38.4293621 98.13293719 38.4293621 102.625 44.0625 C105 46 105 46 105.5 48.625 C105 51 105 51 102 53 C104.97 54.65 107.94 56.3 111 58 C111 58.99 111 59.98 111 61 C110.236875 60.979375 109.47375 60.95875 108.6875 60.9375 C105.89814214 60.87057159 105.89814214 60.87057159 103 62 C101.515 61.505 101.515 61.505 100 61 C98.60560336 60.93334624 97.20830125 60.91461801 95.8125 60.9375 C94.554375 60.958125 93.29625 60.97875 92 61 C92.185625 61.804375 92.37125 62.60875 92.5625 63.4375 C92.7790625 64.7059375 92.7790625 64.7059375 93 66 C92 67 92 67 88.9375 67.3125 C84.18879054 66.9356183 81.05937694 65.36181931 77 63 C77 62.34 77 61.68 77 61 C76.319375 61.165 75.63875 61.33 74.9375 61.5 C71.5835178 62.07089059 68.39610195 62.06659023 65 62 C64.61781233 60.34385343 64.28604898 58.67542976 64 57 C64.33 56.67 64.66 56.34 65 56 C64.7834375 54.7315625 64.7834375 54.7315625 64.5625 53.4375 C63.92327007 49.53109489 63.9318408 45.95323335 64 42 C63.46890625 42.73605469 62.9378125 43.47210938 62.390625 44.23046875 C61.68421875 45.20628906 60.9778125 46.18210938 60.25 47.1875 C59.20585937 48.63189453 59.20585937 48.63189453 58.140625 50.10546875 C51.45007106 59.15236742 51.45007106 59.15236742 47 60 C41.69855304 58.23285101 39.29533352 55.27502727 36 51 C35.46375 50.505 34.9275 50.01 34.375 49.5 C32.34441499 47.28481635 31.2623812 44.70510257 30 42 C29.67 43.98 29.34 45.96 29 48 C29.99 48.66 30.98 49.32 32 50 C31.29445932 53.66881155 29.72264494 56.70450534 28 60 C26.68 60 25.36 60 24 60 C22.97980427 60.9793879 21.97850195 61.97895449 21 63 C20.01 63 19.02 63 18 63 C17.67 63.99 17.34 64.98 17 66 C14.36 65.67 11.72 65.34 9 65 C8.01 66.65 7.02 68.3 6 70 C4.515 69.505 4.515 69.505 3 69 C2.1875 67.1875 2.1875 67.1875 2 65 C2.9375 62.75 2.9375 62.75 4 61 C-0.39230724 61.7904152 -3.3138742 64.16761642 -6.87890625 66.72265625 C-9 68 -9 68 -12 68 C-12 67.01 -12 66.02 -12 65 C-11.01 64.34 -10.02 63.68 -9 63 C-7.78715124 59.94570927 -7.78715124 59.94570927 -7 57 C-8.3921875 57.495 -8.3921875 57.495 -9.8125 58 C-13 59 -13 59 -16 59 C-15.875 57.1875 -15.875 57.1875 -15 55 C-14.01 54.525625 -13.02 54.05125 -12 53.5625 C-8.79470727 52.32818133 -8.79470727 52.32818133 -8.125 49.5 C-8.03342406 47.66848121 -8 45.83380676 -8 44 C-8.66 43.34 -9.32 42.68 -10 42 C-10.56024587 37.98490459 -9.99707386 35.70866332 -7.875 32.375 C-7.25625 31.26125 -6.6375 30.1475 -6 29 C-6.62611273 27.64714928 -7.29848848 26.3153341 -8 25 C-8.1953125 22.4921875 -8.1953125 22.4921875 -8.125 19.875 C-8.10695313 19.00617188 -8.08890625 18.13734375 -8.0703125 17.2421875 C-8.04710937 16.50226563 -8.02390625 15.76234375 -8 15 C-8 14.34 -8 13.68 -8 13 C-8.556875 12.938125 -9.11375 12.87625 -9.6875 12.8125 C-13.01529218 11.64327572 -14.73133832 9.64677196 -17 7 C-17 6.01 -17 5.02 -17 4 C-13.68545551 4.38541215 -11.44901102 4.68447874 -8.6875 6.625 C-4.71318689 8.6583695 -1.28279333 7.77444847 3 7 C1.68 5.68 0.36 4.36 -1 3 C-0.67 2.01 -0.34 1.02 0 0 Z " fill="#3F6223" transform="translate(44,62)"/>
<path d="M0 0 C-0.57352893 3.87132028 -2.48704352 6.08172796 -5 9 C-3.02 8.67 -1.04 8.34 1 8 C1.495 9.485 1.495 9.485 2 11 C0.35 11.33 -1.3 11.66 -3 12 C-3 12.66 -3 13.32 -3 14 C-4.98 14.99 -4.98 14.99 -7 16 C-6.67 17.0725 -6.34 18.145 -6 19.25 C-5 23 -5 23 -5 27 C-7.31 27.99 -9.62 28.98 -12 30 C-10.86706281 37.4293621 -10.86706281 37.4293621 -6.375 43.0625 C-4 45 -4 45 -3.5 47.625 C-4 50 -4 50 -7 52 C-4.03 53.65 -1.06 55.3 2 57 C2 57.99 2 58.98 2 60 C1.236875 59.979375 0.47375 59.95875 -0.3125 59.9375 C-3.10185786 59.87057159 -3.10185786 59.87057159 -6 61 C-6.99 60.67 -7.98 60.34 -9 60 C-10.39439664 59.93334624 -11.79169875 59.91461801 -13.1875 59.9375 C-14.445625 59.958125 -15.70375 59.97875 -17 60 C-16.814375 60.804375 -16.62875 61.60875 -16.4375 62.4375 C-16.293125 63.283125 -16.14875 64.12875 -16 65 C-17 66 -17 66 -20.0625 66.3125 C-24.81120946 65.9356183 -27.94062306 64.36181931 -32 62 C-32 61.34 -32 60.68 -32 60 C-33.0209375 60.2475 -33.0209375 60.2475 -34.0625 60.5 C-37.4164822 61.07089059 -40.60389805 61.06659023 -44 61 C-44.38218767 59.34385343 -44.71395102 57.67542976 -45 56 C-44.67 55.67 -44.34 55.34 -44 55 C-44.2475 53.824375 -44.2475 53.824375 -44.5 52.625 C-45.18570783 47.65361826 -44.57413635 42.96407119 -44 38 C-44.66 38 -45.32 38 -46 38 C-46.2475 38.5775 -46.495 39.155 -46.75 39.75 C-48.16683317 42.3002997 -49.87627537 44.01785701 -52 46 C-52 44.35 -52 42.7 -52 41 C-52.61875 40.855625 -53.2375 40.71125 -53.875 40.5625 C-56 40 -56 40 -58 39 C-57.67 36.69 -57.34 34.38 -57 32 C-58.98 31.34 -60.96 30.68 -63 30 C-61.35 26.04 -59.7 22.08 -58 18 C-57.01 18 -56.02 18 -55 18 C-55.2784375 16.7934375 -55.2784375 16.7934375 -55.5625 15.5625 C-55.706875 14.716875 -55.85125 13.87125 -56 13 C-53.7646752 10.7646752 -48.83199286 10.75951026 -45.72265625 10.19335938 C-41.95486952 9.47903439 -38.45004956 8.70253842 -35 7 C-33.65589738 4.98264795 -33.65589738 4.98264795 -33 3 C-32.01 3 -31.02 3 -30 3 C-30 3.99 -30 4.98 -30 6 C-24.28758534 5.61271765 -21.26311718 5.12989477 -17 1 C-16.505 2.98 -16.505 2.98 -16 5 C-12.87812055 4.13505561 -12.87812055 4.13505561 -10.25 1.9375 C-6.49415598 -0.30156086 -4.29500694 -0.34360056 0 0 Z " fill="#30305F" transform="translate(153,63)"/>
<path d="M0 0 C1.32 0.66 2.64 1.32 4 2 C3.67 3.98 3.34 5.96 3 8 C3.94875 8.226875 4.8975 8.45375 5.875 8.6875 C9 10 9 10 10.3125 12.5 C10.539375 13.325 10.76625 14.15 11 15 C11.33 15.66 11.66 16.32 12 17 C11.67 17.66 11.34 18.32 11 19 C11.51046875 18.67257813 12.0209375 18.34515625 12.546875 18.0078125 C15.86772037 16.64351616 18.67372568 16.8087727 22.25 16.875 C23.51328125 16.89304687 24.7765625 16.91109375 26.078125 16.9296875 C27.04234375 16.95289062 28.0065625 16.97609375 29 17 C29.7750145 20.49043566 29.96421799 22.57166937 29 26 C28.96213099 27.66623639 28.95372155 29.33397597 29 31 C29.99 30.67 30.98 30.34 32 30 C32.33 29.34 32.66 28.68 33 28 C34.32 28 35.64 28 37 28 C37 27.01 37 26.02 37 25 C36.01 25 35.02 25 34 25 C34.33 22.03 34.66 19.06 35 16 C35.33 16 35.66 16 36 16 C35.9071875 17.670625 35.9071875 17.670625 35.8125 19.375 C35.874375 20.57125 35.93625 21.7675 36 23 C36.99 23.66 37.98 24.32 39 25 C38.29445932 28.66881155 36.72264494 31.70450534 35 35 C33.68 35 32.36 35 31 35 C29.97980427 35.9793879 28.97850195 36.97895449 28 38 C27.01 38 26.02 38 25 38 C24.67 38.99 24.34 39.98 24 41 C21.36 40.67 18.72 40.34 16 40 C15.01 41.65 14.02 43.3 13 45 C11.515 44.505 11.515 44.505 10 44 C9.1875 42.1875 9.1875 42.1875 9 40 C9.9375 37.75 9.9375 37.75 11 36 C6.60769276 36.7904152 3.6861258 39.16761642 0.12109375 41.72265625 C-2 43 -2 43 -5 43 C-5 42.01 -5 41.02 -5 40 C-4.01 39.34 -3.02 38.68 -2 38 C-0.78715124 34.94570927 -0.78715124 34.94570927 0 32 C-1.3921875 32.495 -1.3921875 32.495 -2.8125 33 C-6 34 -6 34 -9 34 C-8.875 32.1875 -8.875 32.1875 -8 30 C-7.01 29.525625 -6.02 29.05125 -5 28.5625 C-1.79470727 27.32818133 -1.79470727 27.32818133 -1.125 24.5 C-1.03342406 22.66848121 -1 20.83380676 -1 19 C-1.66 18.34 -2.32 17.68 -3 17 C-3.55494345 13.0229053 -3.00642227 10.70388877 -0.9375 7.375 C1.2694956 4.291045 1.2694956 4.291045 0.75 1.5625 C0.5025 1.046875 0.255 0.53125 0 0 Z " fill="#48779B" transform="translate(37,87)"/>
<path d="M0 0 C-0.57352893 3.87132028 -2.48704352 6.08172796 -5 9 C-3.02 8.67 -1.04 8.34 1 8 C1.495 9.485 1.495 9.485 2 11 C0.35 11.33 -1.3 11.66 -3 12 C-3 12.66 -3 13.32 -3 14 C-4.98 14.99 -4.98 14.99 -7 16 C-6.67 17.0725 -6.34 18.145 -6 19.25 C-5 23 -5 23 -5 27 C-6.8125 28.0625 -6.8125 28.0625 -9 29 C-9.99 28.67 -10.98 28.34 -12 28 C-10.68 27.01 -9.36 26.02 -8 25 C-8.495 21.535 -8.495 21.535 -9 18 C-11.64 17.67 -14.28 17.34 -17 17 C-17 16.34 -17 15.68 -17 15 C-17.99 15 -18.98 15 -20 15 C-19.938125 15.78375 -19.87625 16.5675 -19.8125 17.375 C-19.9053125 18.674375 -19.9053125 18.674375 -20 20 C-23.47253223 22.31502149 -25.26136054 22.34128598 -29.375 22.5625 C-33.34981071 22.78636865 -37.11406118 23.11947828 -41 24 C-41 23.01 -41 22.02 -41 21 C-42.32 20.67 -43.64 20.34 -45 20 C-45 20.66 -45 21.32 -45 22 C-48.3 22 -51.6 22 -55 22 C-55.66 23.32 -56.32 24.64 -57 26 C-56.34 26.45375 -55.68 26.9075 -55 27.375 C-54.34 27.91125 -53.68 28.4475 -53 29 C-53 29.66 -53 30.32 -53 31 C-50.69 31 -48.38 31 -46 31 C-46.33 31.66 -46.66 32.32 -47 33 C-53.13053511 33.32712342 -57.62669111 33.39366878 -63 30 C-61.35 26.04 -59.7 22.08 -58 18 C-57.01 18 -56.02 18 -55 18 C-55.2784375 16.7934375 -55.2784375 16.7934375 -55.5625 15.5625 C-55.706875 14.716875 -55.85125 13.87125 -56 13 C-53.7646752 10.7646752 -48.83199286 10.75951026 -45.72265625 10.19335938 C-41.95486952 9.47903439 -38.45004956 8.70253842 -35 7 C-33.65589738 4.98264795 -33.65589738 4.98264795 -33 3 C-32.01 3 -31.02 3 -30 3 C-30 3.99 -30 4.98 -30 6 C-24.28758534 5.61271765 -21.26311718 5.12989477 -17 1 C-16.505 2.98 -16.505 2.98 -16 5 C-12.87812055 4.13505561 -12.87812055 4.13505561 -10.25 1.9375 C-6.49415598 -0.30156086 -4.29500694 -0.34360056 0 0 Z " fill="#6CBAD1" transform="translate(153,63)"/>
<path d="M0 0 C2.47329425 1.9615782 2.39121426 3.34807127 2.8125 6.4375 C3.7628938 10.31827467 4.25110941 11.9964074 7.4375 14.5 C9.8125 16.4375 9.8125 16.4375 10.3125 19.0625 C9.8125 21.4375 9.8125 21.4375 6.8125 23.4375 C9.7825 25.0875 12.7525 26.7375 15.8125 28.4375 C15.8125 29.4275 15.8125 30.4175 15.8125 31.4375 C15.049375 31.416875 14.28625 31.39625 13.5 31.375 C10.71064214 31.30807159 10.71064214 31.30807159 7.8125 32.4375 C6.8225 32.1075 5.8325 31.7775 4.8125 31.4375 C3.41810336 31.37084624 2.02080125 31.35211801 0.625 31.375 C-0.633125 31.395625 -1.89125 31.41625 -3.1875 31.4375 C-3.001875 32.241875 -2.81625 33.04625 -2.625 33.875 C-2.480625 34.720625 -2.33625 35.56625 -2.1875 36.4375 C-3.1875 37.4375 -3.1875 37.4375 -6.25 37.75 C-10.99870946 37.3731183 -14.12812306 35.79931931 -18.1875 33.4375 C-18.1875 32.7775 -18.1875 32.1175 -18.1875 31.4375 C-19.8375 31.4375 -21.4875 31.4375 -23.1875 31.4375 C-23.1875 30.4475 -23.1875 29.4575 -23.1875 28.4375 C-23.8475 28.1075 -24.5075 27.7775 -25.1875 27.4375 C-21.84376525 27.99478913 -19.15437001 28.78923889 -16.1875 30.4375 C-16.1875 31.0975 -16.1875 31.7575 -16.1875 32.4375 C-14.8675 32.4375 -13.5475 32.4375 -12.1875 32.4375 C-12.1875 33.0975 -12.1875 33.7575 -12.1875 34.4375 C-11.1975 33.9425 -11.1975 33.9425 -10.1875 33.4375 C-10.5175 32.7775 -10.8475 32.1175 -11.1875 31.4375 C-9.2075 31.7675 -7.2275 32.0975 -5.1875 32.4375 C-5.1875 31.7775 -5.1875 31.1175 -5.1875 30.4375 C-6.1775 30.1075 -7.1675 29.7775 -8.1875 29.4375 C-8.1875 27.4375 -8.1875 27.4375 -6.1875 25.4375 C-5.72587573 23.00497339 -5.72587573 23.00497339 -5.5625 20.3125 C-5.48773438 19.40242188 -5.41296875 18.49234375 -5.3359375 17.5546875 C-5.28695312 16.85601562 -5.23796875 16.15734375 -5.1875 15.4375 C-5.82558594 15.37691406 -6.46367187 15.31632812 -7.12109375 15.25390625 C-7.94738281 15.17011719 -8.77367187 15.08632812 -9.625 15 C-10.44871094 14.91878906 -11.27242187 14.83757812 -12.12109375 14.75390625 C-14.1875 14.4375 -14.1875 14.4375 -15.1875 13.4375 C-15.22813832 11.77132885 -15.230221 10.10361905 -15.1875 8.4375 C-12.5475 7.7775 -9.9075 7.1175 -7.1875 6.4375 C-7.105 5.65375 -7.0225 4.87 -6.9375 4.0625 C-6.1875 1.4375 -6.1875 1.4375 -4.375 0 C-2.1875 -0.5625 -2.1875 -0.5625 0 0 Z " fill="#EEE4E7" transform="translate(139.1875,91.5625)"/>
<path d="M0 0 C4.17038028 1.65241483 6.84582394 2.84582394 10 6 C13.10007201 7.20049407 13.10007201 7.20049407 16 8 C16 8.66 16 9.32 16 10 C16.66 10 17.32 10 18 10 C18.33 9.01 18.66 8.02 19 7 C21.64 7 24.28 7 27 7 C27.495 8.98 27.495 8.98 28 11 C29.66666667 11.33333333 31.33333333 11.66666667 33 12 C34.66666667 12.33333333 36.33333333 12.66666667 38 13 C38 14.65 38 16.3 38 18 C38.99 18.33 39.98 18.66 41 19 C42.1875 22.5625 42.1875 22.5625 43 26 C39.125 24.25 39.125 24.25 38 22 C37.34 23.32 36.68 24.64 36 26 C34.52093108 26.02689216 33.04172517 26.04634621 31.5625 26.0625 C30.32693359 26.07990234 30.32693359 26.07990234 29.06640625 26.09765625 C27 26 27 26 26 25 C25.95936168 23.33382885 25.957279 21.66611905 26 20 C28.31 20 30.62 20 33 20 C32.67 18.35 32.34 16.7 32 15 C31.34 16.32 30.68 17.64 30 19 C26.625 18.75 26.625 18.75 23 18 C21.5625 15.9375 21.5625 15.9375 21 14 C20.01 14 19.02 14 18 14 C16.68 14 15.36 14 14 14 C14 13.34 14 12.68 14 12 C11.37461716 12.14053872 8.74982573 12.28718947 6.125 12.4375 C5.00544922 12.49647461 5.00544922 12.49647461 3.86328125 12.55664062 C-1.68700067 12.82727207 -1.68700067 12.82727207 -6 16 C-6.46006346 18.20250992 -6.46006346 18.20250992 -6.625 20.625 C-6.69976562 21.44226563 -6.77453125 22.25953125 -6.8515625 23.1015625 C-6.90054688 23.72804688 -6.94953125 24.35453125 -7 25 C-7.33 25 -7.66 25 -8 25 C-8 21 -8 17 -8 13 C-8.556875 12.938125 -9.11375 12.87625 -9.6875 12.8125 C-13.01529218 11.64327572 -14.73133832 9.64677196 -17 7 C-17 6.01 -17 5.02 -17 4 C-13.68545551 4.38541215 -11.44901102 4.68447874 -8.6875 6.625 C-4.71318689 8.6583695 -1.28279333 7.77444847 3 7 C1.68 5.68 0.36 4.36 -1 3 C-0.67 2.01 -0.34 1.02 0 0 Z " fill="#D2CCDB" transform="translate(44,62)"/>
<path d="M0 0 C6.27 0 12.54 0 19 0 C19 0.66 19 1.32 19 2 C19.804375 1.67 20.60875 1.34 21.4375 1 C25.73804795 -0.20717135 29.56966181 -0.17721353 34 0 C34 0.33 34 0.66 34 1 C31.69 1.33 29.38 1.66 27 2 C27.20625 2.53625 27.4125 3.0725 27.625 3.625 C28.14345053 6.90852004 27.33599181 8.99401842 26 12 C25.01 12.33 24.02 12.66 23 13 C23 13.99 23 14.98 23 16 C18.38 16 13.76 16 9 16 C8.67 17.65 8.34 19.3 8 21 C5.69 21 3.38 21 1 21 C1.0928125 19.576875 1.0928125 19.576875 1.1875 18.125 C1.125625 17.09375 1.06375 16.0625 1 15 C0.01 14.34 -0.98 13.68 -2 13 C-2.36328125 10.9765625 -2.36328125 10.9765625 -2.3125 8.625 C-2.30863281 7.85414062 -2.30476563 7.08328125 -2.30078125 6.2890625 C-2 4 -2 4 0 0 Z " fill="#D14A43" transform="translate(39,74)"/>
<path d="M0 0 C0.33 0 0.66 0 1 0 C1.33 2.64 1.66 5.28 2 8 C4.475 8.99 4.475 8.99 7 10 C7 10.66 7 11.32 7 12 C8.65 11.34 10.3 10.68 12 10 C11.67 11.65 11.34 13.3 11 15 C9.35 15 7.7 15 6 15 C6 16.32 6 17.64 6 19 C6.886875 18.9175 7.77375 18.835 8.6875 18.75 C12.76006261 19.05736322 14.18307896 20.1025955 17 23 C17.8125 25.25 17.8125 25.25 18 27 C18.61875 26.360625 19.2375 25.72125 19.875 25.0625 C23.67509763 22.55443556 26.33056251 22.48482824 30.79296875 22.37109375 C31.52128906 22.24863281 32.24960938 22.12617187 33 22 C33.66 21.01 34.32 20.02 35 19 C36.32 19 37.64 19 39 19 C39 18.01 39 17.02 39 16 C38.01 16 37.02 16 36 16 C36.33 13.03 36.66 10.06 37 7 C37.33 7 37.66 7 38 7 C37.9071875 8.670625 37.9071875 8.670625 37.8125 10.375 C37.874375 11.57125 37.93625 12.7675 38 14 C38.99 14.66 39.98 15.32 41 16 C40.29445932 19.66881155 38.72264494 22.70450534 37 26 C35.68 26 34.36 26 33 26 C31.97980427 26.9793879 30.97850195 27.97895449 30 29 C29.01 29 28.02 29 27 29 C26.505 30.485 26.505 30.485 26 32 C23.36 31.67 20.72 31.34 18 31 C17.01 32.65 16.02 34.3 15 36 C13.515 35.505 13.515 35.505 12 35 C11.1875 33.1875 11.1875 33.1875 11 31 C11.9375 28.75 11.9375 28.75 13 27 C8.60769276 27.7904152 5.6861258 30.16761642 2.12109375 32.72265625 C0 34 0 34 -3 34 C-3 33.01 -3 32.02 -3 31 C-2.01 30.34 -1.02 29.68 0 29 C1.21284876 25.94570927 1.21284876 25.94570927 2 23 C1.071875 23.33 0.14375 23.66 -0.8125 24 C-4 25 -4 25 -7 25 C-6.875 23.1875 -6.875 23.1875 -6 21 C-5.01 20.525625 -4.02 20.05125 -3 19.5625 C0.20529273 18.32818133 0.20529273 18.32818133 0.875 15.5 C0.96657594 13.66848121 1 11.83380676 1 10 C0.34 9.34 -0.32 8.68 -1 8 C-1.33333333 2.66666667 -1.33333333 2.66666667 0 0 Z " fill="#D3E5E4" transform="translate(35,96)"/>
<path d="M0 0 C-0.57352893 3.87132028 -2.48704352 6.08172796 -5 9 C-3.02 8.67 -1.04 8.34 1 8 C1.495 9.485 1.495 9.485 2 11 C0.35 11.33 -1.3 11.66 -3 12 C-3 12.66 -3 13.32 -3 14 C-4.98 14.99 -4.98 14.99 -7 16 C-6.67 17.0725 -6.34 18.145 -6 19.25 C-5 23 -5 23 -5 27 C-6.8125 28.0625 -6.8125 28.0625 -9 29 C-9.99 28.67 -10.98 28.34 -12 28 C-10.68 27.01 -9.36 26.02 -8 25 C-8.495 21.535 -8.495 21.535 -9 18 C-11.64 17.67 -14.28 17.34 -17 17 C-17 16.34 -17 15.68 -17 15 C-17.99 15 -18.98 15 -20 15 C-22.1875 12.5 -22.1875 12.5 -24 10 C-23.01 9.67 -22.02 9.34 -21 9 C-21 8.34 -21 7.68 -21 7 C-21.59167969 7.64453125 -22.18335938 8.2890625 -22.79296875 8.953125 C-27.4897403 11.95082085 -31.84677513 11.67306721 -37.3125 11.75 C-38.85260742 11.79447266 -38.85260742 11.79447266 -40.42382812 11.83984375 C-42.94929675 11.91032194 -45.47385415 11.9631266 -48 12 C-45.06814018 10.04542678 -43.83974908 9.69402861 -40.5 9.1875 C-36.63563638 8.4584446 -36.63563638 8.4584446 -34.125 5.375 C-33.75375 4.59125 -33.3825 3.8075 -33 3 C-32.01 3 -31.02 3 -30 3 C-30 3.99 -30 4.98 -30 6 C-24.28758534 5.61271765 -21.26311718 5.12989477 -17 1 C-16.67 2.32 -16.34 3.64 -16 5 C-12.87812055 4.13505561 -12.87812055 4.13505561 -10.25 1.9375 C-6.49415598 -0.30156086 -4.29500694 -0.34360056 0 0 Z " fill="#BDADD8" transform="translate(153,63)"/>
<path d="M0 0 C0.72445312 0.04833984 1.44890625 0.09667969 2.1953125 0.14648438 C5.31370268 0.37374713 8.02240608 0.69496869 11 1.6875 C11 5.6475 11 9.6075 11 13.6875 C10.01 13.6875 9.02 13.6875 8 13.6875 C8.495 14.14125 8.99 14.595 9.5 15.0625 C11 16.6875 11 16.6875 11 18.6875 C9.35 18.6875 7.7 18.6875 6 18.6875 C6.33 19.3475 6.66 20.0075 7 20.6875 C6.01 20.6875 5.02 20.6875 4 20.6875 C4 20.0275 4 19.3675 4 18.6875 C2.68 18.6875 1.36 18.6875 0 18.6875 C-0.33 18.0275 -0.66 17.3675 -1 16.6875 C-3.34038186 15.55647474 -3.34038186 15.55647474 -6.0625 14.5625 C-6.98160156 14.20929688 -7.90070313 13.85609375 -8.84765625 13.4921875 C-9.55792969 13.22664063 -10.26820312 12.96109375 -11 12.6875 C-11 12.0275 -11 11.3675 -11 10.6875 C-11.66 10.6875 -12.32 10.6875 -13 10.6875 C-12.51421457 7.56459365 -12.0013988 4.69169641 -11 1.6875 C-7.17746981 -0.86085346 -4.37253994 -0.36178489 0 0 Z " fill="#744165" transform="translate(123,105.3125)"/>
<path d="M0 0 C0.99 0.66 1.98 1.32 3 2 C2.67 3.32 2.34 4.64 2 6 C-0.31 6 -2.62 6 -5 6 C-5.144375 6.639375 -5.28875 7.27875 -5.4375 7.9375 C-6 10 -6 10 -7 11 C-7.04080783 12.99958364 -7.04254356 15.00045254 -7 17 C-7.99 17.33 -8.98 17.66 -10 18 C-9.95875 18.9075 -9.9175 19.815 -9.875 20.75 C-9.99984141 23.99587673 -10.12824986 25.40707555 -12 28 C-14.4609375 28.57421875 -14.4609375 28.57421875 -17.375 28.6875 C-20.73104479 28.845804 -23.76712631 29.05771691 -27 30 C-27.12375 29.443125 -27.2475 28.88625 -27.375 28.3125 C-28.84635662 22.76432948 -28.84635662 22.76432948 -33 19 C-31.35 19 -29.7 19 -28 19 C-28 18.01 -28 17.02 -28 16 C-28.66 15.67 -29.32 15.34 -30 15 C-28 13 -28 13 -25.5390625 12.76953125 C-24.57742187 12.78371094 -23.61578125 12.79789063 -22.625 12.8125 C-21.66851562 12.81894531 -20.71203125 12.82539062 -19.7265625 12.83203125 C-17.33405932 12.97942041 -15.28958203 13.32180627 -13 14 C-13 13.01 -13 12.02 -13 11 C-12.01 10.34 -11.02 9.68 -10 9 C-9.27034634 6.43717258 -9.27034634 6.43717258 -9 4 C-3.25 3.875 -3.25 3.875 -1 5 C-0.67 3.35 -0.34 1.7 0 0 Z " fill="#4A3D81" transform="translate(75,76)"/>
<path d="M0 0 C2.47329425 1.9615782 2.39121426 3.34807127 2.8125 6.4375 C4.05667881 10.87568052 4.05667881 10.87568052 6.8125 14.4375 C6.1525 14.4375 5.4925 14.4375 4.8125 14.4375 C4.8125 15.0975 4.8125 15.7575 4.8125 16.4375 C3.1625 16.4375 1.5125 16.4375 -0.1875 16.4375 C-0.1875 17.0975 -0.1875 17.7575 -0.1875 18.4375 C-0.8475 18.7675 -1.5075 19.0975 -2.1875 19.4375 C-1.878125 20.035625 -1.56875 20.63375 -1.25 21.25 C-0.1875 23.4375 -0.1875 23.4375 0.8125 26.4375 C-3.6425 27.9225 -3.6425 27.9225 -8.1875 29.4375 C-8.1875 27.4375 -8.1875 27.4375 -6.1875 25.4375 C-5.72587573 23.00497339 -5.72587573 23.00497339 -5.5625 20.3125 C-5.48773438 19.40242188 -5.41296875 18.49234375 -5.3359375 17.5546875 C-5.28695312 16.85601562 -5.23796875 16.15734375 -5.1875 15.4375 C-5.82558594 15.37691406 -6.46367187 15.31632812 -7.12109375 15.25390625 C-7.94738281 15.17011719 -8.77367187 15.08632812 -9.625 15 C-10.44871094 14.91878906 -11.27242188 14.83757812 -12.12109375 14.75390625 C-14.1875 14.4375 -14.1875 14.4375 -15.1875 13.4375 C-15.22813832 11.77132885 -15.230221 10.10361905 -15.1875 8.4375 C-12.5475 7.7775 -9.9075 7.1175 -7.1875 6.4375 C-7.105 5.65375 -7.0225 4.87 -6.9375 4.0625 C-6.1875 1.4375 -6.1875 1.4375 -4.375 0 C-2.1875 -0.5625 -2.1875 -0.5625 0 0 Z " fill="#E3DFAC" transform="translate(139.1875,91.5625)"/>
<path d="M0 0 C0.66 0.33 1.32 0.66 2 1 C2 2.98 2 4.96 2 7 C3.03060547 6.98259766 3.03060547 6.98259766 4.08203125 6.96484375 C4.98308594 6.95582031 5.88414063 6.94679688 6.8125 6.9375 C7.70582031 6.92589844 8.59914063 6.91429688 9.51953125 6.90234375 C12 7 12 7 15 8 C15.6875 10.0625 15.6875 10.0625 16 12 C16.33773437 11.4946875 16.67546875 10.989375 17.0234375 10.46875 C17.69246094 9.49421875 17.69246094 9.49421875 18.375 8.5 C18.81585938 7.8503125 19.25671875 7.200625 19.7109375 6.53125 C20.13632813 6.0259375 20.56171875 5.520625 21 5 C21.66 5 22.32 5 23 5 C23.33 4.01 23.66 3.02 24 2 C24 3.98 24 5.96 24 8 C23.4225 8.20625 22.845 8.4125 22.25 8.625 C19.72086158 9.9117538 19.72086158 9.9117538 18.3671875 13.01953125 C16 16 16 16 12.1796875 16.91015625 C10.74615299 16.99067706 9.31062817 17.04067023 7.875 17.0625 C7.14667969 17.10826172 6.41835937 17.15402344 5.66796875 17.20117188 C3.5546875 17.28515625 3.5546875 17.28515625 0 17 C-2.29013653 13.5647952 -2.17842973 12.014669 -2 8 C-3.98 7.34 -5.96 6.68 -8 6 C-8.33 4.35 -8.66 2.7 -9 1 C-6.01405576 -0.49297212 -3.29146376 -0.11755228 0 0 Z " fill="#DDC941" transform="translate(86,96)"/>
<path d="M0 0 C2 0 4 0 6 0 C6.66 0.99 7.32 1.98 8 3 C11.06556598 3.73343428 11.06556598 3.73343428 14 4 C13.979375 5.093125 13.95875 6.18625 13.9375 7.3125 C13.81455548 10.94384191 13.81455548 10.94384191 15 14 C15.66 13.67 16.32 13.34 17 13 C19.204364 12.77049681 21.41392173 12.58924067 23.625 12.4375 C25.40777344 12.31181641 25.40777344 12.31181641 27.2265625 12.18359375 C28.14179687 12.12300781 29.05703125 12.06242187 30 12 C29.17092138 15.89666951 27.76878503 18.07739358 25 21 C22.625 22.5 22.625 22.5 20 23 C14.69855304 21.23285101 12.29533352 18.27502727 9 14 C8.484375 13.525625 7.96875 13.05125 7.4375 12.5625 C5.10157374 10.02344972 3.65237002 7.01984866 2 4 C1.34 4 0.68 4 0 4 C0 2.68 0 1.36 0 0 Z " fill="#453980" transform="translate(71,99)"/>
<path d="M0 0 C1.31967773 0.00773437 1.31967773 0.00773437 2.66601562 0.015625 C9.1582138 0.0957138 9.1582138 0.0957138 10.3125 1.25 C10.5625 4.6875 10.5625 4.6875 10.3125 8.25 C6.83996777 10.56502149 5.05113946 10.59128598 0.9375 10.8125 C-3.03731071 11.03636865 -6.80156118 11.36947828 -10.6875 12.25 C-10.6875 11.26 -10.6875 10.27 -10.6875 9.25 C-11.6775 8.92 -12.6675 8.59 -13.6875 8.25 C-13.9375 5.9375 -13.9375 5.9375 -13.6875 3.25 C-10.0871526 -0.96868961 -5.08061639 -0.12069764 0 0 Z " fill="#56B9D7" transform="translate(122.6875,74.75)"/>
<path d="M0 0 C0.97324219 0.00257812 1.94648437 0.00515625 2.94921875 0.0078125 C3.91472656 0.00523438 4.88023438 0.00265625 5.875 0 C8.32257958 0.11770538 10.33683694 0.30127628 12.63671875 1.1328125 C15.05319624 5.96576749 14.0015534 12.78748471 12.63671875 17.8203125 C12.30671875 18.5834375 11.97671875 19.3465625 11.63671875 20.1328125 C12.29671875 20.1328125 12.95671875 20.1328125 13.63671875 20.1328125 C13.63671875 20.7928125 13.63671875 21.4528125 13.63671875 22.1328125 C14.29671875 22.1328125 14.95671875 22.1328125 15.63671875 22.1328125 C15.63671875 22.7928125 15.63671875 23.4528125 15.63671875 24.1328125 C16.29671875 24.1328125 16.95671875 24.1328125 17.63671875 24.1328125 C17.63671875 25.4528125 17.63671875 26.7728125 17.63671875 28.1328125 C15.32671875 28.1328125 13.01671875 28.1328125 10.63671875 28.1328125 C10.25453108 26.47666593 9.92276773 24.80824226 9.63671875 23.1328125 C9.96671875 22.8028125 10.29671875 22.4728125 10.63671875 22.1328125 C10.47171875 21.3490625 10.30671875 20.5653125 10.13671875 19.7578125 C9.45101092 14.78643076 10.0625824 10.09688369 10.63671875 5.1328125 C9.97671875 5.1328125 9.31671875 5.1328125 8.63671875 5.1328125 C8.38921875 5.7103125 8.14171875 6.2878125 7.88671875 6.8828125 C6.46988558 9.4331122 4.76044338 11.15066951 2.63671875 13.1328125 C2.63671875 11.4828125 2.63671875 9.8328125 2.63671875 8.1328125 C1.70859375 7.91625 1.70859375 7.91625 0.76171875 7.6953125 C-1.36328125 7.1328125 -1.36328125 7.1328125 -3.36328125 6.1328125 C-3.40600225 4.46669345 -3.40391957 2.79898365 -3.36328125 1.1328125 C-2.36328125 0.1328125 -2.36328125 0.1328125 0 0 Z " fill="#5F7594" transform="translate(98.36328125,95.8671875)"/>
<path d="M0 0 C0.66 0.33 1.32 0.66 2 1 C2 1.66 2 2.32 2 3 C2.78375 3.28875 3.5675 3.5775 4.375 3.875 C7 5 7 5 9 7 C9 7.99 9 8.98 9 10 C9.66 10.33 10.32 10.66 11 11 C6.82412922 12.39195693 2.87401815 12.22400286 -1.5 12.25 C-2.36753906 12.270625 -3.23507813 12.29125 -4.12890625 12.3125 C-4.96292969 12.31765625 -5.79695313 12.3228125 -6.65625 12.328125 C-7.79803711 12.34214355 -7.79803711 12.34214355 -8.96289062 12.35644531 C-11.5504602 11.90368266 -12.42263465 11.06583184 -14 9 C-14.375 6.4375 -14.375 6.4375 -14 4 C-13.01 3.34 -12.02 2.68 -11 2 C-10.67 2.66 -10.34 3.32 -10 4 C-7.03 4 -4.06 4 -1 4 C-0.67 2.68 -0.34 1.36 0 0 Z " fill="#478F4E" transform="translate(81,83)"/>
<path d="M0 0 C-0.33 0.99 -0.66 1.98 -1 3 C-1.99 3 -2.98 3 -4 3 C-4 3.66 -4 4.32 -4 5 C1.445 4.505 1.445 4.505 7 4 C7.33 2.68 7.66 1.36 8 0 C9.32 0 10.64 0 12 0 C12 3.3 12 6.6 12 10 C6.51324804 11.86783046 1.77807024 12.2358396 -4 12 C-4 11.34 -4 10.68 -4 10 C-4.66 10 -5.32 10 -6 10 C-6 9.01 -6 8.02 -6 7 C-6.99 6.67 -7.98 6.34 -9 6 C-8.67 4.35 -8.34 2.7 -8 1 C-5.07175348 0.02391783 -3.04386724 -0.08226668 0 0 Z " fill="#B53F3D" transform="translate(122,107)"/>
<path d="M0 0 C0.33 0 0.66 0 1 0 C0.9071875 1.670625 0.9071875 1.670625 0.8125 3.375 C0.874375 4.57125 0.93625 5.7675 1 7 C1.99 7.66 2.98 8.32 4 9 C3.29445932 12.66881155 1.72264494 15.70450534 0 19 C-1.32 19 -2.64 19 -4 19 C-5.02019573 19.9793879 -6.02149805 20.97895449 -7 22 C-7.99 22 -8.98 22 -10 22 C-10.33 22.99 -10.66 23.98 -11 25 C-14.63 24.67 -18.26 24.34 -22 24 C-21.34 22.02 -20.68 20.04 -20 18 C-19.67 18.66 -19.34 19.32 -19 20 C-18.38125 19.360625 -17.7625 18.72125 -17.125 18.0625 C-13.32490237 15.55443556 -10.66943749 15.48482824 -6.20703125 15.37109375 C-5.47871094 15.24863281 -4.75039062 15.12617187 -4 15 C-3.34 14.01 -2.68 13.02 -2 12 C-0.68 12 0.64 12 2 12 C2 11.01 2 10.02 2 9 C1.01 9 0.02 9 -1 9 C-0.67 6.03 -0.34 3.06 0 0 Z " fill="#D3DEE4" transform="translate(72,103)"/>
<path d="M0 0 C2.75293162 -0.22941097 4.63247553 -0.15751049 7.1875 0.9375 C9.99820606 4.13588966 10.34296241 7.87622459 11 12 C7.52119085 14.3192061 6.48086069 14.18399386 2.4375 13.8125 C1.46683594 13.73644531 0.49617188 13.66039063 -0.50390625 13.58203125 C-3 13 -3 13 -5 10 C-5.99 9.34 -6.98 8.68 -8 8 C-6.82421875 6.015625 -6.82421875 6.015625 -5 4 C-2.51953125 3.609375 -2.51953125 3.609375 0.1875 3.75 C1.08855469 3.78609375 1.98960938 3.8221875 2.91796875 3.859375 C3.94857422 3.92898437 3.94857422 3.92898437 5 4 C3.74458443 1.48916886 2.49936512 1.12874554 0 0 Z " fill="#C45797" transform="translate(103,81)"/>
<path d="M0 0 C1.38294718 0.01329757 2.76582404 0.03715018 4.1484375 0.0703125 C4.85484375 0.07933594 5.56125 0.08835937 6.2890625 0.09765625 C8.03399848 0.12123647 9.77876045 0.15710789 11.5234375 0.1953125 C11.8534375 2.5053125 12.1834375 4.8153125 12.5234375 7.1953125 C9.11911803 9.46485881 7.35819548 9.56081199 3.3359375 9.8203125 C2.24925781 9.89507812 1.16257812 9.96984375 0.04296875 10.046875 C-1.20419922 10.12035156 -1.20419922 10.12035156 -2.4765625 10.1953125 C-2.4765625 9.5353125 -2.4765625 8.8753125 -2.4765625 8.1953125 C-3.4665625 7.8653125 -4.4565625 7.5353125 -5.4765625 7.1953125 C-5.6015625 4.8203125 -5.6015625 4.8203125 -5.4765625 2.1953125 C-3.4765625 0.1953125 -3.4765625 0.1953125 0 0 Z " fill="#BC4794" transform="translate(120.4765625,90.8046875)"/>
<path d="M0 0 C0.66 0.33 1.32 0.66 2 1 C4.04055005 1.07065617 6.08334257 1.08421976 8.125 1.0625 C9.22070312 1.05347656 10.31640625 1.04445313 11.4453125 1.03515625 C12.70988281 1.01775391 12.70988281 1.01775391 14 1 C14.12375 2.134375 14.2475 3.26875 14.375 4.4375 C14.58125 5.613125 14.7875 6.78875 15 8 C15.66 8.33 16.32 8.66 17 9 C15.96939453 9.05607422 15.96939453 9.05607422 14.91796875 9.11328125 C14.01691406 9.17902344 13.11585937 9.24476562 12.1875 9.3125 C11.29417969 9.37050781 10.40085937 9.42851563 9.48046875 9.48828125 C6.65475171 10.07122445 5.87494434 10.89983712 4 13 C3.34 13 2.68 13 2 13 C1.87625 12.071875 1.87625 12.071875 1.75 11.125 C1.18741541 8.81562433 1.18741541 8.81562433 -1.0625 7.75 C-1.701875 7.5025 -2.34125 7.255 -3 7 C-2.625 4.0625 -2.625 4.0625 -2 1 C-1.34 0.67 -0.68 0.34 0 0 Z " fill="#399DC2" transform="translate(51,110)"/>
<path d="M0 0 C0.99 0 1.98 0 3 0 C3 0.66 3 1.32 3 2 C5.01822917 1.90234375 7.03645833 1.8046875 9.0546875 1.70703125 C9.69664062 1.80371094 10.33859375 1.90039062 11 2 C13.1610211 5.24153166 13.64247553 6.23692901 13 10 C10.43025001 12.71659284 8.94655411 13.91586186 5.1875 14.25 C4.1046875 14.12625 4.1046875 14.12625 3 14 C3 13.01 3 12.02 3 11 C2.01 10.67 1.02 10.34 0 10 C0.33 9.34 0.66 8.68 1 8 C0.34 8 -0.32 8 -1 8 C-0.67 5.36 -0.34 2.72 0 0 Z " fill="#385FA7" transform="translate(133,78)"/>
<path d="M0 0 C1 1 1 1 1.25 3.875 C1 7 1 7 -0.1015625 8.7734375 C-2 10 -2 10 -5.1015625 9.671875 C-6.26429688 9.36765625 -7.42703125 9.0634375 -8.625 8.75 C-9.79289063 8.45609375 -10.96078125 8.1621875 -12.1640625 7.859375 C-15 7 -15 7 -16 6 C-16.04063832 4.33382885 -16.042721 2.66611905 -16 1 C-10.11567296 -0.78631357 -6.0511835 -1.16777225 0 0 Z " fill="#E5D546" transform="translate(140,99)"/>
<path d="M0 0 C0.66 0.33 1.32 0.66 2 1 C1.67 2.32 1.34 3.64 1 5 C2.485 5.495 2.485 5.495 4 6 C2.125 7.0625 2.125 7.0625 0 8 C-0.66 7.67 -1.32 7.34 -2 7 C-2.33 7.99 -2.66 8.98 -3 10 C-3.99 9.67 -4.98 9.34 -6 9 C-5.01 8.67 -4.02 8.34 -3 8 C-3 7.34 -3 6.68 -3 6 C-3.59167969 6.64453125 -4.18335938 7.2890625 -4.79296875 7.953125 C-9.4897403 10.95082085 -13.84677513 10.67306721 -19.3125 10.75 C-20.85260742 10.79447266 -20.85260742 10.79447266 -22.42382812 10.83984375 C-24.94929675 10.91032194 -27.47385415 10.9631266 -30 11 C-27.06814018 9.04542678 -25.83974908 8.69402861 -22.5 8.1875 C-18.63563638 7.4584446 -18.63563638 7.4584446 -16.125 4.375 C-15.75375 3.59125 -15.3825 2.8075 -15 2 C-14.01 2 -13.02 2 -12 2 C-12 2.99 -12 3.98 -12 5 C-6.26133714 4.75873003 -6.26133714 4.75873003 -1.5 1.9375 C-1.005 1.298125 -0.51 0.65875 0 0 Z " fill="#C7E9EC" transform="translate(135,64)"/>
<path d="M0 0 C1.93166016 0.01740234 1.93166016 0.01740234 3.90234375 0.03515625 C5.19269531 0.04417969 6.48304687 0.05320312 7.8125 0.0625 C8.81152344 0.07410156 9.81054688 0.08570312 10.83984375 0.09765625 C11.52734375 2.41015625 11.52734375 2.41015625 11.83984375 5.09765625 C10.74609375 6.890625 10.74609375 6.890625 8.83984375 8.09765625 C6.24609375 8.4609375 6.24609375 8.4609375 3.33984375 8.41015625 C2.38078125 8.40628906 1.42171875 8.40242188 0.43359375 8.3984375 C-2.16015625 8.09765625 -2.16015625 8.09765625 -5.16015625 6.09765625 C-4.08838165 0.12634059 -4.08838165 0.12634059 0 0 Z " fill="#E1E6E6" transform="translate(55.16015625,103.90234375)"/>
<path d="M0 0 C0.33 1.32 0.66 2.64 1 4 C2.32 4.33 3.64 4.66 5 5 C4.01 6.485 4.01 6.485 3 8 C2.34 8 1.68 8 1 8 C0.690625 8.804375 0.38125 9.60875 0.0625 10.4375 C-1 13 -1 13 -2 14 C-1.34 14.45375 -0.68 14.9075 0 15.375 C0.99 16.179375 0.99 16.179375 2 17 C2 17.66 2 18.32 2 19 C4.31 19 6.62 19 9 19 C8.67 19.66 8.34 20.32 8 21 C1.86946489 21.32712342 -2.62669111 21.39366878 -8 18 C-6.35 14.04 -4.7 10.08 -3 6 C-2.01 6 -1.02 6 0 6 C-0.2784375 4.7934375 -0.2784375 4.7934375 -0.5625 3.5625 C-0.706875 2.716875 -0.85125 1.87125 -1 1 C-0.67 0.67 -0.34 0.34 0 0 Z " fill="#D8D5E1" transform="translate(98,75)"/>
<path d="M0 0 C0.99 0.66 1.98 1.32 3 2 C2.67 3.32 2.34 4.64 2 6 C-0.31 6 -2.62 6 -5 6 C-5.12375 6.556875 -5.2475 7.11375 -5.375 7.6875 C-6.05976855 10.22114364 -6.99133763 12.57921032 -8 15 C-11.3 15 -14.6 15 -18 15 C-18 15.66 -18 16.32 -18 17 C-20.97 17.33 -23.94 17.66 -27 18 C-27.33 16.35 -27.66 14.7 -28 13 C-26.25008666 12.97284617 -24.50005055 12.95353449 -22.75 12.9375 C-21.28820313 12.92009766 -21.28820313 12.92009766 -19.796875 12.90234375 C-17.34241322 12.98804423 -15.33831086 13.29293934 -13 14 C-13 13.01 -13 12.02 -13 11 C-12.01 10.34 -11.02 9.68 -10 9 C-9.27034634 6.43717258 -9.27034634 6.43717258 -9 4 C-3.25 3.875 -3.25 3.875 -1 5 C-0.67 3.35 -0.34 1.7 0 0 Z " fill="#55232C" transform="translate(75,76)"/>
<path d="M0 0 C6.875 2.75 6.875 2.75 8 5 C7.01 5.33 6.02 5.66 5 6 C5.66 7.32 6.32 8.64 7 10 C3.7 9.67 0.4 9.34 -3 9 C-3 9.66 -3 10.32 -3 11 C-4.65 10.67 -6.3 10.34 -8 10 C-7.01 11.485 -7.01 11.485 -6 13 C-8.1875 13.3125 -8.1875 13.3125 -11 13 C-14.22968679 10.35752899 -16.52613972 8.26474248 -17 4 C-13.68545551 4.38541215 -11.44901102 4.68447874 -8.6875 6.625 C-4.71318689 8.6583695 -1.28279333 7.77444847 3 7 C1.68 5.68 0.36 4.36 -1 3 C-0.67 2.01 -0.34 1.02 0 0 Z " fill="#F6ECE2" transform="translate(44,62)"/>
<path d="M0 0 C1.32 0 2.64 0 4 0 C5 1.66666667 6 3.33333333 7 5 C8.32 5 9.64 5 11 5 C11 5.99 11 6.98 11 8 C11.99 8.33 12.98 8.66 14 9 C12.68 9 11.36 9 10 9 C10 8.34 10 7.68 10 7 C7.37461716 7.14053872 4.74982573 7.28718947 2.125 7.4375 C1.00544922 7.49647461 1.00544922 7.49647461 -0.13671875 7.55664062 C-5.68700067 7.82727207 -5.68700067 7.82727207 -10 11 C-10.46006346 13.20250992 -10.46006346 13.20250992 -10.625 15.625 C-10.69976562 16.44226563 -10.77453125 17.25953125 -10.8515625 18.1015625 C-10.90054688 18.72804688 -10.94953125 19.35453125 -11 20 C-11.33 20 -11.66 20 -12 20 C-12 15.33333333 -12 10.66666667 -12 6 C-12.33 5.34 -12.66 4.68 -13 4 C-11.02 4.66 -9.04 5.32 -7 6 C-7 5.34 -7 4.68 -7 4 C-4.03 4 -1.06 4 2 4 C1.34 2.68 0.68 1.36 0 0 Z " fill="#EDB584" transform="translate(48,67)"/>
<path d="M0 0 C0.33 0 0.66 0 1 0 C1 1.98 1 3.96 1 6 C0.13375 6.309375 0.13375 6.309375 -0.75 6.625 C-3.78173769 8.26103574 -3.78173769 8.26103574 -7 14 C-11.95 13.67 -16.9 13.34 -22 13 C-20.68 11.68 -19.36 10.36 -18 9 C-15.78155374 9.19015254 -14.58477845 9.41522155 -13 11 C-12.67 10.01 -12.34 9.02 -12 8 C-12.66 8 -13.32 8 -14 8 C-14 7.34 -14 6.68 -14 6 C-16.64 6 -19.28 6 -22 6 C-22 5.67 -22 5.34 -22 5 C-20.22925083 4.97294271 -18.45838289 4.95357805 -16.6875 4.9375 C-15.70136719 4.92589844 -14.71523437 4.91429688 -13.69921875 4.90234375 C-11 5 -11 5 -8 6 C-7.3125 8.0625 -7.3125 8.0625 -7 10 C-6.66226563 9.4946875 -6.32453125 8.989375 -5.9765625 8.46875 C-5.53054687 7.8190625 -5.08453125 7.169375 -4.625 6.5 C-4.18414062 5.8503125 -3.74328125 5.200625 -3.2890625 4.53125 C-2.86367187 4.0259375 -2.43828125 3.520625 -2 3 C-1.34 3 -0.68 3 0 3 C0 2.01 0 1.02 0 0 Z " fill="#E8D745" transform="translate(109,98)"/>
<path d="M0 0 C1.32 0.66 2.64 1.32 4 2 C3.67 3.98 3.34 5.96 3 8 C4.98 8.66 6.96 9.32 9 10 C9 10.99 9 11.98 9 13 C7.02 13.66 5.04 14.32 3 15 C3.99 15.99 4.98 16.98 6 18 C5.67 18.66 5.34 19.32 5 20 C0.125 18.125 0.125 18.125 -1 17 C-1.49342237 11.54940401 -0.8842283 7.15022402 1 2 C0.67 1.34 0.34 0.68 0 0 Z " fill="#96A4CF" transform="translate(37,87)"/>
<path d="M0 0 C3 1.8125 3 1.8125 6 4 C6 4.99 6 5.98 6 7 C6.66 7.33 7.32 7.66 8 8 C6.02 8 4.04 8 2 8 C1.67 7.34 1.34 6.68 1 6 C0.34 6.66 -0.32 7.32 -1 8 C-3.8203125 8.1953125 -3.8203125 8.1953125 -7.125 8.125 C-8.22070312 8.10695313 -9.31640625 8.08890625 -10.4453125 8.0703125 C-11.28835937 8.04710938 -12.13140625 8.02390625 -13 8 C-13 7.34 -13 6.68 -13 6 C-12.34 6 -11.68 6 -11 6 C-11 5.34 -11 4.68 -11 4 C-8.36 4 -5.72 4 -3 4 C-3 3.34 -3 2.68 -3 2 C-2.01 2 -1.02 2 0 2 C0 1.34 0 0.68 0 0 Z " fill="#6DBF5F" transform="translate(84,86)"/>
<path d="M0 0 C2.64 0.99 5.28 1.98 8 3 C8 3.66 8 4.32 8 5 C8.66 5 9.32 5 10 5 C10.33 4.01 10.66 3.02 11 2 C13.64 2 16.28 2 19 2 C19.66 3.65 20.32 5.3 21 7 C16.38 7.33 11.76 7.66 7 8 C7 7.01 7 6.02 7 5 C5.68 5.33 4.36 5.66 3 6 C0 2.25 0 2.25 0 0 Z " fill="#A3CADE" transform="translate(52,67)"/>
<path d="M0 0 C3.34373475 0.55728913 6.03312999 1.35173889 9 3 C9 3.66 9 4.32 9 5 C10.32 5 11.64 5 13 5 C13 5.66 13 6.32 13 7 C13.66 6.67 14.32 6.34 15 6 C14.67 5.34 14.34 4.68 14 4 C16.97 4.495 16.97 4.495 20 5 C20.33 4.34 20.66 3.68 21 3 C21.66 4.98 22.32 6.96 23 9 C22 10 22 10 18.9375 10.3125 C14.18879054 9.9356183 11.05937694 8.36181931 7 6 C7 5.34 7 4.68 7 4 C5.35 4 3.7 4 2 4 C2 3.01 2 2.02 2 1 C1.34 0.67 0.68 0.34 0 0 Z " fill="#F3E4E9" transform="translate(114,119)"/>
<path d="M0 0 C-0.33 2.31 -0.66 4.62 -1 7 C-0.34 7.33 0.32 7.66 1 8 C-1.97 8 -4.94 8 -8 8 C-8 6.02 -8 4.04 -8 2 C-10.64 1.67 -13.28 1.34 -16 1 C-16 0.67 -16 0.34 -16 0 C-14.08655626 -0.39111271 -12.16903447 -0.76231167 -10.25 -1.125 C-9.18265625 -1.33382812 -8.1153125 -1.54265625 -7.015625 -1.7578125 C-3.86311649 -2.01099324 -2.60040934 -1.70415175 0 0 Z " fill="#993329" transform="translate(96,95)"/>
<path d="M0 0 C0.66 1.32 1.32 2.64 2 4 C2.66 4.33 3.32 4.66 4 5 C4 5.66 4 6.32 4 7 C5.98 6.67 7.96 6.34 10 6 C10.33 7.98 10.66 9.96 11 12 C8.19502292 13.40248854 5.9706474 12.64937752 2.97265625 12.15625 C0.78748054 11.85409036 0.78748054 11.85409036 -2 13 C-1.34 8.71 -0.68 4.42 0 0 Z " fill="#433D74" transform="translate(114,94)"/>
<path d="M0 0 C0.99 0.33 1.98 0.66 3 1 C5.00875442 0.72428861 7.01178687 0.39764263 9 0 C9.33 0.99 9.66 1.98 10 3 C8.35 3.33 6.7 3.66 5 4 C5 4.66 5 5.32 5 6 C1.49223216 7.60355101 -1.14354879 8.22036864 -5 8 C-5 7.34 -5 6.68 -5 6 C-5.66 6 -6.32 6 -7 6 C-7 5.34 -7 4.68 -7 4 C-4.625 2.9375 -4.625 2.9375 -2 2 C-1.34 2.33 -0.68 2.66 0 3 C0 2.01 0 1.02 0 0 Z " fill="#D9EBF2" transform="translate(145,71)"/>
<path d="M0 0 C5.02877759 2.64672505 6.25062864 4.75188591 8 10 C9.64488294 11.68816933 11.31337542 13.35353315 13 15 C13.433125 15.763125 13.86625 16.52625 14.3125 17.3125 C16.06990232 19.39924075 16.06990232 19.39924075 19.875 19.625 C22.45380768 19.52032515 23.62958316 19.30661298 25.6328125 17.6484375 C27.18563071 15.83444894 27.18563071 15.83444894 29 13 C29 16.99476331 27.71130915 18.1421336 25 21 C22.625 22.5 22.625 22.5 20 23 C14.69855304 21.23285101 12.29533352 18.27502727 9 14 C8.484375 13.525625 7.96875 13.05125 7.4375 12.5625 C5.10157374 10.02344972 3.65237002 7.01984866 2 4 C1.34 4 0.68 4 0 4 C0 2.68 0 1.36 0 0 Z " fill="#B4B8D2" transform="translate(71,99)"/>
<path d="M0 0 C1.32 1.65 2.64 3.3 4 5 C3.34 6.65 2.68 8.3 2 10 C0.52093108 10.02689216 -0.95827483 10.04634621 -2.4375 10.0625 C-3.67306641 10.07990234 -3.67306641 10.07990234 -4.93359375 10.09765625 C-7 10 -7 10 -8 9 C-8.04063832 7.33382885 -8.042721 5.66611905 -8 4 C-5.69 4 -3.38 4 -1 4 C-0.67 2.68 -0.34 1.36 0 0 Z " fill="#5BADC9" transform="translate(78,78)"/>
<path d="M0 0 C5.28 0.33 10.56 0.66 16 1 C15.34 2.98 14.68 4.96 14 7 C10.37 7 6.74 7 3 7 C3 6.34 3 5.68 3 5 C3.99 5 4.98 5 6 5 C6 4.34 6 3.68 6 3 C4.02 3 2.04 3 0 3 C0 2.01 0 1.02 0 0 Z " fill="#CA5A4A" transform="translate(115,105)"/>
<path d="M0 0 C0.33 0 0.66 0 1 0 C1 2.31 1 4.62 1 7 C-4.12919186 9.10428384 -8.5610835 9.21755666 -14 9 C-14 8.34 -14 7.68 -14 7 C-14.66 6.67 -15.32 6.34 -16 6 C-13.87528825 5.6648342 -11.75022095 5.33192171 -9.625 5 C-8.44164063 4.814375 -7.25828125 4.62875 -6.0390625 4.4375 C-3 4 -3 4 -1 4 C-0.67 2.68 -0.34 1.36 0 0 Z " fill="#53174C" transform="translate(132,110)"/>
<path d="M0 0 C0.33 0 0.66 0 1 0 C1.33 2.64 1.66 5.28 2 8 C4.475 8.99 4.475 8.99 7 10 C7 10.66 7 11.32 7 12 C8.65 11.34 10.3 10.68 12 10 C11.67 11.65 11.34 13.3 11 15 C7.7 15.33 4.4 15.66 1 16 C1.226875 15.236875 1.45375 14.47375 1.6875 13.6875 C1.790625 12.800625 1.89375 11.91375 2 11 C1.525625 10.525625 1.05125 10.05125 0.5625 9.5625 C-1 8 -1 8 -1.25 4.9375 C-1 2 -1 2 0 0 Z " fill="#D2E6EB" transform="translate(35,96)"/>
<path d="M0 0 C0 0.66 0 1.32 0 2 C0.66 2.33 1.32 2.66 2 3 C1.67 4.32 1.34 5.64 1 7 C0.01 7 -0.98 7 -2 7 C-2 6.34 -2 5.68 -2 5 C-2.928125 5.020625 -3.85625 5.04125 -4.8125 5.0625 C-8 5 -8 5 -11 4 C-12.66621616 3.96125079 -14.33394172 3.9549714 -16 4 C-16 3.01 -16 2.02 -16 1 C-13.70839646 0.83246763 -11.41671509 0.66599948 -9.125 0.5 C-7.84882812 0.4071875 -6.57265625 0.314375 -5.2578125 0.21875 C-3.50763316 0.10123196 -1.75412035 0 0 0 Z " fill="#2D4984" transform="translate(134,86)"/>
<path d="M0 0 C1.65 1.32 3.3 2.64 5 4 C4.67 4.66 4.34 5.32 4 6 C4.66 6 5.32 6 6 6 C6 7.32 6 8.64 6 10 C5.195625 9.690625 5.195625 9.690625 4.375 9.375 C1.16670758 8.86842751 -0.97972611 9.90756051 -4 11 C-4.99 11 -5.98 11 -7 11 C-6.875 9.1875 -6.875 9.1875 -6 7 C-2.9375 5.25 -2.9375 5.25 0 4 C0 2.68 0 1.36 0 0 Z " fill="#ECF6F7" transform="translate(35,110)"/>
<path d="M0 0 C0.66 0 1.32 0 2 0 C1.67 1.98 1.34 3.96 1 6 C1.66 6 2.32 6 3 6 C3 6.66 3 7.32 3 8 C3.66 8 4.32 8 5 8 C5 8.66 5 9.32 5 10 C5.66 10 6.32 10 7 10 C7 11.32 7 12.64 7 14 C4.69 14 2.38 14 0 14 C-0.38218767 12.34385343 -0.71395102 10.67542976 -1 9 C-0.67 8.67 -0.34 8.34 0 8 C-0.165 7.030625 -0.33 6.06125 -0.5 5.0625 C-1 2 -1 2 0 0 Z " fill="#807DAB" transform="translate(109,110)"/>
<path d="M0 0 C0.66 0.33 1.32 0.66 2 1 C1.67 2.32 1.34 3.64 1 5 C1.99 5.33 2.98 5.66 4 6 C2.125 7.0625 2.125 7.0625 0 8 C-0.66 7.67 -1.32 7.34 -2 7 C-2.33 7.99 -2.66 8.98 -3 10 C-3.99 9.67 -4.98 9.34 -6 9 C-5.01 8.67 -4.02 8.34 -3 8 C-3 7.34 -3 6.68 -3 6 C-3.78375 6.515625 -4.5675 7.03125 -5.375 7.5625 C-6.24125 8.036875 -7.1075 8.51125 -8 9 C-8.66 8.67 -9.32 8.34 -10 8 C-9.67 7.01 -9.34 6.02 -9 5 C-7.00882592 4.30741771 -5.0078864 3.64252365 -3 3 C-1.16310524 1.50113129 -1.16310524 1.50113129 0 0 Z " fill="#D4E2EA" transform="translate(135,64)"/>
<path d="M0 0 C0.33 0.99 0.66 1.98 1 3 C2.32 3 3.64 3 5 3 C5.33 2.34 5.66 1.68 6 1 C6 1.66 6 2.32 6 3 C7.32 3 8.64 3 10 3 C10.8125 4.6875 10.8125 4.6875 11 7 C8.5625 9.75 8.5625 9.75 6 12 C6 10.35 6 8.7 6 7 C5.071875 6.7834375 5.071875 6.7834375 4.125 6.5625 C2 6 2 6 0 5 C0 3.35 0 1.7 0 0 Z " fill="#316AA2" transform="translate(95,97)"/>
<path d="M0 0 C-0.875 5.75 -0.875 5.75 -2 8 C-1.34 8.33 -0.68 8.66 0 9 C-0.66 10.32 -1.32 11.64 -2 13 C-2.99 12.67 -3.98 12.34 -5 12 C-5.8125 10.1875 -5.8125 10.1875 -6 8 C-5.0625 5.75 -5.0625 5.75 -4 4 C-5.32 4 -6.64 4 -8 4 C-7.67 3.01 -7.34 2.02 -7 1 C-4.52260646 0.09162237 -2.66420516 0 0 0 Z " fill="#E0EFF0" transform="translate(52,119)"/>
<path d="M0 0 C0 0.99 0 1.98 0 3 C-4.62 3 -9.24 3 -14 3 C-14 3.99 -14 4.98 -14 6 C-15.32 6.33 -16.64 6.66 -18 7 C-18.66 5.68 -19.32 4.36 -20 3 C-16.05342082 1.17850192 -12.6382306 0.64135057 -8.3125 0.375 C-6.60513672 0.26285156 -6.60513672 0.26285156 -4.86328125 0.1484375 C-3.2436076 0.06447079 -1.62184868 0 0 0 Z " fill="#233251" transform="translate(132,84)"/>
<path d="M0 0 C1.18851563 0.19464844 2.37703125 0.38929687 3.6015625 0.58984375 C4.97441406 0.82380859 4.97441406 0.82380859 6.375 1.0625 C6.375 1.3925 6.375 1.7225 6.375 2.0625 C3.075 2.3925 -0.225 2.7225 -3.625 3.0625 C-3.625 5.0425 -3.625 7.0225 -3.625 9.0625 C-4.285 8.7325 -4.945 8.4025 -5.625 8.0625 C-5.625 7.4025 -5.625 6.7425 -5.625 6.0625 C-6.945 6.3925 -8.265 6.7225 -9.625 7.0625 C-9.36938677 4.7193787 -9.03229228 2.38406597 -8.625 0.0625 C-5.61666904 -1.44166548 -3.27538422 -0.54589737 0 0 Z " fill="#282046" transform="translate(73.625,93.9375)"/>
<path d="M0 0 C-0.59687434 3.34249629 -1.73603877 5.46436342 -4 8 C-4.66 8 -5.32 8 -6 8 C-6 6.35 -6 4.7 -6 3 C-6.5775 3.515625 -7.155 4.03125 -7.75 4.5625 C-10 6 -10 6 -12.140625 5.58984375 C-12.75421875 5.39519531 -13.3678125 5.20054688 -14 5 C-9.10703712 1.00574458 -6.55344817 -0.6687192 0 0 Z " fill="#E7DDEC" transform="translate(153,63)"/>
<path d="M0 0 C-0.33 0.99 -0.66 1.98 -1 3 C-1.99 3 -2.98 3 -4 3 C-4 3.66 -4 4.32 -4 5 C-3.01 5.33 -2.02 5.66 -1 6 C-1.99 7.485 -1.99 7.485 -3 9 C-3.99 9 -4.98 9 -6 9 C-6 8.34 -6 7.68 -6 7 C-6.99 6.67 -7.98 6.34 -9 6 C-8.67 4.35 -8.34 2.7 -8 1 C-5.07175348 0.02391783 -3.04386724 -0.08226668 0 0 Z " fill="#CB3230" transform="translate(122,107)"/>
<path d="M0 0 C0.66 0.33 1.32 0.66 2 1 C2 2.32 2 3.64 2 5 C0.54176788 5.0270043 -0.91660675 5.04639787 -2.375 5.0625 C-3.18710938 5.07410156 -3.99921875 5.08570312 -4.8359375 5.09765625 C-7 5 -7 5 -9 4 C-9 3.01 -9 2.02 -9 1 C-6.01405576 -0.49297212 -3.29146376 -0.11755228 0 0 Z " fill="#E5DFDD" transform="translate(86,96)"/>
<path d="M0 0 C0.66 0.66 1.32 1.32 2 2 C1.625 4.625 1.625 4.625 1 7 C-2.375 6.75 -2.375 6.75 -6 6 C-7.4375 3.9375 -7.4375 3.9375 -8 2 C-5.95447958 -0.04552042 -2.72941914 0.23942273 0 0 Z " fill="#DAC769" transform="translate(73,74)"/>
<path d="M0 0 C2.88466476 -0.24038873 4.63695229 -0.18152386 7.25 1.125 C9.63069465 3.67574427 9.85648022 5.55552538 10 9 C9.01 10.485 9.01 10.485 8 12 C6.0546875 12.29296875 6.0546875 12.29296875 3.875 12.1875 C1.956875 12.0946875 1.956875 12.0946875 0 12 C0 11.34 0 10.68 0 10 C1.98 9.67 3.96 9.34 6 9 C5.34414811 5.39007621 5.34414811 5.39007621 4 2 C1.98330173 0.86649466 1.98330173 0.86649466 0 0 Z " fill="#93527F" transform="translate(103,81)"/>
<path d="M0 0 C0.99 0.33 1.98 0.66 3 1 C3 1.66 3 2.32 3 3 C4.98 3 6.96 3 9 3 C10.19287411 6.87684087 11 9.91621923 11 14 C9.1875 15.0625 9.1875 15.0625 7 16 C6.01 15.67 5.02 15.34 4 15 C5.32 14.01 6.64 13.02 8 12 C7.67 9.69 7.34 7.38 7 5 C4.36 4.67 1.72 4.34 -1 4 C-0.67 2.68 -0.34 1.36 0 0 Z " fill="#ACC4DA" transform="translate(137,76)"/>
<path d="M0 0 C4.95 1.98 4.95 1.98 10 4 C10.33 3.34 10.66 2.68 11 2 C11 2.99 11 3.98 11 5 C10.236875 4.979375 9.47375 4.95875 8.6875 4.9375 C5.89814214 4.87057159 5.89814214 4.87057159 3 6 C0.76213183 5.75754106 -1.46775934 5.43611971 -3.6875 5.0625 C-4.86699219 4.86785156 -6.04648438 4.67320313 -7.26171875 4.47265625 C-8.61716797 4.23869141 -8.61716797 4.23869141 -10 4 C-6.3558226 1.5705484 -4.28758728 1.83820425 0 2 C0 1.34 0 0.68 0 0 Z " fill="#F8F3F5" transform="translate(144,118)"/>
<path d="M0 0 C3.63 0 7.26 0 11 0 C11 1.32 11 2.64 11 4 C7.37169157 4.92817192 5.58926645 5.26901295 2.125 3.6875 C1.42375 3.130625 0.7225 2.57375 0 2 C0 1.34 0 0.68 0 0 Z " fill="#CF69A5" transform="translate(98,85)"/>
<path d="M0 0 C3 1 3 1 4.125 2.875 C4.81761182 4.55705727 5.4247585 6.27427551 6 8 C1.545 9.485 1.545 9.485 -3 11 C-3 9 -3 9 -1 7 C-0.59952556 4.67724823 -0.2602896 2.34260643 0 0 Z " fill="#DE9AA5" transform="translate(134,110)"/>
<path d="M0 0 C0.66 0.66 1.32 1.32 2 2 C1.01 2 0.02 2 -1 2 C-0.505 2.45375 -0.01 2.9075 0.5 3.375 C2 5 2 5 2 7 C0.35 7 -1.3 7 -3 7 C-2.67 7.66 -2.34 8.32 -2 9 C-2.99 9 -3.98 9 -5 9 C-5 8.34 -5 7.68 -5 7 C-6.32 6.67 -7.64 6.34 -9 6 C-6.49316923 2.23975384 -4.13506066 1.60807914 0 0 Z " fill="#D75576" transform="translate(132,117)"/>
<path d="M0 0 C0.99 0 1.98 0 3 0 C3.66 0.99 4.32 1.98 5 3 C8.06556598 3.73343428 8.06556598 3.73343428 11 4 C10.67 5.98 10.34 7.96 10 10 C9.67 9.34 9.34 8.68 9 8 C8.236875 8.0825 7.47375 8.165 6.6875 8.25 C4 8 4 8 2.25 6.25 C1.07005648 4.12610167 0.42503038 2.38017011 0 0 Z " fill="#79306D" transform="translate(74,99)"/>
<path d="M0 0 C0.33 0.66 0.66 1.32 1 2 C0.0625 4.125 0.0625 4.125 -1 6 C-1.66 6 -2.32 6 -3 6 C-3 6.66 -3 7.32 -3 8 C-4.65 7.67 -6.3 7.34 -8 7 C-8 5.35 -8 3.7 -8 2 C-5.36 1.34 -2.72 0.68 0 0 Z " fill="#E3CE41" transform="translate(132,98)"/>
<path d="M0 0 C1.79133978 -0.05391993 3.58313899 -0.09275571 5.375 -0.125 C6.37273438 -0.14820312 7.37046875 -0.17140625 8.3984375 -0.1953125 C11 0 11 0 13 2 C12.01 2 11.02 2 10 2 C10 2.66 10 3.32 10 4 C5.545 4.495 5.545 4.495 1 5 C0.67 3.35 0.34 1.7 0 0 Z " fill="#3C1033" transform="translate(47,89)"/>
<path d="M0 0 C1.93166016 0.01740234 1.93166016 0.01740234 3.90234375 0.03515625 C5.19269531 0.04417969 6.48304687 0.05320312 7.8125 0.0625 C8.81152344 0.07410156 9.81054688 0.08570312 10.83984375 0.09765625 C10.83984375 0.42765625 10.83984375 0.75765625 10.83984375 1.09765625 C8.85984375 1.42765625 6.87984375 1.75765625 4.83984375 2.09765625 C5.49984375 2.42765625 6.15984375 2.75765625 6.83984375 3.09765625 C6.83984375 3.75765625 6.83984375 4.41765625 6.83984375 5.09765625 C6.07671875 4.91203125 5.31359375 4.72640625 4.52734375 4.53515625 C1.75017 3.86946452 1.75017 3.86946452 -1.16015625 5.09765625 C-1.16015625 4.10765625 -1.16015625 3.11765625 -1.16015625 2.09765625 C-3.49091554 3.05631134 -3.49091554 3.05631134 -5.16015625 6.09765625 C-4.08838165 0.12634059 -4.08838165 0.12634059 0 0 Z " fill="#C0C5C5" transform="translate(55.16015625,103.90234375)"/>
<path d="M0 0 C0.33 0.66 0.66 1.32 1 2 C1.99 2 2.98 2 4 2 C4.66 3.98 5.32 5.96 6 8 C4.1746875 7.9690625 4.1746875 7.9690625 2.3125 7.9375 C-0.91977322 7.93175884 -3.84934741 8.21233685 -7 9 C-7 8.34 -7 7.68 -7 7 C-5.68 7 -4.36 7 -3 7 C-2.67 6.34 -2.34 5.68 -2 5 C-1.34 4.67 -0.68 4.34 0 4 C-0.33 3.01 -0.66 2.02 -1 1 C-0.67 0.67 -0.34 0.34 0 0 Z " fill="#E9D1D8" transform="translate(139,113)"/>
<path d="M0 0 C2 2 2 2 2.125 4.625 C2.08375 5.40875 2.0425 6.1925 2 7 C2.66 7.33 3.32 7.66 4 8 C2.68 8 1.36 8 0 8 C-0.23460937 7.36578125 -0.46921875 6.7315625 -0.7109375 6.078125 C-1.82290908 3.81749261 -1.82290908 3.81749261 -4.1640625 3.171875 C-5.38222656 2.96304688 -5.38222656 2.96304688 -6.625 2.75 C-7.44226562 2.60046875 -8.25953125 2.4509375 -9.1015625 2.296875 C-10.04128906 2.14992188 -10.04128906 2.14992188 -11 2 C-11 1.67 -11 1.34 -11 1 C-9.20991533 0.77848451 -7.41781838 0.57317787 -5.625 0.375 C-4.62726562 0.25898437 -3.62953125 0.14296875 -2.6015625 0.0234375 C-1.74304687 0.01570313 -0.88453125 0.00796875 0 0 Z " fill="#2E7BA2" transform="translate(64,111)"/>
<path d="M0 0 C1.4540625 0.0309375 1.4540625 0.0309375 2.9375 0.0625 C2.9375 2.0625 2.9375 4.0625 2.9375 6.0625 C0.6275 6.0625 -1.6825 6.0625 -4.0625 6.0625 C-4.105221 4.39638095 -4.10313832 2.72867115 -4.0625 1.0625 C-3.0625 0.0625 -3.0625 0.0625 0 0 Z " fill="#C36A9A" transform="translate(44.0625,88.9375)"/>
<path d="M0 0 C-3.0684847 2.97550031 -4.46236331 3.96474513 -8.8125 4.25 C-9.864375 4.1675 -10.91625 4.085 -12 4 C-12 2.68 -12 1.36 -12 0 C-10.37585622 -0.19477739 -8.75063577 -0.38059458 -7.125 -0.5625 C-6.22007813 -0.66691406 -5.31515625 -0.77132812 -4.3828125 -0.87890625 C-2 -1 -2 -1 0 0 Z " fill="#81B46E" transform="translate(111,75)"/>
<path d="M0 0 C0.33 1.32 0.66 2.64 1 4 C2.32 4.33 3.64 4.66 5 5 C2.02126934 8.07802168 0.08093377 9.63968874 -4 11 C-3.67 9.35 -3.34 7.7 -3 6 C-2.01 6 -1.02 6 0 6 C-0.2784375 4.7934375 -0.2784375 4.7934375 -0.5625 3.5625 C-0.706875 2.716875 -0.85125 1.87125 -1 1 C-0.67 0.67 -0.34 0.34 0 0 Z " fill="#E5E3E7" transform="translate(98,75)"/>
<path d="M0 0 C-0.66 0 -1.32 0 -2 0 C-2 1.65 -2 3.3 -2 5 C-4.64 4.67 -7.28 4.34 -10 4 C-10 2.68 -10 1.36 -10 0 C-3.375 -1.125 -3.375 -1.125 0 0 Z " fill="#B65350" transform="translate(51,111)"/>
<path d="M0 0 C-0.33 0.66 -0.66 1.32 -1 2 C-3.36328125 2.37890625 -3.36328125 2.37890625 -6.3125 2.5625 C-9.66758783 2.78199173 -12.76344731 3.06977939 -16 4 C-15.67 2.68 -15.34 1.36 -15 0 C-12.87562788 -0.19448477 -10.75046809 -0.38038289 -8.625 -0.5625 C-7.44164062 -0.66691406 -6.25828125 -0.77132812 -5.0390625 -0.87890625 C-2 -1 -2 -1 0 0 Z " fill="#3A3E68" transform="translate(64,102)"/>
<path d="M0 0 C0.66 0.33 1.32 0.66 2 1 C2.625 3.5625 2.625 3.5625 3 6 C-0.27275026 6 -2.846632 5.70074844 -6 5 C-6 4.01 -6 3.02 -6 2 C-2.25 0.875 -2.25 0.875 0 2 C0 1.34 0 0.68 0 0 Z " fill="#E7CDD1" transform="translate(134,122)"/>
<path d="M0 0 C0.66 0.33 1.32 0.66 2 1 C1.34 2.65 0.68 4.3 0 6 C-0.66 6 -1.32 6 -2 6 C-2 6.66 -2 7.32 -2 8 C-3.98 8 -5.96 8 -8 8 C-7.34 6.02 -6.68 4.04 -6 2 C-5.67 2.66 -5.34 3.32 -5 4 C-3.35 2.68 -1.7 1.36 0 0 Z " fill="#B0D2DA" transform="translate(58,119)"/>
<path d="M0 0 C0 3.99476331 -1.28869085 5.1421336 -4 8 C-6.375 9.5 -6.375 9.5 -9 10 C-12.25 8.875 -12.25 8.875 -15 7 C-15.875 4.8125 -15.875 4.8125 -16 3 C-15.505 3.7425 -15.505 3.7425 -15 4.5 C-12.42303589 6.43272308 -10.18616094 6.59186792 -7.0078125 6.50390625 C-3.34989246 5.58586795 -2.02887551 3.04331327 0 0 Z " fill="#B3C1CA" transform="translate(100,112)"/>
<path d="M0 0 C2.3125 -0.25 2.3125 -0.25 5 0 C6.8125 2 6.8125 2 8 4 C5.09399739 5.25664978 3.20395416 6 0 6 C0 4.02 0 2.04 0 0 Z " fill="#9CCFDE" transform="translate(42,115)"/>
<path d="M0 0 C1.8871875 0.061875 1.8871875 0.061875 3.8125 0.125 C3.1525 1.445 2.4925 2.765 1.8125 4.125 C-0.8275 4.125 -3.4675 4.125 -6.1875 4.125 C-6.5175 3.465 -6.8475 2.805 -7.1875 2.125 C-4.09861478 0.06574319 -3.47814073 -0.1140374 0 0 Z " fill="#2A476C" transform="translate(93.1875,114.875)"/>
<path d="M0 0 C0.33 0 0.66 0 1 0 C0.938125 1.11375 0.87625 2.2275 0.8125 3.375 C0.874375 4.57125 0.93625 5.7675 1 7 C1.99 7.66 2.98 8.32 4 9 C3.59316505 11.35964273 3.10185661 12.85934088 1.6875 14.8125 C0 16 0 16 -2.1875 15.6875 C-2.785625 15.460625 -3.38375 15.23375 -4 15 C-3.34 14.01 -2.68 13.02 -2 12 C-0.68 12 0.64 12 2 12 C2 11.01 2 10.02 2 9 C1.01 9 0.02 9 -1 9 C-0.67 6.03 -0.34 3.06 0 0 Z " fill="#B6C3D5" transform="translate(72,103)"/>
<path d="M0 0 C6.625 -0.125 6.625 -0.125 10 1 C10 1.99 10 2.98 10 4 C6.7 4 3.4 4 0 4 C0 2.68 0 1.36 0 0 Z " fill="#4C83C6" transform="translate(96,96)"/>
<path d="M0 0 C3 1.8125 3 1.8125 6 4 C6 4.99 6 5.98 6 7 C6.66 7.33 7.32 7.66 8 8 C6.02 8 4.04 8 2 8 C1.67 7.34 1.34 6.68 1 6 C-0.31328657 4.64691687 -1.64499081 3.31129922 -3 2 C-2.01 2 -1.02 2 0 2 C0 1.34 0 0.68 0 0 Z " fill="#799B92" transform="translate(84,86)"/>
<path d="M0 0 C0.99 0.33 1.98 0.66 3 1 C5.00875442 0.72428861 7.01178687 0.39764263 9 0 C9.33 0.99 9.66 1.98 10 3 C8.35 3.33 6.7 3.66 5 4 C5 4.66 5 5.32 5 6 C2.525 5.01 2.525 5.01 0 4 C0 2.68 0 1.36 0 0 Z " fill="#E9F2F4" transform="translate(145,71)"/>
<path d="M0 0 C0.70125 0.2475 1.4025 0.495 2.125 0.75 C-5.275 6.75 -5.275 6.75 -8.875 6.75 C-8.875 5.76 -8.875 4.77 -8.875 3.75 C-3.98222101 -0.34628009 -3.98222101 -0.34628009 0 0 Z " fill="#F2F5F5" transform="translate(40.875,123.25)"/>
<path d="M0 0 C0.33 0.99 0.66 1.98 1 3 C1.99 3 2.98 3 4 3 C4 3.99 4 4.98 4 6 C2.68 6 1.36 6 0 6 C-0.33 6.99 -0.66 7.98 -1 9 C-1.99 9 -2.98 9 -4 9 C-4 8.34 -4 7.68 -4 7 C-3.34 7 -2.68 7 -2 7 C-2 5.02 -2 3.04 -2 1 C-1.34 0.67 -0.68 0.34 0 0 Z " fill="#405787" transform="translate(70,109)"/>
<path d="M0 0 C1.32 0 2.64 0 4 0 C5 1.66666667 6 3.33333333 7 5 C8.32 5 9.64 5 11 5 C11 5.99 11 6.98 11 8 C11.99 8.33 12.98 8.66 14 9 C12.68 9 11.36 9 10 9 C10 8.34 10 7.68 10 7 C8.02 7 6.04 7 4 7 C2.02 3.535 2.02 3.535 0 0 Z " fill="#DF9AB8" transform="translate(48,67)"/>
<path d="M0 0 C0.66 0.66 1.32 1.32 2 2 C0 5 -2 8 -4 11 C-4.99 10.34 -5.98 9.68 -7 9 C-4.375 3.25 -4.375 3.25 -1 1 C-0.67 0.67 -0.34 0.34 0 0 Z " fill="#D6BECF" transform="translate(97,83)"/>
<path d="M0 0 C0.7425 0.2475 1.485 0.495 2.25 0.75 C2.25 2.41666667 2.25 4.08333333 2.25 5.75 C-0.72 5.75 -3.69 5.75 -6.75 5.75 C-6.75 3.75 -6.75 3.75 -5.0625 1.5625 C-2.75 -0.25 -2.75 -0.25 0 0 Z " fill="#7B9AB5" transform="translate(105.75,79.25)"/>
<path d="M0 0 C0 0.66 0 1.32 0 2 C-1.72807318 2.33895656 -3.45751974 2.67091525 -5.1875 3 C-6.63189453 3.2784375 -6.63189453 3.2784375 -8.10546875 3.5625 C-10.7934206 3.96877612 -13.28771019 4.07933572 -16 4 C-16 3.01 -16 2.02 -16 1 C-13.70839646 0.83246763 -11.41671509 0.66599948 -9.125 0.5 C-7.84882812 0.4071875 -6.57265625 0.314375 -5.2578125 0.21875 C-3.50763316 0.10123196 -1.75412035 0 0 0 Z " fill="#193F73" transform="translate(134,86)"/>
<path d="M0 0 C0.763125 0.309375 1.52625 0.61875 2.3125 0.9375 C4.18789677 1.67893593 6.08684652 2.36228217 8 3 C9.6875 5.5625 9.6875 5.5625 11 8 C8.8125 8.3125 8.8125 8.3125 6 8 C2.95424358 5.43879574 1.26493447 3.79480342 0 0 Z " fill="#E9DBC8" transform="translate(27,67)"/>
<path d="M0 0 C0.99 0.66 1.98 1.32 3 2 C2.67 3.32 2.34 4.64 2 6 C-0.31 6 -2.62 6 -5 6 C-5 6.99 -5 7.98 -5 9 C-5.99 8.67 -6.98 8.34 -8 8 C-8 7.01 -8 6.02 -8 5 C-5.69 5 -3.38 5 -1 5 C-0.67 3.35 -0.34 1.7 0 0 Z " fill="#603357" transform="translate(75,76)"/>
<path d="M0 0 C2.64 0.99 5.28 1.98 8 3 C8 3.66 8 4.32 8 5 C8.66 5 9.32 5 10 5 C10.33 4.34 10.66 3.68 11 3 C11 4.32 11 5.64 11 7 C3.5263755 6.50992626 3.5263755 6.50992626 1 4.0625 C0 2 0 2 0 0 Z " fill="#E7D3E5" transform="translate(52,67)"/>
<path d="M0 0 C0 0.66 0 1.32 0 2 C-2.31 1.67 -4.62 1.34 -7 1 C-7.33 2.32 -7.66 3.64 -8 5 C-8 4.01 -8 3.02 -8 2 C-10.64 1.67 -13.28 1.34 -16 1 C-16 0.67 -16 0.34 -16 0 C-14.08655626 -0.39111271 -12.16903447 -0.76231167 -10.25 -1.125 C-9.18265625 -1.33382812 -8.1153125 -1.54265625 -7.015625 -1.7578125 C-3.86311649 -2.01099324 -2.60040934 -1.70415175 0 0 Z " fill="#B7475C" transform="translate(96,95)"/>
<path d="M0 0 C0 1.65 0 3.3 0 5 C-0.99 5.33 -1.98 5.66 -3 6 C-5.1875 4.6875 -5.1875 4.6875 -7 3 C-7 2.34 -7 1.68 -7 1 C-4.50935112 0.31292445 -2.62113708 0 0 0 Z " fill="#597EC3" transform="translate(46,100)"/>
<path d="M0 0 C-0.99 0.495 -0.99 0.495 -2 1 C-2 1.66 -2 2.32 -2 3 C-2.99 3 -3.98 3 -5 3 C-5.33 3.66 -5.66 4.32 -6 5 C-6.33 4.67 -6.66 4.34 -7 4 C-7.66 4.99 -8.32 5.98 -9 7 C-9 5.02 -9 3.04 -9 1 C-6.04335481 -0.4783226 -3.25770263 -0.06032783 0 0 Z " fill="#396D89" transform="translate(79,96)"/>
<path d="M0 0 C2.9375 0.375 2.9375 0.375 6 1 C6.33 1.66 6.66 2.32 7 3 C5.329375 3.433125 5.329375 3.433125 3.625 3.875 C-0.00291092 4.69241329 -0.00291092 4.69241329 -2 7 C-1.125 2.25 -1.125 2.25 0 0 Z " fill="#5D80C3" transform="translate(39,95)"/>
<path d="M0 0 C0.33 0 0.66 0 1 0 C1 1.98 1 3.96 1 6 C0.13375 6.309375 0.13375 6.309375 -0.75 6.625 C-3.81410544 8.49750888 -5.15539968 10.96958519 -7 14 C-7.33 13.01 -7.66 12.02 -8 11 C-6.85546875 8.95703125 -6.85546875 8.95703125 -5.1875 6.8125 C-4.64480469 6.09707031 -4.10210937 5.38164063 -3.54296875 4.64453125 C-3.03378906 4.10183594 -2.52460937 3.55914062 -2 3 C-1.34 3 -0.68 3 0 3 C0 2.01 0 1.02 0 0 Z " fill="#C7BFCF" transform="translate(109,98)"/>
<path d="M0 0 C0.99 0.33 1.98 0.66 3 1 C2.34 1 1.68 1 1 1 C1 1.66 1 2.32 1 3 C1.99 3.33 2.98 3.66 4 4 C-2.27 4 -8.54 4 -15 4 C-15 3.67 -15 3.34 -15 3 C-13.62714844 2.92652344 -13.62714844 2.92652344 -12.2265625 2.8515625 C-11.03804688 2.77679688 -9.84953125 2.70203125 -8.625 2.625 C-7.44164063 2.55539063 -6.25828125 2.48578125 -5.0390625 2.4140625 C-1.89437681 2.29782654 -1.89437681 2.29782654 0 0 Z " fill="#455A41" transform="translate(85,91)"/>
<path d="M0 0 C6.875 2.75 6.875 2.75 8 5 C5.69 5 3.38 5 1 5 C0.34 3.68 -0.32 2.36 -1 1 C-0.67 0.67 -0.34 0.34 0 0 Z " fill="#EFE3E9" transform="translate(44,62)"/>
<path d="M0 0 C1.32 0.33 2.64 0.66 4 1 C4 1.99 4 2.98 4 4 C0.62182575 4.84454356 -1.67465243 5.10844919 -5 4 C-5 3.34 -5 2.68 -5 2 C-4.01 1.67 -3.02 1.34 -2 1 C-1.34 1.33 -0.68 1.66 0 2 C0 1.34 0 0.68 0 0 Z " fill="#F5F5F0" transform="translate(144,106)"/>
<path d="M0 0 C0.66 1.32 1.32 2.64 2 4 C-0.52053595 5.26026798 -1.8542098 4.91874445 -4.625 4.5625 C-5.85089844 4.40974609 -5.85089844 4.40974609 -7.1015625 4.25390625 C-8.04128906 4.12822266 -8.04128906 4.12822266 -9 4 C-9 3.01 -9 2.02 -9 1 C-6.03 1.33 -3.06 1.66 0 2 C0 1.34 0 0.68 0 0 Z " fill="#636E4A" transform="translate(123,102)"/>
<path d="M0 0 C-1.29299694 2.88437779 -2.65941363 4.87219421 -5 7 C-5 5.35 -5 3.7 -5 2 C-5.99 1.67 -6.98 1.34 -8 1 C-5.29120665 -0.35439668 -2.99066732 -0.06501451 0 0 Z " fill="#3F4540" transform="translate(106,102)"/>
<path d="M0 0 C1.23076923 6.4 1.23076923 6.4 0.0625 9.4375 C-0.288125 9.953125 -0.63875 10.46875 -1 11 C-1.33 8.36 -1.66 5.72 -2 3 C-3.65 2.67 -5.3 2.34 -7 2 C-7 1.67 -7 1.34 -7 1 C-2.25 0 -2.25 0 0 0 Z " fill="#2D1942" transform="translate(113,94)"/>
<path d="M0 0 C0.86625 0.556875 0.86625 0.556875 1.75 1.125 C-0.23 1.785 -2.21 2.445 -4.25 3.125 C-4.25 4.115 -4.25 5.105 -4.25 6.125 C-4.91 6.125 -5.57 6.125 -6.25 6.125 C-6.25 4.475 -6.25 2.825 -6.25 1.125 C-2.80384615 -1.09038462 -2.80384615 -1.09038462 0 0 Z " fill="#E6DFE4" transform="translate(139.25,91.875)"/>
<path d="M0 0 C2.0625 2.3125 2.0625 2.3125 4 5 C3.67 5.99 3.34 6.98 3 8 C2.01 8 1.02 8 0 8 C0 7.01 0 6.02 0 5 C-0.99 4.67 -1.98 4.34 -3 4 C-2.34 4 -1.68 4 -1 4 C-0.67 2.68 -0.34 1.36 0 0 Z " fill="#7D8EBE" transform="translate(78,78)"/>
<path d="M0 0 C-1.65 0.33 -3.3 0.66 -5 1 C-5.33 1.99 -5.66 2.98 -6 4 C-8.31 3.01 -10.62 2.02 -13 1 C-13 0.67 -13 0.34 -13 0 C-11.39679026 -0.19551338 -9.79237014 -0.38111983 -8.1875 -0.5625 C-7.29417969 -0.66691406 -6.40085937 -0.77132812 -5.48046875 -0.87890625 C-3 -1 -3 -1 0 0 Z " fill="#A53380" transform="translate(130,119)"/>
<path d="M0 0 C2.00720923 0.28674418 4.0085944 0.61866701 6 1 C5.67 2.32 5.34 3.64 5 5 C3.35 4.67 1.7 4.34 0 4 C-0.33 3.01 -0.66 2.02 -1 1 C-0.67 0.67 -0.34 0.34 0 0 Z " fill="#CAE6EC" transform="translate(56,123)"/>
<path d="M0 0 C3.63 0.33 7.26 0.66 11 1 C10.67 1.99 10.34 2.98 10 4 C8.72125 3.896875 7.4425 3.79375 6.125 3.6875 C5.04605469 3.60048828 5.04605469 3.60048828 3.9453125 3.51171875 C2 3 2 3 0 0 Z " fill="#9E9762" transform="translate(77,100)"/>
<path d="M0 0 C0 1.32 0 2.64 0 4 C-2.31 3.67 -4.62 3.34 -7 3 C-7 2.34 -7 1.68 -7 1 C-4.53721199 -0.231394 -2.7204945 -0.07159196 0 0 Z " fill="#BA7EA5" transform="translate(142,94)"/>
<path d="M0 0 C0.66 0 1.32 0 2 0 C1.67 1.32 1.34 2.64 1 4 C-3.01804691 4.84098656 -6.01803543 5.05404945 -10 4 C-10 3.67 -10 3.34 -10 3 C-9.36191406 2.95101562 -8.72382812 2.90203125 -8.06640625 2.8515625 C-7.24011719 2.77679688 -6.41382812 2.70203125 -5.5625 2.625 C-4.73878906 2.55539063 -3.91507812 2.48578125 -3.06640625 2.4140625 C-2.38449219 2.27742188 -1.70257813 2.14078125 -1 2 C-0.67 1.34 -0.34 0.68 0 0 Z " fill="#A598A8" transform="translate(112,90)"/>
<path d="M0 0 C-0.66 0.66 -1.32 1.32 -2 2 C-4.6015625 1.9765625 -4.6015625 1.9765625 -7.625 1.625 C-8.62789063 1.51414062 -9.63078125 1.40328125 -10.6640625 1.2890625 C-11.82035156 1.14597656 -11.82035156 1.14597656 -13 1 C-13 0.67 -13 0.34 -13 0 C-11.39679026 -0.19551338 -9.79237014 -0.38111983 -8.1875 -0.5625 C-7.29417969 -0.66691406 -6.40085937 -0.77132812 -5.48046875 -0.87890625 C-3 -1 -3 -1 0 0 Z " fill="#595B37" transform="translate(101,112)"/>
<path d="M0 0 C1.32 0 2.64 0 4 0 C4 1.65 4 3.3 4 5 C3.01 5.495 3.01 5.495 2 6 C1.34 5.67 0.68 5.34 0 5 C0 3.35 0 1.7 0 0 Z " fill="#538E3C" transform="translate(68,103)"/>
<path d="M0 0 C2.31 0 4.62 0 7 0 C7 0.99 7 1.98 7 3 C4.69 3 2.38 3 0 3 C0 2.01 0 1.02 0 0 Z " fill="#6CC0DD" transform="translate(64,71)"/>
<path d="M0 0 C0.99 0 1.98 0 3 0 C3.33 1.32 3.66 2.64 4 4 C2.35 4.33 0.7 4.66 -1 5 C-0.67 3.35 -0.34 1.7 0 0 Z " fill="#D8C0CB" transform="translate(145,109)"/>
<path d="M0 0 C0.33 0.66 0.66 1.32 1 2 C0.67 2.66 0.34 3.32 0 4 C-2.64 4 -5.28 4 -8 4 C-8 3.34 -8 2.68 -8 2 C-5.36 1.34 -2.72 0.68 0 0 Z " fill="#AC8C3A" transform="translate(132,98)"/>
<path d="M0 0 C0 0.99 0 1.98 0 3 C-1.32 3 -2.64 3 -4 3 C-4 2.34 -4 1.68 -4 1 C-2 0 -2 0 0 0 Z M-8 1 C-7.01 1 -6.02 1 -5 1 C-4.67 1.99 -4.34 2.98 -4 4 C-4.99 4.495 -4.99 4.495 -6 5 C-6 4.34 -6 3.68 -6 3 C-6.66 3 -7.32 3 -8 3 C-8 2.34 -8 1.68 -8 1 Z " fill="#708BB8" transform="translate(140,83)"/>
<path d="M0 0 C-0.33 1.32 -0.66 2.64 -1 4 C-1.99 4 -2.98 4 -4 4 C-5.6875 2 -5.6875 2 -7 0 C-4.3333581 -1.33332095 -2.83319697 -0.67102033 0 0 Z " fill="#9683B0" transform="translate(137,74)"/>
<path d="M0 0 C3.34373475 0.55728913 6.03312999 1.35173889 9 3 C9 3.33 9 3.66 9 4 C6.69 4 4.38 4 2 4 C2 3.01 2 2.02 2 1 C1.34 0.67 0.68 0.34 0 0 Z " fill="#D7C0DC" transform="translate(114,119)"/>
<path d="M0 0 C0.33 0 0.66 0 1 0 C1 2.31 1 4.62 1 7 C-0.65 7.33 -2.3 7.66 -4 8 C-3.01 7.67 -2.02 7.34 -1 7 C-1 6.34 -1 5.68 -1 5 C-1.66 4.67 -2.32 4.34 -3 4 C-2.34 4 -1.68 4 -1 4 C-0.67 2.68 -0.34 1.36 0 0 Z " fill="#45213E" transform="translate(132,110)"/>
<path d="M0 0 C2.0625 0.4375 2.0625 0.4375 4 1 C3.34 1 2.68 1 2 1 C2 2.98 2 4.96 2 7 C1.34 7 0.68 7 0 7 C-0.38133299 5.0085944 -0.71325582 3.00720923 -1 1 C-0.67 0.67 -0.34 0.34 0 0 Z " fill="#194350" transform="translate(66,109)"/>
<path d="M0 0 C-0.33 0.99 -0.66 1.98 -1 3 C-4.3 3.33 -7.6 3.66 -11 4 C-11 3.34 -11 2.68 -11 2 C-9.5422647 1.664061 -8.08378894 1.33133376 -6.625 1 C-5.40683594 0.7215625 -5.40683594 0.7215625 -4.1640625 0.4375 C-2 0 -2 0 0 0 Z " fill="#8CC6DE" transform="translate(47,108)"/>
<path d="M0 0 C-0.33 1.32 -0.66 2.64 -1 4 C-2.65 3.67 -4.3 3.34 -6 3 C-6 2.34 -6 1.68 -6 1 C-4 0 -4 0 0 0 Z " fill="#42262C" transform="translate(124,100)"/>
<path d="M0 0 C1.5 1.375 1.5 1.375 3 3 C3 3.66 3 4.32 3 5 C-0.47325181 6.1577506 -3.36067448 6.06866652 -7 6 C-7 5.67 -7 5.34 -7 5 C-5.02 4.67 -3.04 4.34 -1 4 C-0.67 2.68 -0.34 1.36 0 0 Z " fill="#256155" transform="translate(81,83)"/>
<path d="M0 0 C0.99 0.33 1.98 0.66 3 1 C3 3.31 3 5.62 3 8 C2.67 7.34 2.34 6.68 2 6 C1.01 5.67 0.02 5.34 -1 5 C-0.67 3.35 -0.34 1.7 0 0 Z " fill="#2A558E" transform="translate(133,78)"/>
<path d="M0 0 C0.33 0.99 0.66 1.98 1 3 C-0.75 4.5625 -0.75 4.5625 -3 6 C-4.32 5.67 -5.64 5.34 -7 5 C-4.69 3.35 -2.38 1.7 0 0 Z " fill="#ECE5F2" transform="translate(146,63)"/>
<path d="M0 0 C1.65 0 3.3 0 5 0 C4.67 0.99 4.34 1.98 4 3 C2.35 3.33 0.7 3.66 -1 4 C-0.67 2.68 -0.34 1.36 0 0 Z " fill="#CAE2E2" transform="translate(29,117)"/>
<path d="M0 0 C0.66 0 1.32 0 2 0 C1.67 1.98 1.34 3.96 1 6 C1.66 6 2.32 6 3 6 C3.33 6.99 3.66 7.98 4 9 C2.68 8.67 1.36 8.34 0 8 C-1.125 2.25 -1.125 2.25 0 0 Z " fill="#D7C5DB" transform="translate(109,110)"/>
<path d="M0 0 C0.66 0.33 1.32 0.66 2 1 C1.34 2.65 0.68 4.3 0 6 C-1.65 5.67 -3.3 5.34 -5 5 C-3.35 3.35 -1.7 1.7 0 0 Z " fill="#74BFDA" transform="translate(58,119)"/>
<path d="M0 0 C1.98 0 3.96 0 6 0 C5.67 0.99 5.34 1.98 5 3 C3.35 3 1.7 3 0 3 C0 2.01 0 1.02 0 0 Z " fill="#1C72A4" transform="translate(89,115)"/>
<path d="M0 0 C1.32 0 2.64 0 4 0 C3.67 1.65 3.34 3.3 3 5 C2.01 4.67 1.02 4.34 0 4 C0 2.68 0 1.36 0 0 Z " fill="#59AD48" transform="translate(68,89)"/>
<path d="M0 0 C1.32 0.33 2.64 0.66 4 1 C4 1.99 4 2.98 4 4 C2.02 4 0.04 4 -2 4 C-2 3.34 -2 2.68 -2 2 C-1.34 2 -0.68 2 0 2 C0 1.34 0 0.68 0 0 Z " fill="#6FC2E0" transform="translate(74,82)"/>
<path d="M0 0 C0.33 1.32 0.66 2.64 1 4 C2.32 4.33 3.64 4.66 5 5 C4.67 5.66 4.34 6.32 4 7 C2.68 6.67 1.36 6.34 0 6 C-0.38218767 4.34385343 -0.71395102 2.67542976 -1 1 C-0.67 0.67 -0.34 0.34 0 0 Z " fill="#E7F5EB" transform="translate(98,75)"/>
<path d="M0 0 C2.64 0 5.28 0 8 0 C8 0.99 8 1.98 8 3 C5.6568787 2.74438677 3.32156597 2.40729228 1 2 C0.67 1.34 0.34 0.68 0 0 Z " fill="#E2C842" transform="translate(66,78)"/>
<path d="M0 0 C2.31 0.33 4.62 0.66 7 1 C7 1.66 7 2.32 7 3 C5.35 3.33 3.7 3.66 2 4 C2 3.01 2 2.02 2 1 C1.34 0.67 0.68 0.34 0 0 Z " fill="#ECBF96" transform="translate(45,71)"/>
<path d="M0 0 C2.97 0.495 2.97 0.495 6 1 C5.67 2.32 5.34 3.64 5 5 C4.01 5 3.02 5 2 5 C2 4.01 2 3.02 2 2 C1.34 2 0.68 2 0 2 C0 1.34 0 0.68 0 0 Z " fill="#B390D2" transform="translate(133,71)"/>
</svg>
