<?xml version="1.0" encoding="UTF-8"?>
<svg version="1.1" xmlns="http://www.w3.org/2000/svg" width="180" height="180">
<path d="M0 0 C1.98 0.66 3.96 1.32 6 2 C6 2.66 6 3.32 6 4 C8.97 4.99 11.94 5.98 15 7 C15 7.66 15 8.32 15 9 C15.66 9 16.32 9 17 9 C17 8.34 17 7.68 17 7 C23.625 5.75 23.625 5.75 27 8 C27 8.99 27 9.98 27 11 C29.97 11.33 32.94 11.66 36 12 C36 13.65 36 15.3 36 17 C36.99 17.33 37.98 17.66 39 18 C39 19.65 39 21.3 39 23 C39.66 23 40.32 23 41 23 C41.66 24.65 42.32 26.3 43 28 C43.66 28 44.32 28 45 28 C45.185625 26.9171875 45.185625 26.9171875 45.375 25.8125 C46.24788173 21.88453221 47.1263324 18.8736676 50 16 C50.6425235 13.93125966 50.6425235 13.93125966 51 12 C53.60356241 11.49666458 56.20776651 10.99720622 58.8125 10.5 C59.55048828 10.35691406 60.28847656 10.21382812 61.04882812 10.06640625 C64.07794391 9.49073719 66.909196 9 70 9 C70.33 7.35 70.66 5.7 71 4 C72.32 4 73.64 4 75 4 C75 4.66 75 5.32 75 6 C76.46015291 5.71758359 77.91809793 5.42373386 79.375 5.125 C80.18710938 4.96257813 80.99921875 4.80015625 81.8359375 4.6328125 C84.18673923 4.13341068 84.18673923 4.13341068 86 2 C86.495 4.475 86.495 4.475 87 7 C87.56847656 6.566875 88.13695312 6.13375 88.72265625 5.6875 C93.74585847 2.0647565 96.7792351 0.2058598 103 1 C103 1.99 103 2.98 103 4 C102.34 4 101.68 4 101 4 C101 4.66 101 5.32 101 6 C100.34 6 99.68 6 99 6 C98.67 6.99 98.34 7.98 98 9 C100.475 8.505 100.475 8.505 103 8 C103 9.32 103 10.64 103 12 C100.69 13.32 98.38 14.64 96 16 C96.99 20.95 96.99 20.95 98 26 C96.02 26.99 94.04 27.98 92 29 C92.99 34.94 92.99 34.94 94 41 C95.98 41.495 95.98 41.495 98 42 C98 44.31 98 46.62 98 49 C97.01 49.495 97.01 49.495 96 50 C98.64 51.32 101.28 52.64 104 54 C104 54.99 104 55.98 104 57 C102.52168779 57.19412181 101.04230684 57.38012131 99.5625 57.5625 C98.73878906 57.66691406 97.91507812 57.77132812 97.06640625 57.87890625 C96.04353516 57.93884766 96.04353516 57.93884766 95 58 C94.67 57.67 94.34 57.34 94 57 C91.66702567 56.95907063 89.33294775 56.95758277 87 57 C87 58.98 87 60.96 87 63 C81.33218526 63.34700907 77.95437183 62.52575819 73 60 C72.34 59.34 71.68 58.68 71 58 C68.55987051 57.75712511 68.55987051 57.75712511 65.875 57.875 C64.96492188 57.89304688 64.05484375 57.91109375 63.1171875 57.9296875 C62.41851562 57.95289063 61.71984375 57.97609375 61 58 C59.875 54.25 59.875 54.25 61 52 C60.91219597 49.95501575 60.75758462 47.91255052 60.5625 45.875 C60.40974609 44.23144531 60.40974609 44.23144531 60.25390625 42.5546875 C60.17011719 41.71164063 60.08632812 40.86859375 60 40 C59.32453125 40.98742187 58.6490625 41.97484375 57.953125 42.9921875 C57.05254108 44.28677689 56.15147402 45.58103027 55.25 46.875 C54.58484375 47.85146484 54.58484375 47.85146484 53.90625 48.84765625 C49.47862192 55.16353748 49.47862192 55.16353748 46 56 C42.13932218 55.90297238 40.45908294 55.39628385 37.515625 52.85546875 C36.76796875 51.97503906 36.0203125 51.09460938 35.25 50.1875 C34.49203125 49.31480469 33.7340625 48.44210938 32.953125 47.54296875 C31.3037504 45.39548302 30.08122901 43.46727258 29 41 C28.34 42.65 27.68 44.3 27 46 C28.32 46.66 29.64 47.32 31 48 C30.67 48.99 30.34 49.98 30 51 C29.34 51 28.68 51 28 51 C27.67 52.65 27.34 54.3 27 56 C23.535 56.495 23.535 56.495 20 57 C20 57.66 20 58.32 20 59 C18.14908308 61.00515999 16.78804093 61.96573735 14.0234375 62.0859375 C13.31445312 62.05757812 12.60546875 62.02921875 11.875 62 C10.59625 62 9.3175 62 8 62 C7.34 62.99 6.68 63.98 6 65 C5.01 65 4.02 65 3 65 C2.3125 63.25 2.3125 63.25 2 61 C3.4375 58.75 3.4375 58.75 5 57 C0.4135952 58.23049885 -2.7282736 60.06662682 -6.38671875 62.9765625 C-8 64 -8 64 -11 64 C-11 63.01 -11 62.02 -11 61 C-10 60 -9 59 -8 58 C-7.28552357 55.89667109 -7.28552357 55.89667109 -7 54 C-7.86625 54.2475 -7.86625 54.2475 -8.75 54.5 C-11 55 -11 55 -15 55 C-15 54.01 -15 53.02 -15 52 C-12.69 51.01 -10.38 50.02 -8 49 C-8 47.35 -8 45.7 -8 44 C-6.515 43.505 -6.515 43.505 -5 43 C-5.680625 42.690625 -6.36125 42.38125 -7.0625 42.0625 C-9 40 -9 40 -9.1484375 37.97265625 C-8.72953486 33.31042504 -7.84347562 29.83251062 -5 26 C-5.66 25.34 -6.32 24.68 -7 24 C-8.36170213 16.96453901 -8.36170213 16.96453901 -7.0625 13.5 C-6.711875 13.005 -6.36125 12.51 -6 12 C-7.65 12 -9.3 12 -11 12 C-11.33 11.01 -11.66 10.02 -12 9 C-14.00016466 7.79117904 -14.00016466 7.79117904 -16 7 C-16 6.01 -16 5.02 -16 4 C-11.46041738 3.43255217 -8.75809155 4.99177586 -4.96484375 7.22265625 C-2.54296117 8.18081656 -1.40362583 7.90459037 1 7 C1.33 6.67 1.66 6.34 2 6 C1.01 5.01 0.02 4.02 -1 3 C-0.67 2.01 -0.34 1.02 0 0 Z " fill="#3E3A42" transform="translate(41,58)"/>
<path d="M0 0 C1.98 0.66 3.96 1.32 6 2 C6 2.66 6 3.32 6 4 C8.97 4.99 11.94 5.98 15 7 C15 7.66 15 8.32 15 9 C15.66 9 16.32 9 17 9 C17 8.34 17 7.68 17 7 C23.625 5.75 23.625 5.75 27 8 C27 8.99 27 9.98 27 11 C29.97 11.33 32.94 11.66 36 12 C36 13.65 36 15.3 36 17 C36.99 17.33 37.98 17.66 39 18 C39 19.65 39 21.3 39 23 C39.66 23 40.32 23 41 23 C41.66 24.65 42.32 26.3 43 28 C41.35 27.67 39.7 27.34 38 27 C37.67 28.32 37.34 29.64 37 31 C35.04174127 31.02694851 33.08337774 31.04637218 31.125 31.0625 C29.48917969 31.07990234 29.48917969 31.07990234 27.8203125 31.09765625 C25 31 25 31 23 30 C22.505 31.485 22.505 31.485 22 33 C21.67 32.67 21.34 32.34 21 32 C20.01 34.31 19.02 36.62 18 39 C18.99 39.33 19.98 39.66 21 40 C21.08226668 43.04386724 20.97608217 45.07175348 20 48 C19.01 48.495 19.01 48.495 18 49 C18.66 50.32 19.32 51.64 20 53 C20.7425 52.505 21.485 52.01 22.25 51.5 C25 50 25 50 29 50 C29.33 49.01 29.66 48.02 30 47 C30.33 47.66 30.66 48.32 31 49 C30.505 49.99 30.505 49.99 30 51 C29.34 51 28.68 51 28 51 C27.67 52.65 27.34 54.3 27 56 C23.535 56.495 23.535 56.495 20 57 C20 57.66 20 58.32 20 59 C18.14908308 61.00515999 16.78804093 61.96573735 14.0234375 62.0859375 C13.31445312 62.05757812 12.60546875 62.02921875 11.875 62 C10.59625 62 9.3175 62 8 62 C7.34 62.99 6.68 63.98 6 65 C5.01 65 4.02 65 3 65 C2.3125 63.25 2.3125 63.25 2 61 C3.4375 58.75 3.4375 58.75 5 57 C0.4135952 58.23049885 -2.7282736 60.06662682 -6.38671875 62.9765625 C-8 64 -8 64 -11 64 C-11 63.01 -11 62.02 -11 61 C-10 60 -9 59 -8 58 C-7.28552357 55.89667109 -7.28552357 55.89667109 -7 54 C-7.86625 54.2475 -7.86625 54.2475 -8.75 54.5 C-11 55 -11 55 -15 55 C-15 54.01 -15 53.02 -15 52 C-12.69 51.01 -10.38 50.02 -8 49 C-8 47.35 -8 45.7 -8 44 C-6.515 43.505 -6.515 43.505 -5 43 C-5.680625 42.690625 -6.36125 42.38125 -7.0625 42.0625 C-9 40 -9 40 -9.1484375 37.97265625 C-8.72953486 33.31042504 -7.84347562 29.83251062 -5 26 C-5.66 25.34 -6.32 24.68 -7 24 C-8.36170213 16.96453901 -8.36170213 16.96453901 -7.0625 13.5 C-6.711875 13.005 -6.36125 12.51 -6 12 C-7.65 12 -9.3 12 -11 12 C-11.33 11.01 -11.66 10.02 -12 9 C-14.00016466 7.79117904 -14.00016466 7.79117904 -16 7 C-16 6.01 -16 5.02 -16 4 C-11.46041738 3.43255217 -8.75809155 4.99177586 -4.96484375 7.22265625 C-2.54296117 8.18081656 -1.40362583 7.90459037 1 7 C1.33 6.67 1.66 6.34 2 6 C1.01 5.01 0.02 4.02 -1 3 C-0.67 2.01 -0.34 1.02 0 0 Z " fill="#544484" transform="translate(41,58)"/>
<path d="M0 0 C0 0.99 0 1.98 0 3 C-0.66 3 -1.32 3 -2 3 C-2 3.66 -2 4.32 -2 5 C-2.66 5 -3.32 5 -4 5 C-4.33 5.99 -4.66 6.98 -5 8 C-3.35 7.67 -1.7 7.34 0 7 C0 8.32 0 9.64 0 11 C-1.79036458 11.94401042 -3.58072917 12.88802083 -5.37109375 13.83203125 C-7.32267987 14.99019799 -7.32267987 14.99019799 -8 18 C-8.33 17.67 -8.66 17.34 -9 17 C-10.34747084 16.76924918 -11.70377565 16.58846937 -13.0625 16.4375 C-14.361875 16.293125 -15.66125 16.14875 -17 16 C-17 15.34 -17 14.68 -17 14 C-17.66 14 -18.32 14 -19 14 C-19.12375 14.78375 -19.2475 15.5675 -19.375 16.375 C-20 19 -20 19 -22 21 C-24.8984375 21.37890625 -24.8984375 21.37890625 -28.375 21.5625 C-33.75649489 21.85647335 -33.75649489 21.85647335 -39 23 C-38.34 24.65 -37.68 26.3 -37 28 C-42.21594031 31.47729354 -47.87777761 31.40895002 -54 31 C-54.66 30.67 -55.32 30.34 -56 30 C-56 29.34 -56 28.68 -56 28 C-56.99 27.67 -57.98 27.34 -59 27 C-58.38144369 25.3725363 -57.75492695 23.74809644 -57.125 22.125 C-56.77695313 21.22007813 -56.42890625 20.31515625 -56.0703125 19.3828125 C-55 17 -55 17 -53 15 C-52.3574765 12.93125966 -52.3574765 12.93125966 -52 11 C-49.39643759 10.49666458 -46.79223349 9.99720622 -44.1875 9.5 C-43.44951172 9.35691406 -42.71152344 9.21382812 -41.95117188 9.06640625 C-38.92205609 8.49073719 -36.090804 8 -33 8 C-32.67 6.35 -32.34 4.7 -32 3 C-30.68 3 -29.36 3 -28 3 C-28 3.66 -28 4.32 -28 5 C-26.53984709 4.71758359 -25.08190207 4.42373386 -23.625 4.125 C-22.81289062 3.96257813 -22.00078125 3.80015625 -21.1640625 3.6328125 C-18.81326077 3.13341068 -18.81326077 3.13341068 -17 1 C-16.505 3.475 -16.505 3.475 -16 6 C-15.43152344 5.566875 -14.86304688 5.13375 -14.27734375 4.6875 C-9.25414153 1.0647565 -6.2207649 -0.7941402 0 0 Z " fill="#59B7D5" transform="translate(144,59)"/>
<path d="M0 0 C-0.66 0.99 -1.32 1.98 -2 3 C-1.80763608 5.24291393 -1.80763608 5.24291393 -1.125 7.5625 C0 11.89873418 0 11.89873418 0 14 C1.32 14.33 2.64 14.66 4 15 C4 17.31 4 19.62 4 22 C3.01 22.495 3.01 22.495 2 23 C4.64 24.32 7.28 25.64 10 27 C10 27.99 10 28.98 10 30 C8.52168779 30.19412181 7.04230684 30.38012131 5.5625 30.5625 C4.73878906 30.66691406 3.91507813 30.77132812 3.06640625 30.87890625 C2.38449219 30.91886719 1.70257813 30.95882812 1 31 C0.67 30.67 0.34 30.34 0 30 C-2.33297433 29.95907063 -4.66705225 29.95758277 -7 30 C-7 31.98 -7 33.96 -7 36 C-12.66781474 36.34700907 -16.04562817 35.52575819 -21 33 C-21.66 32.34 -22.32 31.68 -23 31 C-25.44012949 30.75712511 -25.44012949 30.75712511 -28.125 30.875 C-29.03507812 30.89304687 -29.94515625 30.91109375 -30.8828125 30.9296875 C-31.93082031 30.96449219 -31.93082031 30.96449219 -33 31 C-34.125 27.25 -34.125 27.25 -33 25 C-32.95977609 22.6670134 -32.95679753 20.33293334 -33 18 C-32.01 18.33 -31.02 18.66 -30 19 C-29.67 20.98 -29.34 22.96 -29 25 C-22.35872858 27.71688376 -16.88640495 26.47000434 -10 25 C-10 21.7 -10 18.4 -10 15 C-12.64 14.67 -15.28 14.34 -18 14 C-18.33 12.35 -18.66 10.7 -19 9 C-16.36 8.34 -13.72 7.68 -11 7 C-10.896875 6.21625 -10.79375 5.4325 -10.6875 4.625 C-9.21656199 -0.99130878 -4.9046656 -0.18508172 0 0 Z " fill="#E8CED4" transform="translate(135,85)"/>
<path d="M0 0 C4.62 0 9.24 0 14 0 C14 5 14 5 13 8 C12.34 8.33 11.68 8.66 11 9 C11.66 10.32 12.32 11.64 13 13 C13.7425 12.505 14.485 12.01 15.25 11.5 C18 10 18 10 22 10 C22.33 9.01 22.66 8.02 23 7 C23.495 7.99 23.495 7.99 24 9 C23.67 9.66 23.34 10.32 23 11 C22.34 11 21.68 11 21 11 C20.67 12.65 20.34 14.3 20 16 C17.69 16.33 15.38 16.66 13 17 C13 17.66 13 18.32 13 19 C11.14908308 21.00515999 9.78804093 21.96573735 7.0234375 22.0859375 C6.31445312 22.05757812 5.60546875 22.02921875 4.875 22 C3.59625 22 2.3175 22 1 22 C0.34 22.99 -0.32 23.98 -1 25 C-1.99 25 -2.98 25 -4 25 C-4.6875 23.25 -4.6875 23.25 -5 21 C-3.5625 18.75 -3.5625 18.75 -2 17 C-6.5864048 18.23049885 -9.7282736 20.06662682 -13.38671875 22.9765625 C-15 24 -15 24 -18 24 C-18 23.01 -18 22.02 -18 21 C-17 20 -16 19 -15 18 C-14.28552357 15.89667109 -14.28552357 15.89667109 -14 14 C-14.5775 14.165 -15.155 14.33 -15.75 14.5 C-18 15 -18 15 -22 15 C-22 14.01 -22 13.02 -22 12 C-19.69 11.01 -17.38 10.02 -15 9 C-15 7.35 -15 5.7 -15 4 C-14.01 3.67 -13.02 3.34 -12 3 C-12.33 2.34 -12.66 1.68 -13 1 C-10.33333333 1 -7.66666667 1 -5 1 C-3 4.875 -3 4.875 -3 6 C-4.98 6 -6.96 6 -9 6 C-9 7.32 -9 8.64 -9 10 C-7.02 10 -5.04 10 -3 10 C-1.53173403 6.57404607 -0.74613857 3.73069283 0 0 Z " fill="#CED7E5" transform="translate(48,98)"/>
<path d="M0 0 C0.66 0.33 1.32 0.66 2 1 C2 2.65 2 4.3 2 6 C2.90492187 5.93039063 2.90492187 5.93039063 3.828125 5.859375 C10.4373928 5.56089194 10.4373928 5.56089194 13.5625 8 C14.036875 8.66 14.51125 9.32 15 10 C15.99 9.01 16.98 8.02 18 7 C17.505 5.515 17.505 5.515 17 4 C15.02 4 13.04 4 11 4 C10.67 3.01 10.34 2.02 10 1 C13.96 1 17.92 1 22 1 C22 4.3 22 7.6 22 11 C21.34 10.01 20.68 9.02 20 8 C19.32453125 8.98742187 18.6490625 9.97484375 17.953125 10.9921875 C17.05254108 12.28677689 16.15147402 13.58103027 15.25 14.875 C14.8065625 15.52597656 14.363125 16.17695312 13.90625 16.84765625 C9.47862192 23.16353748 9.47862192 23.16353748 6 24 C2.16983928 23.89880685 0.4734886 23.40778922 -2.44921875 20.890625 C-3.18785156 20.01921875 -3.92648438 19.1478125 -4.6875 18.25 C-5.43386719 17.38890625 -6.18023437 16.5278125 -6.94921875 15.640625 C-9 13 -9 13 -10.58203125 10.234375 C-11.86398263 7.69447321 -11.86398263 7.69447321 -15 7 C-15 5.02 -15 3.04 -15 1 C-14.566875 1.474375 -14.13375 1.94875 -13.6875 2.4375 C-11.97690387 4.23686957 -11.97690387 4.23686957 -9 5 C-9 3.68 -9 2.36 -9 1 C-6.01405576 -0.49297212 -3.29146376 -0.11755228 0 0 Z " fill="#E2D042" transform="translate(81,90)"/>
<path d="M0 0 C1.22589844 0.01353516 1.22589844 0.01353516 2.4765625 0.02734375 C3.10304687 0.03894531 3.72953125 0.05054687 4.375 0.0625 C4.375 0.7225 4.375 1.3825 4.375 2.0625 C1.735 2.0625 -0.905 2.0625 -3.625 2.0625 C-3.295 2.7225 -2.965 3.3825 -2.625 4.0625 C-2.375 7.5625 -2.375 7.5625 -2.625 11.0625 C-3.615 11.7225 -4.605 12.3825 -5.625 13.0625 C-5.625 14.0525 -5.625 15.0425 -5.625 16.0625 C-6.264375 15.8975 -6.90375 15.7325 -7.5625 15.5625 C-12.1609695 14.81172947 -17.17504345 14.35658032 -21.69921875 15.66015625 C-23.625 16.0625 -23.625 16.0625 -26.875 14.625 C-29.625 12.0625 -29.625 12.0625 -30.0078125 10.01171875 C-30 7.8125 -30 7.8125 -29.625 4.0625 C-28.635 3.7325 -27.645 3.4025 -26.625 3.0625 C-26.295 2.4025 -25.965 1.7425 -25.625 1.0625 C-24.77736084 1.07035522 -24.77736084 1.07035522 -23.91259766 1.07836914 C-21.3584097 1.09912422 -18.80423947 1.1121554 -16.25 1.125 C-15.36054687 1.13337891 -14.47109375 1.14175781 -13.5546875 1.15039062 C-12.70390625 1.15361328 -11.853125 1.15683594 -10.9765625 1.16015625 C-9.79827881 1.16801147 -9.79827881 1.16801147 -8.59619141 1.17602539 C-5.53977683 0.99999953 -3.23139694 -0.04616281 0 0 Z " fill="#D64841" transform="translate(64.625,68.9375)"/>
<path d="M0 0 C1.98 0.66 3.96 1.32 6 2 C6 2.66 6 3.32 6 4 C8.97 4.99 11.94 5.98 15 7 C15 7.66 15 8.32 15 9 C15.66 9 16.32 9 17 9 C17 8.34 17 7.68 17 7 C23.625 5.75 23.625 5.75 27 8 C27 8.99 27 9.98 27 11 C19.39866207 12.99379355 12.31670592 13.15304001 4.5144043 12.92578125 C3.71687744 12.90902344 2.91935059 12.89226562 2.09765625 12.875 C1.38101807 12.85179688 0.66437988 12.82859375 -0.07397461 12.8046875 C-2.32939761 12.8816528 -2.32939761 12.8816528 -5 15 C-5.52522551 19.06630753 -5.52522551 19.06630753 -5 23 C-2.66169042 25.5404226 -2.66169042 25.5404226 0 27 C-0.99 27.66 -1.98 28.32 -3 29 C-3.33 29.66 -3.66 30.32 -4 31 C-4.99 30.67 -5.98 30.34 -7 30 C-6.34 28.68 -5.68 27.36 -5 26 C-5.66 25.34 -6.32 24.68 -7 24 C-8.36170213 16.96453901 -8.36170213 16.96453901 -7.0625 13.5 C-6.711875 13.005 -6.36125 12.51 -6 12 C-7.65 12 -9.3 12 -11 12 C-11.33 11.01 -11.66 10.02 -12 9 C-14.00016466 7.79117904 -14.00016466 7.79117904 -16 7 C-16 6.01 -16 5.02 -16 4 C-11.46041738 3.43255217 -8.75809155 4.99177586 -4.96484375 7.22265625 C-2.54296117 8.18081656 -1.40362583 7.90459037 1 7 C1.33 6.67 1.66 6.34 2 6 C1.01 5.01 0.02 4.02 -1 3 C-0.67 2.01 -0.34 1.02 0 0 Z " fill="#EFDCD1" transform="translate(41,58)"/>
<path d="M0 0 C3.12290635 0.48578543 5.99580359 0.9986012 9 2 C9 2.66 9 3.32 9 4 C9.66 4 10.32 4 11 4 C10.979375 4.78375 10.95875 5.5675 10.9375 6.375 C10.81315937 8.98114961 10.81315937 8.98114961 12 11 C9.36 11 6.72 11 4 11 C4 9.35 4 7.7 4 6 C0.37 6 -3.26 6 -7 6 C-7 7.32 -7 8.64 -7 10 C-10.875 9.125 -10.875 9.125 -12 8 C-12.33 9.32 -12.66 10.64 -13 12 C-12.01 12 -11.02 12 -10 12 C-10.33 14.31 -10.66 16.62 -11 19 C-10.34 19 -9.68 19 -9 19 C-9 20.32 -9 21.64 -9 23 C-11.97411124 24.23921302 -14.85262818 25.30058404 -18 26 C-18.99 24.35 -19.98 22.7 -21 21 C-20.505 20.608125 -20.01 20.21625 -19.5 19.8125 C-17.54406857 17.44908285 -17.75792027 15.98564997 -18 13 C-18.66 12.67 -19.32 12.34 -20 12 C-19.34 9.36 -18.68 6.72 -18 4 C-17.34 4.33 -16.68 4.66 -16 5 C-15.67 4.34 -15.34 3.68 -15 3 C-8.07 3.495 -8.07 3.495 -1 4 C-0.67 2.68 -0.34 1.36 0 0 Z " fill="#62465E" transform="translate(79,85)"/>
<path d="M0 0 C2.64 0.33 5.28 0.66 8 1 C8 2.65 8 4.3 8 6 C8.99 6.33 9.98 6.66 11 7 C11 8.65 11 10.3 11 12 C11.66 12 12.32 12 13 12 C13.66 13.65 14.32 15.3 15 17 C13.35 16.67 11.7 16.34 10 16 C9.67 17.32 9.34 18.64 9 20 C7.06280622 20.05406122 5.12518079 20.09282025 3.1875 20.125 C2.10855469 20.14820312 1.02960938 20.17140625 -0.08203125 20.1953125 C-3 20 -3 20 -6 18 C-6.48776146 14.99213769 -6.02543123 13.07629369 -5.0625 10.1875 C-3 8 -3 8 -0.796875 7.6875 C1.48926016 7.6875 3.72459712 7.78533935 6 8 C6.33 9.65 6.66 11.3 7 13 C7.99 13 8.98 13 10 13 C8.13433512 9.37206002 8.13433512 9.37206002 5 7 C5 6.01 5 5.02 5 4 C3.68 3.67 2.36 3.34 1 3 C0.67 4.32 0.34 5.64 0 7 C-2.31 6.67 -4.62 6.34 -7 6 C-7.33 4.68 -7.66 3.36 -8 2 C-5.36 2 -2.72 2 0 2 C0 1.34 0 0.68 0 0 Z " fill="#47904C" transform="translate(69,69)"/>
<path d="M0 0 C4.62 0 9.24 0 14 0 C14 5 14 5 13 8 C12.01 8.495 12.01 8.495 11 9 C11.79117904 10.99983534 11.79117904 10.99983534 13 13 C13.99 13.33 14.98 13.66 16 14 C15.32453125 14.04898438 14.6490625 14.09796875 13.953125 14.1484375 C12.61507812 14.26058594 12.61507812 14.26058594 11.25 14.375 C9.92742188 14.47941406 9.92742188 14.47941406 8.578125 14.5859375 C6.00933618 14.99850055 4.24158985 15.71160957 2 17 C1.67 15.68 1.34 14.36 1 13 C-0.32 12.67 -1.64 12.34 -3 12 C-2.38379922 7.68659457 -1.40620186 4.21860559 0 0 Z " fill="#3BA3C8" transform="translate(48,98)"/>
<path d="M0 0 C2.66666667 0 5.33333333 0 8 0 C10 3.875 10 3.875 10 5 C8.02 5 6.04 5 4 5 C4 8.3 4 11.6 4 15 C5.65 14.67 7.3 14.34 9 14 C9.33 14.66 9.66 15.32 10 16 C9.319375 16.226875 8.63875 16.45375 7.9375 16.6875 C4.78146171 18.09764477 2.35678745 19.85645145 -0.3515625 21.9765625 C-2 23 -2 23 -5 23 C-5 22.01 -5 21.02 -5 20 C-4 19 -3 18 -2 17 C-1.28552357 14.89667109 -1.28552357 14.89667109 -1 13 C-1.5775 13.165 -2.155 13.33 -2.75 13.5 C-5 14 -5 14 -9 14 C-9 13.01 -9 12.02 -9 11 C-6.69 10.01 -4.38 9.02 -2 8 C-2 6.35 -2 4.7 -2 3 C-1.01 2.67 -0.02 2.34 1 2 C0.67 1.34 0.34 0.68 0 0 Z " fill="#DBE6E8" transform="translate(35,99)"/>
<path d="M0 0 C4.62609198 -0.3227506 7.28026121 0.15549386 11 3 C11 3.66 11 4.32 11 5 C11.66 5.33 12.32 5.66 13 6 C12.01 6 11.02 6 10 6 C10.66 7.65 11.32 9.3 12 11 C6.64153053 14.57231298 1.234225 14.12223971 -5 14 C-4.01 13.34 -3.02 12.68 -2 12 C-3.32 10.35 -4.64 8.7 -6 7 C-5.525625 6.54625 -5.05125 6.0925 -4.5625 5.625 C-2.90972192 4.06741796 -2.90972192 4.06741796 -2 2 C-1.34 2 -0.68 2 0 2 C0 1.34 0 0.68 0 0 Z " fill="#CB5F9D" transform="translate(95,76)"/>
<path d="M0 0 C-0.474375 0.350625 -0.94875 0.70125 -1.4375 1.0625 C-3.67873825 3.84163543 -3.67117658 6.5144717 -4 10 C-3.34 10 -2.68 10 -2 10 C-2 11.65 -2 13.3 -2 15 C-6.30656007 17.15328004 -8.91071365 16.9883829 -13.375 15.625 C-14.92244099 15.10005689 -16.46628125 14.56377804 -18 14 C-18.33 12.35 -18.66 10.7 -19 9 C-16.36 8.34 -13.72 7.68 -11 7 C-10.896875 6.21625 -10.79375 5.4325 -10.6875 4.625 C-9.21656199 -0.99130878 -4.9046656 -0.18508172 0 0 Z " fill="#DDC555" transform="translate(135,85)"/>
<path d="M0 0 C0.66 0.33 1.32 0.66 2 1 C2 2.65 2 4.3 2 6 C4.97 6 7.94 6 11 6 C11 6.33 11 6.66 11 7 C5.06 7 -0.88 7 -7 7 C-7 8.98 -7 10.96 -7 13 C-6.01 13.33 -5.02 13.66 -4 14 C-2.859375 15.62890625 -2.859375 15.62890625 -1.75 17.5625 C-0.54318614 19.49455486 -0.54318614 19.49455486 1 21 C4.71158857 21.58560449 4.71158857 21.58560449 8 21 C8.33 20.34 8.66 19.68 9 19 C9.66 19 10.32 19 11 19 C10.375 20.9375 10.375 20.9375 9 23 C5.7073949 24.09753503 3.82047021 24.31556547 0.5625 23.0625 C-3.98675442 19.40090498 -7.76134774 15.07916629 -10.75 10.0625 C-11.89184215 7.67638011 -11.89184215 7.67638011 -15 7 C-15 5.02 -15 3.04 -15 1 C-14.566875 1.474375 -14.13375 1.94875 -13.6875 2.4375 C-11.97690387 4.23686957 -11.97690387 4.23686957 -9 5 C-9 3.68 -9 2.36 -9 1 C-6.01405576 -0.49297212 -3.29146376 -0.11755228 0 0 Z " fill="#AE938D" transform="translate(81,90)"/>
<path d="M0 0 C-2.875 6.875 -2.875 6.875 -4 8 C-6.01594582 8.23427778 -8.038474 8.41336124 -10.0625 8.5625 C-11.16722656 8.64628906 -12.27195312 8.73007813 -13.41015625 8.81640625 C-14.26480469 8.87699219 -15.11945313 8.93757813 -16 9 C-16 8.34 -16 7.68 -16 7 C-16.99 6.67 -17.98 6.34 -19 6 C-19.6875 3.9375 -19.6875 3.9375 -20 2 C-14.33736416 -2.53010867 -6.71396878 -1.79039168 0 0 Z " fill="#C84541" transform="translate(125,100)"/>
<path d="M0 0 C0.495 1.98 0.495 1.98 1 4 C-6.58976682 5.99075851 -13.69442331 6.16297095 -21.4855957 6.01367188 C-22.28312256 6.00013672 -23.08064941 5.98660156 -23.90234375 5.97265625 C-24.61898193 5.95468994 -25.33562012 5.93672363 -26.07397461 5.91821289 C-28.22176594 5.92075851 -28.22176594 5.92075851 -31 7 C-31.33 5.68 -31.66 4.36 -32 3 C-30.68 3.33 -29.36 3.66 -28 4 C-28 3.34 -28 2.68 -28 2 C-25.36 2 -22.72 2 -20 2 C-19.67 1.34 -19.34 0.68 -19 0 C-16.36 0 -13.72 0 -11 0 C-11 0.66 -11 1.32 -11 2 C-10.34 2 -9.68 2 -9 2 C-9 1.34 -9 0.68 -9 0 C-5.93109813 -1.53445094 -3.29905734 -0.54984289 0 0 Z " fill="#EEA96E" transform="translate(67,65)"/>
<path d="M0 0 C1.32 0.33 2.64 0.66 4 1 C4 1.99 4 2.98 4 4 C4.99 4.33 5.98 4.66 7 5 C8.6875 8.0625 8.6875 8.0625 10 11 C8.68 10.67 7.36 10.34 6 10 C5.505 8.02 5.505 8.02 5 6 C2.03 6 -0.94 6 -4 6 C-4.47759766 7.67255859 -4.47759766 7.67255859 -4.96484375 9.37890625 C-5.96969253 11.72079985 -6.48069011 12.75345044 -8.80908203 13.85888672 C-11.06202853 14.36705075 -13.26662204 14.68790663 -15.5625 14.9375 C-16.34302734 15.04900391 -17.12355469 15.16050781 -17.92773438 15.27539062 C-20.61990881 15.64936826 -23.2784668 16 -26 16 C-26 15.34 -26 14.68 -26 14 C-27.32 13.67 -28.64 13.34 -30 13 C-26.87186463 11.16801331 -24.60914709 10.75198077 -21 10.8125 C-20.154375 10.81894531 -19.30875 10.82539062 -18.4375 10.83203125 C-16.16747523 10.98845924 -14.18038396 11.36910186 -12 12 C-11.67 11.01 -11.34 10.02 -11 9 C-10.34 8.67 -9.68 8.34 -9 8 C-8.34444881 5.47266765 -8.34444881 5.47266765 -8 3 C-5.69 3 -3.38 3 -1 3 C-0.67 2.01 -0.34 1.02 0 0 Z " fill="#551436" transform="translate(70,72)"/>
<path d="M0 0 C2.31 0 4.62 0 7 0 C6.01 1.485 6.01 1.485 5 3 C5.25723969 5.02919843 5.25723969 5.02919843 6 7 C6.33 7.99 6.66 8.98 7 10 C7.66 9.67 8.32 9.34 9 9 C10.87056791 8.7724985 12.74685958 8.59037189 14.625 8.4375 C15.62789062 8.35371094 16.63078125 8.26992187 17.6640625 8.18359375 C18.43492188 8.12300781 19.20578125 8.06242187 20 8 C20 8.66 20 9.32 20 10 C19.34 10 18.68 10 18 10 C18 10.99 18 11.98 18 13 C17.34 13 16.68 13 16 13 C15.67 13.99 15.34 14.98 15 16 C11.875 16.5 11.875 16.5 8 16 C6.13558422 14.15706366 4.78395339 12.2398607 3.359375 10.04296875 C2.08309248 7.95800619 2.08309248 7.95800619 0.30859375 6.40625 C-0.12324219 5.9421875 -0.55507812 5.478125 -1 5 C-0.6875 2.3125 -0.6875 2.3125 0 0 Z " fill="#4C3B5F" transform="translate(74,96)"/>
<path d="M0 0 C0.66 0 1.32 0 2 0 C2 0.66 2 1.32 2 2 C4.97851562 1.90234375 4.97851562 1.90234375 7.95703125 1.8046875 C10 2 10 2 13 4 C13.6875 7.625 13.6875 7.625 14 11 C8.85910687 12.85072153 6.04468729 13.21474076 1 11 C1 10.01 1 9.02 1 8 C-0.43750191 6.31201173 -0.43750191 6.31201173 -2 5 C-1.34 3.35 -0.68 1.7 0 0 Z " fill="#4F71AE" transform="translate(125,73)"/>
<path d="M0 0 C2.45840605 -0.02691685 4.91651882 -0.04679802 7.375 -0.0625 C8.07367188 -0.07087891 8.77234375 -0.07925781 9.4921875 -0.08789062 C14.7734375 -0.11328125 14.7734375 -0.11328125 17 1 C17.1875 3.375 17.1875 3.375 17 6 C13.59568053 8.26954631 11.83475798 8.36549949 7.8125 8.625 C6.72582031 8.69976562 5.63914062 8.77453125 4.51953125 8.8515625 C3.27236328 8.92503906 3.27236328 8.92503906 2 9 C-0.29013653 5.5647952 -0.17842973 4.014669 0 0 Z " fill="#C14F9B" transform="translate(108,86)"/>
<path d="M0 0 C-0.33 1.32 -0.66 2.64 -1 4 C-0.34 4 0.32 4 1 4 C0.67 4.99 0.34 5.98 0 7 C-6.6 7 -13.2 7 -20 7 C-20.66 5.35 -21.32 3.7 -22 2 C-18.55193384 -0.0654675 -15.54265412 -0.40681861 -11.5625 -0.6875 C-10.45003906 -0.77386719 -9.33757812 -0.86023438 -8.19140625 -0.94921875 C-5.26221495 -0.99582767 -2.83136106 -0.70387107 0 0 Z " fill="#523C73" transform="translate(127,80)"/>
<path d="M0 0 C0 0.99 0 1.98 0 3 C-0.66 3 -1.32 3 -2 3 C-2 3.66 -2 4.32 -2 5 C-2.66 5 -3.32 5 -4 5 C-4.33 5.99 -4.66 6.98 -5 8 C-3.35 7.67 -1.7 7.34 0 7 C0 8.32 0 9.64 0 11 C-8.261959 15.59225513 -8.261959 15.59225513 -13 15 C-13 14.34 -13 13.68 -13 13 C-13.66 12.67 -14.32 12.34 -15 12 C-14.01 11.67 -13.02 11.34 -12 11 C-12 10.34 -12 9.68 -12 9 C-9.5 7.375 -9.5 7.375 -7 6 C-7.66 6 -8.32 6 -9 6 C-10.66666667 6 -12.33333333 6 -14 6 C-9.38622597 1.15553727 -6.93694521 -0.40020838 0 0 Z " fill="#E4DCEC" transform="translate(144,59)"/>
<path d="M0 0 C0.33 0 0.66 0 1 0 C1.07347656 1.06541016 1.07347656 1.06541016 1.1484375 2.15234375 C1.22320312 3.07144531 1.29796875 3.99054688 1.375 4.9375 C1.44460937 5.85402344 1.51421875 6.77054687 1.5859375 7.71484375 C1.72257812 8.46894531 1.85921875 9.22304687 2 10 C2.66 10.33 3.32 10.66 4 11 C4 12.32 4 13.64 4 15 C4.66 15.33 5.32 15.66 6 16 C6 16.66 6 17.32 6 18 C6.66 17.67 7.32 17.34 8 17 C9.64525617 16.9238046 11.29126292 16.86326502 12.9375 16.8125 C15.60830433 16.66149111 15.60830433 16.66149111 18 16 C20.23886732 13.11320156 20.23886732 13.11320156 21 10 C21.33 10 21.66 10 22 10 C22 12.97 22 15.94 22 19 C19.79834917 19.58811221 17.58821064 20.14450733 15.375 20.6875 C14.14523438 21.00074219 12.91546875 21.31398438 11.6484375 21.63671875 C7.37194124 22.0625369 5.51283063 21.41440776 2 19 C1.25 15.875 1.25 15.875 1 13 C0.34 12.67 -0.32 12.34 -1 12 C-0.67 8.04 -0.34 4.08 0 0 Z " fill="#682160" transform="translate(103,91)"/>
<path d="M0 0 C2.56616632 3.84924948 2.55097676 6.4349304 3 11 C4.32 11.33 5.64 11.66 7 12 C7 14.31 7 16.62 7 19 C4.64561267 20.42944945 3.51967567 21.08661261 0.75 20.625 C-0.11625 20.315625 -0.11625 20.315625 -1 20 C-1 19.34 -1 18.68 -1 18 C-2.65 17.67 -4.3 17.34 -6 17 C-6.33 15.68 -6.66 14.36 -7 13 C-4.36 12.67 -1.72 12.34 1 12 C1 10.35 1 8.7 1 7 C0.34 7 -0.32 7 -1 7 C-1.33 6.01 -1.66 5.02 -2 4 C-1.34 4 -0.68 4 0 4 C0 2.68 0 1.36 0 0 Z " fill="#F3EFF1" transform="translate(132,88)"/>
<path d="M0 0 C0.66 0 1.32 0 2 0 C2 0.66 2 1.32 2 2 C3.65 2.33 5.3 2.66 7 3 C6.67 5.31 6.34 7.62 6 10 C6.66 10 7.32 10 8 10 C8 11.32 8 12.64 8 14 C5.02588876 15.23921302 2.14737182 16.30058404 -1 17 C-1.99 15.35 -2.98 13.7 -4 12 C-3.51917969 11.60167969 -3.03835937 11.20335938 -2.54296875 10.79296875 C-0.62608175 8.56549753 -0.52258357 7.21165331 -0.3125 4.3125 C-0.21388672 3.10013672 -0.21388672 3.10013672 -0.11328125 1.86328125 C-0.07589844 1.24839844 -0.03851563 0.63351563 0 0 Z " fill="#434D7F" transform="translate(62,94)"/>
<path d="M0 0 C0.66 0.33 1.32 0.66 2 1 C2 2.32 2 3.64 2 5 C2.66 5.33 3.32 5.66 4 6 C2.03533587 7.06775224 0.03144641 8.06553465 -2 9 C-2.66 8.67 -3.32 8.34 -4 8 C-3.67 7.67 -3.34 7.34 -3 7 C-3.66 6.67 -4.32 6.34 -5 6 C-5.33 6.99 -5.66 7.98 -6 9 C-13.92 9.495 -13.92 9.495 -22 10 C-21.67 9.34 -21.34 8.68 -21 8 C-17.9375 7.375 -17.9375 7.375 -15 7 C-14.67 5.35 -14.34 3.7 -14 2 C-12.68 2 -11.36 2 -10 2 C-10 2.66 -10 3.32 -10 4 C-8.51882199 3.71872579 -7.04006751 3.42466268 -5.5625 3.125 C-4.73878906 2.96257813 -3.91507813 2.80015625 -3.06640625 2.6328125 C-2.38449219 2.42398438 -1.70257813 2.21515625 -1 2 C-0.67 1.34 -0.34 0.68 0 0 Z " fill="#D4E2EB" transform="translate(126,60)"/>
<path d="M0 0 C-2.95664519 1.4783226 -5.74229737 1.06032783 -9 1 C-9 1.99 -9 2.98 -9 4 C-7.68 4.33 -6.36 4.66 -5 5 C-5.99 6.485 -5.99 6.485 -7 8 C-7.66 8 -8.32 8 -9 8 C-10.78805755 12.07332237 -10.78805755 12.07332237 -10.25 16.3125 C-9.09122685 18.14294055 -9.09122685 18.14294055 -7 19 C-9.31 19 -11.62 19 -14 19 C-14 18.34 -14 17.68 -14 17 C-14.99 16.67 -15.98 16.34 -17 16 C-16.38144369 14.3725363 -15.75492695 12.74809644 -15.125 11.125 C-14.77695313 10.22007813 -14.42890625 9.31515625 -14.0703125 8.3828125 C-13 6 -13 6 -11 4 C-10.3574765 1.93125966 -10.3574765 1.93125966 -10 0 C-3.375 -1.125 -3.375 -1.125 0 0 Z " fill="#E3E9E1" transform="translate(102,70)"/>
<path d="M0 0 C4.62 0 9.24 0 14 0 C14 1.65 14 3.3 14 5 C12 7 12 7 9.72265625 7.265625 C8.84480469 7.26046875 7.96695313 7.2553125 7.0625 7.25 C6.18722656 7.25515625 5.31195313 7.2603125 4.41015625 7.265625 C2 7 2 7 -1 5 C-0.67 3.35 -0.34 1.7 0 0 Z " fill="#E6EBEC" transform="translate(48,98)"/>
<path d="M0 0 C6.625 -0.25 6.625 -0.25 10 2 C10.1875 5.125 10.1875 5.125 10 8 C9.01 8.495 9.01 8.495 8 9 C8 9.99 8 10.98 8 12 C5.03 11.01 2.06 10.02 -1 9 C-0.67 6.03 -0.34 3.06 0 0 Z " fill="#7F9BD0" transform="translate(33,89)"/>
<path d="M0 0 C1.98 0 3.96 0 6 0 C6.33 0.66 6.66 1.32 7 2 C7.99 2.33 8.98 2.66 10 3 C10 4.98 10 6.96 10 9 C10.66 9 11.32 9 12 9 C12 11 12 11 10.1875 13.125 C8 15 8 15 5 15 C4.06934867 12.39417629 3.85082593 11.35801776 4.9375 8.75 C5.288125 8.1725 5.63875 7.595 6 7 C3.92446352 6.4465236 2.15634036 6 0 6 C0 4.02 0 2.04 0 0 Z " fill="#D7EEF0" transform="translate(39,108)"/>
<path d="M0 0 C2.64 0.33 5.28 0.66 8 1 C8 2.65 8 4.3 8 6 C8.99 6.33 9.98 6.66 11 7 C11 8.65 11 10.3 11 12 C11.66 12 12.32 12 13 12 C13 12.66 13 13.32 13 14 C9.51866169 12.60746468 8.52113967 11.36823784 7 8 C6.34 7.67 5.68 7.34 5 7 C5 6.01 5 5.02 5 4 C3.68 3.67 2.36 3.34 1 3 C0.67 4.32 0.34 5.64 0 7 C-2.31 6.67 -4.62 6.34 -7 6 C-7.33 4.68 -7.66 3.36 -8 2 C-5.36 2 -2.72 2 0 2 C0 1.34 0 0.68 0 0 Z " fill="#E4CDE1" transform="translate(69,69)"/>
<path d="M0 0 C0 0.99 0 1.98 0 3 C-0.66 3.66 -1.32 4.32 -2 5 C-2.99 5 -3.98 5 -5 5 C-5 5.66 -5 6.32 -5 7 C-5.99 7.495 -5.99 7.495 -7 8 C-6.67 8.99 -6.34 9.98 -6 11 C-4.02 11 -2.04 11 0 11 C-0.33 11.99 -0.66 12.98 -1 14 C-1.33 13.67 -1.66 13.34 -2 13 C-3.34747084 12.76924918 -4.70377565 12.58846937 -6.0625 12.4375 C-7.361875 12.293125 -8.66125 12.14875 -10 12 C-10 11.34 -10 10.68 -10 10 C-10.66 10 -11.32 10 -12 10 C-12 9.34 -12 8.68 -12 8 C-12.66 8 -13.32 8 -14 8 C-13.3828125 6.140625 -13.3828125 6.140625 -12 4 C-9.1796875 2.734375 -9.1796875 2.734375 -5.875 1.75 C-4.77929688 1.41484375 -3.68359375 1.0796875 -2.5546875 0.734375 C-1.29011719 0.37085938 -1.29011719 0.37085938 0 0 Z " fill="#AD94CB" transform="translate(137,63)"/>
<path d="M0 0 C2 2 2 2 2 4 C1.01 4.33 0.02 4.66 -1 5 C-0.34 5.33 0.32 5.66 1 6 C1.625 9.0625 1.625 9.0625 2 12 C1.236875 11.67 0.47375 11.34 -0.3125 11 C-2.99069135 9.82563314 -2.99069135 9.82563314 -6 10 C-6 9.34 -6 8.68 -6 8 C-6.78375 7.87625 -7.5675 7.7525 -8.375 7.625 C-11 7 -11 7 -13 5 C-8.67435795 3.41744803 -4.571279 2.54855348 0 2 C0 1.34 0 0.68 0 0 Z " fill="#D075A4" transform="translate(125,108)"/>
<path d="M0 0 C3.63 0.33 7.26 0.66 11 1 C10.67 1.66 10.34 2.32 10 3 C9.34 3 8.68 3 8 3 C8 4.32 8 5.64 8 7 C4.125 6.125 4.125 6.125 3 5 C2.67 5.99 2.34 6.98 2 8 C1.34 8 0.68 8 0 8 C0 7.34 0 6.68 0 6 C-0.66 6 -1.32 6 -2 6 C-1.67 7.32 -1.34 8.64 -1 10 C-2.32 9.67 -3.64 9.34 -5 9 C-4.34 6.36 -3.68 3.72 -3 1 C-2.34 1.33 -1.68 1.66 -1 2 C-0.67 1.34 -0.34 0.68 0 0 Z " fill="#29415B" transform="translate(64,88)"/>
<path d="M0 0 C3.96 0 7.92 0 12 0 C12 3.3 12 6.6 12 10 C11.34 9.01 10.68 8.02 10 7 C7.36 10.63 4.72 14.26 2 18 C1.67 17.01 1.34 16.02 1 15 C1.66 15 2.32 15 3 15 C3.0825 14.443125 3.165 13.88625 3.25 13.3125 C4 11 4 11 6.125 8.4375 C6.74375 7.633125 7.3625 6.82875 8 6 C7.67 5.01 7.34 4.02 7 3 C5.02 3 3.04 3 1 3 C0.67 2.01 0.34 1.02 0 0 Z " fill="#779CCC" transform="translate(91,91)"/>
<path d="M0 0 C0.33 1.32 0.66 2.64 1 4 C-4.94 4.495 -4.94 4.495 -11 5 C-11.33 4.01 -11.66 3.02 -12 2 C-13.32 2 -14.64 2 -16 2 C-16 1.34 -16 0.68 -16 0 C-14.35 0 -12.7 0 -11 0 C-11 0.66 -11 1.32 -11 2 C-10.34 2 -9.68 2 -9 2 C-9 1.34 -9 0.68 -9 0 C-5.93109813 -1.53445094 -3.29905734 -0.54984289 0 0 Z " fill="#E4E7F2" transform="translate(67,65)"/>
<path d="M0 0 C3.3 0 6.6 0 10 0 C10 0.66 10 1.32 10 2 C7.36 2 4.72 2 2 2 C2 2.66 2 3.32 2 4 C3.98 3.67 5.96 3.34 8 3 C8.66 4.32 9.32 5.64 10 7 C8.35 8.65 6.7 10.3 5 12 C4.938125 11.4225 4.87625 10.845 4.8125 10.25 C3.67972699 7.11309013 1.65802405 5.90832496 -1 4 C-0.67 2.68 -0.34 1.36 0 0 Z " fill="#346CB0" transform="translate(90,90)"/>
<path d="M0 0 C0.99 0.33 1.98 0.66 3 1 C3.061875 1.94875 3.12375 2.8975 3.1875 3.875 C3.455625 4.90625 3.72375 5.9375 4 7 C6.46255685 8.45291273 6.46255685 8.45291273 9 9 C8.01 9.495 8.01 9.495 7 10 C7 10.99 7 11.98 7 13 C4.69 13 2.38 13 0 13 C-1.125 9.25 -1.125 9.25 0 7 C0.04022391 4.6670134 0.04320247 2.33293334 0 0 Z " fill="#BDA5C3" transform="translate(102,103)"/>
<path d="M0 0 C-2.875 6.875 -2.875 6.875 -4 8 C-5.51928038 8.07179964 -7.04167482 8.08392007 -8.5625 8.0625 C-9.38878906 8.05347656 -10.21507813 8.04445313 -11.06640625 8.03515625 C-11.70449219 8.02355469 -12.34257813 8.01195313 -13 8 C-10.3359375 5.0234375 -10.3359375 5.0234375 -7.3125 4.8125 C-6.1678125 4.9053125 -6.1678125 4.9053125 -5 5 C-5 4.34 -5 3.68 -5 3 C-7.31 3 -9.62 3 -12 3 C-12 2.34 -12 1.68 -12 1 C-7.67265609 -1.22923777 -4.71599818 -0.92470553 0 0 Z " fill="#C5402E" transform="translate(125,100)"/>
<path d="M0 0 C1.37562854 1.28965176 2.70766393 2.62689293 4 4 C4 4.66 4 5.32 4 6 C4.31478446 7.33783393 4.64587656 8.67203709 5 10 C4.34 10 3.68 10 3 10 C2.67 11.32 2.34 12.64 2 14 C0.02 14 -1.96 14 -4 14 C-4 12.68 -4 11.36 -4 10 C-2.35 9.67 -0.7 9.34 1 9 C0.67 8.01 0.34 7.02 0 6 C-0.66 6 -1.32 6 -2 6 C-2 5.34 -2 4.68 -2 4 C-3.32 3.67 -4.64 3.34 -6 3 C-4.02 3 -2.04 3 0 3 C0 2.01 0 1.02 0 0 Z " fill="#4072A5" transform="translate(43,94)"/>
<path d="M0 0 C0.99 0.33 1.98 0.66 3 1 C2 4 2 4 0.328125 5.16796875 C-6.57251908 8.55343511 -6.57251908 8.55343511 -11 8 C-11 7.34 -11 6.68 -11 6 C-11.66 5.67 -12.32 5.34 -13 5 C-12.01 4.67 -11.02 4.34 -10 4 C-10 3.34 -10 2.68 -10 2 C-9.01 2 -8.02 2 -7 2 C-6.67 2.66 -6.34 3.32 -6 4 C-5.071875 3.319375 -4.14375 2.63875 -3.1875 1.9375 C-2.135625 1.298125 -1.08375 0.65875 0 0 Z " fill="#E6EFF2" transform="translate(142,66)"/>
<path d="M0 0 C1.32 0.33 2.64 0.66 4 1 C4 1.99 4 2.98 4 4 C4.99 4.33 5.98 4.66 7 5 C8.6875 8.0625 8.6875 8.0625 10 11 C8.68 10.67 7.36 10.34 6 10 C5.67 8.68 5.34 7.36 5 6 C2.03 6 -0.94 6 -4 6 C-4.33 6.99 -4.66 7.98 -5 9 C-6.32 8.67 -7.64 8.34 -9 8 C-8.67 6.35 -8.34 4.7 -8 3 C-5.69 3 -3.38 3 -1 3 C-0.67 2.01 -0.34 1.02 0 0 Z " fill="#61415A" transform="translate(70,72)"/>
<path d="M0 0 C-0.33 0.66 -0.66 1.32 -1 2 C-2.65 2 -4.3 2 -6 2 C-6 2.99 -6 3.98 -6 5 C-7.32 5 -8.64 5 -10 5 C-10 4.34 -10 3.68 -10 3 C-13.62528568 2.79859524 -15.86501708 3.14223235 -19 5 C-19.33 4.01 -19.66 3.02 -20 2 C-16.52090109 -0.09429787 -13.45613039 -0.40861894 -9.4375 -0.6875 C-8.30183594 -0.77386719 -7.16617188 -0.86023438 -5.99609375 -0.94921875 C-3 -1 -3 -1 0 0 Z " fill="#2C2440" transform="translate(125,80)"/>
<path d="M0 0 C3.55780196 0.60990891 6.6828589 1.5783681 10 3 C10 3.66 10 4.32 10 5 C10.61875 4.814375 11.2375 4.62875 11.875 4.4375 C14 4 14 4 16 5 C16 3.35 16 1.7 16 0 C17.65 0 19.3 0 21 0 C20.34 0.66 19.68 1.32 19 2 C18.83318891 5.08347826 18.83318891 5.08347826 19 8 C13.33218526 8.34700907 9.95437183 7.52575819 5 5 C4.34 4.34 3.68 3.68 3 3 C2.01 2.67 1.02 2.34 0 2 C0 1.34 0 0.68 0 0 Z " fill="#E6D8E3" transform="translate(109,113)"/>
<path d="M0 0 C3.55780196 0.60990891 6.6828589 1.5783681 10 3 C10 3.99 10 4.98 10 6 C5.545 6.495 5.545 6.495 1 7 C0.34 5.68 -0.32 4.36 -1 3 C-0.67 2.01 -0.34 1.02 0 0 Z " fill="#EDE7EA" transform="translate(135,109)"/>
<path d="M0 0 C1.45792884 -0.05399736 2.91642712 -0.09279177 4.375 -0.125 C5.18710937 -0.14820312 5.99921875 -0.17140625 6.8359375 -0.1953125 C9 0 9 0 11 2 C11.33 2.99 11.66 3.98 12 5 C9.02148438 5.29296875 9.02148438 5.29296875 6.04296875 5.5859375 C3.70011858 5.92665391 3.70011858 5.92665391 1 8 C0.17361624 5.10765685 0 3.11257569 0 0 Z " fill="#393271" transform="translate(45,92)"/>
<path d="M0 0 C2.31 0.33 4.62 0.66 7 1 C7 1.99 7 2.98 7 4 C5.68 3.67 4.36 3.34 3 3 C2.67 4.32 2.34 5.64 2 7 C-1.63 6.67 -5.26 6.34 -9 6 C-9 5.34 -9 4.68 -9 4 C-8.43410156 3.87882812 -7.86820312 3.75765625 -7.28515625 3.6328125 C-6.18494141 3.38144531 -6.18494141 3.38144531 -5.0625 3.125 C-4.33160156 2.96257812 -3.60070312 2.80015625 -2.84765625 2.6328125 C-0.79299706 2.17038477 -0.79299706 2.17038477 0 0 Z " fill="#7ABC6B" transform="translate(76,82)"/>
<path d="M0 0 C2.97 0 5.94 0 9 0 C9.33 1.65 9.66 3.3 10 5 C8.52168779 5.19412181 7.04230684 5.38012131 5.5625 5.5625 C4.73878906 5.66691406 3.91507812 5.77132812 3.06640625 5.87890625 C2.38449219 5.91886719 1.70257813 5.95882812 1 6 C0 5 0 5 -0.0625 2.4375 C-0.041875 1.633125 -0.02125 0.82875 0 0 Z " fill="#6AB7DA" transform="translate(66,77)"/>
<path d="M0 0 C2.31 0 4.62 0 7 0 C6.01 1.485 6.01 1.485 5 3 C5.33820153 5.01954441 5.33820153 5.01954441 6 7 C6 7.99 6 8.98 6 10 C3 10 3 10 0.75 7.8125 C-1 5 -1 5 -0.75 2.1875 C-0.5025 1.465625 -0.255 0.74375 0 0 Z " fill="#444A81" transform="translate(74,96)"/>
<path d="M0 0 C1.65 0 3.3 0 5 0 C5 0.66 5 1.32 5 2 C4.34 2 3.68 2 3 2 C3 2.66 3 3.32 3 4 C3.66 4 4.32 4 5 4 C5 4.99 5 5.98 5 7 C4.01 6.67 3.02 6.34 2 6 C0.32459336 6.64438717 -1.34183216 7.31246699 -3 8 C-4.32 8 -5.64 8 -7 8 C-7 7.01 -7 6.02 -7 5 C-4.69 4.01 -2.38 3.02 0 2 C0 1.34 0 0.68 0 0 Z " fill="#E2F1F1" transform="translate(33,105)"/>
<path d="M0 0 C0.66 0 1.32 0 2 0 C2 0.66 2 1.32 2 2 C3.65 2.33 5.3 2.66 7 3 C6.67 5.31 6.34 7.62 6 10 C6.66 10.33 7.32 10.66 8 11 C6.68 11 5.36 11 4 11 C4 10.01 4 9.02 4 8 C2.68 8 1.36 8 0 8 C0 5.36 0 2.72 0 0 Z " fill="#789E69" transform="translate(62,94)"/>
<path d="M0 0 C0.66 0.66 1.32 1.32 2 2 C1.62875 2.5775 1.2575 3.155 0.875 3.75 C-0.27018748 5.97860074 -0.27018748 5.97860074 0.75 8.1875 C1.88336565 10.14268533 1.88336565 10.14268533 4 11 C1.69 11 -0.62 11 -3 11 C-3 10.34 -3 9.68 -3 9 C-3.99 8.67 -4.98 8.34 -6 8 C-5.34 6.35 -4.68 4.7 -4 3 C-2.68 3 -1.36 3 0 3 C0 2.01 0 1.02 0 0 Z " fill="#D5BBCD" transform="translate(91,78)"/>
<path d="M0 0 C2.66666667 0 5.33333333 0 8 0 C10 3.875 10 3.875 10 5 C4.06 5.495 4.06 5.495 -2 6 C-2 5.01 -2 4.02 -2 3 C-1.01 2.67 -0.02 2.34 1 2 C0.67 1.34 0.34 0.68 0 0 Z " fill="#9CC6D7" transform="translate(35,99)"/>
<path d="M0 0 C0.66 0.33 1.32 0.66 2 1 C1.67 2.32 1.34 3.64 1 5 C-1.64 5 -4.28 5 -7 5 C-7.66 3.68 -8.32 2.36 -9 1 C-6.01405576 -0.49297212 -3.29146376 -0.11755228 0 0 Z " fill="#EEDFDD" transform="translate(81,90)"/>
<path d="M0 0 C1.96276032 2.94414048 2.25476379 3.80204933 2.5 7.125 C2.665 8.40375 2.83 9.6825 3 11 C3.66 11.33 4.32 11.66 5 12 C2.61426621 13.89213369 0.92824652 15.02391783 -2 16 C-4.6875 15.0625 -4.6875 15.0625 -7 14 C-3.77208445 11.8480563 -2.71599191 11.79913557 1 12 C1 10.35 1 8.7 1 7 C0.34 7 -0.32 7 -1 7 C-1.33 6.01 -1.66 5.02 -2 4 C-1.34 4 -0.68 4 0 4 C0 2.68 0 1.36 0 0 Z " fill="#E4E6BF" transform="translate(132,88)"/>
<path d="M0 0 C0 1.32 0 2.64 0 4 C0.66 4 1.32 4 2 4 C1.67 5.32 1.34 6.64 1 8 C-1.97 7.505 -1.97 7.505 -5 7 C-5 6.34 -5 5.68 -5 5 C-5.66 5 -6.32 5 -7 5 C-6.67 3.68 -6.34 2.36 -6 1 C-6 1.66 -6 2.32 -6 3 C-5.38125 2.505 -4.7625 2.01 -4.125 1.5 C-2 0 -2 0 0 0 Z " fill="#A1D2E1" transform="translate(56,112)"/>
<path d="M0 0 C0.99 0.495 0.99 0.495 2 1 C2 1.66 2 2.32 2 3 C2.99 3.33 3.98 3.66 5 4 C6.140625 5.62890625 6.140625 5.62890625 7.25 7.5625 C8.45681386 9.49455486 8.45681386 9.49455486 10 11 C13.71158857 11.58560449 13.71158857 11.58560449 17 11 C17.33 10.34 17.66 9.68 18 9 C18.66 9 19.32 9 20 9 C19.375 10.9375 19.375 10.9375 18 13 C14.7073949 14.09753503 12.82047021 14.31556547 9.5625 13.0625 C5.92632699 10.13582416 2.68118771 6.83247581 0 3 C0 2.01 0 1.02 0 0 Z " fill="#B5CDD9" transform="translate(72,100)"/>
<path d="M0 0 C1.98 0 3.96 0 6 0 C6.33 0.66 6.66 1.32 7 2 C7.99 2.33 8.98 2.66 10 3 C9.67 3.66 9.34 4.32 9 5 C8.34 5 7.68 5 7 5 C6.67 5.66 6.34 6.32 6 7 C5.38125 6.835 4.7625 6.67 4.125 6.5 C2.03936614 5.92365356 2.03936614 5.92365356 0 6 C0 4.02 0 2.04 0 0 Z " fill="#A1D1DF" transform="translate(39,108)"/>
<path d="M0 0 C4.24223102 -0.3636198 6.58168085 0.4606772 10 3 C10 3.66 10 4.32 10 5 C10.66 5.33 11.32 5.66 12 6 C11.01 6 10.02 6 9 6 C9 7.65 9 9.3 9 11 C6.36 11 3.72 11 1 11 C1 10.67 1 10.34 1 10 C2.65 10 4.3 10 6 10 C6.144375 9.38125 6.28875 8.7625 6.4375 8.125 C7 6 7 6 8 4 C7.01 4 6.02 4 5 4 C4.67 3.34 4.34 2.68 4 2 C1.98330173 0.86649466 1.98330173 0.86649466 0 0 Z " fill="#865881" transform="translate(96,76)"/>
<path d="M0 0 C1.98 0.66 3.96 1.32 6 2 C6 2.66 6 3.32 6 4 C7.32 4.66 8.64 5.32 10 6 C9.01 6.33 8.02 6.66 7 7 C6.67 7.99 6.34 8.98 6 10 C5.6596875 9.1028125 5.6596875 9.1028125 5.3125 8.1875 C3.66188867 5.43648112 1.8027919 4.47515363 -1 3 C-0.67 2.01 -0.34 1.02 0 0 Z " fill="#EED6E4" transform="translate(41,58)"/>
<path d="M0 0 C0.33 0 0.66 0 1 0 C1 2.97 1 5.94 1 9 C-3.455 9.495 -3.455 9.495 -8 10 C-8 9.01 -8 8.02 -8 7 C-7.05125 6.773125 -6.1025 6.54625 -5.125 6.3125 C-1.80676612 5.30916286 -1.80676612 5.30916286 -0.625 2.375 C-0.41875 1.59125 -0.2125 0.8075 0 0 Z " fill="#412143" transform="translate(124,101)"/>
<path d="M0 0 C3.96 0 7.92 0 12 0 C12.33 1.65 12.66 3.3 13 5 C11.35 5.33 9.7 5.66 8 6 C8 4.68 8 3.36 8 2 C5.36 1.67 2.72 1.34 0 1 C0 0.67 0 0.34 0 0 Z " fill="#C93D38" transform="translate(75,89)"/>
<path d="M0 0 C4.62 0 9.24 0 14 0 C11 4 11 4 8.95703125 4.390625 C6.97135417 4.26041667 4.98567708 4.13020833 3 4 C3 3.34 3 2.68 3 2 C2.01 1.34 1.02 0.68 0 0 Z " fill="#CDCFCF" transform="translate(48,98)"/>
<path d="M0 0 C2.97 0 5.94 0 9 0 C8.67 1.65 8.34 3.3 8 5 C5.69 4.67 3.38 4.34 1 4 C0.67 2.68 0.34 1.36 0 0 Z " fill="#EFDD66" transform="translate(61,71)"/>
<path d="M0 0 C2 2 2 2 2 4 C1.01 4.33 0.02 4.66 -1 5 C-0.67 5.99 -0.34 6.98 0 8 C-5.75 6.25 -5.75 6.25 -8 4 C-5.09399739 2.74335022 -3.20395416 2 0 2 C0 1.34 0 0.68 0 0 Z " fill="#D25564" transform="translate(125,108)"/>
<path d="M0 0 C1.8871875 0.0309375 1.8871875 0.0309375 3.8125 0.0625 C3.1525 1.3825 2.4925 2.7025 1.8125 4.0625 C-1.5625 4.25 -1.5625 4.25 -5.1875 4.0625 C-5.8475 3.0725 -6.5075 2.0825 -7.1875 1.0625 C-4.43671116 0.14557039 -2.82801087 -0.04636083 0 0 Z " fill="#255A82" transform="translate(87.1875,107.9375)"/>
<path d="M0 0 C0.66 0.33 1.32 0.66 2 1 C1.67 1.99 1.34 2.98 1 4 C-4.36363018 6.12310361 -9.28357882 6.23332331 -15 6 C-15 5.67 -15 5.34 -15 5 C-13.35 5 -11.7 5 -10 5 C-10 4.34 -10 3.68 -10 3 C-6.7 3 -3.4 3 0 3 C0 2.01 0 1.02 0 0 Z " fill="#B0ABBB" transform="translate(105,84)"/>
<path d="M0 0 C0 0.99 0 1.98 0 3 C-5.14285714 7 -5.14285714 7 -9 7 C-9 6.01 -9 5.02 -9 4 C-3.85714286 0 -3.85714286 0 0 0 Z " fill="#F1F5F4" transform="translate(39,115)"/>
<path d="M0 0 C1.98 0.66 3.96 1.32 6 2 C6 2.66 6 3.32 6 4 C5.01 4.495 5.01 4.495 4 5 C4 5.99 4 6.98 4 8 C3.01 8 2.02 8 1 8 C1 6.68 1 5.36 1 4 C0.01 4 -0.98 4 -2 4 C-2 3.34 -2 2.68 -2 2 C-1.34 2 -0.68 2 0 2 C0 1.34 0 0.68 0 0 Z " fill="#A188B6" transform="translate(95,76)"/>
<path d="M0 0 C1.32 0.33 2.64 0.66 4 1 C4.33 2.98 4.66 4.96 5 7 C4.34 7 3.68 7 3 7 C3 6.34 3 5.68 3 5 C2.34 5 1.68 5 1 5 C1.33 6.32 1.66 7.64 2 9 C0.68 8.67 -0.64 8.34 -2 8 C-1.34 5.36 -0.68 2.72 0 0 Z " fill="#2C303F" transform="translate(61,89)"/>
<path d="M0 0 C-1.75 3.875 -1.75 3.875 -4 5 C-6.3329866 5.04022391 -8.66706666 5.04320247 -11 5 C-11 4.01 -11 3.02 -11 2 C-9.5422647 1.664061 -8.08378894 1.33133376 -6.625 1 C-5.40683594 0.7215625 -5.40683594 0.7215625 -4.1640625 0.4375 C-2 0 -2 0 0 0 Z " fill="#7DB068" transform="translate(104,69)"/>
<path d="M0 0 C0.99 0 1.98 0 3 0 C3 0.66 3 1.32 3 2 C4.32 2 5.64 2 7 2 C7.99 3.32 8.98 4.64 10 6 C6.37 5.67 2.74 5.34 -1 5 C-0.67 3.35 -0.34 1.7 0 0 Z " fill="#D794AE" transform="translate(48,65)"/>
<path d="M0 0 C1.32 0 2.64 0 4 0 C4.33 0.99 4.66 1.98 5 3 C1.30827405 6.53790403 -2.09390595 6.59115883 -7 7 C-4 5 -4 5 -1 5 C-0.67 3.35 -0.34 1.7 0 0 Z " fill="#D5EFF1" transform="translate(112,62)"/>
<path d="M0 0 C3 2 3 2 5 5 C5.125 7.6875 5.125 7.6875 5 10 C3.68 9.67 2.36 9.34 1 9 C0.67 6.03 0.34 3.06 0 0 Z " fill="#D793A7" transform="translate(125,102)"/>
<path d="M0 0 C3.63 0.33 7.26 0.66 11 1 C11 1.66 11 2.32 11 3 C10.38511719 2.96519531 9.77023438 2.93039063 9.13671875 2.89453125 C7.92435547 2.85392578 7.92435547 2.85392578 6.6875 2.8125 C5.88699219 2.77769531 5.08648437 2.74289063 4.26171875 2.70703125 C1.52148416 3.06198392 0.70828921 3.89366282 -1 6 C-0.67 4.02 -0.34 2.04 0 0 Z " fill="#3381A4" transform="translate(46,104)"/>
<path d="M0 0 C1.258125 -0.04125 2.51625 -0.0825 3.8125 -0.125 C4.52019531 -0.14820312 5.22789063 -0.17140625 5.95703125 -0.1953125 C8 0 8 0 11 2 C8.59454362 3.20272819 7.05003047 3.10071472 4.375 3.0625 C3.14910156 3.04896484 3.14910156 3.04896484 1.8984375 3.03515625 C0.95871094 3.01775391 0.95871094 3.01775391 0 3 C0 2.01 0 1.02 0 0 Z " fill="#B93E82" transform="translate(113,91)"/>
<path d="M0 0 C0.33 0.99 0.66 1.98 1 3 C1.66 3.66 2.32 4.32 3 5 C-4.92 5.495 -4.92 5.495 -13 6 C-13 5.67 -13 5.34 -13 5 C-12.09507813 4.83564453 -12.09507813 4.83564453 -11.171875 4.66796875 C-5.06315013 3.49202872 -5.06315013 3.49202872 0 0 Z " fill="#A5DEE7" transform="translate(117,64)"/>
<path d="M0 0 C-0.66 0 -1.32 0 -2 0 C-2.33 1.32 -2.66 2.64 -3 4 C-4.98 4 -6.96 4 -9 4 C-9 2.68 -9 1.36 -9 0 C-3.375 -1.125 -3.375 -1.125 0 0 Z " fill="#BC4E4A" transform="translate(48,104)"/>
<path d="M0 0 C0.33 0.66 0.66 1.32 1 2 C0.34 2 -0.32 2 -1 2 C-1 2.99 -1 3.98 -1 5 C-2.98 5.66 -4.96 6.32 -7 7 C-7.33 5.35 -7.66 3.7 -8 2 C-5.36 1.34 -2.72 0.68 0 0 Z " fill="#C3AC3B" transform="translate(124,92)"/>
<path d="M0 0 C0.99 0 1.98 0 3 0 C3.33 1.98 3.66 3.96 4 6 C2.35 6 0.7 6 -1 6 C-1 5.34 -1 4.68 -1 4 C-1.66 3.67 -2.32 3.34 -3 3 C-2.01 2.67 -1.02 2.34 0 2 C0 1.34 0 0.68 0 0 Z " fill="#D9EBF2" transform="translate(132,68)"/>
<path d="M0 0 C-2.46278801 2.46278801 -4.70676982 2.99771255 -8 4 C-8 4.66 -8 5.32 -8 6 C-7.34 6.33 -6.68 6.66 -6 7 C-7.32 7 -8.64 7 -10 7 C-10.1875 4.625 -10.1875 4.625 -10 2 C-6.3558226 -0.4294516 -4.28758728 -0.16179575 0 0 Z " fill="#E7E4E4" transform="translate(135,85)"/>
<path d="M0 0 C1.65 0 3.3 0 5 0 C4.34 0.66 3.68 1.32 3 2 C2.83318891 5.08347826 2.83318891 5.08347826 3 8 C1.02 8 -0.96 8 -3 8 C-2.67 6.68 -2.34 5.36 -2 4 C-1.34 4.33 -0.68 4.66 0 5 C0 3.35 0 1.7 0 0 Z " fill="#F8F0EE" transform="translate(125,113)"/>
<path d="M0 0 C3 3.875 3 3.875 3 5 C-0.63 5 -4.26 5 -8 5 C-8 4.01 -8 3.02 -8 2 C-5.36 2.33 -2.72 2.66 0 3 C0 2.01 0 1.02 0 0 Z " fill="#73744B" transform="translate(115,95)"/>
<path d="M0 0 C1.98 0 3.96 0 6 0 C6.33 1.32 6.66 2.64 7 4 C5.02 4 3.04 4 1 4 C0.67 2.68 0.34 1.36 0 0 Z " fill="#6D6AA0" transform="translate(101,112)"/>
<path d="M0 0 C0 3.83764027 -1.26535335 5.11486085 -3.5 8.1875 C-4.1496875 9.08855469 -4.799375 9.98960938 -5.46875 10.91796875 C-5.9740625 11.60503906 -6.479375 12.29210937 -7 13 C-7.33 12.01 -7.66 11.02 -8 10 C-7.34 10 -6.68 10 -6 10 C-5.938125 9.46375 -5.87625 8.9275 -5.8125 8.375 C-4.61972618 4.88843038 -2.43802834 2.75059607 0 0 Z " fill="#D1CBD1" transform="translate(100,96)"/>
<path d="M0 0 C1.65 0 3.3 0 5 0 C4.6875 1.9375 4.6875 1.9375 4 4 C0.52674819 5.1577506 -2.36067448 5.06866652 -6 5 C-6 4.67 -6 4.34 -6 4 C-4.35 3.67 -2.7 3.34 -1 3 C-0.67 2.01 -0.34 1.02 0 0 Z " fill="#322334" transform="translate(59,81)"/>
<path d="M0 0 C2.31 0 4.62 0 7 0 C7 0.99 7 1.98 7 3 C3.7 3.33 0.4 3.66 -3 4 C-2.01 3.67 -1.02 3.34 0 3 C0 2.01 0 1.02 0 0 Z " fill="#7AC7E3" transform="translate(59,66)"/>
<path d="M0 0 C1.98 0.495 1.98 0.495 4 1 C3.01 1.495 3.01 1.495 2 2 C2.79117904 3.99983534 2.79117904 3.99983534 4 6 C4.99 6.33 5.98 6.66 7 7 C4.36 7 1.72 7 -1 7 C-0.67 4.69 -0.34 2.38 0 0 Z " fill="#519BBD" transform="translate(57,105)"/>
<path d="M0 0 C2.31 0 4.62 0 7 0 C5.8125 2 5.8125 2 4 4 C1.3125 4.25 1.3125 4.25 -1 4 C-0.67 2.68 -0.34 1.36 0 0 Z " fill="#7D2D62" transform="translate(74,96)"/>
<path d="M0 0 C2.31 0.33 4.62 0.66 7 1 C7 2.65 7 4.3 7 6 C5.68 5.67 4.36 5.34 3 5 C3 4.34 3 3.68 3 3 C1.54166642 1.37485532 1.54166642 1.37485532 0 0 Z " fill="#BE4695" transform="translate(118,86)"/>
<path d="M0 0 C-0.33 0.66 -0.66 1.32 -1 2 C-5.95 1.67 -10.9 1.34 -16 1 C-16 0.67 -16 0.34 -16 0 C-13.89651926 -0.19504458 -11.79217415 -0.38078496 -9.6875 -0.5625 C-8.51574219 -0.66691406 -7.34398438 -0.77132812 -6.13671875 -0.87890625 C-3 -1 -3 -1 0 0 Z " fill="#123662" transform="translate(125,80)"/>
<path d="M0 0 C0.33 1.32 0.66 2.64 1 4 C-3.455 4.495 -3.455 4.495 -8 5 C-8.33 3.68 -8.66 2.36 -9 1 C-6.36 1.33 -3.72 1.66 -1 2 C-0.67 1.34 -0.34 0.68 0 0 Z " fill="#5AB5CF" transform="translate(75,78)"/>
<path d="M0 0 C1.98 0.66 3.96 1.32 6 2 C6 3.65 6 5.3 6 7 C6.66 7 7.32 7 8 7 C8 7.66 8 8.32 8 9 C4.51866169 7.60746468 3.52113967 6.36823784 2 3 C1.34 2.67 0.68 2.34 0 2 C0 1.34 0 0.68 0 0 Z " fill="#BFC9D2" transform="translate(74,74)"/>
<path d="M0 0 C1.32 0 2.64 0 4 0 C4 0.99 4 1.98 4 3 C4.66 3 5.32 3 6 3 C6.33 2.01 6.66 1.02 7 0 C7.66 0.66 8.32 1.32 9 2 C7.6875 3.5 7.6875 3.5 6 5 C5.01 5 4.02 5 3 5 C1.3125 2.5 1.3125 2.5 0 0 Z " fill="#2C6E9C" transform="translate(58,106)"/>
<path d="M0 0 C0.33 0.99 0.66 1.98 1 3 C0 4 0 4 -2.06640625 4.09765625 C-2.89011719 4.08605469 -3.71382813 4.07445313 -4.5625 4.0625 C-5.38878906 4.05347656 -6.21507813 4.04445313 -7.06640625 4.03515625 C-7.70449219 4.02355469 -8.34257813 4.01195313 -9 4 C-6.21466571 0.88009102 -4.15654359 0.46183818 0 0 Z " fill="#C02E29" transform="translate(121,104)"/>
<path d="M0 0 C1.33333333 2.66666667 2.66666667 5.33333333 4 8 C2.35 8 0.7 8 -1 8 C-1.04241723 5.66705225 -1.04092937 3.33297433 -1 1 C-0.67 0.67 -0.34 0.34 0 0 Z " fill="#42367F" transform="translate(107,88)"/>
<path d="M0 0 C-0.66 1.65 -1.32 3.3 -2 5 C-2.66 5 -3.32 5 -4 5 C-4 4.34 -4 3.68 -4 3 C-5.65 2.67 -7.3 2.34 -9 2 C-9 1.67 -9 1.34 -9 1 C-2.25 -1.125 -2.25 -1.125 0 0 Z " fill="#321748" transform="translate(108,88)"/>
<path d="M0 0 C2.97 0.495 2.97 0.495 6 1 C6 1.99 6 2.98 6 4 C3.69 4 1.38 4 -1 4 C-0.67 2.68 -0.34 1.36 0 0 Z " fill="#C65797" transform="translate(38,85)"/>
<path d="M0 0 C1.22589844 0.01353516 1.22589844 0.01353516 2.4765625 0.02734375 C3.41628906 0.04474609 3.41628906 0.04474609 4.375 0.0625 C4.375 0.7225 4.375 1.3825 4.375 2.0625 C1.075 2.3925 -2.225 2.7225 -5.625 3.0625 C-5.955 2.4025 -6.285 1.7425 -6.625 1.0625 C-4.21954362 -0.14022819 -2.67503047 -0.03821472 0 0 Z " fill="#64697C" transform="translate(64.625,68.9375)"/>
<path d="M0 0 C1.32 0.33 2.64 0.66 4 1 C4.33 2.32 4.66 3.64 5 5 C4.01 5.33 3.02 5.66 2 6 C2 5.34 2 4.68 2 4 C1.34 4 0.68 4 0 4 C0 2.68 0 1.36 0 0 Z " fill="#C2CED6" transform="translate(56,112)"/>
<path d="M0 0 C0.33 0 0.66 0 1 0 C1.07347656 1.06541016 1.07347656 1.06541016 1.1484375 2.15234375 C1.22320312 3.07144531 1.29796875 3.99054688 1.375 4.9375 C1.44460937 5.85402344 1.51421875 6.77054687 1.5859375 7.71484375 C1.72257812 8.46894531 1.85921875 9.22304687 2 10 C2.66 10.33 3.32 10.66 4 11 C2.35 11.33 0.7 11.66 -1 12 C-0.67 8.04 -0.34 4.08 0 0 Z " fill="#6A7875" transform="translate(103,91)"/>
<path d="M0 0 C2.64 0.33 5.28 0.66 8 1 C8 1.99 8 2.98 8 4 C5.36 3.67 2.72 3.34 0 3 C0 2.01 0 1.02 0 0 Z " fill="#EDDA45" transform="translate(85,100)"/>
<path d="M0 0 C2.475 0.495 2.475 0.495 5 1 C5 1.66 5 2.32 5 3 C5.66 3.33 6.32 3.66 7 4 C4.69 4 2.38 4 0 4 C0 2.68 0 1.36 0 0 Z " fill="#EDE7ED" transform="translate(88,85)"/>
<path d="M0 0 C-0.33 0.99 -0.66 1.98 -1 3 C-3.31 3.33 -5.62 3.66 -8 4 C-8 3.01 -8 2.02 -8 1 C-2.25 -1.125 -2.25 -1.125 0 0 Z " fill="#26509D" transform="translate(127,81)"/>
<path d="M0 0 C1.32 0 2.64 0 4 0 C4 0.66 4 1.32 4 2 C5.98 2 7.96 2 10 2 C9.67 2.99 9.34 3.98 9 5 C8.67 4.67 8.34 4.34 8 4 C6.65252916 3.76924918 5.29622435 3.58846937 3.9375 3.4375 C2.638125 3.293125 1.33875 3.14875 0 3 C0 2.01 0 1.02 0 0 Z " fill="#90B5D3" transform="translate(127,72)"/>
<path d="M0 0 C-5.75 5 -5.75 5 -8 5 C-8.33 4.01 -8.66 3.02 -9 2 C-3.375 -1.125 -3.375 -1.125 0 0 Z " fill="#2695BF" transform="translate(58,110)"/>
<path d="M0 0 C2.64 0.66 5.28 1.32 8 2 C7.67 2.66 7.34 3.32 7 4 C5.35 4 3.7 4 2 4 C1.34 2.68 0.68 1.36 0 0 Z " fill="#DAE0DA" transform="translate(72,91)"/>
<path d="M0 0 C1.67542976 0.28604898 3.34385343 0.61781233 5 1 C5 1.66 5 2.32 5 3 C2.36 3.66 -0.28 4.32 -3 5 C-1.125 1.125 -1.125 1.125 0 0 Z " fill="#1F446E" transform="translate(110,82)"/>
<path d="M0 0 C2.03144641 0.93446535 4.03533587 1.93224776 6 3 C6 3.66 6 4.32 6 5 C2.31245243 4.50168276 0.39509338 3.89932357 -2 1 C-1.34 0.67 -0.68 0.34 0 0 Z " fill="#E3D2D8" transform="translate(138,109)"/>
<path d="M0 0 C0.99 0 1.98 0 3 0 C3 1.65 3 3.3 3 5 C1.35 5 -0.3 5 -2 5 C-2 4.34 -2 3.68 -2 3 C-1.34 3 -0.68 3 0 3 C0 2.01 0 1.02 0 0 Z " fill="#D7BFC9" transform="translate(136,102)"/>
<path d="M0 0 C0.99 0.33 1.98 0.66 3 1 C2.67 2.98 2.34 4.96 2 7 C1.34 7 0.68 7 0 7 C-0.66 5.35 -1.32 3.7 -2 2 C-1.34 1.34 -0.68 0.68 0 0 Z " fill="#1C4653" transform="translate(62,102)"/>
<path d="M0 0 C2.31 0 4.62 0 7 0 C5.84826645 2.46800047 4.95216435 4.04783565 3 6 C2.814375 5.071875 2.814375 5.071875 2.625 4.125 C2.12802644 1.80879168 2.12802644 1.80879168 0 0 Z " fill="#343C3A" transform="translate(92,96)"/>
<path d="M0 0 C2.29633824 3.44450737 2.54016485 5.93812283 3 10 C2.34 10 1.68 10 1 10 C1 9.01 1 8.02 1 7 C0.34 7 -0.32 7 -1 7 C-1.33 6.01 -1.66 5.02 -2 4 C-1.34 4 -0.68 4 0 4 C0 2.68 0 1.36 0 0 Z " fill="#F3EDC7" transform="translate(132,88)"/>
<path d="M0 0 C0.33 0.99 0.66 1.98 1 3 C1.66 3 2.32 3 3 3 C3 3.66 3 4.32 3 5 C4.32 5 5.64 5 7 5 C7 5.99 7 6.98 7 8 C1.125 6.125 1.125 6.125 0 5 C-0.04063832 3.33382885 -0.042721 1.66611905 0 0 Z " fill="#6686B8" transform="translate(34,93)"/>
<path d="M0 0 C0.33 0.99 0.66 1.98 1 3 C-2.63 2.67 -6.26 2.34 -10 2 C-10 1.67 -10 1.34 -10 1 C-3.375 0 -3.375 0 0 0 Z " fill="#2E4F79" transform="translate(63,85)"/>
<path d="M0 0 C1.65 0 3.3 0 5 0 C5.33 1.32 5.66 2.64 6 4 C4.35 4 2.7 4 1 4 C0.67 2.68 0.34 1.36 0 0 Z " fill="#CAE5E4" transform="translate(35,99)"/>
<path d="M0 0 C2.64 0 5.28 0 8 0 C7.67 0.99 7.34 1.98 7 3 C4.69 2.67 2.38 2.34 0 2 C0 1.34 0 0.68 0 0 Z " fill="#E3C843" transform="translate(62,73)"/>
</svg>
