<?xml version="1.0" encoding="UTF-8"?>
<svg version="1.1" xmlns="http://www.w3.org/2000/svg" width="180" height="180">
<path d="M0 0 C59.4 0 118.8 0 180 0 C180 59.4 180 118.8 180 180 C120.6 180 61.2 180 0 180 C0 120.6 0 61.2 0 0 Z " fill="#FEFEFE" transform="translate(0,0)"/>
<path d="M0 0 C-1.75 4.875 -1.75 4.875 -4 6 C-4.1546875 6.86625 -4.1546875 6.86625 -4.3125 7.75 C-5.33199312 11.08652293 -7.42192223 12.72883625 -10 15 C-10.99 15.33 -11.98 15.66 -13 16 C-12.01 17.485 -12.01 17.485 -11 19 C-8.41619823 19.25030977 -8.41619823 19.25030977 -6 19 C-6.66 20.65 -7.32 22.3 -8 24 C-8.66 24 -9.32 24 -10 24 C-10.33 25.32 -10.66 26.64 -11 28 C-10.35160156 28.38414063 -9.70320312 28.76828125 -9.03515625 29.1640625 C-7 31 -7 31 -6.43359375 33.5234375 C-6.44417656 41.24888724 -6.44417656 41.24888724 -9.3125 45.125 C-11.92255403 46.94596793 -13.97115714 47.78176061 -17.0625 48.4375 C-19.21494672 48.89366755 -19.21494672 48.89366755 -21 51 C-21.46006346 53.20250992 -21.46006346 53.20250992 -21.625 55.625 C-21.73714844 56.85089844 -21.73714844 56.85089844 -21.8515625 58.1015625 C-21.90054688 58.72804687 -21.94953125 59.35453125 -22 60 C-20.906875 60.103125 -19.81375 60.20625 -18.6875 60.3125 C-14.02747253 61.18131868 -14.02747253 61.18131868 -12 64 C-11.70703125 66.48046875 -11.70703125 66.48046875 -11.8125 69.1875 C-11.85310547 70.53908203 -11.85310547 70.53908203 -11.89453125 71.91796875 C-11.92933594 72.60503906 -11.96414062 73.29210937 -12 74 C-13.65 74.66 -15.3 75.32 -17 76 C-16.34 77.32 -15.68 78.64 -15 80 C-15.99 80 -16.98 80 -18 80 C-18.66 79.34 -19.32 78.68 -20 78 C-20 78.66 -20 79.32 -20 80 C-19.566875 80.4125 -19.13375 80.825 -18.6875 81.25 C-16.46678553 83.55296316 -15.34473539 86.11842417 -14 89 C-14.33 89.33 -14.66 89.66 -15 90 C-12.69 91.32 -10.38 92.64 -8 94 C-8.33 95.65 -8.66 97.3 -9 99 C-10.65 99.33 -12.3 99.66 -14 100 C-14.33 99.34 -14.66 98.68 -15 98 C-15.7425 98.185625 -16.485 98.37125 -17.25 98.5625 C-19.94990963 98.99203108 -21.44631077 98.85122974 -24 98 C-23.67 99.65 -23.34 101.3 -23 103 C-22.34 103 -21.68 103 -21 103 C-21.495 104.98 -21.495 104.98 -22 107 C-23.485 106.01 -23.485 106.01 -25 105 C-25.66 105 -26.32 105 -27 105 C-26.67 106.65 -26.34 108.3 -26 110 C-27.485 109.505 -27.485 109.505 -29 109 C-29.33 108.34 -29.66 107.68 -30 107 C-30.66 106.855625 -31.32 106.71125 -32 106.5625 C-32.99 106.2840625 -32.99 106.2840625 -34 106 C-34.33 105.01 -34.66 104.02 -35 103 C-36.2375 102.5359375 -36.2375 102.5359375 -37.5 102.0625 C-38.325 101.711875 -39.15 101.36125 -40 101 C-40.8125 98.875 -40.8125 98.875 -41 97 C-42.65 96.67 -44.3 96.34 -46 96 C-46.33 94.68 -46.66 93.36 -47 92 C-47.66 92 -48.32 92 -49 92 C-49.09765625 85.84765625 -49.09765625 85.84765625 -49 84 C-48.67 83.67 -48.34 83.34 -48 83 C-48.05386382 81.36025014 -48.18121456 79.7227913 -48.33984375 78.08984375 C-48.43330078 77.10048828 -48.52675781 76.11113281 -48.62304688 75.09179688 C-48.72681641 74.05087891 -48.83058594 73.00996094 -48.9375 71.9375 C-49.03740234 70.89271484 -49.13730469 69.84792969 -49.24023438 68.77148438 C-49.48868621 66.18048671 -49.74215994 63.59007752 -50 61 C-50.45503906 62.08796875 -50.91007812 63.1759375 -51.37890625 64.296875 C-52.42402885 66.79569503 -53.53345792 68.89483264 -54.9375 71.25 C-56.65625415 74.15566739 -57.78202291 77.05723704 -58.875 80.25 C-60.97081807 86.13786244 -63.15748535 92.01019425 -67 97 C-70.6875 98.375 -70.6875 98.375 -74 98 C-77.40917732 95.52386068 -78.81986562 91.58512481 -80.5625 87.875 C-82.42502832 83.18835813 -82.42502832 83.18835813 -86 80 C-86.87922928 78.13417682 -87.68001921 76.23097938 -88.4375 74.3125 C-90.13489538 70.09914284 -91.88073618 66.01544723 -94 62 C-94.33 62.33 -94.66 62.66 -95 63 C-94.88318202 65.33635951 -94.70670488 67.66987225 -94.5 70 C-94.29329512 72.33012775 -94.11681798 74.66364049 -94 77 C-94.33 77.33 -94.66 77.66 -95 78 C-95.04092937 80.33297433 -95.04241723 82.66705225 -95 85 C-93.68 85.33 -92.36 85.66 -91 86 C-91.47346835 90.26121515 -93.96139438 92.18373138 -97 95 C-97.66 95.66 -98.32 96.32 -99 97 C-101.1640625 97.4140625 -101.1640625 97.4140625 -103.625 97.625 C-104.85089844 97.73714844 -104.85089844 97.73714844 -106.1015625 97.8515625 C-106.72804687 97.90054688 -107.35453125 97.94953125 -108 98 C-108.33 100.31 -108.66 102.62 -109 105 C-108.01 105 -107.02 105 -106 105 C-106.66 106.98 -107.32 108.96 -108 111 C-108.66 111 -109.32 111 -110 111 C-110.66 109.68 -111.32 108.36 -112 107 C-115.40320742 108.01176437 -116.75725331 108.64843582 -118.8125 111.625 C-119.204375 112.40875 -119.59625 113.1925 -120 114 C-120.66 113.67 -121.32 113.34 -122 113 C-121.71125 112.29875 -121.4225 111.5975 -121.125 110.875 C-119.37276318 106.39706145 -118 102.85344825 -118 98 C-123.68629044 99.66797853 -128.16800231 101.58224554 -133 105 C-133.66 105 -134.32 105 -135 105 C-133.79618552 102.50638429 -132.54571278 100.31856917 -131 98 C-130.11774508 95.34807587 -129.57588323 92.74652004 -129 90 C-129.33 89.67 -129.66 89.34 -130 89 C-130.04063832 87.33382885 -130.042721 85.66611905 -130 84 C-126.535 83.01 -126.535 83.01 -123 82 C-123.33 79.69 -123.66 77.38 -124 75 C-125.32 75.99 -126.64 76.98 -128 78 C-128.66 77.67 -129.32 77.34 -130 77 C-129.34 75.68 -128.68 74.36 -128 73 C-128.94875 73.04125 -129.8975 73.0825 -130.875 73.125 C-134 73 -134 73 -136 71 C-136.265625 67.8125 -136.265625 67.8125 -136.25 64 C-136.25515625 62.741875 -136.2603125 61.48375 -136.265625 60.1875 C-136 57 -136 57 -134 55 C-133.62875 53.845 -133.2575 52.69 -132.875 51.5 C-131 48 -131 48 -129.02734375 47.09765625 C-126.8125 46.5625 -126.8125 46.5625 -123 46 C-123.54269531 45.81824219 -124.08539063 45.63648438 -124.64453125 45.44921875 C-125.71767578 45.07216797 -125.71767578 45.07216797 -126.8125 44.6875 C-127.52019531 44.44386719 -128.22789062 44.20023438 -128.95703125 43.94921875 C-131.19547761 42.9091758 -132.43739008 41.90047152 -134 40 C-135.01702117 36.9489365 -135.16582083 34.75800939 -135.1875 31.5625 C-135.20167969 30.61503906 -135.21585938 29.66757813 -135.23046875 28.69140625 C-134.99374576 25.92696324 -134.31394094 24.39937042 -133 22 C-133 19.14473341 -133.3866014 17.62189443 -135.41015625 15.5703125 C-136.89662012 14.32632146 -138.44538294 13.15769355 -140 12 C-136.00095031 12 -134.19799578 13.72586967 -131 16 C-130.67 15.01 -130.34 14.02 -130 13 C-126.50242203 11.83414068 -125.38431934 12.24139708 -121.9375 13.3125 C-121.05964844 13.57675781 -120.18179688 13.84101562 -119.27734375 14.11328125 C-117 15 -117 15 -115 17 C-113.17487193 17.75024461 -113.17487193 17.75024461 -111.125 18.25 C-110.10792969 18.53617188 -110.10792969 18.53617188 -109.0703125 18.828125 C-106.94971363 19.18616377 -106.94971363 19.18616377 -105.0703125 18.0234375 C-102.38372354 16.69535013 -100.69381425 16.98765602 -97.75 17.375 C-96.85796875 17.48585938 -95.9659375 17.59671875 -95.046875 17.7109375 C-94.37140625 17.80632813 -93.6959375 17.90171875 -93 18 C-92.505 19.485 -92.505 19.485 -92 21 C-89.99983534 22.20882096 -89.99983534 22.20882096 -88 23 C-88 23.66 -88 24.32 -88 25 C-87.34 25 -86.68 25 -86 25 C-81.33333333 34.33333333 -76.66666667 43.66666667 -72 53 C-71.01 51.68 -70.02 50.36 -69 49 C-68.01 50.98 -67.02 52.96 -66 55 C-59.3293944 55.40023634 -53.35983051 55.70451943 -47.42578125 52.2890625 C-45.6738258 50.92611202 -45.6738258 50.92611202 -45 47.75 C-45 46.8425 -45 45.935 -45 45 C-45.66 45 -46.32 45 -47 45 C-46.938125 45.78375 -46.87625 46.5675 -46.8125 47.375 C-46.9053125 48.674375 -46.9053125 48.674375 -47 50 C-51.40473239 52.93648826 -55.8300301 52.82431409 -61 52 C-62.875 49.5 -62.875 49.5 -64 47 C-66.62694422 46.58219121 -66.62694422 46.58219121 -69 47 C-68.125 41.25 -68.125 41.25 -67 39 C-66.34 39.33 -65.68 39.66 -65 40 C-65.495 40.99 -65.495 40.99 -66 42 C-65.34 42 -64.68 42 -64 42 C-64.50603992 39.83125748 -64.99983813 38.00032373 -66 36 C-64.02 35.67 -62.04 35.34 -60 35 C-59.87625 34.443125 -59.7525 33.88625 -59.625 33.3125 C-58.94023145 30.77885636 -58.00866237 28.42078968 -57 26 C-58.65 25.67 -60.3 25.34 -62 25 C-62 23.68 -62 22.36 -62 21 C-60.7625 20.896875 -59.525 20.79375 -58.25 20.6875 C-54.3173933 20.23805923 -50.48796995 19.55220373 -46.625 18.6875 C-45.62726563 18.46449219 -44.62953125 18.24148437 -43.6015625 18.01171875 C-39.30941535 16.34255041 -37.86610921 13.01931213 -36 9 C-36 9.99 -36 10.98 -36 12 C-34.68 12 -33.36 12 -32 12 C-31.67 11.34 -31.34 10.68 -31 10 C-31 10.99 -31 11.98 -31 13 C-29.35 12.34 -27.7 11.68 -26 11 C-25.01 11.99 -24.02 12.98 -23 14 C-17.7770519 12.8534992 -15.33475442 10.56585391 -11.80078125 6.8203125 C-8.44939524 3.4325774 -4.92850969 0 0 0 Z " fill="#513D82" transform="translate(162,35)"/>
<path d="M0 0 C-1.75 4.875 -1.75 4.875 -4 6 C-4.103125 6.5775 -4.20625 7.155 -4.3125 7.75 C-5.33199312 11.08652293 -7.42192223 12.72883625 -10 15 C-10.99 15.33 -11.98 15.66 -13 16 C-12.34 16.99 -11.68 17.98 -11 19 C-8.41619823 19.25030977 -8.41619823 19.25030977 -6 19 C-6.66 20.65 -7.32 22.3 -8 24 C-8.66 24 -9.32 24 -10 24 C-10.33 25.32 -10.66 26.64 -11 28 C-10.02740234 28.57621094 -10.02740234 28.57621094 -9.03515625 29.1640625 C-7 31 -7 31 -6.43359375 33.5234375 C-6.44417656 41.24888724 -6.44417656 41.24888724 -9.3125 45.125 C-11.92255403 46.94596793 -13.97115714 47.78176061 -17.0625 48.4375 C-19.21494672 48.89366755 -19.21494672 48.89366755 -21 51 C-21.46006346 53.20250992 -21.46006346 53.20250992 -21.625 55.625 C-21.69976562 56.44226563 -21.77453125 57.25953125 -21.8515625 58.1015625 C-21.90054688 58.72804687 -21.94953125 59.35453125 -22 60 C-20.906875 60.103125 -19.81375 60.20625 -18.6875 60.3125 C-14.02747253 61.18131868 -14.02747253 61.18131868 -12 64 C-11.70703125 66.48046875 -11.70703125 66.48046875 -11.8125 69.1875 C-11.85310547 70.53908203 -11.85310547 70.53908203 -11.89453125 71.91796875 C-11.92933594 72.60503906 -11.96414062 73.29210937 -12 74 C-14.475 74.99 -14.475 74.99 -17 76 C-16.34 77.32 -15.68 78.64 -15 80 C-15.99 80 -16.98 80 -18 80 C-18.99 79.01 -18.99 79.01 -20 78 C-20 78.66 -20 79.32 -20 80 C-19.566875 80.4125 -19.13375 80.825 -18.6875 81.25 C-16.46678553 83.55296316 -15.34473539 86.11842417 -14 89 C-14.33 89.33 -14.66 89.66 -15 90 C-12.69 91.32 -10.38 92.64 -8 94 C-8.33 95.65 -8.66 97.3 -9 99 C-11.475 99.495 -11.475 99.495 -14 100 C-14.33 99.34 -14.66 98.68 -15 98 C-15.7425 98.185625 -16.485 98.37125 -17.25 98.5625 C-19.94990963 98.99203108 -21.44631077 98.85122974 -24 98 C-23.67 99.65 -23.34 101.3 -23 103 C-22.34 103 -21.68 103 -21 103 C-21.495 104.98 -21.495 104.98 -22 107 C-22.99 106.34 -23.98 105.68 -25 105 C-25.66 105 -26.32 105 -27 105 C-26.67 106.65 -26.34 108.3 -26 110 C-26.99 109.67 -27.98 109.34 -29 109 C-29.33 108.34 -29.66 107.68 -30 107 C-30.99 106.7834375 -30.99 106.7834375 -32 106.5625 C-32.66 106.376875 -33.32 106.19125 -34 106 C-34.33 105.01 -34.66 104.02 -35 103 C-36.2375 102.5359375 -36.2375 102.5359375 -37.5 102.0625 C-38.325 101.711875 -39.15 101.36125 -40 101 C-40.8125 98.875 -40.8125 98.875 -41 97 C-42.65 96.67 -44.3 96.34 -46 96 C-46.33 94.68 -46.66 93.36 -47 92 C-47.66 92 -48.32 92 -49 92 C-49.09765625 85.84765625 -49.09765625 85.84765625 -49 84 C-48.67 83.67 -48.34 83.34 -48 83 C-48.05386382 81.36025014 -48.18121456 79.7227913 -48.33984375 78.08984375 C-48.4800293 76.60581055 -48.4800293 76.60581055 -48.62304688 75.09179688 C-48.72681641 74.05087891 -48.83058594 73.00996094 -48.9375 71.9375 C-49.03740234 70.89271484 -49.13730469 69.84792969 -49.24023438 68.77148438 C-49.48868621 66.18048671 -49.74215994 63.59007752 -50 61 C-50.45246094 62.07894531 -50.90492187 63.15789062 -51.37109375 64.26953125 C-52.47184296 66.83751516 -53.62650394 69.28642156 -55.0625 71.6875 C-56.47413619 74.10094252 -57.79196858 76.48326787 -59 79 C-59.42317708 76.98177083 -59.84635417 74.96354167 -60.26953125 72.9453125 C-60.92308838 70.62953451 -60.92308838 70.62953451 -64 69 C-66.71863408 65.27976389 -66.21722008 61.41680826 -66 57 C-64.34170434 55.34170434 -62.21659052 55.79722238 -59.9375 55.6875 C-54.75726625 55.24174325 -50.05066191 54.47663763 -46 51 C-44.86521065 47.87866256 -44.86521065 47.87866256 -45 45 C-45.66 45 -46.32 45 -47 45 C-46.938125 45.78375 -46.87625 46.5675 -46.8125 47.375 C-46.9053125 48.674375 -46.9053125 48.674375 -47 50 C-51.40473239 52.93648826 -55.8300301 52.82431409 -61 52 C-62.875 49.5 -62.875 49.5 -64 47 C-66.62694422 46.58219121 -66.62694422 46.58219121 -69 47 C-68.125 41.25 -68.125 41.25 -67 39 C-66.34 39.33 -65.68 39.66 -65 40 C-65.33 40.66 -65.66 41.32 -66 42 C-65.34 42 -64.68 42 -64 42 C-64.50603992 39.83125748 -64.99983813 38.00032373 -66 36 C-63.03 35.505 -63.03 35.505 -60 35 C-59.87625 34.443125 -59.7525 33.88625 -59.625 33.3125 C-58.94023145 30.77885636 -58.00866237 28.42078968 -57 26 C-58.65 25.67 -60.3 25.34 -62 25 C-62 23.68 -62 22.36 -62 21 C-60.14375 20.8453125 -60.14375 20.8453125 -58.25 20.6875 C-54.3173933 20.23805923 -50.48796995 19.55220373 -46.625 18.6875 C-45.62726563 18.46449219 -44.62953125 18.24148437 -43.6015625 18.01171875 C-39.30941535 16.34255041 -37.86610921 13.01931213 -36 9 C-36 9.99 -36 10.98 -36 12 C-34.68 12 -33.36 12 -32 12 C-31.67 11.34 -31.34 10.68 -31 10 C-31 10.99 -31 11.98 -31 13 C-29.35 12.34 -27.7 11.68 -26 11 C-25.01 11.99 -24.02 12.98 -23 14 C-17.7770519 12.8534992 -15.33475442 10.56585391 -11.80078125 6.8203125 C-8.44939524 3.4325774 -4.92850969 0 0 0 Z " fill="#3A367A" transform="translate(162,35)"/>
<path d="M0 0 C3.45925163 1.2491742 6.14693203 2.67527795 9 5 C9.33 4.01 9.66 3.02 10 2 C13.49757797 0.83414068 14.61568066 1.24139708 18.0625 2.3125 C18.94035156 2.57675781 19.81820312 2.84101562 20.72265625 3.11328125 C23 4 23 4 25 6 C26.82512807 6.75024461 26.82512807 6.75024461 28.875 7.25 C29.89207031 7.53617188 29.89207031 7.53617188 30.9296875 7.828125 C33.05028637 8.18616377 33.05028637 8.18616377 34.9296875 7.0234375 C37.61627646 5.69535013 39.30618575 5.98765602 42.25 6.375 C43.14203125 6.48585938 44.0340625 6.59671875 44.953125 6.7109375 C45.96632813 6.85402344 45.96632813 6.85402344 47 7 C47.495 8.485 47.495 8.485 48 10 C50.00016466 11.20882096 50.00016466 11.20882096 52 12 C52 12.66 52 13.32 52 14 C52.66 14 53.32 14 54 14 C54 15.32 54 16.64 54 18 C53.34 18 52.68 18 52 18 C52.495 19.485 52.495 19.485 53 21 C51.72125 21.0825 50.4425 21.165 49.125 21.25 C46.94666582 21.45869931 46.94666582 21.45869931 45 22 C43.4100567 23.92064793 43.4100567 23.92064793 43 26 C41.68 26 40.36 26 39 26 C36.5633326 28.10822929 36.5633326 28.10822929 35 31 C35.13149826 33.75124253 35.13149826 33.75124253 36 36 C33 35 30 34 27 33 C23.4682767 33.25164613 19.96360501 33.64316122 16.4453125 34.0390625 C12.59731685 33.99543443 11.02473645 33.2998897 8 31 C4.35608859 26.97913224 4.67776437 22.77729527 4.69921875 17.62109375 C5.00661185 14.94238248 5.73225029 13.34356919 7 11 C7.14768913 8.48250172 7.14768913 8.48250172 6 6 C4.11539408 4.13627614 2.11227869 2.6179156 0 1 C0 0.67 0 0.34 0 0 Z " fill="#D84942" transform="translate(22,46)"/>
<path d="M0 0 C-1.75 4.875 -1.75 4.875 -4 6 C-4.103125 6.5775 -4.20625 7.155 -4.3125 7.75 C-5.33199312 11.08652293 -7.42192223 12.72883625 -10 15 C-10.99 15.33 -11.98 15.66 -13 16 C-12.34 16.99 -11.68 17.98 -11 19 C-8.41619823 19.25030977 -8.41619823 19.25030977 -6 19 C-6.66 20.65 -7.32 22.3 -8 24 C-8.66 24 -9.32 24 -10 24 C-11.63676257 25.9600281 -11.63676257 25.9600281 -13 28 C-14.98 27.67 -16.96 27.34 -19 27 C-19 26.01 -19 25.02 -19 24 C-19.99 24 -20.98 24 -22 24 C-21.94779297 24.92232422 -21.94779297 24.92232422 -21.89453125 25.86328125 C-21.86746094 26.67152344 -21.84039062 27.47976562 -21.8125 28.3125 C-21.76029297 29.51326172 -21.76029297 29.51326172 -21.70703125 30.73828125 C-22.06687495 33.51627459 -22.83241353 34.29427215 -25 36 C-28.78427942 37.89213971 -33.44287857 37.35785948 -37.6171875 37.5234375 C-41.12757598 38.0179726 -42.39156549 38.73126859 -45 41 C-45.66 41 -46.32 41 -47 41 C-47.1546875 39.8553125 -47.1546875 39.8553125 -47.3125 38.6875 C-47.76434916 35.97012877 -47.76434916 35.97012877 -49.5625 34.4375 C-50.036875 33.963125 -50.51125 33.48875 -51 33 C-51 31.68 -51 30.36 -51 29 C-53.31 29.33 -55.62 29.66 -58 30 C-57.67 28.68 -57.34 27.36 -57 26 C-58.65 25.67 -60.3 25.34 -62 25 C-62 23.68 -62 22.36 -62 21 C-60.7625 20.896875 -59.525 20.79375 -58.25 20.6875 C-54.3173933 20.23805923 -50.48796995 19.55220373 -46.625 18.6875 C-45.62726563 18.46449219 -44.62953125 18.24148437 -43.6015625 18.01171875 C-39.30941535 16.34255041 -37.86610921 13.01931213 -36 9 C-36 9.99 -36 10.98 -36 12 C-34.68 12 -33.36 12 -32 12 C-31.67 11.34 -31.34 10.68 -31 10 C-31 10.99 -31 11.98 -31 13 C-29.35 12.34 -27.7 11.68 -26 11 C-25.01 11.99 -24.02 12.98 -23 14 C-17.7770519 12.8534992 -15.33475442 10.56585391 -11.80078125 6.8203125 C-8.44939524 3.4325774 -4.92850969 0 0 0 Z " fill="#59BBD9" transform="translate(162,35)"/>
<path d="M0 0 C0.639375 0.165 1.27875 0.33 1.9375 0.5 C5.36538664 1.05965496 8.55112305 0.98524693 12.01171875 0.83984375 C14 1 14 1 16 3 C15.175 3.53625 14.35 4.0725 13.5 4.625 C10.68816142 6.79067794 10.68816142 6.79067794 10.625 10.125 C10.83209683 12.93733757 10.83209683 12.93733757 12 15 C14.32495277 15.38749213 16.6599583 15.71758117 19 16 C19.99 16.33 20.98 16.66 22 17 C21.51273438 17.40476562 21.02546875 17.80953125 20.5234375 18.2265625 C18.17607918 20.95912834 18.59340595 23.29904692 18.6953125 26.76953125 C19.09616029 29.7039426 20.19985065 31.67480709 22 34 C22.99 33.34 23.98 32.68 25 32 C27.91796875 31.5859375 27.91796875 31.5859375 31.1875 31.375 C32.27417969 31.30023438 33.36085937 31.22546875 34.48046875 31.1484375 C35.31191406 31.09945312 36.14335938 31.05046875 37 31 C35.89164581 36.05833987 33.99826058 40.76266235 31 45 C27.375 46.3125 27.375 46.3125 24 46 C20.58601564 43.53583806 19.17843805 39.58151327 17.4375 35.875 C15.57497168 31.18835813 15.57497168 31.18835813 12 28 C11.12077072 26.13417682 10.31998079 24.23097938 9.5625 22.3125 C7.86510462 18.09914284 6.11926382 14.01544723 4 10 C3.67 10.33 3.34 10.66 3 11 C3.11681798 13.33635951 3.29329512 15.66987225 3.5 18 C3.70670488 20.33012775 3.88318202 22.66364049 4 25 C3.67 25.33 3.34 25.66 3 26 C2.95907063 28.33297433 2.95758277 30.66705225 3 33 C4.32 33.33 5.64 33.66 7 34 C6.52653165 38.26121515 4.03860562 40.18373138 1 43 C0.34 43.66 -0.32 44.32 -1 45 C-3.125 44.625 -3.125 44.625 -5 44 C-4.34 42.35 -3.68 40.7 -3 39 C-4.32 39 -5.64 39 -7 39 C-7.33 38.34 -7.66 37.68 -8 37 C-10.2103915 36.43507236 -12.42211921 36.10796825 -14.67578125 35.7578125 C-17.5956898 34.80577509 -18.98891751 33.2733976 -21 31 C-18.89551062 31.14109986 -16.7914123 31.28804175 -14.6875 31.4375 C-13.51574219 31.51871094 -12.34398437 31.59992188 -11.13671875 31.68359375 C-8 32 -8 32 -5 33 C-3.42620334 28.86878377 -2.40946877 25.42898424 -3 21 C-4.88077873 19.08743288 -4.88077873 19.08743288 -7 18 C-6.125 13.125 -6.125 13.125 -5 12 C-4.76924918 10.65252916 -4.58846937 9.29622435 -4.4375 7.9375 C-4.293125 6.638125 -4.14875 5.33875 -4 4 C-2.68 4.66 -1.36 5.32 0 6 C0 5.01 0 4.02 0 3 C-0.66 2.67 -1.32 2.34 -2 2 C-1.34 2 -0.68 2 0 2 C0 1.34 0 0.68 0 0 Z " fill="#2A2B5B" transform="translate(64,87)"/>
<path d="M0 0 C3.53597175 -0.3289276 5.64609454 -0.16925913 8.875 1.375 C12.06992512 5.3216722 11.42009114 9.10827202 11 14 C9.35 14.66 7.7 15.32 6 16 C6.66 17.32 7.32 18.64 8 20 C7.01 20 6.02 20 5 20 C4.34 19.34 3.68 18.68 3 18 C2.77390663 20.12364481 2.77390663 20.12364481 4.5 21.625 C4.995 22.07875 5.49 22.5325 6 23 C4.02 23 2.04 23 0 23 C-0.474375 23.969375 -0.94875 24.93875 -1.4375 25.9375 C-3 29 -3 29 -4 30 C-6.77665837 30.24420122 -9.55216999 30.38388187 -12.3359375 30.5234375 C-15.27162488 31.04858979 -16.18901618 31.69623147 -18 34 C-18.474375 33.030625 -18.94875 32.06125 -19.4375 31.0625 C-20.70193947 28.19522563 -20.70193947 28.19522563 -22 27 C-22.37927169 22.06946799 -22.20076124 18.88663864 -19 15 C-15.58513037 13.41452482 -11.70189363 13.92880974 -8 14 C-8.66 13.34 -9.32 12.68 -10 12 C-10.125 8.375 -10.125 8.375 -10 5 C-8.70990357 4.49596232 -7.41786211 3.99690074 -6.125 3.5 C-5.04605469 3.08234375 -5.04605469 3.08234375 -3.9453125 2.65625 C-2 2 -2 2 0 2 C0 1.34 0 0.68 0 0 Z " fill="#CD3E38" transform="translate(139,95)"/>
<path d="M0 0 C0.66 0.99 1.32 1.98 2 3 C2.53625 3.721875 3.0725 4.44375 3.625 5.1875 C5.50398054 9.03086929 5.13558075 11.7292063 5 16 C5.11443256 18.31026274 5.11443256 18.31026274 6 20 C7.96672915 21.1500831 7.96672915 21.1500831 10 22 C11.12256131 24.24512262 11.13413762 25.51456649 11.125 28 C11.12886719 29.051875 11.12886719 29.051875 11.1328125 30.125 C11 32 11 32 10 34 C7.19921875 34.5625 7.19921875 34.5625 3.6875 35 C-0.29443115 35.49941354 -3.5228281 35.93945369 -7 38 C-7.309375 37.195625 -7.61875 36.39125 -7.9375 35.5625 C-8.76335345 33.10919595 -8.76335345 33.10919595 -10 32 C-10.203125 30.0390625 -10.203125 30.0390625 -10.25 27.625 C-10.27578125 26.83351563 -10.3015625 26.04203125 -10.328125 25.2265625 C-9.93070018 22.52975122 -9.07493465 21.69270985 -7 20 C-7.62648438 19.96261719 -8.25296875 19.92523438 -8.8984375 19.88671875 C-9.71570313 19.82097656 -10.53296875 19.75523438 -11.375 19.6875 C-12.18710938 19.62949219 -12.99921875 19.57148437 -13.8359375 19.51171875 C-16 19 -16 19 -18 16 C-18.5 13.125 -18.5 13.125 -18 10 C-15.87377691 7.3565875 -14.98888853 6.30516682 -12 5 C-8.29248782 4.5982257 -4.71250586 4.7027353 -1 5 C-0.67 3.35 -0.34 1.7 0 0 Z " fill="#CD3733" transform="translate(92,84)"/>
<path d="M0 0 C3.32130587 1.66065294 4.30840874 5.27363733 5.875 8.5 C6.21402344 9.18320313 6.55304688 9.86640625 6.90234375 10.5703125 C9.40592548 15.65363053 11.73058518 20.80842898 14 26 C10.62516587 26.08767555 7.25062785 26.14061628 3.875 26.1875 C2.44800781 26.22520508 2.44800781 26.22520508 0.9921875 26.26367188 C-4.42305142 26.32008061 -8.35687306 26.14362529 -13 23 C-14.50934217 19.98131566 -14.17510672 17.32702771 -14 14 C-13.34 13.01 -12.68 12.02 -12 11 C-11.7525 9.989375 -11.505 8.97875 -11.25 7.9375 C-10 5 -10 5 -7 3.625 C-4 3 -4 3 -2 3 C-2 2.34 -2 1.68 -2 1 C-1.34 0.67 -0.68 0.34 0 0 Z " fill="#5EB14D" transform="translate(76,63)"/>
<path d="M0 0 C2.9719385 1.12451727 5.33440687 2.22293791 8 4 C10.32387947 4.39387788 12.65793749 4.73486085 15 5 C15.33 5.99 15.66 6.98 16 8 C17.32 8 18.64 8 20 8 C19.6875 10.375 19.6875 10.375 19 13 C16 15 16 15 13 15 C12.67 17.31 12.34 19.62 12 22 C12.99 22 13.98 22 15 22 C14.34 23.98 13.68 25.96 13 28 C12.34 28 11.68 28 11 28 C10.34 26.68 9.68 25.36 9 24 C5.59679258 25.01176437 4.24274669 25.64843582 2.1875 28.625 C1.795625 29.40875 1.40375 30.1925 1 31 C0.34 30.67 -0.32 30.34 -1 30 C-0.71125 29.29875 -0.4225 28.5975 -0.125 27.875 C1.62723682 23.39706145 3 19.85344825 3 15 C-2.68629044 16.66797853 -7.16800231 18.58224554 -12 22 C-12.66 22 -13.32 22 -14 22 C-12.79618552 19.50638429 -11.54571278 17.31856917 -10 15 C-9.31744011 12.67126625 -8.64949225 10.33817209 -8 8 C-7 7 -7 7 -3.9375 6.9375 C-2.4834375 6.9684375 -2.4834375 6.9684375 -1 7 C-0.67 4.69 -0.34 2.38 0 0 Z " fill="#399FC6" transform="translate(41,118)"/>
<path d="M0 0 C0.268125 0.763125 0.53625 1.52625 0.8125 2.3125 C1.75975283 5.01074704 1.75975283 5.01074704 3.625 6.3125 C5.57685545 8.70795896 5.34636693 10.93841074 5.23046875 13.9296875 C4.90720121 16.83361628 4.17242047 19.3294867 3 22 C-0.92778511 23.96389256 -5.72898552 23.61293948 -10 23 C-11.875 20.5 -11.875 20.5 -13 18 C-15.62694422 17.58219121 -15.62694422 17.58219121 -18 18 C-17.125 12.25 -17.125 12.25 -16 10 C-15.34 10.33 -14.68 10.66 -14 11 C-14.33 11.66 -14.66 12.32 -15 13 C-14.34 13 -13.68 13 -13 13 C-13.50603992 10.83125748 -13.99983813 9.00032373 -15 7 C-13.02 6.67 -11.04 6.34 -9 6 C-8.9175 5.38125 -8.835 4.7625 -8.75 4.125 C-8 2 -8 2 -6.1875 0.75 C-4 0 -4 0 0 0 Z " fill="#C86DA3" transform="translate(111,64)"/>
<path d="M0 0 C0.99 0 1.98 0 3 0 C3 0.99 3 1.98 3 3 C3.86625 2.9175 4.7325 2.835 5.625 2.75 C10.07313472 3.07949146 11.86418273 3.78952041 15 7 C15.8252114 10.80416601 15.76784661 14.18899662 15 18 C12.06649772 21.96419227 9.72832416 23.42126457 4.9375 24.4375 C2.78505328 24.89366755 2.78505328 24.89366755 1 27 C-1.97 26.01 -4.94 25.02 -8 24 C-8 22.35 -8 20.7 -8 19 C-7.36191406 18.80664062 -6.72382813 18.61328125 -6.06640625 18.4140625 C-4.82697266 18.02347656 -4.82697266 18.02347656 -3.5625 17.625 C-2.73878906 17.36976562 -1.91507813 17.11453125 -1.06640625 16.8515625 C1.17798016 16.19117773 1.17798016 16.19117773 2 14 C1.01 14 0.02 14 -1 14 C-0.67 9.38 -0.34 4.76 0 0 Z " fill="#3D62AB" transform="translate(140,59)"/>
<path d="M0 0 C1.65 0 3.3 0 5 0 C5.66 1.65 6.32 3.3 7 5 C8.6396875 5.2165625 8.6396875 5.2165625 10.3125 5.4375 C14 6 14 6 17 7 C16.51273438 7.40476562 16.02546875 7.80953125 15.5234375 8.2265625 C13.17607918 10.95912834 13.59340595 13.29904692 13.6953125 16.76953125 C14.09616029 19.7039426 15.19985065 21.67480709 17 24 C17.99 23.34 18.98 22.68 20 22 C22.91796875 21.5859375 22.91796875 21.5859375 26.1875 21.375 C27.27417969 21.30023438 28.36085938 21.22546875 29.48046875 21.1484375 C30.31191406 21.09945312 31.14335938 21.05046875 32 21 C30.89164581 26.05833987 28.99826058 30.76266235 26 35 C22.375 36.3125 22.375 36.3125 19 36 C15.58601564 33.53583806 14.17843805 29.58151327 12.4375 25.875 C10.57497168 21.18835813 10.57497168 21.18835813 7 18 C6.09595232 16.13685045 5.27481165 14.23299352 4.5 12.3125 C4.0771875 11.27738281 3.654375 10.24226563 3.21875 9.17578125 C2.05438291 6.14170931 1.00109435 3.09134226 0 0 Z " fill="#3E2072" transform="translate(69,97)"/>
<path d="M0 0 C-1.75 4.875 -1.75 4.875 -4 6 C-4.103125 6.5775 -4.20625 7.155 -4.3125 7.75 C-5.33199312 11.08652293 -7.42192223 12.72883625 -10 15 C-10.99 15.33 -11.98 15.66 -13 16 C-12.34 16.99 -11.68 17.98 -11 19 C-8.41619823 19.25030977 -8.41619823 19.25030977 -6 19 C-6.66 20.65 -7.32 22.3 -8 24 C-8.66 24 -9.32 24 -10 24 C-11.63676257 25.9600281 -11.63676257 25.9600281 -13 28 C-14.98 27.67 -16.96 27.34 -19 27 C-19 26.01 -19 25.02 -19 24 C-19.99 24 -20.98 24 -22 24 C-22.495 21.525 -22.495 21.525 -23 19 C-28.61 18.34 -34.22 17.68 -40 17 C-38 12 -38 12 -36 9 C-36 9.99 -36 10.98 -36 12 C-34.68 12 -33.36 12 -32 12 C-31.67 11.34 -31.34 10.68 -31 10 C-31 10.99 -31 11.98 -31 13 C-29.35 12.34 -27.7 11.68 -26 11 C-25.01 11.99 -24.02 12.98 -23 14 C-17.7770519 12.8534992 -15.33475442 10.56585391 -11.80078125 6.8203125 C-8.44939524 3.4325774 -4.92850969 0 0 0 Z " fill="#AC91D2" transform="translate(162,35)"/>
<path d="M0 0 C1.12148437 -0.01675781 2.24296875 -0.03351563 3.3984375 -0.05078125 C6.97900938 0.3523582 8.85880504 1.01073999 11.625 3.3125 C12.21875 5.46875 12.21875 5.46875 12.125 7.8125 C12.1146875 8.5859375 12.104375 9.359375 12.09375 10.15625 C11.50376396 12.87018578 10.89886732 13.71934455 8.625 15.3125 C5.84765625 16.0078125 5.84765625 16.0078125 2.6875 16.4375 C-0.72632657 16.91975059 -4.04789301 17.39854772 -7.375 18.3125 C-7.49875 17.549375 -7.6225 16.78625 -7.75 16 C-8.25602792 13.10982864 -8.25602792 13.10982864 -10.375 10.3125 C-10.45703125 8.33984375 -10.45703125 8.33984375 -10.1875 6.25 C-10.11144531 5.55777344 -10.03539063 4.86554688 -9.95703125 4.15234375 C-8.48309191 -0.50688732 -4.0653704 0.01395436 0 0 Z " fill="#C24896" transform="translate(128.375,82.6875)"/>
<path d="M0 0 C0.67675781 -0.01998047 1.35351562 -0.03996094 2.05078125 -0.06054688 C5.24680095 -0.05739498 7.04128377 0.0219031 9.453125 2.20703125 C11.14398629 5.80957526 10.75521985 8.4815924 10.5 12.4375 C10.17 13.0975 9.84 13.7575 9.5 14.4375 C6.69921875 15 6.69921875 15 3.1875 15.4375 C-0.79443115 15.93691354 -4.0228281 16.37695369 -7.5 18.4375 C-7.809375 17.633125 -8.11875 16.82875 -8.4375 16 C-9.26335345 13.54669595 -9.26335345 13.54669595 -10.5 12.4375 C-10.703125 10.4765625 -10.703125 10.4765625 -10.75 8.0625 C-10.77578125 7.27101563 -10.8015625 6.47953125 -10.828125 5.6640625 C-10.5 3.4375 -10.5 3.4375 -9.453125 1.67578125 C-6.4584258 -0.22285804 -3.43246404 -0.03595915 0 0 Z " fill="#E7D33E" transform="translate(92.5,103.5625)"/>
<path d="M0 0 C3.53597175 -0.3289276 5.64609454 -0.16925913 8.875 1.375 C12.06992512 5.3216722 11.42009114 9.10827202 11 14 C9.35 14.66 7.7 15.32 6 16 C6.66 17.32 7.32 18.64 8 20 C7.01 20 6.02 20 5 20 C4.7834375 19.36320312 4.566875 18.72640625 4.34375 18.0703125 C3.15432516 15.74859134 3.15432516 15.74859134 0.46875 15.2421875 C-1.00078125 15.06042969 -1.00078125 15.06042969 -2.5 14.875 C-7.80966767 14.19033233 -7.80966767 14.19033233 -10 12 C-10.125 8.375 -10.125 8.375 -10 5 C-8.70990357 4.49596232 -7.41786211 3.99690074 -6.125 3.5 C-5.04605469 3.08234375 -5.04605469 3.08234375 -3.9453125 2.65625 C-2 2 -2 2 0 2 C0 1.34 0 0.68 0 0 Z " fill="#E6D63F" transform="translate(139,95)"/>
<path d="M0 0 C1.32 0 2.64 0 4 0 C5.75 2.5 5.75 2.5 7 5 C6.67 5.33 6.34 5.66 6 6 C8.31 7.32 10.62 8.64 13 10 C12.67 11.65 12.34 13.3 12 15 C10.35 15.33 8.7 15.66 7 16 C6.67 15.34 6.34 14.68 6 14 C4.88625 14.2784375 4.88625 14.2784375 3.75 14.5625 C1.05009037 14.99203108 -0.44631077 14.85122974 -3 14 C-2.67 15.65 -2.34 17.3 -2 19 C-1.34 19 -0.68 19 0 19 C-0.33 20.32 -0.66 21.64 -1 23 C-1.99 22.34 -2.98 21.68 -4 21 C-4.66 21 -5.32 21 -6 21 C-5.67 22.65 -5.34 24.3 -5 26 C-5.99 25.67 -6.98 25.34 -8 25 C-8.33 24.34 -8.66 23.68 -9 23 C-9.66 22.855625 -10.32 22.71125 -11 22.5625 C-11.66 22.376875 -12.32 22.19125 -13 22 C-13.33 21.01 -13.66 20.02 -14 19 C-14.825 18.690625 -15.65 18.38125 -16.5 18.0625 C-17.7375 17.5365625 -17.7375 17.5365625 -19 17 C-19.8125 14.875 -19.8125 14.875 -20 13 C-17.09399739 11.74335022 -15.20395416 11 -12 11 C-12 11.66 -12 12.32 -12 13 C-6.555 11.02 -6.555 11.02 -1 9 C-0.67 6.03 -0.34 3.06 0 0 Z " fill="#BA336B" transform="translate(141,119)"/>
<path d="M0 0 C1.1446875 -0.01675781 2.289375 -0.03351563 3.46875 -0.05078125 C6.5 0.3125 6.5 0.3125 8.421875 1.5546875 C9.84220167 3.87043751 9.66294513 5.08829932 9.25 7.75 C9.14171875 8.51183594 9.0334375 9.27367188 8.921875 10.05859375 C8.52659843 12.17039542 8.04874236 14.235794 7.5 16.3125 C5.22796198 16.0303711 2.95738316 15.73647144 0.6875 15.4375 C-1.20935547 15.19386719 -1.20935547 15.19386719 -3.14453125 14.9453125 C-6.5 14.3125 -6.5 14.3125 -9.5 12.3125 C-9.8984375 10 -9.8984375 10 -9.875 7.3125 C-9.88273437 6.425625 -9.89046875 5.53875 -9.8984375 4.625 C-9.76695313 3.861875 -9.63546875 3.09875 -9.5 2.3125 C-5.94223788 -0.05934142 -4.21979393 0.01425606 0 0 Z " fill="#ECEDED" transform="translate(52.5,104.6875)"/>
<path d="M0 0 C0.66 0.33 1.32 0.66 2 1 C2 1.66 2 2.32 2 3 C5.465 4.485 5.465 4.485 9 6 C10.72107623 17.63856502 10.72107623 17.63856502 8.953125 20.9765625 C7.5625 22.3125 7.5625 22.3125 5 24 C5 23.34 5 22.68 5 22 C4.05125 22.04125 3.1025 22.0825 2.125 22.125 C-1 22 -1 22 -3 20 C-3.265625 16.8125 -3.265625 16.8125 -3.25 13 C-3.25515625 11.741875 -3.2603125 10.48375 -3.265625 9.1875 C-3 6 -3 6 -1 4 C-0.3574765 1.93125966 -0.3574765 1.93125966 0 0 Z " fill="#6484C6" transform="translate(29,86)"/>
<path d="M0 0 C0.97710937 -0.01417969 1.95421875 -0.02835937 2.9609375 -0.04296875 C5.625 0.1875 5.625 0.1875 8.625 2.1875 C9.76842535 8.28576852 7.43047631 11.79745784 4.1328125 16.85546875 C2.79842146 18.9192808 1.67548345 20.96924612 0.625 23.1875 C0.20182292 21.16927083 -0.22135417 19.15104167 -0.64453125 17.1328125 C-1.29808838 14.81703451 -1.29808838 14.81703451 -4.375 13.1875 C-7.09363408 9.46726389 -6.59222008 5.60430826 -6.375 1.1875 C-4.64526886 -0.54223114 -2.34983037 0.01541883 0 0 Z " fill="#326FBD" transform="translate(102.375,90.8125)"/>
<path d="M0 0 C0 0.99 0 1.98 0 3 C0.99 3 1.98 3 3 3 C2.4375 4.875 2.4375 4.875 1 7 C-2.625 8.25 -2.625 8.25 -6 9 C-6.33 10.32 -6.66 11.64 -7 13 C-10.3 13 -13.6 13 -17 13 C-17 12.34 -17 11.68 -17 11 C-16.01 10.67 -15.02 10.34 -14 10 C-13.67 9.01 -13.34 8.02 -13 7 C-17.31392226 7.4793247 -19.16569547 8.7457985 -22 12 C-24 9 -24 9 -24 6 C-19.12931203 1.12931203 -13.68319495 1.42079306 -7.046875 1.17578125 C-4.33707404 1.01944658 -2.60422396 0 0 0 Z " fill="#184063" transform="translate(139,70)"/>
<path d="M0 0 C1.65 0 3.3 0 5 0 C5.33 1.98 5.66 3.96 6 6 C7.32 6.33 8.64 6.66 10 7 C9.52653165 11.26121515 7.03860562 13.18373138 4 16 C3.34 16.66 2.68 17.32 2 18 C-0.125 17.625 -0.125 17.625 -2 17 C-1.34 15.35 -0.68 13.7 0 12 C-1.32 12 -2.64 12 -4 12 C-4.33 11.34 -4.66 10.68 -5 10 C-7.2103915 9.43507236 -9.42211921 9.10796825 -11.67578125 8.7578125 C-14.5956898 7.80577509 -15.98891751 6.2733976 -18 4 C-15.89551062 4.14109986 -13.7914123 4.28804175 -11.6875 4.4375 C-10.51574219 4.51871094 -9.34398437 4.59992188 -8.13671875 4.68359375 C-5 5 -5 5 -2 6 C-1.34 4.02 -0.68 2.04 0 0 Z " fill="#387BAE" transform="translate(61,114)"/>
<path d="M0 0 C1.32 0.99 2.64 1.98 4 3 C3.57781184 4.6498275 3.13675575 6.29483665 2.6875 7.9375 C2.44386719 8.85402344 2.20023438 9.77054688 1.94921875 10.71484375 C1.63597656 11.46894531 1.32273437 12.22304687 1 13 C0.01 13.33 -0.98 13.66 -2 14 C-2.66 14.66 -3.32 15.32 -4 16 C-7.625 15.625 -7.625 15.625 -11 15 C-11 15.66 -11 16.32 -11 17 C-12.98567708 16.93489583 -14.97135417 16.86979167 -16.95703125 16.8046875 C-19.31359719 16.86745538 -19.31359719 16.86745538 -22 19 C-22.12375 18.38125 -22.2475 17.7625 -22.375 17.125 C-22.87197356 14.80879168 -22.87197356 14.80879168 -25 13 C-24.01 12.67 -23.02 12.34 -22 12 C-22.66 11.34 -23.32 10.68 -24 10 C-21.77308629 9.74988655 -19.54324878 9.52571648 -17.3125 9.3125 C-16.07113281 9.18488281 -14.82976563 9.05726562 -13.55078125 8.92578125 C-9.65889415 9.00712983 -8.09361619 9.74249629 -5 12 C-4.34 12.33 -3.68 12.66 -3 13 C-3.66 11.35 -4.32 9.7 -5 8 C-4.360625 7.236875 -3.72125 6.47375 -3.0625 5.6875 C-0.85767219 3.11753287 -0.85767219 3.11753287 0 0 Z " fill="#1E1629" transform="translate(61,69)"/>
<path d="M0 0 C0.66 0 1.32 0 2 0 C2 3.63 2 7.26 2 11 C-6.625 15 -6.625 15 -10 15 C-10 14.34 -10 13.68 -10 13 C-10.556875 13.33 -11.11375 13.66 -11.6875 14 C-14.30284522 15.1309601 -16.1806646 15.15662974 -19 15 C-19.33 13.68 -19.66 12.36 -20 11 C-19.360625 10.690625 -18.72125 10.38125 -18.0625 10.0625 C-16.06389179 9.1654837 -16.06389179 9.1654837 -15 8 C-13.22945999 7.94732278 -11.45851901 7.90784009 -9.6875 7.875 C-5.58578014 7.65819628 -5.58578014 7.65819628 -2.3828125 5.37890625 C-1.14821552 3.24562814 -1.14821552 3.24562814 0 0 Z " fill="#2C2243" transform="translate(139,117)"/>
<path d="M0 0 C4.875 4.625 4.875 4.625 6 8 C7.65 8 9.3 8 11 8 C11.33 9.65 11.66 11.3 12 13 C13.65 13 15.3 13 17 13 C17 11.02 17 9.04 17 7 C19.64 7 22.28 7 25 7 C25.66 9.31 26.32 11.62 27 14 C23.04 14 19.08 14 15 14 C14.67 14.66 14.34 15.32 14 16 C12.55903414 15.57405412 11.12231288 15.13373367 9.6875 14.6875 C8.88699219 14.44386719 8.08648437 14.20023438 7.26171875 13.94921875 C3.90906745 12.54214748 2.45785252 11.09093255 1.05078125 7.73828125 C0.80714844 6.93777344 0.56351563 6.13726562 0.3125 5.3125 C0.06113281 4.50425781 -0.19023438 3.69601563 -0.44921875 2.86328125 C-0.63097656 2.24839844 -0.81273437 1.63351563 -1 1 C-0.67 0.67 -0.34 0.34 0 0 Z " fill="#E9A5CD" transform="translate(41,39)"/>
<path d="M0 0 C2.45526122 2.45526122 2.41457598 3.60629818 2.75 7 C2.89695312 8.3303125 2.89695312 8.3303125 3.046875 9.6875 C3 12 3 12 1 14 C-1.32716 14.37400786 -3.66117862 14.70764733 -6 15 C-6.99 15.495 -6.99 15.495 -8 16 C-8 15.01 -8 14.02 -8 13 C-8.66 13 -9.32 13 -10 13 C-10.33 10.69 -10.66 8.38 -11 6 C-7.55930376 3.70620251 -6.27709699 3 -2 3 C-2 2.34 -2 1.68 -2 1 C-1.34 0.67 -0.68 0.34 0 0 Z " fill="#79ADD4" transform="translate(76,63)"/>
<path d="M0 0 C3.45925163 1.2491742 6.14693203 2.67527795 9 5 C9.33 4.01 9.66 3.02 10 2 C13.49757797 0.83414068 14.61568066 1.24139708 18.0625 2.3125 C18.94035156 2.57675781 19.81820312 2.84101562 20.72265625 3.11328125 C23 4 23 4 25 6 C27.57051911 6.85541401 30.16617586 7.52736924 32.78515625 8.21875 C35 9 35 9 36 11 C35.38253906 10.83371094 34.76507813 10.66742188 34.12890625 10.49609375 C28.8552352 9.65994366 23.54285875 10.00077937 18.21679688 10.12695312 C16.91645508 10.14338867 16.91645508 10.14338867 15.58984375 10.16015625 C14.41216431 10.18541382 14.41216431 10.18541382 13.21069336 10.21118164 C8.11870693 9.72475776 5.36147673 6.62685648 2 3 C1.34 2.01 0.68 1.02 0 0 Z " fill="#D99770" transform="translate(22,46)"/>
<path d="M0 0 C1.32 0 2.64 0 4 0 C5.75 2.5 5.75 2.5 7 5 C6.67 5.33 6.34 5.66 6 6 C9.465 7.98 9.465 7.98 13 10 C12.67 11.65 12.34 13.3 12 15 C10.35 15.33 8.7 15.66 7 16 C6.67 15.34 6.34 14.68 6 14 C5.278125 14.185625 4.55625 14.37125 3.8125 14.5625 C0.87173027 15.01995307 -1.14103058 14.73516357 -4 14 C-3.625 12.0625 -3.625 12.0625 -3 10 C-2.34 9.67 -1.68 9.34 -1 9 C-0.53348793 6.87423218 -0.53348793 6.87423218 -0.375 4.4375 C-0.30023438 3.61121094 -0.22546875 2.78492187 -0.1484375 1.93359375 C-0.09945312 1.29550781 -0.05046875 0.65742187 0 0 Z " fill="#D87B66" transform="translate(141,119)"/>
<path d="M0 0 C0.66 0 1.32 0 2 0 C2.25 2.8125 2.25 2.8125 2 6 C-1.23163023 9.35132024 -5.4423497 10.82602867 -10.0078125 11.3359375 C-11.03648438 11.34882812 -12.06515625 11.36171875 -13.125 11.375 C-14.15882812 11.40335938 -15.19265625 11.43171875 -16.2578125 11.4609375 C-19 11 -19 11 -20.85546875 9.1484375 C-22.2199469 6.58713039 -22.23848675 4.86184098 -22 2 C-19.6875 1.3125 -19.6875 1.3125 -17 1 C-15.1875 2.25 -15.1875 2.25 -14 4 C-14 4.99 -14 5.98 -14 7 C-12.20793453 6.85915204 -10.41635083 6.71216299 -8.625 6.5625 C-7.62726563 6.48128906 -6.62953125 6.40007812 -5.6015625 6.31640625 C-3.02072387 6.15034374 -3.02072387 6.15034374 -1 5 C-0.34444881 2.47266765 -0.34444881 2.47266765 0 0 Z " fill="#E8E7EA" transform="translate(115,80)"/>
<path d="M0 0 C0.99 0 1.98 0 3 0 C4.46534385 3.80989402 3.55203911 6.3241179 2 10 C-0.64458379 11.32229189 -2.67761301 11.09677194 -5.625 11.0625 C-6.62789063 11.05347656 -7.63078125 11.04445313 -8.6640625 11.03515625 C-9.43492188 11.02355469 -10.20578125 11.01195313 -11 11 C-11.99 9.02 -12.98 7.04 -14 5 C-13.01 4.67 -12.02 4.34 -11 4 C-10.34 4.33 -9.68 4.66 -9 5 C-8.67 4.34 -8.34 3.68 -8 3 C-4.5 2.5 -4.5 2.5 -1 2 C-0.67 1.34 -0.34 0.68 0 0 Z " fill="#C74B8E" transform="translate(112,76)"/>
<path d="M0 0 C0.79148437 -0.01417969 1.58296875 -0.02835937 2.3984375 -0.04296875 C4.625 0.1875 4.625 0.1875 7.625 2.1875 C8 4.6875 8 4.6875 7.625 7.1875 C3.91486601 9.66092266 2.01439738 9.57253486 -2.375 9.1875 C-4.8125 7.6875 -4.8125 7.6875 -6.375 6.1875 C-5.27207899 0.04265436 -5.27207899 0.04265436 0 0 Z " fill="#EDEBEB" transform="translate(80.375,91.8125)"/>
<path d="M0 0 C0.86625 0.12375 1.7325 0.2475 2.625 0.375 C4.25 2.6875 4.25 2.6875 5.625 5.375 C6.5994803 6.39988445 7.59558721 7.40530453 8.625 8.375 C8.02171875 8.48457031 7.4184375 8.59414062 6.796875 8.70703125 C2.30542409 9.59807716 -0.83766135 10.34299544 -4.375 13.375 C-6.02297236 14.08662443 -7.68665408 14.76531953 -9.375 15.375 C-8.17118552 12.88138429 -6.92071278 10.69356917 -5.375 8.375 C-4.69244011 6.04626625 -4.02449225 3.71317209 -3.375 1.375 C-2.375 0.375 -2.375 0.375 0 0 Z " fill="#97D5E7" transform="translate(36.375,124.625)"/>
<path d="M0 0 C1.65 0 3.3 0 5 0 C5.66 1.65 6.32 3.3 7 5 C8.6396875 5.2165625 8.6396875 5.2165625 10.3125 5.4375 C14 6 14 6 17 7 C16.525625 7.4125 16.05125 7.825 15.5625 8.25 C13.83733482 10.182185 13.43415125 11.48192275 13 14 C10.69 14.33 8.38 14.66 6 15 C4.99539469 12.87717331 3.99644398 10.75166979 3 8.625 C2.443125 7.44164063 1.88625 6.25828125 1.3125 5.0390625 C0 2 0 2 0 0 Z " fill="#812D72" transform="translate(69,97)"/>
<path d="M0 0 C0.66 0.33 1.32 0.66 2 1 C2.51953125 4.0546875 2.51953125 4.0546875 2.8125 7.875 C2.92207031 9.13054687 3.03164062 10.38609375 3.14453125 11.6796875 C3 15 3 15 1.69921875 16.9453125 C0 18 0 18 -3 18 C-3.103125 16.906875 -3.20625 15.81375 -3.3125 14.6875 C-4.02701565 10.8550979 -4.40196178 10.47994558 -7 8 C-6.9375 5.9375 -6.9375 5.9375 -6 4 C-3.9375 2.75 -3.9375 2.75 -2 2 C-2 3.32 -2 4.64 -2 6 C-1.34 6 -0.68 6 0 6 C0 4.02 0 2.04 0 0 Z " fill="#48782C" transform="translate(65,97)"/>
<path d="M0 0 C1.65 0 3.3 0 5 0 C5.309375 0.969375 5.61875 1.93875 5.9375 2.9375 C6.69523342 5.84065792 6.69523342 5.84065792 8 7 C8.04080783 8.99958364 8.04254356 11.00045254 8 13 C10.97 13.33 13.94 13.66 17 14 C17.33 15.32 17.66 16.64 18 18 C17 19 17 19 14.4375 19.0625 C13.633125 19.041875 12.82875 19.02125 12 19 C11.67 17.68 11.34 16.36 11 15 C9.35 15 7.7 15 6 15 C5.66226563 14.28972656 5.32453125 13.57945313 4.9765625 12.84765625 C4.53054687 11.92855469 4.08453125 11.00945312 3.625 10.0625 C3.18414062 9.14597656 2.74328125 8.22945312 2.2890625 7.28515625 C1.20800838 4.87096198 1.20800838 4.87096198 -1 4 C-0.67 2.68 -0.34 1.36 0 0 Z " fill="#551C79" transform="translate(77,111)"/>
<path d="M0 0 C1.45823212 -0.0270043 2.91660675 -0.04639787 4.375 -0.0625 C5.18710938 -0.07410156 5.99921875 -0.08570313 6.8359375 -0.09765625 C9 0 9 0 11 1 C10.125 7.75 10.125 7.75 9 10 C1.45843521 9.51344743 1.45843521 9.51344743 -0.5625 7.25 C-1.08704597 4.552335 -0.73089674 2.63122827 0 0 Z " fill="#F0E168" transform="translate(61,55)"/>
<path d="M0 0 C0.99 0 1.98 0 3 0 C2.67 2.31 2.34 4.62 2 7 C2.99 7 3.98 7 5 7 C4.34 8.98 3.68 10.96 3 13 C2.34 13 1.68 13 1 13 C0.34 11.68 -0.32 10.36 -1 9 C-4.40320742 10.01176437 -5.75725331 10.64843582 -7.8125 13.625 C-8.204375 14.40875 -8.59625 15.1925 -9 16 C-9.66 15.67 -10.32 15.34 -11 15 C-10.731875 14.34 -10.46375 13.68 -10.1875 13 C-8.74294953 9.35060933 -7.37128822 5.67754567 -6 2 C-5.01 3.485 -5.01 3.485 -4 5 C-3.401875 4.175 -2.80375 3.35 -2.1875 2.5 C-1.465625 1.675 -0.74375 0.85 0 0 Z " fill="#B2D8E5" transform="translate(51,133)"/>
<path d="M0 0 C0.97710937 -0.01417969 1.95421875 -0.02835937 2.9609375 -0.04296875 C5.625 0.1875 5.625 0.1875 8.625 2.1875 C8.8125 5.8125 8.8125 5.8125 8.625 9.1875 C8.13 8.8575 7.635 8.5275 7.125 8.1875 C4.57203602 7.16631441 3.19732189 7.10903245 0.5 7.1875 C-0.77875 7.1875 -2.0575 7.1875 -3.375 7.1875 C-5.50824818 5.05425182 -5.90738345 4.0867226 -6.375 1.1875 C-4.64526886 -0.54223114 -2.34983037 0.01541883 0 0 Z " fill="#467CC4" transform="translate(102.375,90.8125)"/>
<path d="M0 0 C0.33 0 0.66 0 1 0 C1 1.65 1 3.3 1 5 C1.66 5 2.32 5 3 5 C4 8 4 8 3.9375 11.5625 C3.60338936 15.06614641 3.60338936 15.06614641 6 17 C6.26991906 19.68839385 6.08737357 22.29141936 6 25 C3.525 24.01 3.525 24.01 1 23 C1 22.01 1 21.02 1 20 C0.34 20 -0.32 20 -1 20 C-1.09765625 13.84765625 -1.09765625 13.84765625 -1 12 C-0.67 11.67 -0.34 11.34 0 11 C0.07226502 9.14712498 0.0838122 7.29166122 0.0625 5.4375 C0.05347656 4.42558594 0.04445313 3.41367188 0.03515625 2.37109375 C0.02355469 1.58863281 0.01195313 0.80617188 0 0 Z " fill="#5F3160" transform="translate(114,107)"/>
<path d="M0 0 C0.33 0.99 0.66 1.98 1 3 C2.32 3 3.64 3 5 3 C5.33 2.34 5.66 1.68 6 1 C6 1.99 6 2.98 6 4 C7.65 3.34 9.3 2.68 11 2 C12.5 3.3125 12.5 3.3125 14 5 C14 5.99 14 6.98 14 8 C10.9020403 9.54897985 7.73783448 8.83239539 4.375 8.5625 C3.66859375 8.51029297 2.9621875 8.45808594 2.234375 8.40429688 C0.48920013 8.27458793 -1.25545725 8.13795046 -3 8 C-2.690625 7.236875 -2.38125 6.47375 -2.0625 5.6875 C-1.32106407 3.81210323 -0.63771783 1.91315348 0 0 Z " fill="#B7E1EB" transform="translate(125,44)"/>
<path d="M0 0 C1.15628906 -0.01675781 2.31257813 -0.03351563 3.50390625 -0.05078125 C4.47199219 0.06910156 5.44007812 0.18898438 6.4375 0.3125 C7.0975 1.3025 7.7575 2.2925 8.4375 3.3125 C7.4475 3.9725 6.4575 4.6325 5.4375 5.3125 C5.1075 6.3025 4.7775 7.2925 4.4375 8.3125 C2.4575 8.3125 0.4775 8.3125 -1.5625 8.3125 C-1.2325 7.3225 -0.9025 6.3325 -0.5625 5.3125 C-1.67625 5.003125 -2.79 4.69375 -3.9375 4.375 C-7.5625 3.3125 -7.5625 3.3125 -9.5625 2.3125 C-5.99291489 -0.0672234 -4.23531698 0.01419659 0 0 Z " fill="#C2C2C3" transform="translate(52.5625,104.6875)"/>
<path d="M0 0 C1.32 0.66 2.64 1.32 4 2 C3.525625 2.763125 3.05125 3.52625 2.5625 4.3125 C0.89893903 6.96410548 0.89893903 6.96410548 0 10 C-2.33294775 10.04241723 -4.66702567 10.04092937 -7 10 C-8 9 -8 9 -8.0625 6.4375 C-8.041875 5.633125 -8.02125 4.82875 -8 4 C-5.09399739 2.74335022 -3.20395416 2 0 2 C0 1.34 0 0.68 0 0 Z " fill="#D3483D" transform="translate(40,115)"/>
<path d="M0 0 C2.9375 0.6875 2.9375 0.6875 4.9375 1.6875 C0.80113636 7.47840909 0.80113636 7.47840909 -2.0625 9.6875 C-5.3125 9.4375 -5.3125 9.4375 -8.0625 8.6875 C-8.0625 7.3675 -8.0625 6.0475 -8.0625 4.6875 C-7.4025 4.6875 -6.7425 4.6875 -6.0625 4.6875 C-6.0625 3.6975 -6.0625 2.7075 -6.0625 1.6875 C-3.0625 -0.3125 -3.0625 -0.3125 0 0 Z " fill="#C6E6F0" transform="translate(151.0625,53.3125)"/>
<path d="M0 0 C2.06309376 0.11478413 4.12548354 0.24226198 6.1875 0.375 C7.33605469 0.44460937 8.48460937 0.51421875 9.66796875 0.5859375 C12.84482519 0.98071685 15.19237114 1.47231959 18 3 C18.8125 6.125 18.8125 6.125 19 9 C16.5625 8.625 16.5625 8.625 14 8 C13.67 7.34 13.34 6.68 13 6 C10.7896085 5.43507236 8.57788079 5.10796825 6.32421875 4.7578125 C3.4043102 3.80577509 2.01108249 2.2733976 0 0 Z " fill="#2277A1" transform="translate(43,118)"/>
<path d="M0 0 C0.33 0 0.66 0 1 0 C1 2.97 1 5.94 1 9 C-1.64 9.66 -4.28 10.32 -7 11 C-7.33 10.34 -7.66 9.68 -8 9 C-8.33 9.99 -8.66 10.98 -9 12 C-9.99 11.67 -10.98 11.34 -12 11 C-11.67 10.01 -11.34 9.02 -11 8 C-8.9375 7.3125 -8.9375 7.3125 -7 7 C-7 6.34 -7 5.68 -7 5 C-2.61538462 2 -2.61538462 2 0 2 C0 1.34 0 0.68 0 0 Z " fill="#C1E9F2" transform="translate(38,108)"/>
<path d="M0 0 C0.66 0.33 1.32 0.66 2 1 C2.125 3.875 2.125 3.875 2 7 C-0.76477453 9.76477453 -3.1966753 9.52458441 -7 10 C-7.99 10.495 -7.99 10.495 -9 11 C-9 10.01 -9 9.02 -9 8 C-9.66 8 -10.32 8 -11 8 C-10.67 6.35 -10.34 4.7 -10 3 C-9.67 3.66 -9.34 4.32 -9 5 C-8.05125 4.814375 -7.1025 4.62875 -6.125 4.4375 C-3 4 -3 4 -1 5 C-0.67 3.35 -0.34 1.7 0 0 Z " fill="#58BADB" transform="translate(77,68)"/>
<path d="M0 0 C4.29 0.33 8.58 0.66 13 1 C10.01353231 2.99097846 7.40312738 3.94124926 4 5 C3.67 7.97 3.34 10.94 3 14 C1.68 14.33 0.36 14.66 -1 15 C-1 11.7 -1 8.4 -1 5 C-0.01 5 0.98 5 2 5 C1.34 3.35 0.68 1.7 0 0 Z " fill="#1E3053" transform="translate(40,102)"/>
<path d="M0 0 C2.64 0 5.28 0 8 0 C8.66 2.31 9.32 4.62 10 7 C6.04 7 2.08 7 -2 7 C-2.33 7.66 -2.66 8.32 -3 9 C-3.33 8.01 -3.66 7.02 -4 6 C-2.68 6 -1.36 6 0 6 C0 4.02 0 2.04 0 0 Z " fill="#76BEDF" transform="translate(58,46)"/>
<path d="M0 0 C2.98093122 2.5550839 4.52359755 5.38281401 6 9 C5.6875 11.375 5.6875 11.375 5 13 C4.01 12.67 3.02 12.34 2 12 C2 12.99 2 13.98 2 15 C-1.3 15 -4.6 15 -8 15 C-7.67 14.01 -7.34 13.02 -7 12 C-5.865625 11.855625 -4.73125 11.71125 -3.5625 11.5625 C-0.19222799 11.38828522 -0.19222799 11.38828522 1 10 C1.15672777 6.47362528 1.04028969 3.38094149 0 0 Z " fill="#345C6D" transform="translate(77,65)"/>
<path d="M0 0 C0.99 0.33 1.98 0.66 3 1 C0.375 5.875 0.375 5.875 -3 7 C-5.33299825 7.03954234 -7.66708189 7.04401732 -10 7 C-10.33 5.35 -10.66 3.7 -11 2 C-10.06027344 1.90912109 -10.06027344 1.90912109 -9.1015625 1.81640625 C-7.87566406 1.69072266 -7.87566406 1.69072266 -6.625 1.5625 C-5.81289062 1.48128906 -5.00078125 1.40007813 -4.1640625 1.31640625 C-1.95727195 1.10909886 -1.95727195 1.10909886 0 0 Z " fill="#589E60" transform="translate(111,54)"/>
<path d="M0 0 C0 0.33 0 0.66 0 1 C-2.31 1 -4.62 1 -7 1 C-7 2.98 -7 4.96 -7 7 C-7.61875 7.144375 -8.2375 7.28875 -8.875 7.4375 C-11.03258322 7.93152225 -11.03258322 7.93152225 -13 9 C-13.185625 8.071875 -13.185625 8.071875 -13.375 7.125 C-13.87197356 4.80879168 -13.87197356 4.80879168 -16 3 C-15.01 2.67 -14.02 2.34 -13 2 C-13.66 1.34 -14.32 0.68 -15 0 C-13.06325815 -0.19517554 -11.12555991 -0.38087873 -9.1875 -0.5625 C-8.10855469 -0.66691406 -7.02960937 -0.77132812 -5.91796875 -0.87890625 C-3 -1 -3 -1 0 0 Z " fill="#57112D" transform="translate(52,79)"/>
<path d="M0 0 C1.12268565 2.75568295 1.03909704 3.88531535 0.0625 6.75 C-2 9 -2 9 -3.984375 9.31640625 C-5.99235195 9.31284601 -7.99873152 9.1640384 -10 9 C-9.67 7.35 -9.34 5.7 -9 4 C-6.03 3.34 -3.06 2.68 0 2 C0 1.34 0 0.68 0 0 Z " fill="#CDBA3D" transform="translate(139,95)"/>
<path d="M0 0 C1.134375 0.020625 2.26875 0.04125 3.4375 0.0625 C2.7775 0.7225 2.1175 1.3825 1.4375 2.0625 C1.60416667 4.14583333 1.60416667 4.14583333 2.4375 6.0625 C3.0975 6.3925 3.7575 6.7225 4.4375 7.0625 C3.4475 7.0625 2.4575 7.0625 1.4375 7.0625 C1.4375 6.4025 1.4375 5.7425 1.4375 5.0625 C0.880625 5.3925 0.32375 5.7225 -0.25 6.0625 C-2.86534522 7.1934601 -4.7431646 7.21912974 -7.5625 7.0625 C-7.8925 5.7425 -8.2225 4.4225 -8.5625 3.0625 C-7.923125 2.753125 -7.28375 2.44375 -6.625 2.125 C-2.58814103 0.04540598 -2.58814103 0.04540598 0 0 Z " fill="#641850" transform="translate(127.5625,124.9375)"/>
<path d="M0 0 C2.70695402 0.92809852 4.86666787 2.07384346 7.1875 3.75 C7.1875 4.74 7.1875 5.73 7.1875 6.75 C5.54175434 6.77688151 3.89588587 6.79634123 2.25 6.8125 C1.33347656 6.82410156 0.41695313 6.83570312 -0.52734375 6.84765625 C-2.8125 6.75 -2.8125 6.75 -3.8125 5.75 C-3.85313832 4.08382885 -3.855221 2.41611905 -3.8125 0.75 C-1.8125 -0.25 -1.8125 -0.25 0 0 Z " fill="#5F7457" transform="translate(120.8125,103.25)"/>
<path d="M0 0 C-0.09765625 2.97851562 -0.09765625 2.97851562 -0.1953125 5.95703125 C-0.13254462 8.31359719 -0.13254462 8.31359719 2 11 C0.68 11 -0.64 11 -2 11 C-2.33 10.01 -2.66 9.02 -3 8 C-3.99 8 -4.98 8 -6 8 C-8 5 -8 5 -8 2 C-4.77208445 -0.1519437 -3.71599191 -0.20086443 0 0 Z " fill="#412D30" transform="translate(130,99)"/>
<path d="M0 0 C0.66 0.33 1.32 0.66 2 1 C2 1.66 2 2.32 2 3 C2.66 3 3.32 3 4 3 C4 4.32 4 5.64 4 7 C3.34 7 2.68 7 2 7 C2.33 7.99 2.66 8.98 3 10 C1.58344207 10.0272415 0.16672955 10.04650467 -1.25 10.0625 C-2.43335937 10.07990234 -2.43335937 10.07990234 -3.640625 10.09765625 C-5.90691002 10.00385306 -7.8288895 9.63241063 -10 9 C-10 8.34 -10 7.68 -10 7 C-4.25 6.875 -4.25 6.875 -2 8 C-1.34 5.36 -0.68 2.72 0 0 Z " fill="#4D325E" transform="translate(72,57)"/>
<path d="M0 0 C2.71675995 0.36712972 4.61063713 0.72744599 6.875 2.3125 C8 4 8 4 7.6875 6.1875 C7.3471875 7.0846875 7.3471875 7.0846875 7 8 C5.35 8.33 3.7 8.66 2 9 C1.67 8.34 1.34 7.68 1 7 C-0.2375 6.505 -0.2375 6.505 -1.5 6 C-4 5 -4 5 -5 3 C-3.35 3 -1.7 3 0 3 C0 2.01 0 1.02 0 0 Z " fill="#EAC1CE" transform="translate(146,126)"/>
<path d="M0 0 C0.99 0.33 1.98 0.66 3 1 C3.33 1.99 3.66 2.98 4 4 C5.65 4 7.3 4 9 4 C9.33 3.01 9.66 2.02 10 1 C10.66 1 11.32 1 12 1 C11.6875 3.375 11.6875 3.375 11 6 C8 8 8 8 4.5 8 C1 7 1 7 -0.9375 3.9375 C-1.288125 2.968125 -1.63875 1.99875 -2 1 C-1.34 0.67 -0.68 0.34 0 0 Z " fill="#3D4674" transform="translate(85,125)"/>
<path d="M0 0 C-0.66 0 -1.32 0 -2 0 C-2 0.66 -2 1.32 -2 2 C-1.34 2 -0.68 2 0 2 C-0.33 3.32 -0.66 4.64 -1 6 C-4.3 6 -7.6 6 -11 6 C-11 5.34 -11 4.68 -11 4 C-10.01 3.67 -9.02 3.34 -8 3 C-7.67 2.01 -7.34 1.02 -7 0 C-3.86650268 -1.04449911 -3.01031744 -0.93423645 0 0 Z " fill="#282B68" transform="translate(133,77)"/>
<path d="M0 0 C2.64 0 5.28 0 8 0 C6 4 4 8 2 12 C0.86235649 7.73383684 0 4.43513689 0 0 Z " fill="#2D463A" transform="translate(101,102)"/>
<path d="M0 0 C0.66 0.33 1.32 0.66 2 1 C2.1080023 3.10304477 2.18558987 5.20766909 2.25 7.3125 C2.29640625 8.48425781 2.3428125 9.65601562 2.390625 10.86328125 C2.26171875 11.89839844 2.1328125 12.93351562 2 14 C0.68 14.99 -0.64 15.98 -2 17 C-2 13.37 -2 9.74 -2 6 C-1.34 6 -0.68 6 0 6 C0 4.02 0 2.04 0 0 Z " fill="#497658" transform="translate(65,97)"/>
<path d="M0 0 C0.7734375 0.495 0.7734375 0.495 1.5625 1 C4.81215644 2.33319238 7.52001247 2.19333264 11 2 C11.66 1.67 12.32 1.34 13 1 C13 2.32 13 3.64 13 5 C15.97 5 18.94 5 22 5 C22 5.33 22 5.66 22 6 C19.24973583 6.05404449 16.50053797 6.09369306 13.75 6.125 C12.97269531 6.14175781 12.19539063 6.15851563 11.39453125 6.17578125 C3.98547535 6.23910651 3.98547535 6.23910651 1 4 C0.25 1.875 0.25 1.875 0 0 Z " fill="#A1A25C" transform="translate(74,98)"/>
<path d="M0 0 C0.76183594 -0.00515625 1.52367187 -0.0103125 2.30859375 -0.015625 C4.77693018 0.2752708 6.420186 1.02024344 8.5625 2.25 C5.5625 3.25 5.5625 3.25 3.5 3.6875 C1.34755328 4.14366755 1.34755328 4.14366755 -0.4375 6.25 C-2.45795442 5.64816251 -4.45861039 4.97693904 -6.4375 4.25 C-6.7675 3.59 -7.0975 2.93 -7.4375 2.25 C-4.32763793 0.17675862 -3.54641613 -0.02392186 0 0 Z " fill="#2D4A71" transform="translate(141.4375,79.75)"/>
<path d="M0 0 C1.670625 0.061875 1.670625 0.061875 3.375 0.125 C2.715 2.105 2.055 4.085 1.375 6.125 C-1.265 6.125 -3.905 6.125 -6.625 6.125 C-5.71577947 1.57889733 -4.95184304 0.17075321 0 0 Z " fill="#28728E" transform="translate(72.625,90.875)"/>
<path d="M0 0 C0.66 0.66 1.32 1.32 2 2 C2.66 1.67 3.32 1.34 4 1 C4.33 3.31 4.66 5.62 5 8 C4.34 8 3.68 8 3 8 C3 8.99 3 9.98 3 11 C3.66 11.33 4.32 11.66 5 12 C3.35 12.33 1.7 12.66 0 13 C0 8.71 0 4.42 0 0 Z " fill="#E2DDE3" transform="translate(140,82)"/>
<path d="M0 0 C0 2.97 0 5.94 0 9 C-0.66 8.67 -1.32 8.34 -2 8 C-2 7.34 -2 6.68 -2 6 C-2.66 6 -3.32 6 -4 6 C-4.33 6.66 -4.66 7.32 -5 8 C-5.33 7.01 -5.66 6.02 -6 5 C-6.66 4.67 -7.32 4.34 -8 4 C-7.67 3.01 -7.34 2.02 -7 1 C-4.52260646 0.09162237 -2.66420516 0 0 0 Z " fill="#1A0E24" transform="translate(116,88)"/>
<path d="M0 0 C1.32 0.99 2.64 1.98 4 3 C1.89285714 8.99725275 1.89285714 8.99725275 -1 11 C-3.1875 10.6875 -3.1875 10.6875 -5 10 C-3.33333333 6.66666667 -1.66666667 3.33333333 0 0 Z " fill="#3C193C" transform="translate(61,69)"/>
<path d="M0 0 C2.69999726 1.00285612 5.09778489 2.05962493 7.5625 3.5625 C9.85430084 5.07680164 9.85430084 5.07680164 12.125 5.5 C14.45512762 6.12136737 15.43996032 7.20595437 17 9 C11.68571429 10.20779221 11.68571429 10.20779221 8.9375 9.375 C5.26338779 6.76756553 2.49058346 3.73587519 0 0 Z " fill="#F09C4D" transform="translate(22,46)"/>
<path d="M0 0 C1.8125 0.0625 1.8125 0.0625 4 1 C5.75 4.5625 5.75 4.5625 7 8 C4.36 8 1.72 8 -1 8 C-2 6 -2 6 -1.0625 2.875 C-0.5365625 1.451875 -0.5365625 1.451875 0 0 Z " fill="#382D4E" transform="translate(83,81)"/>
<path d="M0 0 C-1.75 4.875 -1.75 4.875 -4 6 C-4.33 6.99 -4.66 7.98 -5 9 C-5.66 8.34 -6.32 7.68 -7 7 C-7.78375 7.515625 -8.5675 8.03125 -9.375 8.5625 C-10.24125 9.036875 -11.1075 9.51125 -12 10 C-12.66 9.67 -13.32 9.34 -14 9 C-12.54405245 7.68485396 -11.08516421 6.37296283 -9.625 5.0625 C-8.81289062 4.33160156 -8.00078125 3.60070313 -7.1640625 2.84765625 C-4.4348356 0.51746794 -3.62580788 0 0 0 Z " fill="#D3C0E4" transform="translate(162,35)"/>
<path d="M0 0 C0.33 0 0.66 0 1 0 C1 1.65 1 3.3 1 5 C1.66 5 2.32 5 3 5 C4.24703266 8.74109799 3.45460854 9.44429023 2 13 C1.6186926 15.32597511 1.27539746 17.65912158 1 20 C0.34 20 -0.32 20 -1 20 C-1.09765625 13.84765625 -1.09765625 13.84765625 -1 12 C-0.67 11.67 -0.34 11.34 0 11 C0.07226502 9.14712498 0.0838122 7.29166122 0.0625 5.4375 C0.05347656 4.42558594 0.04445313 3.41367188 0.03515625 2.37109375 C0.02355469 1.58863281 0.01195313 0.80617188 0 0 Z " fill="#8D6078" transform="translate(114,107)"/>
<path d="M0 0 C2.625 2 2.625 2 5 5 C4.84058356 7.9739411 4.01386378 10.15152558 3 13 C2.01 13 1.02 13 0 13 C0 8.71 0 4.42 0 0 Z " fill="#4E4F5D" transform="translate(113,94)"/>
<path d="M0 0 C0.99 0 1.98 0 3 0 C3.33 1.32 3.66 2.64 4 4 C2.68 4.99 1.36 5.98 0 7 C0 6.34 0 5.68 0 5 C-2.97 4.67 -5.94 4.34 -9 4 C-9 3.34 -9 2.68 -9 2 C-7.329375 2.061875 -7.329375 2.061875 -5.625 2.125 C-1.95633975 2.41121859 -1.95633975 2.41121859 0 0 Z " fill="#2F5480" transform="translate(59,82)"/>
<path d="M0 0 C0.33 0.66 0.66 1.32 1 2 C1.99 2.33 2.98 2.66 4 3 C4 4.32 4 5.64 4 7 C1.125 7.125 1.125 7.125 -2 7 C-2.66 6.34 -3.32 5.68 -4 5 C-3.8125 2.9375 -3.8125 2.9375 -3 1 C-2.01 0.67 -1.02 0.34 0 0 Z " fill="#D55C9E" transform="translate(34,82)"/>
<path d="M0 0 C0.268125 0.763125 0.53625 1.52625 0.8125 2.3125 C1.95800967 4.90496926 2.99711522 6.08815544 5 8 C5 8.66 5 9.32 5 10 C3.02 9.34 1.04 8.68 -1 8 C-1 6.68 -1 5.36 -1 4 C-2.32 3.34 -3.64 2.68 -5 2 C-5 2.66 -5 3.32 -5 4 C-5.99 4 -6.98 4 -8 4 C-7.67 3.01 -7.34 2.02 -7 1 C-4 0 -4 0 0 0 Z " fill="#584164" transform="translate(111,64)"/>
<path d="M0 0 C0.88945313 0.07863281 1.77890625 0.15726563 2.6953125 0.23828125 C3.77425781 0.46064453 3.77425781 0.46064453 4.875 0.6875 C5.205 1.3475 5.535 2.0075 5.875 2.6875 C4.91787109 2.76097656 4.91787109 2.76097656 3.94140625 2.8359375 C3.11511719 2.91070312 2.28882812 2.98546875 1.4375 3.0625 C0.61378906 3.13210937 -0.20992187 3.20171875 -1.05859375 3.2734375 C-1.74050781 3.41007812 -2.42242187 3.54671875 -3.125 3.6875 C-3.455 4.3475 -3.785 5.0075 -4.125 5.6875 C-4.785 5.6875 -5.445 5.6875 -6.125 5.6875 C-6.785 4.0375 -7.445 2.3875 -8.125 0.6875 C-4.98117176 -0.36044275 -3.25296561 -0.31770947 0 0 Z " fill="#41497A" transform="translate(64.125,52.3125)"/>
<path d="M0 0 C1.1446875 0.12375 1.1446875 0.12375 2.3125 0.25 C1.9825 1.57 1.6525 2.89 1.3125 4.25 C0.3225 4.25 -0.6675 4.25 -1.6875 4.25 C-1.6875 5.24 -1.6875 6.23 -1.6875 7.25 C-3.3375 7.58 -4.9875 7.91 -6.6875 8.25 C-5.9168107 3.93413993 -4.72992724 0.43999323 0 0 Z " fill="#245675" transform="translate(123.6875,76.75)"/>
<path d="M0 0 C3.63 0 7.26 0 11 0 C10.34 1.65 9.68 3.3 9 5 C6.36 4.67 3.72 4.34 1 4 C0.67 2.68 0.34 1.36 0 0 Z " fill="#DFC334" transform="translate(61,60)"/>
<path d="M0 0 C0.66 0.33 1.32 0.66 2 1 C2.91223868 4.29419525 3.40281175 7.63015202 4 11 C0.37 10.67 -3.26 10.34 -7 10 C-5.68 9.34 -4.36 8.68 -3 8 C-0.4345406 5.4345406 -0.45953913 3.52313332 0 0 Z " fill="#382B23" transform="translate(94,93)"/>
<path d="M0 0 C0.99 0.33 1.98 0.66 3 1 C3.33 2.65 3.66 4.3 4 6 C1.36 6 -1.28 6 -4 6 C-4.33 5.34 -4.66 4.68 -5 4 C-4.34 3.01 -3.68 2.02 -3 1 C-2.01 1.33 -1.02 1.66 0 2 C0 1.34 0 0.68 0 0 Z " fill="#82A5CB" transform="translate(106,66)"/>
<path d="M0 0 C0.99 0.33 1.98 0.66 3 1 C3 3.31 3 5.62 3 8 C1.35 8.33 -0.3 8.66 -2 9 C-2.12375 8.195625 -2.2475 7.39125 -2.375 6.5625 C-2.684375 5.2940625 -2.684375 5.2940625 -3 4 C-3.66 3.67 -4.32 3.34 -5 3 C-3.68 3 -2.36 3 -1 3 C-0.67 2.01 -0.34 1.02 0 0 Z " fill="#AA7CCD" transform="translate(142,50)"/>
<path d="M0 0 C-0.57344937 2.86724686 -0.8614515 3.8614515 -3 6 C-4.98 5.34 -6.96 4.68 -9 4 C-9 3.34 -9 2.68 -9 2 C-9.99 1.67 -10.98 1.34 -12 1 C-10.37512529 0.83211627 -8.75009558 0.66573213 -7.125 0.5 C-6.22007813 0.4071875 -5.31515625 0.314375 -4.3828125 0.21875 C-2 0 -2 0 0 0 Z " fill="#56602C" transform="translate(101,118)"/>
<path d="M0 0 C0.66 0 1.32 0 2 0 C2.3125 2.8125 2.3125 2.8125 2 6 C-1.12637446 9.12637446 -4.0934939 9.16954678 -8.3125 9.1875 C-9.87551517 9.13958275 -11.43839515 9.08187055 -13 9 C-13.33 8.34 -13.66 7.68 -14 7 C-13.22914062 6.93941406 -12.45828125 6.87882812 -11.6640625 6.81640625 C-10.66117187 6.73261719 -9.65828125 6.64882812 -8.625 6.5625 C-7.62726563 6.48128906 -6.62953125 6.40007812 -5.6015625 6.31640625 C-3.02072387 6.15034374 -3.02072387 6.15034374 -1 5 C-0.34444881 2.47266765 -0.34444881 2.47266765 0 0 Z " fill="#BAB6BB" transform="translate(115,80)"/>
<path d="M0 0 C1.32 0.66 2.64 1.32 4 2 C4 2.66 4 3.32 4 4 C4.66 4.33 5.32 4.66 6 5 C5.34 5 4.68 5 4 5 C4.33 6.65 4.66 8.3 5 10 C4.01 9.67 3.02 9.34 2 9 C1.67 8.34 1.34 7.68 1 7 C-1.02463255 6.34786708 -1.02463255 6.34786708 -3 6 C-2 4 -1 2 0 0 Z " fill="#DF72A1" transform="translate(131,135)"/>
<path d="M0 0 C0.99 0 1.98 0 3 0 C3 4.29 3 8.58 3 13 C2.67 12.34 2.34 11.68 2 11 C1.01 11 0.02 11 -1 11 C-0.67 7.37 -0.34 3.74 0 0 Z " fill="#294C81" transform="translate(140,59)"/>
<path d="M0 0 C0.33 0 0.66 0 1 0 C1.24887295 2.10192697 1.4734719 4.20673964 1.6875 6.3125 C1.81511719 7.48425781 1.94273438 8.65601562 2.07421875 9.86328125 C2 13 2 13 0.51953125 14.91796875 C0.01808594 15.27503906 -0.48335937 15.63210937 -1 16 C-3.475 15.01 -3.475 15.01 -6 14 C-6 13.67 -6 13.34 -6 13 C-4.35 13 -2.7 13 -1 13 C-0.67 8.71 -0.34 4.42 0 0 Z " fill="#4E6BB3" transform="translate(37,92)"/>
<path d="M0 0 C0 0.99 0 1.98 0 3 C0.99 3 1.98 3 3 3 C2.2890625 4.921875 2.2890625 4.921875 1 7 C-1.1640625 7.828125 -1.1640625 7.828125 -3.625 8.25 C-4.44226563 8.39953125 -5.25953125 8.5490625 -6.1015625 8.703125 C-7.04128906 8.85007812 -7.04128906 8.85007812 -8 9 C-8 8.34 -8 7.68 -8 7 C-6.02 6.34 -4.04 5.68 -2 5 C-2 4.01 -2 3.02 -2 2 C-2.66 1.67 -3.32 1.34 -4 1 C-2 0 -2 0 0 0 Z " fill="#20437C" transform="translate(139,70)"/>
<path d="M0 0 C1.98 0 3.96 0 6 0 C6.66 1.32 7.32 2.64 8 4 C8.66 4 9.32 4 10 4 C9.67 5.32 9.34 6.64 9 8 C5.27885429 5.68462045 2.38770339 3.71420527 0 0 Z " fill="#E43C56" transform="translate(131,134)"/>
<path d="M0 0 C-1.98 2.31 -3.96 4.62 -6 7 C-6.99 6.01 -7.98 5.02 -9 4 C-9 3.01 -9 2.02 -9 1 C-3.375 -1.125 -3.375 -1.125 0 0 Z " fill="#4C131F" transform="translate(124,75)"/>
<path d="M0 0 C0.66 0.33 1.32 0.66 2 1 C1.52797514 5.24822374 -0.96655518 7.19989709 -4 10 C-4.99 9.67 -5.98 9.34 -7 9 C-5.68 8.34 -4.36 7.68 -3 7 C-3.33 5.35 -3.66 3.7 -4 2 C-2.125 0.9375 -2.125 0.9375 0 0 Z " fill="#BBA5DA" transform="translate(155,41)"/>
<path d="M0 0 C1.98 0 3.96 0 6 0 C6.5625 1.9375 6.5625 1.9375 7 4 C6 5 6 5 3.4375 5.0625 C2.2309375 5.0315625 2.2309375 5.0315625 1 5 C0.67 3.35 0.34 1.7 0 0 Z " fill="#1A85B0" transform="translate(88,125)"/>
<path d="M0 0 C0.66 0 1.32 0 2 0 C2 3.63 2 7.26 2 11 C1.01 11.495 1.01 11.495 0 12 C-0.12375 11.195625 -0.2475 10.39125 -0.375 9.5625 C-0.684375 8.2940625 -0.684375 8.2940625 -1 7 C-1.66 6.67 -2.32 6.34 -3 6 C-2.01 4.02 -1.02 2.04 0 0 Z " fill="#4E2E4A" transform="translate(139,117)"/>
<path d="M0 0 C1.32 0 2.64 0 4 0 C5.75 2.5 5.75 2.5 7 5 C5.1875 6.0625 5.1875 6.0625 3 7 C2.01 6.67 1.02 6.34 0 6 C0 4.02 0 2.04 0 0 Z " fill="#E794B5" transform="translate(141,119)"/>
<path d="M0 0 C0.84691406 0.24943359 0.84691406 0.24943359 1.7109375 0.50390625 C4.84158021 1.18239025 7.79156315 0.97211117 10.9765625 0.83984375 C13 1 13 1 15 3 C11.8250906 4.9078584 9.89414789 5.1609041 6.25 4.625 C5.45078125 4.51414062 4.6515625 4.40328125 3.828125 4.2890625 C3.22484375 4.19367188 2.6215625 4.09828125 2 4 C2 3.34 2 2.68 2 2 C1.34 2 0.68 2 0 2 C0 1.34 0 0.68 0 0 Z " fill="#1D331C" transform="translate(65,87)"/>
<path d="M0 0 C0.33 0.99 0.66 1.98 1 3 C-2.20380017 5.13586678 -3.01939967 5.23132175 -6.6875 5.125 C-7.89986328 5.09792969 -7.89986328 5.09792969 -9.13671875 5.0703125 C-10.05904297 5.03550781 -10.05904297 5.03550781 -11 5 C-9 2 -9 2 -7.08984375 1.5234375 C-6.37957031 1.47445312 -5.66929688 1.42546875 -4.9375 1.375 C-1.23149803 1.44379184 -1.23149803 1.44379184 0 0 Z " fill="#806D7B" transform="translate(114,82)"/>
<path d="M0 0 C-2.57784846 2.64752004 -4.91648098 4.94432065 -8 7 C-8 5.68 -8 4.36 -8 3 C-8.66 3 -9.32 3 -10 3 C-10 2.34 -10 1.68 -10 1 C-6.78548731 -0.60725635 -3.56387464 -0.05748185 0 0 Z " fill="#2A8DBA" transform="translate(54,132)"/>
<path d="M0 0 C0.33 0 0.66 0 1 0 C1 2.97 1 5.94 1 9 C-0.32 9.33 -1.64 9.66 -3 10 C-3 7.69 -3 5.38 -3 3 C-2.01 2.67 -1.02 2.34 0 2 C0 1.34 0 0.68 0 0 Z " fill="#9CCBE3" transform="translate(38,108)"/>
<path d="M0 0 C0.99 0 1.98 0 3 0 C2.34 2.31 1.68 4.62 1 7 C0.67 6.34 0.34 5.68 0 5 C-0.66 5 -1.32 5 -2 5 C-2.33 5.99 -2.66 6.98 -3 8 C-3.99 8 -4.98 8 -6 8 C-6 6 -6 6 -3.5625 3.4375 C-2.716875 2.633125 -1.87125 1.82875 -1 1 C-0.67 0.67 -0.34 0.34 0 0 Z " fill="#67B8D8" transform="translate(51,133)"/>
<path d="M0 0 C0.66 0.33 1.32 0.66 2 1 C1.67 3.31 1.34 5.62 1 8 C-1.31 8 -3.62 8 -6 8 C-6 7.01 -6 6.02 -6 5 C-4.35 4.67 -2.7 4.34 -1 4 C-0.67 2.68 -0.34 1.36 0 0 Z " fill="#90D185" transform="translate(79,77)"/>
<path d="M0 0 C0 0.99 0 1.98 0 3 C-2.31 3.66 -4.62 4.32 -7 5 C-6.67 5.99 -6.34 6.98 -6 8 C-6.99 7.67 -7.98 7.34 -9 7 C-8.67 5.35 -8.34 3.7 -8 2 C-2.25 0 -2.25 0 0 0 Z " fill="#85A5DA" transform="translate(37,96)"/>
<path d="M0 0 C2.97 0 5.94 0 9 0 C9 0.99 9 1.98 9 3 C5.7 3 2.4 3 -1 3 C-0.67 2.01 -0.34 1.02 0 0 Z " fill="#2B6538" transform="translate(70,77)"/>
<path d="M0 0 C0.99 0 1.98 0 3 0 C5 3 5 3 5 6 C3.02 6.33 1.04 6.66 -1 7 C-0.7525 6.1028125 -0.7525 6.1028125 -0.5 5.1875 C0.1114124 2.88655664 0.1114124 2.88655664 0 0 Z " fill="#A8D3E7" transform="translate(134,46)"/>
<path d="M0 0 C2.97 0.495 2.97 0.495 6 1 C6 2.32 6 3.64 6 5 C7.4166747 6.7511573 7.4166747 6.7511573 9 8 C6.1875 7.9375 6.1875 7.9375 3 7 C1.5073959 4.72555566 0.85757989 2.62038301 0 0 Z " fill="#A57771" transform="translate(136,110)"/>
<path d="M0 0 C1.4370809 -0.05422947 2.87475462 -0.09289723 4.3125 -0.125 C5.11300781 -0.14820312 5.91351563 -0.17140625 6.73828125 -0.1953125 C9 0 9 0 12 2 C11.67 2.66 11.34 3.32 11 4 C9.35232753 3.71890887 7.70686855 3.42481474 6.0625 3.125 C4.68771484 2.88136719 4.68771484 2.88136719 3.28515625 2.6328125 C2.53105469 2.42398438 1.77695312 2.21515625 1 2 C0.67 1.34 0.34 0.68 0 0 Z " fill="#235C7E" transform="translate(47,119)"/>
<path d="M0 0 C1.5 1.375 1.5 1.375 3 3 C3 3.66 3 4.32 3 5 C2.01 5.33 1.02 5.66 0 6 C-1.70586575 7.62652316 -3.3777546 9.29006566 -5 11 C-5.66 10.67 -6.32 10.34 -7 10 C-5.71937515 8.2925002 -4.38232443 6.62626404 -3 5 C-2.34 5 -1.68 5 -1 5 C-0.67 3.35 -0.34 1.7 0 0 Z " fill="#475E8A" transform="translate(39,102)"/>
<path d="M0 0 C2.75 0.25 2.75 0.25 5 1 C4.67 1.99 4.34 2.98 4 4 C1.36 4 -1.28 4 -4 4 C-2.3125 1.9375 -2.3125 1.9375 0 0 Z " fill="#A4E6F1" transform="translate(126,48)"/>
<path d="M0 0 C2.64 0 5.28 0 8 0 C8.33 0.99 8.66 1.98 9 3 C4.545 3.495 4.545 3.495 0 4 C0 2.68 0 1.36 0 0 Z " fill="#7ED3ED" transform="translate(58,46)"/>
<path d="M0 0 C0.763125 0.474375 1.52625 0.94875 2.3125 1.4375 C4.96410548 3.10106097 4.96410548 3.10106097 8 4 C8 4.66 8 5.32 8 6 C7.01 6 6.02 6 5 6 C4.67 6.99 4.34 7.98 4 9 C4 8.34 4 7.68 4 7 C2.68 6.67 1.36 6.34 0 6 C0.99 5.67 1.98 5.34 3 5 C2.01 4.34 1.02 3.68 0 3 C0 2.01 0 1.02 0 0 Z " fill="#F6F1EA" transform="translate(141,112)"/>
<path d="M0 0 C1.32 0.33 2.64 0.66 4 1 C4 2.98 4 4.96 4 7 C2.68 7.33 1.36 7.66 0 8 C0 5.36 0 2.72 0 0 Z " fill="#3291AA" transform="translate(39,109)"/>
<path d="M0 0 C0.90105469 0.02707031 1.80210938 0.05414063 2.73046875 0.08203125 C3.76107422 0.13423828 3.76107422 0.13423828 4.8125 0.1875 C4.173125 0.496875 3.53375 0.80625 2.875 1.125 C0.87639179 2.0220163 0.87639179 2.0220163 -0.1875 3.1875 C-2.85808851 3.32865161 -5.51182238 3.22997107 -8.1875 3.1875 C-5.67753317 0.01043235 -3.96125134 -0.15433447 0 0 Z " fill="#CF493E" transform="translate(85.1875,88.8125)"/>
<path d="M0 0 C0.33 0.66 0.66 1.32 1 2 C1.66 2 2.32 2 3 2 C3 2.66 3 3.32 3 4 C3.66 4.33 4.32 4.66 5 5 C3.68 6.65 2.36 8.3 1 10 C0.87625 8.865625 0.7525 7.73125 0.625 6.5625 C0.41875 5.386875 0.2125 4.21125 0 3 C-0.66 2.67 -1.32 2.34 -2 2 C-1.34 2 -0.68 2 0 2 C0 1.34 0 0.68 0 0 Z " fill="#271132" transform="translate(64,87)"/>
<path d="M0 0 C3.375 0.3125 3.375 0.3125 7 1 C7.66 1.99 8.32 2.98 9 4 C6.36 4.33 3.72 4.66 1 5 C0.67 3.35 0.34 1.7 0 0 Z " fill="#EFBA8D" transform="translate(38,49)"/>
<path d="M0 0 C0.33 1.32 0.66 2.64 1 4 C-2.82989106 5.80230168 -5.78121808 6.19622241 -10 6 C-9.67 5.34 -9.34 4.68 -9 4 C-6.93359375 3.3671875 -6.93359375 3.3671875 -4.4375 2.875 C-3.61121094 2.70742187 -2.78492188 2.53984375 -1.93359375 2.3671875 C-0.97646484 2.18542969 -0.97646484 2.18542969 0 2 C0 1.34 0 0.68 0 0 Z " fill="#9B822F" transform="translate(139,95)"/>
<path d="M0 0 C0.66 0 1.32 0 2 0 C2 3.63 2 7.26 2 11 C0.50596946 8.01193893 -0.79310745 5.10343799 -2 2 C-1.34 1.34 -0.68 0.68 0 0 Z " fill="#0C2D30" transform="translate(61,116)"/>
<path d="M0 0 C0.99 0.66 1.98 1.32 3 2 C2.67 2.99 2.34 3.98 2 5 C0.35 5 -1.3 5 -3 5 C-3.33 4.01 -3.66 3.02 -4 2 C-2.68 1.34 -1.36 0.68 0 0 Z " fill="#F2E055" transform="translate(93,110)"/>
<path d="M0 0 C1.65 0 3.3 0 5 0 C5 1.32 5 2.64 5 4 C1.25 5.125 1.25 5.125 -1 4 C-0.67 2.68 -0.34 1.36 0 0 Z " fill="#247D9F" transform="translate(77,111)"/>
<path d="M0 0 C2 3.75 2 3.75 2 6 C-3.94 6.495 -3.94 6.495 -10 7 C-10 6.34 -10 5.68 -10 5 C-8.72125 4.9175 -7.4425 4.835 -6.125 4.75 C-3.94666582 4.54130069 -3.94666582 4.54130069 -2 4 C-0.4100567 2.07935207 -0.4100567 2.07935207 0 0 Z " fill="#E4D777" transform="translate(139,99)"/>
<path d="M0 0 C0 1.32 0 2.64 0 4 C-2.31 4.33 -4.62 4.66 -7 5 C-6.6875 3.0625 -6.6875 3.0625 -6 1 C-3 0 -3 0 0 0 Z " fill="#54AFBC" transform="translate(111,60)"/>
<path d="M0 0 C0.33 0 0.66 0 1 0 C1.12375 1.11375 1.2475 2.2275 1.375 3.375 C1.6465813 7.03103677 1.6465813 7.03103677 4 9 C3.01 9.99 2.02 10.98 1 12 C1 11.34 1 10.68 1 10 C0.34 10 -0.32 10 -1 10 C-0.67 6.7 -0.34 3.4 0 0 Z " fill="#3D3158" transform="translate(116,102)"/>
<path d="M0 0 C0.66 0.33 1.32 0.66 2 1 C1.38125 2.0725 0.7625 3.145 0.125 4.25 C-1.3323679 6.79780984 -2.72924491 9.35259355 -4 12 C-4.19491883 7.80924525 -3.93330576 4.75920564 -2 1 C-1.34 0.67 -0.68 0.34 0 0 Z " fill="#2F2242" transform="translate(107,102)"/>
<path d="M0 0 C1.75098126 2.62647188 3.38731308 5.28775382 5 8 C4.34 8.66 3.68 9.32 3 10 C2.34 9.01 1.68 8.02 1 7 C0.01 6.34 -0.98 5.68 -2 5 C-1.34 3.35 -0.68 1.7 0 0 Z " fill="#99337D" transform="translate(92,84)"/>
<path d="M0 0 C0.66 1.32 1.32 2.64 2 4 C-0.22189824 6.22189824 -2.08482708 6.92598892 -5 8 C-3.62845496 5.04590299 -2.01136276 2.55991624 0 0 Z " fill="#BFE3EB" transform="translate(32,132)"/>
<path d="M0 0 C-0.33 1.65 -0.66 3.3 -1 5 C-2.65 5.33 -4.3 5.66 -6 6 C-3.84615385 0 -3.84615385 0 0 0 Z " fill="#5C5B83" transform="translate(65,126)"/>
<path d="M0 0 C1.32 0.66 2.64 1.32 4 2 C2.515 4.475 2.515 4.475 1 7 C-1.13093906 5.93453047 -2.36587557 4.70840281 -4 3 C-2.68 2.67 -1.36 2.34 0 2 C0 1.34 0 0.68 0 0 Z " fill="#A33F45" transform="translate(40,115)"/>
<path d="M0 0 C0.66 0 1.32 0 2 0 C2 2.31 2 4.62 2 7 C1.01 7.33 0.02 7.66 -1 8 C-1.625 5.125 -1.625 5.125 -2 2 C-1.34 1.34 -0.68 0.68 0 0 Z " fill="#4D2163" transform="translate(62,86)"/>
<path d="M0 0 C-1.485 1.485 -1.485 1.485 -3 3 C-2.67 3.66 -2.34 4.32 -2 5 C-2.66 5.66 -3.32 6.32 -4 7 C-4.33 6.01 -4.66 5.02 -5 4 C-5.66 3.67 -6.32 3.34 -7 3 C-6.67 2.01 -6.34 1.02 -6 0 C-3.42525708 -0.99667468 -2.51072708 -1.25536354 0 0 Z " fill="#591B5D" transform="translate(115,89)"/>
<path d="M0 0 C1.98 0 3.96 0 6 0 C6 1.65 6 3.3 6 5 C4.68 5 3.36 5 2 5 C1.34 3.35 0.68 1.7 0 0 Z " fill="#E08193" transform="translate(141,125)"/>
<path d="M0 0 C2.31 0 4.62 0 7 0 C6.34 0.66 5.68 1.32 5 2 C5.3185177 4.10820797 5.3185177 4.10820797 6 6 C5.67 5.34 5.34 4.68 5 4 C2.47266765 3.34444881 2.47266765 3.34444881 0 3 C0 2.01 0 1.02 0 0 Z " fill="#567ABD" transform="translate(29,104)"/>
<path d="M0 0 C1.65 0 3.3 0 5 0 C4.67 2.31 4.34 4.62 4 7 C1.49962266 4.82575883 0.56371414 3.26954202 0 0 Z " fill="#592561" transform="translate(69,97)"/>
<path d="M0 0 C0.66 0 1.32 0 2 0 C2 0.66 2 1.32 2 2 C2.66 2 3.32 2 4 2 C4.33 2.99 4.66 3.98 5 5 C5.66 5.66 6.32 6.32 7 7 C5.68 6.67 4.36 6.34 3 6 C3 5.34 3 4.68 3 4 C1.68 4 0.36 4 -1 4 C-0.67 2.68 -0.34 1.36 0 0 Z " fill="#4C974F" transform="translate(64,74)"/>
<path d="M0 0 C2.475 0.495 2.475 0.495 5 1 C4.34 2.65 3.68 4.3 3 6 C2.01 5.67 1.02 5.34 0 5 C0 3.35 0 1.7 0 0 Z " fill="#96326A" transform="translate(62,66)"/>
<path d="M0 0 C0.99 0.33 1.98 0.66 3 1 C3.6875 3.0625 3.6875 3.0625 4 5 C1.6568787 4.74438677 -0.67843403 4.40729228 -3 4 C-3.33 3.34 -3.66 2.68 -4 2 C-2.68 2 -1.36 2 0 2 C0 1.34 0 0.68 0 0 Z " fill="#D68BBB" transform="translate(50,49)"/>
<path d="M0 0 C0.66 0 1.32 0 2 0 C2 0.66 2 1.32 2 2 C2.66 1.34 3.32 0.68 4 0 C5.32 0 6.64 0 8 0 C7.67 1.65 7.34 3.3 7 5 C4.0625 4.1875 4.0625 4.1875 1 3 C0.67 2.01 0.34 1.02 0 0 Z " fill="#C565B6" transform="translate(121,133)"/>
<path d="M0 0 C0.66 0 1.32 0 2 0 C1.125 4.875 1.125 4.875 0 6 C-1.66617115 6.04063832 -3.33388095 6.042721 -5 6 C-5.33 5.34 -5.66 4.68 -6 4 C-4.35 3.67 -2.7 3.34 -1 3 C-0.67 2.01 -0.34 1.02 0 0 Z " fill="#223C56" transform="translate(95,126)"/>
<path d="M0 0 C0 0.99 0 1.98 0 3 C-3 5 -3 5 -6 5 C-6 4.34 -6 3.68 -6 3 C-6.66 2.67 -7.32 2.34 -8 2 C-5.09399739 0.74335022 -3.20395416 0 0 0 Z " fill="#7F2B86" transform="translate(129,130)"/>
<path d="M0 0 C1.65 0 3.3 0 5 0 C5.33 1.65 5.66 3.3 6 5 C4.68 5.33 3.36 5.66 2 6 C2 4.68 2 3.36 2 2 C1.34 2 0.68 2 0 2 C0 1.34 0 0.68 0 0 Z " fill="#3D5B7B" transform="translate(61,114)"/>
<path d="M0 0 C1.98 0 3.96 0 6 0 C5.67 1.32 5.34 2.64 5 4 C3.02 4 1.04 4 -1 4 C-0.67 2.68 -0.34 1.36 0 0 Z " fill="#B0AFB4" transform="translate(52,109)"/>
<path d="M0 0 C2.475 0.495 2.475 0.495 5 1 C5 2.32 5 3.64 5 5 C4.01 5 3.02 5 2 5 C2 4.34 2 3.68 2 3 C1.34 3 0.68 3 0 3 C0 2.01 0 1.02 0 0 Z " fill="#7BA841" transform="translate(117,104)"/>
<path d="M0 0 C1.65 0 3.3 0 5 0 C4.67 1.32 4.34 2.64 4 4 C2.35 4 0.7 4 -1 4 C-0.67 2.68 -0.34 1.36 0 0 Z " fill="#0F091C" transform="translate(128,79)"/>
<path d="M0 0 C1.65 0 3.3 0 5 0 C5 0.66 5 1.32 5 2 C4.01 2 3.02 2 2 2 C1.67 3.32 1.34 4.64 1 6 C-0.32 5.34 -1.64 4.68 -3 4 C-2.34 4 -1.68 4 -1 4 C-0.67 2.68 -0.34 1.36 0 0 Z " fill="#BD96CE" transform="translate(140,48)"/>
<path d="M0 0 C2.97 0.495 2.97 0.495 6 1 C6 1.99 6 2.98 6 4 C4.35 4 2.7 4 1 4 C0.67 2.68 0.34 1.36 0 0 Z " fill="#44175D" transform="translate(119,128)"/>
<path d="M0 0 C1.98 0.495 1.98 0.495 4 1 C3.67 2.32 3.34 3.64 3 5 C1.68 4.67 0.36 4.34 -1 4 C-0.67 2.68 -0.34 1.36 0 0 Z " fill="#382B72" transform="translate(67,120)"/>
<path d="M0 0 C0.99 0.33 1.98 0.66 3 1 C2.01 3.97 1.02 6.94 0 10 C-0.66 9.67 -1.32 9.34 -2 9 C-1.34 6.03 -0.68 3.06 0 0 Z " fill="#5896B0" transform="translate(41,118)"/>
<path d="M0 0 C0.99 0.33 1.98 0.66 3 1 C3 2.98 3 4.96 3 7 C2.01 7 1.02 7 0 7 C0 4.69 0 2.38 0 0 Z " fill="#5EA436" transform="translate(64,104)"/>
<path d="M0 0 C1.9375 0.375 1.9375 0.375 4 1 C4.33 1.66 4.66 2.32 5 3 C5.99 3 6.98 3 8 3 C8 3.66 8 4.32 8 5 C6.35 5.33 4.7 5.66 3 6 C2.87625 5.195625 2.7525 4.39125 2.625 3.5625 C2.315625 2.2940625 2.315625 2.2940625 2 1 C1.34 0.67 0.68 0.34 0 0 Z " fill="#8E7996" transform="translate(137,53)"/>
<path d="M0 0 C2 2 2 2 2 6 C0.68 5.67 -0.64 5.34 -2 5 C-1.125 1.125 -1.125 1.125 0 0 Z " fill="#344F0D" transform="translate(60,100)"/>
<path d="M0 0 C0.66 0.33 1.32 0.66 2 1 C2 1.99 2 2.98 2 4 C0.69855198 5.04115841 -0.63838689 6.03886134 -2 7 C-2.66 7.99 -3.32 8.98 -4 10 C-3.43454163 6.04179141 -2.19097652 3.3340947 0 0 Z " fill="#231E31" transform="translate(61,95)"/>
<path d="M0 0 C1.32 0 2.64 0 4 0 C4 1.65 4 3.3 4 5 C2.02 4.01 0.04 3.02 -2 2 C-1.34 1.34 -0.68 0.68 0 0 Z " fill="#2D2767" transform="translate(136,81)"/>
<path d="M0 0 C0.99 0 1.98 0 3 0 C3 1.98 3 3.96 3 6 C2.01 6 1.02 6 0 6 C0 4.02 0 2.04 0 0 Z " fill="#2E0F34" transform="translate(45,80)"/>
<path d="M0 0 C0.66 1.32 1.32 2.64 2 4 C1.01 4 0.02 4 -1 4 C-1.33 5.65 -1.66 7.3 -2 9 C-2.97608217 6.07175348 -3.08226668 4.04386724 -3 1 C-2.01 0.67 -1.02 0.34 0 0 Z " fill="#64B372" transform="translate(83,76)"/>
<path d="M0 0 C1.0625 1.875 1.0625 1.875 2 4 C1.67 4.66 1.34 5.32 1 6 C-0.32 5.67 -1.64 5.34 -3 5 C-1.125 1.125 -1.125 1.125 0 0 Z " fill="#411928" transform="translate(59,74)"/>
<path d="M0 0 C1.65 0 3.3 0 5 0 C4.67 1.32 4.34 2.64 4 4 C2.35 4 0.7 4 -1 4 C-0.67 2.68 -0.34 1.36 0 0 Z " fill="#DB75AD" transform="translate(99,77)"/>
<path d="M0 0 C5.75 -0.125 5.75 -0.125 8 1 C8 1.66 8 2.32 8 3 C5.36 2.67 2.72 2.34 0 2 C0 1.34 0 0.68 0 0 Z " fill="#2A0F19" transform="translate(62,64)"/>
<path d="M0 0 C1.2065625 0.0309375 1.2065625 0.0309375 2.4375 0.0625 C1.1175 0.3925 -0.2025 0.7225 -1.5625 1.0625 C-1.8925 2.7125 -2.2225 4.3625 -2.5625 6.0625 C-3.2225 6.0625 -3.8825 6.0625 -4.5625 6.0625 C-3.48963568 0.08511307 -3.48963568 0.08511307 0 0 Z " fill="#B0CBD7" transform="translate(36.5625,124.9375)"/>
<path d="M0 0 C2.475 0.495 2.475 0.495 5 1 C5.33 1.99 5.66 2.98 6 4 C3.03 3.505 3.03 3.505 0 3 C0 2.01 0 1.02 0 0 Z " fill="#377699" transform="translate(84,85)"/>
<path d="M0 0 C0.99 0.33 1.98 0.66 3 1 C2.34 3.31 1.68 5.62 1 8 C0.71125 7.38125 0.4225 6.7625 0.125 6.125 C-0.93720042 3.86674235 -0.93720042 3.86674235 -3 2 C-2.01 1.34 -1.02 0.68 0 0 Z " fill="#691E51" transform="translate(39,80)"/>
<path d="M0 0 C2.475 0.495 2.475 0.495 5 1 C5 1.99 5 2.98 5 4 C3.35 4 1.7 4 0 4 C0 2.68 0 1.36 0 0 Z " fill="#89C2DC" transform="translate(143,58)"/>
<path d="M0 0 C-1.32 1.32 -2.64 2.64 -4 4 C-4.99 3.67 -5.98 3.34 -7 3 C-7 2.34 -7 1.68 -7 1 C-3.375 -1.125 -3.375 -1.125 0 0 Z " fill="#C3C85A" transform="translate(114,55)"/>
<path d="M0 0 C2.125 0.375 2.125 0.375 4 1 C4 2.32 4 3.64 4 5 C3.34 5 2.68 5 2 5 C2 4.34 2 3.68 2 3 C0.68 2.67 -0.64 2.34 -2 2 C-1.34 1.34 -0.68 0.68 0 0 Z " fill="#E8D255" transform="translate(68,55)"/>
</svg>
