<?xml version="1.0" encoding="UTF-8"?>
<svg version="1.1" xmlns="http://www.w3.org/2000/svg" width="180" height="180">
<path d="M0 0 C59.4 0 118.8 0 180 0 C180 59.4 180 118.8 180 180 C120.6 180 61.2 180 0 180 C0 120.6 0 61.2 0 0 Z " fill="#FEFEFE" transform="translate(0,0)"/>
<path d="M0 0 C3.56629415 1.95499024 6.87426053 4.25054626 10.203125 6.58203125 C11.18410156 7.26716797 12.16507813 7.95230469 13.17578125 8.65820312 C14.19027344 9.36912109 15.20476562 10.08003906 16.25 10.8125 C22.5054515 15.19131605 28.75855531 19.55459634 35.16357422 23.71289062 C38.3719317 25.96155596 40.91112651 28.77501733 43.5 31.6875 C45.46470598 33.40661773 47.57792406 34.06843233 50 35 C53.40963646 38.40963646 52.36907187 43.12605578 52.375 47.75 C52.39949219 48.74 52.42398438 49.73 52.44921875 50.75 C52.47368232 56.8495825 52.05990849 60.36222132 48 65 C43.64720777 68.93824059 40.08577904 69.62528727 34.40234375 69.39453125 C30.86664993 68.81387259 28.69472666 67.30037641 26 65 C25.4225 64.54625 24.845 64.0925 24.25 63.625 C20.29033075 58.47742998 20.75468157 52.2704951 20.875 46.125 C20.88402344 45.24585938 20.89304688 44.36671875 20.90234375 43.4609375 C20.92575423 41.3071729 20.9616199 39.15354986 21 37 C20.27941406 36.74089844 19.55882812 36.48179688 18.81640625 36.21484375 C15.87550333 34.94629894 13.53499065 33.42932095 10.9375 31.5625 C10.10089844 30.96566406 9.26429687 30.36882812 8.40234375 29.75390625 C6.86500832 28.6315264 5.34909887 27.47880312 3.86328125 26.2890625 C1.46773249 24.63176462 -0.15033943 24.76252829 -3 25 C-4.38540109 27.77080218 -4.14774147 30.04567148 -4.17358398 33.14624023 C-4.18707382 34.43775497 -4.20056366 35.72926971 -4.21446228 37.05992126 C-4.21952223 37.75212202 -4.22458218 38.44432278 -4.22979546 39.15749931 C-4.24619448 41.32188846 -4.26943121 43.48610314 -4.29469299 45.65040588 C-4.36550257 51.80436526 -4.42561861 57.95839555 -4.47680664 64.11254883 C-4.5085863 67.87562539 -4.54985803 71.63850095 -4.59700203 75.40141487 C-4.61302715 76.83630829 -4.62534638 78.27124801 -4.63390923 79.70620537 C-4.64605362 81.7123322 -4.67123585 83.71836736 -4.69702148 85.72436523 C-4.70732895 86.86638901 -4.71763641 88.00841278 -4.72825623 89.18504333 C-5 92 -5 92 -7 95 C-10.86338829 96.01502462 -14.58596186 95.79738993 -18.078125 93.828125 C-21.68890347 90.8848854 -23.52907395 88.46382013 -25 84 C-25.26742554 80.75712585 -25.26742554 80.75712585 -25.29052734 77.04174805 C-25.29724457 76.36136475 -25.30396179 75.68098145 -25.31088257 74.97998047 C-25.32981148 72.74048468 -25.3337843 70.50128947 -25.3359375 68.26171875 C-25.34236963 66.6961912 -25.3490983 65.13066484 -25.35610962 63.56513977 C-25.36807007 60.28599259 -25.37179178 57.00695065 -25.37060547 53.7277832 C-25.3704025 49.54148882 -25.397687 45.35587496 -25.43214989 41.16974163 C-25.45447272 37.93621265 -25.45844135 34.70284594 -25.45738602 31.46924782 C-25.45973456 29.92678295 -25.46851576 28.38431309 -25.48405075 26.84192467 C-25.63626958 10.16606387 -25.63626958 10.16606387 -19.54037476 3.37358093 C-14.39784792 -1.61709505 -6.64241482 -0.9421865 0 0 Z " fill="#F74B49" transform="translate(53,42)"/>
<path d="M0 0 C5.03359633 2.3843351 8.49996787 5.99993573 11 11 C11.11800423 13.33147852 11.16989863 15.66638255 11.19287109 18.00073242 C11.20513733 19.08158112 11.20513733 19.08158112 11.21765137 20.18426514 C11.24251045 22.57465789 11.25902538 24.9649911 11.2734375 27.35546875 C11.27876118 28.17233973 11.28408485 28.9892107 11.28956985 29.83083534 C11.31630768 34.15715217 11.33567779 38.48344012 11.35009766 42.80981445 C11.36671891 47.27099971 11.41147293 51.7314424 11.4624691 56.19234753 C11.49619202 59.62826853 11.50768072 63.06401468 11.51332474 66.50008583 C11.52002669 68.14389004 11.53522136 69.78768317 11.55921555 71.43132591 C11.75845522 85.9093589 11.75845522 85.9093589 8.58056641 90.47387695 C4.89265008 94.08398767 2.96354055 95.07579771 -2.125 95.25 C-6 95 -6 95 -8 93 C-9.42007595 84.84119225 -9.12403987 76.33967395 -9.0625 68.0859375 C-9.05871338 66.90907379 -9.05492676 65.73221008 -9.05102539 64.51968384 C-9.03892272 60.80474983 -9.02027098 57.08989784 -9 53.375 C-8.97347934 48.44531489 -8.95349167 43.51566666 -8.9375 38.5859375 C-8.92920166 37.45272064 -8.92090332 36.31950378 -8.91235352 35.15194702 C-8.90905029 34.10970978 -8.90574707 33.06747253 -8.90234375 31.99365234 C-8.89710693 31.07498383 -8.89187012 30.15631531 -8.88647461 29.20980835 C-8.85419393 26.95766602 -8.85419393 26.95766602 -10 25 C-16.11949971 25.37562147 -19.37550937 27.24216126 -24.125 31 C-31.64973531 36.87614905 -31.64973531 36.87614905 -36 37 C-36.66 36.34 -37.32 35.68 -38 35 C-38.721875 34.7525 -39.44375 34.505 -40.1875 34.25 C-44.0746629 32.52237204 -46.88521861 29.85446825 -50 27 C-48.5736415 22.72092451 -45.36419386 21.25867153 -41.75 18.875 C-40.28750991 17.8922998 -38.82527392 16.90922134 -37.36328125 15.92578125 C-36.62932129 15.4354541 -35.89536133 14.94512695 -35.13916016 14.43994141 C-32.59802659 12.72941804 -30.08832767 10.97746809 -27.58300781 9.21508789 C-25.97938194 8.091836 -24.36287153 6.98704996 -22.74609375 5.8828125 C-21.17436871 4.80518595 -19.61506303 3.70754275 -18.09765625 2.5546875 C-12.71817789 -1.20700152 -6.2456784 -0.79680691 0 0 Z " fill="#3FB4F6" transform="translate(140,42)"/>
<path d="M0 0 C2.64 0.66 5.28 1.32 8 2 C8 2.66 8 3.32 8 4 C9.32 4.33 10.64 4.66 12 5 C12 5.66 12 6.32 12 7 C12.66 7 13.32 7 14 7 C14 7.66 14 8.32 14 9 C14.825 8.89171875 15.65 8.7834375 16.5 8.671875 C21.37813501 9.12920016 24.13062119 11.39160551 28 14.25 C29.37483318 15.23460797 30.74983063 16.21898662 32.125 17.203125 C32.78072998 17.68015869 33.43645996 18.15719238 34.11206055 18.64868164 C35.8232395 19.87348127 37.57574412 21.04002806 39.33203125 22.19921875 C42.87598745 24.59125947 45.66835827 27.50190306 48.5 30.6875 C50.46470598 32.40661773 52.57792406 33.06843233 55 34 C58.40963646 37.40963646 57.36907187 42.12605578 57.375 46.75 C57.39949219 47.74 57.42398438 48.73 57.44921875 49.75 C57.47368232 55.8495825 57.05990849 59.36222132 53 64 C48.64720777 67.93824059 45.08577904 68.62528727 39.40234375 68.39453125 C35.86664993 67.81387259 33.69472666 66.30037641 31 64 C30.4225 63.54625 29.845 63.0925 29.25 62.625 C25.29033075 57.47742998 25.75468157 51.2704951 25.875 45.125 C25.88402344 44.24585938 25.89304687 43.36671875 25.90234375 42.4609375 C25.92575423 40.3071729 25.9616199 38.15354986 26 36 C25.27683594 35.73832031 24.55367187 35.47664063 23.80859375 35.20703125 C20.92265593 33.96676034 18.61736979 32.50779428 16.0625 30.6875 C15.19496094 30.07003906 14.32742187 29.45257813 13.43359375 28.81640625 C11.42228169 27.31518617 9.51422582 25.7738663 7.625 24.125 C5.24929575 22.20181085 3.98424289 21.34433572 1 21 C0.67 21.66 0.34 22.32 0 23 C0 15.41 0 7.82 0 0 Z " fill="#EF3D72" transform="translate(48,43)"/>
<path d="M0 0 C1.640625 1.09375 1.640625 1.09375 3.828125 3.09375 C1.828125 4.09375 1.828125 4.09375 -0.9921875 3.31640625 C-5.58203125 1.70507812 -5.58203125 1.70507812 -10.171875 0.09375 C-10.13085411 0.95824013 -10.13085411 0.95824013 -10.08900452 1.8401947 C-9.23140569 20.35966324 -8.8854619 38.87041061 -8.63964844 57.40545654 C-8.58832207 61.2215101 -8.53323196 65.03750944 -8.47851562 68.85351562 C-8.37274426 76.2668805 -8.27094179 83.68029217 -8.171875 91.09375 C-4.75281268 91.82353305 -1.67317371 92.19378711 1.828125 92.09375 C-0.171875 94.09375 -0.171875 94.09375 -2.046875 94.359375 C-2.748125 94.35421875 -3.449375 94.3490625 -4.171875 94.34375 C-4.873125 94.34890625 -5.574375 94.3540625 -6.296875 94.359375 C-8.171875 94.09375 -8.171875 94.09375 -10.171875 92.09375 C-11.59195095 83.93494225 -11.29591487 75.43342395 -11.234375 67.1796875 C-11.23058838 66.00282379 -11.22680176 64.82596008 -11.22290039 63.61343384 C-11.21079772 59.89849983 -11.19214598 56.18364784 -11.171875 52.46875 C-11.14535434 47.53906489 -11.12536667 42.60941666 -11.109375 37.6796875 C-11.10107666 36.54647064 -11.09277832 35.41325378 -11.08422852 34.24569702 C-11.08092529 33.20345978 -11.07762207 32.16122253 -11.07421875 31.08740234 C-11.06898193 30.16873383 -11.06374512 29.25006531 -11.05834961 28.30355835 C-11.02606893 26.05141602 -11.02606893 26.05141602 -12.171875 24.09375 C-18.29137471 24.46937147 -21.54738437 26.33591126 -26.296875 30.09375 C-33.82161031 35.96989905 -33.82161031 35.96989905 -38.171875 36.09375 C-38.831875 35.43375 -39.491875 34.77375 -40.171875 34.09375 C-40.89375 33.84625 -41.615625 33.59875 -42.359375 33.34375 C-46.2465379 31.61612204 -49.05709361 28.94821825 -52.171875 26.09375 C-50.7455165 21.81467451 -47.53606886 20.35242153 -43.921875 17.96875 C-42.45938491 16.9860498 -40.99714892 16.00297134 -39.53515625 15.01953125 C-38.80119629 14.5292041 -38.06723633 14.03887695 -37.31103516 13.53369141 C-34.76990159 11.82316804 -32.26020267 10.07121809 -29.75488281 8.30883789 C-28.15125694 7.185586 -26.53474653 6.08079996 -24.91796875 4.9765625 C-23.34624371 3.89893595 -21.78693803 2.80129275 -20.26953125 1.6484375 C-14.75779971 -2.20573174 -6.1492851 -2.56588874 0 0 Z " fill="#4C8DEB" transform="translate(142.171875,42.90625)"/>
<path d="M0 0 C2.62901288 1.52206009 4.84365964 2.84365964 7 5 C8.2375 5.495 8.2375 5.495 9.5 6 C12 7 12 7 14 9 C14.48103247 12.56206566 14.37039635 16.15915587 14.375 19.75 C14.39949219 20.74 14.42398438 21.73 14.44921875 22.75 C14.47368232 28.8495825 14.05990849 32.36222132 10 37 C5.64720777 40.93824059 2.08577904 41.62528727 -3.59765625 41.39453125 C-7.13335007 40.81387259 -9.30527334 39.30037641 -12 37 C-12.5775 36.54625 -13.155 36.0925 -13.75 35.625 C-17.70966925 30.47742998 -17.24531843 24.2704951 -17.125 18.125 C-17.11597656 17.24585937 -17.10695313 16.36671875 -17.09765625 15.4609375 C-17.07424577 13.3071729 -17.0383801 11.15354986 -17 9 C-17.804375 8.71125 -18.60875 8.4225 -19.4375 8.125 C-22 7 -22 7 -23 5 C-20.69 5.66 -18.38 6.32 -16 7 C-15.67 8.65 -15.34 10.3 -15 12 C-14.41992188 12.17015625 -13.83984375 12.3403125 -13.2421875 12.515625 C-8.19643129 14.08097511 -4.24044994 15.84684491 0 19 C0 18.34 0 17.68 0 17 C2.23699577 15.37761317 4.57697539 13.9771559 6.93359375 12.53515625 C9.28739757 11.09271887 9.28739757 11.09271887 10 8 C9.278125 7.7525 8.55625 7.505 7.8125 7.25 C4.72393418 5.87730408 2.48988582 4.27646704 0 2 C0 1.34 0 0.68 0 0 Z " fill="#E93F80" transform="translate(91,70)"/>
<path d="M0 0 C2.62890625 1.33203125 2.62890625 1.33203125 5 3 C5.81082031 3.52980469 6.62164062 4.05960938 7.45703125 4.60546875 C8.23433594 5.12753906 9.01164062 5.64960937 9.8125 6.1875 C10.60269531 6.71730469 11.39289063 7.24710938 12.20703125 7.79296875 C12.79871094 8.19128906 13.39039063 8.58960938 14 9 C13.34 9.66 12.68 10.32 12 11 C11.01 10.67 10.02 10.34 9 10 C9 9.34 9 8.68 9 8 C8.34 8 7.68 8 7 8 C7 7.34 7 6.68 7 6 C5.68 5.67 4.36 5.34 3 5 C3 4.34 3 3.68 3 3 C-6.46677735 0.90597722 -6.46677735 0.90597722 -15.38671875 3.4921875 C-19.22906182 6.81383543 -19.22906182 6.81383543 -22 11 C-22.10772013 13.35288428 -22.14893902 15.70889173 -22.16113281 18.06420898 C-22.16609772 18.79119995 -22.17106262 19.51819092 -22.17617798 20.26721191 C-22.19080674 22.67684874 -22.19760223 25.08641978 -22.203125 27.49609375 C-22.20887521 29.16756696 -22.21463296 30.83904015 -22.22039795 32.51051331 C-22.23090952 36.01685901 -22.23675138 39.52318177 -22.24023438 43.02954102 C-22.24572402 47.52678399 -22.26976126 52.02372493 -22.29820633 56.52087307 C-22.31681006 59.9737894 -22.32203706 63.42663258 -22.32357025 66.8795948 C-22.3266017 68.53782874 -22.33464674 70.19606124 -22.34775543 71.85424614 C-22.36477151 74.17186503 -22.36294712 76.48874083 -22.35644531 78.80639648 C-22.36009094 80.12606918 -22.36373657 81.44574188 -22.36749268 82.80540466 C-22.29016201 85.952415 -22.29016201 85.952415 -20.60272217 87.76210022 C-19.80937469 88.37486061 -19.80937469 88.37486061 -19 89 C-18.34 89.99 -17.68 90.98 -17 92 C-14.03 92 -11.06 92 -8 92 C-7.67 69.56 -7.34 47.12 -7 24 C-6.01 24 -5.02 24 -4 24 C-4 23.34 -4 22.68 -4 22 C-2.35 22.33 -0.7 22.66 1 23 C0.360625 23.28875 -0.27875 23.5775 -0.9375 23.875 C-3.15206079 24.82823451 -3.15206079 24.82823451 -4 27 C-4.11021903 29.04659789 -4.15650194 31.09674777 -4.17358398 33.14624023 C-4.18707382 34.43775497 -4.20056366 35.72926971 -4.21446228 37.05992126 C-4.21952223 37.75212202 -4.22458218 38.44432278 -4.22979546 39.15749931 C-4.24619448 41.32188846 -4.26943121 43.48610314 -4.29469299 45.65040588 C-4.36550257 51.80436526 -4.42561861 57.95839555 -4.47680664 64.11254883 C-4.5085863 67.87562539 -4.54985803 71.63850095 -4.59700203 75.40141487 C-4.61302715 76.83630829 -4.62534638 78.27124801 -4.63390923 79.70620537 C-4.64605362 81.7123322 -4.67123585 83.71836736 -4.69702148 85.72436523 C-4.70732895 86.86638901 -4.71763641 88.00841278 -4.72825623 89.18504333 C-5 92 -5 92 -7 95 C-10.86338829 96.01502462 -14.58596186 95.79738993 -18.078125 93.828125 C-21.68890347 90.8848854 -23.52907395 88.46382013 -25 84 C-25.26742554 80.75712585 -25.26742554 80.75712585 -25.29052734 77.04174805 C-25.29724457 76.36136475 -25.30396179 75.68098145 -25.31088257 74.97998047 C-25.32981148 72.74048468 -25.3337843 70.50128947 -25.3359375 68.26171875 C-25.34236963 66.6961912 -25.3490983 65.13066484 -25.35610962 63.56513977 C-25.36807007 60.28599259 -25.37179178 57.00695065 -25.37060547 53.7277832 C-25.3704025 49.54148882 -25.397687 45.35587496 -25.43214989 41.16974163 C-25.45447272 37.93621265 -25.45844135 34.70284594 -25.45738602 31.46924782 C-25.45973456 29.92678295 -25.46851576 28.38431309 -25.48405075 26.84192467 C-25.63626958 10.16606387 -25.63626958 10.16606387 -19.54037476 3.37358093 C-14.39784792 -1.61709505 -6.64241482 -0.9421865 0 0 Z " fill="#C5565C" transform="translate(53,42)"/>
<path d="M0 0 C2.62901288 1.52206009 4.84365964 2.84365964 7 5 C8.2375 5.495 8.2375 5.495 9.5 6 C12 7 12 7 14 9 C14.48103247 12.56206566 14.37039635 16.15915587 14.375 19.75 C14.39949219 20.74 14.42398438 21.73 14.44921875 22.75 C14.47368232 28.8495825 14.05990849 32.36222132 10 37 C5.64790998 40.93760526 2.09378809 41.6121615 -3.5859375 41.40625 C-7.2220699 40.79434422 -9.20277652 39.35555661 -12 37 C-11.01 36.505 -11.01 36.505 -10 36 C-8.948125 36.495 -7.89625 36.99 -6.8125 37.5 C-2.93748363 39.27537361 -0.16268016 39.06107533 4 38 C4.66 37.34 5.32 36.68 6 36 C6.99 36 7.98 36 9 36 C9.964407 32.01067912 9.964407 32.01067912 10 28 C7.90877267 25.19353205 5.11655262 23.55827631 2 22 C3.52012833 18.54516288 5.62614635 15.68504536 7.87890625 12.68359375 C9.18551179 10.88113235 9.18551179 10.88113235 10 8 C9.278125 7.7525 8.55625 7.505 7.8125 7.25 C4.72393418 5.87730408 2.48988582 4.27646704 0 2 C0 1.34 0 0.68 0 0 Z " fill="#B9467F" transform="translate(91,70)"/>
<path d="M0 0 C2.31 0.66 4.62 1.32 7 2 C7.33 3.65 7.66 5.3 8 7 C8.5775 7.0825 9.155 7.165 9.75 7.25 C12.63404148 8.21134716 13.93681647 9.80370785 16 12 C16.99 12.66 17.98 13.32 19 14 C18.875 15.75 18.875 15.75 18 18 C15.03950471 20.25255076 12.5319632 21.82267893 9 23 C9.66 25.64 10.32 28.28 11 31 C7.24258395 28.49505597 7.02171439 27.3495841 6 23 C5.77712905 19.70236165 5.81033033 16.42812784 5.875 13.125 C5.88402344 12.24585937 5.89304687 11.36671875 5.90234375 10.4609375 C5.92575423 8.3071729 5.9616199 6.15354986 6 4 C5.195625 3.71125 4.39125 3.4225 3.5625 3.125 C1 2 1 2 0 0 Z " fill="#BB4C80" transform="translate(68,75)"/>
<path d="M0 0 C2.62890625 1.33203125 2.62890625 1.33203125 5 3 C5.81082031 3.52980469 6.62164062 4.05960938 7.45703125 4.60546875 C8.23433594 5.12753906 9.01164062 5.64960937 9.8125 6.1875 C10.60269531 6.71730469 11.39289063 7.24710938 12.20703125 7.79296875 C12.79871094 8.19128906 13.39039063 8.58960938 14 9 C13.34 9.66 12.68 10.32 12 11 C11.01 10.67 10.02 10.34 9 10 C9 9.34 9 8.68 9 8 C8.34 8 7.68 8 7 8 C7 7.34 7 6.68 7 6 C5.68 5.67 4.36 5.34 3 5 C3 4.34 3 3.68 3 3 C-6.39904547 0.95194386 -6.39904547 0.95194386 -15.3515625 3.3515625 C-19.64333185 6.89422302 -21.49018426 9.59501284 -23 15 C-23.32280565 18.31127518 -23.32280565 18.31127518 -23.31884766 21.83154297 C-23.32889328 22.48590836 -23.3389389 23.14027374 -23.34928894 23.81446838 C-23.37994662 25.95703325 -23.39710683 28.0994742 -23.4140625 30.2421875 C-23.43278823 31.73577935 -23.45236269 33.22936078 -23.4727478 34.72293091 C-23.52392678 38.63877194 -23.56362827 42.55464721 -23.60089111 46.47064209 C-23.6410204 50.47270073 -23.69207188 54.47461866 -23.7421875 58.4765625 C-23.83877807 66.31761197 -23.92323635 74.15873147 -24 82 C-24.33 82 -24.66 82 -25 82 C-25.09293193 73.14175388 -25.16388192 64.28367717 -25.20724869 55.42504883 C-25.2280691 51.31102198 -25.25628411 47.19733017 -25.30175781 43.08349609 C-25.34541523 39.10882299 -25.36917877 35.1344709 -25.37950897 31.15957642 C-25.38686487 29.64778596 -25.401229 28.13601186 -25.42292023 26.62435913 C-25.64933019 10.18289812 -25.64933019 10.18289812 -19.5401001 3.37255859 C-14.39641663 -1.61649268 -6.64256858 -0.94220831 0 0 Z " fill="#AE5660" transform="translate(53,42)"/>
<path d="M0 0 C4.93819585 4.77889921 4.93819585 4.77889921 5.15390015 9.04069519 C5.16676056 10.34750748 5.17962097 11.65431976 5.19287109 13.00073242 C5.20104858 13.72129822 5.20922607 14.44186401 5.21765137 15.18426514 C5.24251045 17.57465789 5.25902538 19.9649911 5.2734375 22.35546875 C5.27876118 23.17233973 5.28408485 23.9892107 5.28956985 24.83083534 C5.31630768 29.15715217 5.33567779 33.48344012 5.35009766 37.80981445 C5.36671891 42.27099971 5.41147293 46.7314424 5.4624691 51.19234753 C5.49619202 54.62826853 5.50768072 58.06401468 5.51332474 61.50008583 C5.52002669 63.14389004 5.53522136 64.78768317 5.55921555 66.43132591 C5.75839483 80.90497078 5.75839483 80.90497078 2.59228516 85.5637207 C0 88 0 88 -2 88 C-1.67 86.68 -1.34 85.36 -1 84 C-0.34 84 0.32 84 1 84 C2.63181102 74.67536562 3.15953988 65.80150126 3.16796875 56.33984375 C3.17129715 55.03600235 3.17462555 53.73216095 3.17805481 52.3888092 C3.18401109 49.64127778 3.18589816 46.89377765 3.18530273 44.14624023 C3.18520091 40.6405797 3.19889011 37.13512074 3.21607494 33.62950802 C3.22991312 30.26211708 3.22928444 26.89476272 3.23046875 23.52734375 C3.23765427 22.27614243 3.24483978 21.0249411 3.25224304 19.73582458 C3.23659004 13.7582996 3.07479849 8.62607249 1 3 C0.67 2.01 0.34 1.02 0 0 Z " fill="#55A3D0" transform="translate(146,47)"/>
<path d="M0 0 C0.33 0 0.66 0 1 0 C1.00586624 0.88283157 1.01173248 1.76566315 1.01777649 2.67524719 C1.0756447 10.98911402 1.14768737 19.3027105 1.23571491 27.61631489 C1.28047088 31.8905938 1.31971524 36.16477625 1.34643555 40.43920898 C1.37241673 44.56315422 1.41278169 48.68672926 1.46318626 52.81044579 C1.47989023 54.38488351 1.4913825 55.95938531 1.49761391 57.53389931 C1.50721706 59.73694428 1.53522844 61.93903462 1.56762695 64.1418457 C1.57873001 65.39649124 1.58983307 66.65113678 1.60127258 67.94380188 C2.03627328 71.27803033 2.44389799 71.98633591 5 74 C5.66 74.99 6.32 75.98 7 77 C10.69399452 77.90297644 14.20818106 78.11152409 18 78 C17.67 78.66 17.34 79.32 17 80 C13.05259762 80.48335539 9.51754701 80.79287569 5.9140625 78.91015625 C1.49866418 75.39833101 0.33897414 72.54217723 -1 67 C-1.20254517 63.61463928 -1.20254517 63.61463928 -1.13525391 60.05493164 C-1.12579239 59.40042023 -1.11633087 58.74590881 -1.10658264 58.07156372 C-1.0732285 55.9341232 -1.02502914 53.79730278 -0.9765625 51.66015625 C-0.95036181 50.16802026 -0.92509755 48.67586756 -0.90072632 47.18370056 C-0.83440375 43.27581462 -0.75544182 39.36828456 -0.67376709 35.46069336 C-0.59252451 31.46546989 -0.52334575 27.47003907 -0.453125 23.47460938 C-0.31383122 15.6494884 -0.16117239 7.82470419 0 0 Z " fill="#DA5956" transform="translate(29,57)"/>
<path d="M0 0 C0.66 0.33 1.32 0.66 2 1 C-3.82724879 7.40997367 -11.09839502 12.46507145 -19 16 C-18.236875 16.7425 -17.47375 17.485 -16.6875 18.25 C-14.5606298 20.4263323 -12.7440044 22.52167796 -11 25 C-16.35152885 24.67566492 -19.28280043 21.50295176 -23 18 C-21.89128048 14.67384145 -21.39733838 14.30519671 -18.61328125 12.44140625 C-17.5759082 11.73854492 -17.5759082 11.73854492 -16.51757812 11.02148438 C-15.42606445 10.29928711 -15.42606445 10.29928711 -14.3125 9.5625 C-13.60416016 9.08490234 -12.89582031 8.60730469 -12.16601562 8.11523438 C-10.11600337 6.73530923 -8.05918635 5.36618606 -6 4 C-4.82667 3.21767721 -3.65347485 2.43515211 -2.48046875 1.65234375 C-1.66191406 1.10707031 -0.84335938 0.56179687 0 0 Z " fill="#5684D4" transform="translate(113,51)"/>
<path d="M0 0 C4.10958767 1.45044271 7.43258745 3.51110752 11 6 C11 5.34 11 4.68 11 4 C12.96147874 2.61061923 14.96166576 1.2739589 17 0 C17.66 0.33 18.32 0.66 19 1 C16.03 4.96 16.03 4.96 13 9 C15.475 9.99 15.475 9.99 18 11 C15.18185434 12.40907283 13.82722796 11.50872691 10.875 10.5625 C9.96492188 10.27503906 9.05484375 9.98757812 8.1171875 9.69140625 C7.41851562 9.46324219 6.71984375 9.23507813 6 9 C6 8.01 6 7.02 6 6 C4.01924973 4.63823419 2.01920337 3.30406884 0 2 C0 1.34 0 0.68 0 0 Z " fill="#D83F7E" transform="translate(80,83)"/>
<path d="M0 0 C5.30649341 2.94573059 10.36248285 6.14235708 15.375 9.5625 C16.45974609 10.28469727 16.45974609 10.28469727 17.56640625 11.02148438 C18.25347656 11.49005859 18.94054687 11.95863281 19.6484375 12.44140625 C20.26895996 12.86107666 20.88948242 13.28074707 21.52880859 13.71313477 C23 15 23 15 24 18 C22.68 17.67 21.36 17.34 20 17 C20 16.34 20 15.68 20 15 C19.071875 14.731875 18.14375 14.46375 17.1875 14.1875 C14.14311405 13.053317 13.10288378 12.30315842 11 10 C10.01 9.67 9.02 9.34 8 9 C8 8.34 8 7.68 8 7 C6.8553125 6.5978125 6.8553125 6.5978125 5.6875 6.1875 C3.11011382 5.04865495 1.73045136 4.18583329 0 2 C0 1.34 0 0.68 0 0 Z " fill="#BA5379" transform="translate(67,52)"/>
<path d="M0 0 C0.66 0 1.32 0 2 0 C1.77347501 3.17134992 0.9392256 4.05609944 -1.4375 6.25 C-6.09524261 8.53801391 -9.89623947 8.85888527 -15 8 C-17.3986335 6.90023128 -18.95873215 5.7189624 -21 4 C-20.34 3.67 -19.68 3.34 -19 3 C-17.948125 3.495 -16.89625 3.99 -15.8125 4.5 C-11.93748363 6.27537361 -9.16268016 6.06107533 -5 5 C-4.34 4.34 -3.68 3.68 -3 3 C-2.01 3 -1.02 3 0 3 C0 2.01 0 1.02 0 0 Z " fill="#BB4D7D" transform="translate(100,103)"/>
<path d="M0 0 C0.33 0 0.66 0 1 0 C1.103125 0.928125 1.20625 1.85625 1.3125 2.8125 C2.03120949 6.14469855 2.49549152 6.89621288 5 9 C5.99 10.485 5.99 10.485 7 12 C10.69399452 12.90297644 14.20818106 13.11152409 18 13 C17.67 13.66 17.34 14.32 17 15 C13.05259762 15.48335539 9.51754701 15.79287569 5.9140625 13.91015625 C1.58240448 10.46493457 -0.1613801 7.45102932 -1 2 C-0.67 1.34 -0.34 0.68 0 0 Z " fill="#BD6064" transform="translate(29,122)"/>
<path d="M0 0 C0 0.99 0 1.98 0 3 C1.6222454 4.70993434 3.29413425 6.37347684 5 8 C6.02813611 9.31175986 7.04084432 10.6369893 8 12 C2.64847115 11.67566492 -0.28280043 8.50295176 -4 5 C-3 2 -3 2 0 0 Z " fill="#787AC6" transform="translate(94,64)"/>
<path d="M0 0 C0.33 0 0.66 0 1 0 C1.34980257 6.43895834 1.25690573 11.33057151 -2 17 C-2.99 17.33 -3.98 17.66 -5 18 C-4.67 16.68 -4.34 15.36 -4 14 C-3.34 14 -2.68 14 -2 14 C-1.18537505 9.34500026 -0.56606279 4.69023454 0 0 Z " fill="#55ABDB" transform="translate(149,117)"/>
<path d="M0 0 C-2.48017502 1.55896716 -4.82876831 2.93317788 -7.5625 4 C-10.07017951 5.02879159 -11.90709098 6.29466672 -14 8 C-14.66 7.67 -15.32 7.34 -16 7 C-14.75312408 6.03760548 -13.50235031 5.08025991 -12.25 4.125 C-11.55390625 3.59132813 -10.8578125 3.05765625 -10.140625 2.5078125 C-4.36640472 -1.55943026 -4.36640472 -1.55943026 0 0 Z " fill="#5883CD" transform="translate(131,43)"/>
<path d="M0 0 C2.62901288 1.52206009 4.84365964 2.84365964 7 5 C8.64991582 5.70710678 10.31562256 6.37943989 12 7 C12 8.32 12 9.64 12 11 C11.34 11 10.68 11 10 11 C10 10.01 10 9.02 10 8 C9.278125 7.7525 8.55625 7.505 7.8125 7.25 C4.72393418 5.87730408 2.48988582 4.27646704 0 2 C0 1.34 0 0.68 0 0 Z " fill="#D3498D" transform="translate(91,70)"/>
<path d="M0 0 C1.98 0 3.96 0 6 0 C2 2.66666667 -2 5.33333333 -6 8 C-6.33 7.01 -6.66 6.02 -7 5 C-6.34 5 -5.68 5 -5 5 C-5 4.34 -5 3.68 -5 3 C-3.68 3 -2.36 3 -1 3 C-0.67 2.01 -0.34 1.02 0 0 Z " fill="#5C84C7" transform="translate(122,65)"/>
<path d="M0 0 C6.26079448 -0.43177893 9.09075703 0.07260562 14 4 C12 5 12 5 9.1796875 4.22265625 C8.08914062 3.83980469 6.99859375 3.45695312 5.875 3.0625 C4.77929688 2.68222656 3.68359375 2.30195312 2.5546875 1.91015625 C1.71164063 1.60980469 0.86859375 1.30945312 0 1 C0 0.67 0 0.34 0 0 Z " fill="#56A3D2" transform="translate(132,42)"/>
<path d="M0 0 C1.32 0.33 2.64 0.66 4 1 C2.76055724 1.86941494 1.50792941 2.72005457 0.25 3.5625 C-0.44609375 4.03816406 -1.1421875 4.51382813 -1.859375 5.00390625 C-4 6 -4 6 -6.203125 5.77734375 C-8 5 -8 5 -9 3 C-6.525 3.495 -6.525 3.495 -4 4 C-4 3.34 -4 2.68 -4 2 C-2.68 2 -1.36 2 0 2 C0 1.34 0 0.68 0 0 Z " fill="#5C7BC1" transform="translate(111,73)"/>
<path d="M0 0 C3.94876098 0.56410871 6.75634176 1.65735794 10 4 C10.33 4.99 10.66 5.98 11 7 C9.68 6.67 8.36 6.34 7 6 C7 5.34 7 4.68 7 4 C6.030625 3.71125 5.06125 3.4225 4.0625 3.125 C1 2 1 2 0 0 Z " fill="#C55083" transform="translate(80,63)"/>
<path d="M0 0 C3.24208567 0.35049575 4.61527704 0.56221181 6.8125 3.0625 C7.204375 3.701875 7.59625 4.34125 8 5 C4.75791433 4.64950425 3.38472296 4.43778819 1.1875 1.9375 C0.795625 1.298125 0.40375 0.65875 0 0 Z " fill="#9467BB" transform="translate(94,71)"/>
</svg>
